<?xml version="1.0" encoding="utf-8"?>
<!-- Generator: Adobe Illustrator 16.0.0, SVG Export Plug-In . SVG Version: 6.00 Build 0)  -->
<!DOCTYPE svg PUBLIC "-//W3C//DTD SVG 1.1//EN" "http://www.w3.org/Graphics/SVG/1.1/DTD/svg11.dtd">
<svg version="1.1" id="Layer_1" xmlns="http://www.w3.org/2000/svg" xmlns:xlink="http://www.w3.org/1999/xlink" x="0px" y="0px"
	 width="20px" height="20px" viewBox="0 0 20 20" enable-background="new 0 0 20 20" xml:space="preserve">
<path fill="#231F20" d="M18.062,15.614L12.447,10l5.643-5.642c0.402-0.403,0.674-1.742-0.017-2.434c-0.79-0.791-1.999-0.388-2.387,0
	l-5.658,5.658L4.357,1.911C3.955,1.507,2.616,1.236,1.924,1.927c-0.791,0.79-0.388,1.999-0.001,2.386L7.61,10l-5.66,5.659
	c-0.387,0.388-0.79,1.597,0.032,2.419c0.791,0.79,2,0.387,2.403-0.016l5.644-5.644l5.63,5.63c0.388,0.388,1.597,0.79,2.419-0.031
	C18.868,17.228,18.465,16.018,18.062,15.614z"/>
</svg>
