<?xml version="1.0" encoding="utf-8"?>
<!-- Generator: Adobe Illustrator 17.1.0, SVG Export Plug-In . SVG Version: 6.00 Build 0)  -->
<!DOCTYPE svg PUBLIC "-//W3C//DTD SVG 1.1//EN" "http://www.w3.org/Graphics/SVG/1.1/DTD/svg11.dtd">
<svg version="1.1" id="Camada_1" xmlns="http://www.w3.org/2000/svg" xmlns:xlink="http://www.w3.org/1999/xlink" x="0px" y="0px"
	 viewBox="0 0 512 512" enable-background="new 0 0 512 512" xml:space="preserve">
<path id="email-11-icon" fill="#6EBF67" d="M373.9,148c-2.8,9.3-11.1,37.5-13.4,47.7l-27.8,102.9c-1.4,5.1-1.9,9.7-1.9,13.9
	c0,7.4,4.2,11.6,12,11.6c8.8,0,19.9-4.6,29.2-12c22.7-17.6,37.5-51.9,37.5-87.6c0-42.6-19.9-79.7-53.3-100.6
	c-20.9-12.5-50.1-19.5-83-19.5c-97.8,0-166.4,64.9-166.4,156.6c0,89,61.6,147.4,154.8,147.4c24.1,0,49.6-3.7,70.9-10.2
	c18.1-5.6,29.7-11.1,51.9-24.6l28.3,40.8c-25,14.8-36.1,20.4-57.9,26.9c-31.5,9.7-64.9,14.8-98.2,14.8
	c-65.3,0-116.3-18.5-152.9-55.1C69,366.8,50,317.6,50,263.9c0-57.5,19.5-107.1,56.5-144.6c42.6-42.6,98.7-63.5,170.5-63.5
	c108,0,184.9,69.5,184.9,166.4c0,43.6-15.8,83.4-44,111.7c-24.1,24.1-55.6,38-86.7,38c-18.1,0-32.9-7-39.9-18.1
	c-2.3-3.7-2.8-6-4.2-14.4c-17.6,20.4-36.1,29.2-62.1,29.2c-45.9,0-75.1-34.3-75.1-87.1c0-78.3,51.4-143.2,113.1-143.2
	c26,0,38.9,6.5,51.4,26l4.6-16.2L373.9,148L373.9,148z M278.5,285.7c11.1-21.8,18.5-50.1,18.5-71.4c0-19-10.7-32-26.9-32
	c-17.6,0-33.8,11.6-45.4,33.4c-11.1,20.9-18.5,48.2-18.5,69.5c0,24.6,9.3,37.5,26.9,37.5C250.2,322.7,266.4,309.3,278.5,285.7z"/>
</svg>
