<?xml version="1.0" encoding="utf-8"?>
<!-- Generator: Adobe Illustrator 16.0.0, SVG Export Plug-In . SVG Version: 6.00 Build 0)  -->
<!DOCTYPE svg PUBLIC "-//W3C//DTD SVG 1.1//EN" "http://www.w3.org/Graphics/SVG/1.1/DTD/svg11.dtd">
<svg version="1.1" id="Layer_1" xmlns="http://www.w3.org/2000/svg" xmlns:xlink="http://www.w3.org/1999/xlink" x="0px" y="0px"
	 width="1220px" height="820px" viewBox="0 0 1220 820" enable-background="new 0 0 1220 820" xml:space="preserve">
<g>
	<path fill-rule="evenodd" clip-rule="evenodd" fill="#F1F2F2" d="M529.498,565.614c1.06-3.934,0.481-7.459,0.497-10.94
		c0.045-9.591-0.084-19.183-0.126-28.774c-0.044-10.07-0.139-20.142-0.069-30.212c0.041-6.063,0.418-12.125,0.526-18.188
		c0.15-8.475,0.212-16.95,0.243-25.425c0.004-0.894-0.457-1.787-0.715-2.724c-3.203-0.446-6.227-0.11-9.238,0.074
		c-7.658,0.47-15.336,0.793-22.963,1.587c-6.861,0.715-13.721,0.834-20.595,0.943c-1.577,0.025-3.151,0.204-4.707,0.311
		c-0.936,1.852-0.829,3.636-0.915,5.348c-0.224,4.473-0.365,8.95-0.477,13.427c-0.109,4.312-0.234,8.606-0.66,12.917
		c-0.581,5.879-0.474,11.806,0.258,17.708c0.273,2.207,0.238,4.467,0.18,6.698c-0.15,5.739-0.414,11.476-0.575,17.214
		c-0.026,0.93,0.22,1.872,0.39,2.801c0.085,0.461,0.361,0.894,0.412,1.354c0.307,2.794-1.244,4.687-4.043,4.755
		c-3.677,0.089-7.357,0.011-11.035,0.049c-7.191,0.074-14.393-0.099-21.551,0.854c-0.788,0.104-1.596,0.072-2.395,0.076
		c-16.784,0.086-33.566,0.181-50.351,0.248c-9.755,0.04-19.528-0.343-29.259,0.152c-10.399,0.53-20.768-0.208-31.146,0.049
		c-9.906,0.246-19.819,0.378-29.715,0.867c-8.773,0.435-17.525,1.302-26.288,1.96c-3.189,0.239-6.418,0.197-9.566,0.685
		c-8.245,1.277-16.607,0.502-24.856,1.604c-1.893,0.254-3.838,0.304-5.747,0.211c-4.788-0.233-9.57-0.585-14.354-0.924
		c-1.68-0.119-2.258-0.631-2.732-2.181c-0.578-1.893,0.349-3.309,2.25-3.182c3.016,0.202,6.015,0.723,9.03,0.818
		c4.634,0.146,9.28,0.176,13.914,0.022c6.388-0.21,12.775-0.545,19.15-0.994c7.007-0.494,13.996-1.217,20.999-1.766
		c5.418-0.425,10.841-0.86,16.27-1.068c10.546-0.404,21.096-0.749,31.647-0.924c5.428-0.091,10.863,0.363,16.294,0.341
		c6.393-0.025,12.783-0.301,19.176-0.469c9.258-0.242,18.517-0.417,27.781-0.303c4.631,0.058,9.264-0.222,13.896-0.275
		c13.912-0.162,27.827-0.219,41.738-0.46c6.865-0.119,13.726-0.545,20.588-0.856c0.792-0.036,1.581-0.212,2.365-0.359
		c1.631-0.306,2.485-1.291,2.602-2.959c0.09-1.275,0.319-2.543,0.361-3.818c0.266-7.984,0.776-15.955-0.214-23.951
		c-0.448-3.611-0.531-7.306,0.185-10.986c0.421-2.171,0.22-4.463,0.303-6.699c0.291-7.826,0.598-15.651,0.861-23.479
		c0.036-1.074-0.141-2.155-0.238-3.485c-1.109-0.164-2.019-0.429-2.922-0.41c-6.711,0.14-13.442-0.173-20.121,0.801
		c-0.473,0.069-0.957,0.081-1.436,0.084c-19.509,0.127-38.951,1.827-58.438,2.452c-6.072,0.194-12.152,0.214-18.217,0.534
		c-11.174,0.589-22.338,1.367-33.509,2.006c-2.229,0.128-4.477,0.021-6.714-0.044c-1.801-0.053-2.934-1.073-3.588-2.705
		c-0.529-1.321,0.358-2.691,1.745-2.661c0.16,0.004,0.332-0.041,0.479,0.004c5.681,1.726,11.417,0.525,17.134,0.336
		c2.557-0.084,5.117-0.053,7.67-0.19c7.815-0.419,15.623-0.992,23.441-1.325c9.742-0.415,19.496-0.567,29.236-0.988
		c9.422-0.408,18.832-1.095,28.252-1.512c10.224-0.452,20.454-0.729,30.681-1.097c2.062-0.073,4.133-0.135,6.201-0.896
		c0.192-0.875,0.382-1.632,0.522-2.396c1.87-10.221,2.518-20.594,3.826-30.885c0.055-0.437-0.167-0.907-0.305-1.586
		c-1.546-0.51-3.121-0.158-4.646,0.11c-13.529,2.385-27.096,4.559-40.537,7.446c-8.117,1.744-16.34,2.988-24.506,4.502
		c-7.851,1.455-15.693,2.948-23.533,4.462c-13.33,2.573-26.729,4.798-39.929,8.05c-3.55,0.875-7.192,1.218-10.637,2.695
		c-1.994,0.855-4.335,0.913-6.527,1.29c-1.114,0.192-2.249,0.276-3.147-0.634c-0.876-0.888-0.994-1.949-0.559-3.393
		c25.416-6.182,51.316-10.703,77.132-15.61c25.714-4.887,51.487-9.467,77.509-14.231c0.195-0.747,0.561-1.625,0.637-2.526
		c0.53-6.211,0.895-12.438,1.512-18.639c1.014-10.17,2.225-20.319,3.244-30.488c0.235-2.357,0.035-4.759,0.035-7.073
		c-1.156-0.384-1.663,0.288-2.211,0.845c-1.459,1.481-2.908,2.973-4.363,4.459c-0.559,0.571-1.09,1.173-1.686,1.704
		c-1.015,0.906-2.241,1.32-3.557,0.952c-1.507-0.422-2.43-1.438-2.465-3.185c4.924-5.369,10.939-9.775,14.797-16.277
		c1.14-0.092,2.271-0.372,3.334-0.209c0.868,0.133,2.025,0.582,2.416,1.259c1.951,3.375,4.918,5.859,7.34,8.812
		c0.596,0.728,1.09,1.57,1.473,2.43c0.15,0.336,0.002,1.001-0.261,1.271c-0.274,0.281-0.899,0.447-1.286,0.344
		c-0.744-0.197-1.535-0.492-2.114-0.977c-1.445-1.209-2.782-2.546-4.298-3.957c-1.037,1.218-1.309,2.513-1.408,3.952
		c-0.141,2.059-0.448,4.106-0.713,6.154c-0.406,3.156-0.878,6.305-1.248,9.465c-0.408,3.487-0.766,6.981-1.086,10.478
		c-0.64,7-1.227,14.004-1.866,21.003c-0.116,1.269-0.325,2.534-0.581,3.783c-0.357,1.744-0.38,3.454,0.1,5.442
		c6.367-0.048,12.334-1.878,18.416-2.801c5.993-0.909,11.945-2.136,17.878-3.395c6.075-1.289,12.317-1.838,18.394-4.034
		c0.875-2.903,0.709-5.954,0.824-8.933c0.332-8.622,0.625-17.251,0.641-25.877c0.012-6.063-0.426-12.128-0.72-18.189
		c-0.154-3.194-0.427-6.383-0.647-9.573c-0.033-0.479-0.207-1.002-0.07-1.424c0.182-0.562,0.493-1.208,0.951-1.525
		c0.811-0.561,1.533,0.057,2.063,0.624c0.419,0.448,0.696,1.06,0.925,1.642c0.169,0.436,0.188,0.938,0.223,1.415
		c0.4,5.577,1.053,11.15,1.133,16.731c0.178,12.473,0.066,24.948,0.078,37.424c0.002,2.06,0.035,4.119,0.051,5.869
		c1.113,1.144,2.069,0.729,2.955,0.563c9.415-1.769,18.83-3.535,28.234-5.357c5.953-1.154,11.886-2.41,17.83-3.606
		c11.422-2.3,22.846-4.594,34.271-6.882c2.972-0.596,5.958-1.117,8.919-1.758c1.518-0.328,2.996-0.845,4.834-1.375
		c-0.67-1.12-1.068-1.967-1.626-2.692c-5.155-6.713-10.288-13.442-15.528-20.088c-3.459-4.386-7.103-8.624-10.623-12.961
		c-1.61-1.984-3.135-4.04-4.676-6.08c-1.53-2.024-3.033-4.069-4.559-6.121c1.096-1.761,1.381-1.834,2.732-1.15
		c2.078,1.051,3.395,2.909,4.851,4.573c2.731,3.122,5.202,6.472,7.929,9.599c7.883,9.041,15.297,18.446,22.344,28.151
		c1.49,2.055,2.949,4.447,5.021,5.681c2.238,1.333,4.95-0.405,7.413-0.877c11.77-2.259,23.537-4.547,35.238-7.128
		c8.894-1.961,17.881-3.324,26.829-4.943c1.069-0.194,2.099-0.608,3.445-1.009c-1.092-1.043-2.229-1.704-2.677-2.681
		c-0.414-0.901-0.088-2.142-0.088-3.559c1.174-0.157,2.335-0.66,3.258-0.38c5.418,1.646,11.008,1.914,16.58,2.376
		c1.112,0.093,2.239,0.196,3.318,0.46c2.261,0.554,3.091,2.986,1.75,4.935c-0.09,0.132-0.162,0.31-0.289,0.377
		c-3.066,1.634-2.906,4.672-3.238,7.479c-0.094,0.787,0.045,1.601-0.04,2.389c-0.171,1.576-1.282,2.894-2.192,2.703
		c-1.035-0.216-1.938-1.401-1.939-2.982c-0.004-2.214,0.191-4.428,0.298-6.568c-0.183-0.191-0.276-0.333-0.408-0.415
		c-0.126-0.08-0.3-0.158-0.438-0.138c-12.473,1.85-24.984,3.479-37.406,5.626c-15.352,2.653-30.695,5.404-46.24,9.127
		c0.598,1.112,0.959,1.966,1.475,2.713c4.447,6.443,8.861,12.912,13.42,19.276c2.045,2.854,4.504,5.409,6.594,8.234
		c6.268,8.476,12.443,17.019,18.661,25.53c0.282,0.386,0.618,0.732,1.069,1.26c3.004,0.681,6.19,0.357,9.359,0.247
		c9.748-0.338,19.496-0.7,29.242-1.082c4.146-0.163,8.289-0.396,12.498-0.601c2.769-2.37,4.018-5.777,5.805-8.735
		c5.371-8.884,10.473-17.934,15.543-26.995c2.021-3.612,3.678-7.429,5.512-11.147c0.352-0.714,0.688-1.454,1.16-2.084
		c0.254-0.338,0.768-0.616,1.193-0.665c2.123-0.242,3.953,2.21,2.986,4.097c-1.604,3.128-3.347,6.183-5.035,9.267
		c-3.219,5.883-6.379,11.8-9.682,17.636c-2.673,4.722-5.514,9.349-8.292,14.012c-0.728,1.221-1.664,2.358-1.415,4.03
		c0.406,0.154,0.824,0.448,1.248,0.455c15.674,0.236,31.33-0.202,46.961-1.399c0.768-0.059,1.518-0.339,2.423-0.55
		c0.839-4.415,0.278-8.703,0.068-12.96c-0.188-3.817-0.753-7.615-1.071-11.429c-0.077-0.936,0.148-1.899,0.258-2.848
		c0.152-1.329-0.143-2.521-1.135-3.871c-0.889,0.765-1.863,1.327-2.451,2.162c-1.836,2.613-3.529,5.328-5.271,8.007
		c-0.174,0.268-0.343,0.547-0.453,0.844c-0.652,1.74-2.1,2.43-3.752,2.465c-1.439,0.029-2.144-1.186-2.787-2.52
		c0.197-0.487,0.307-1.17,0.686-1.633c3.457-4.218,6.273-8.842,8.986-13.557c1.179-2.049,2.653-3.974,4.252-5.719
		c1.466-1.6,3.539-1.69,4.727,0.555c0.511,0.967,0.965,2.059,1.067,3.13c0.339,3.552,1.93,6.324,4.708,8.507
		c0.876,0.688,1.766,1.441,2.384,2.346c0.483,0.707,0.558,1.694,0.773,2.423c-1.956,1.807-3.456-0.4-5.376-0.113
		c-0.512,2.296-0.705,4.709-0.348,6.994c0.834,5.329-0.096,10.841,1.537,15.996c1.657,1.037,3.293,0.621,4.821,0.457
		c17.554-1.877,35.136-1.229,52.723-0.771c6.066,0.158,12.144-0.078,18.216-0.139c2.56-0.025,5.119-0.029,7.677-0.107
		c1.239-0.039,2.475-0.228,3.902-0.366c0-1.018,0.154-1.81-0.024-2.519c-1.367-5.42-2.64-10.873-4.258-16.22
		c-1.615-5.34-3.619-10.561-5.402-15.852c-0.398-1.181-0.584-2.434-0.842-3.543c1.535-1.496,2.854-0.536,4.424-0.136
		c1.068,3.028,2.19,6.156,3.272,9.298c1.091,3.168,2.149,6.349,3.208,9.528c1.06,3.181,2.21,6.336,3.121,9.559
		c0.902,3.195,1.557,6.461,2.33,9.737c4.727,0.979,9.172-0.106,13.606,0.019c4.63,0.131,9.268,0.106,13.901,0.044
		c4.473-0.061,8.945-0.351,13.418-0.364c4.435-0.014,8.867,0.146,13.549-0.562c-0.969-1.48-2.135-1.835-3.316-2.191
		c-1.674-0.504-2.084-1.831-2.086-3.372c-0.004-2.138,1.56-3.286,3.503-2.523c1.037,0.406,2.003,0.994,3.018,1.463
		c4.649,2.148,9.392,4.059,14.472,4.893c1.771,0.291,2.988,0.983,3.486,2.755c0.47,1.673-0.48,3.025-1.586,3.73
		c-3.99,2.547-6.672,6.355-9.87,9.662c-0.664,0.687-1.187,1.521-1.894,2.152c-0.731,0.652-1.65,1.003-2.646,0.54
		c-0.844-0.392-1.271-1.794-0.748-2.97c0.374-0.84,0.959-1.623,1.588-2.303c1.606-1.737,3.291-3.402,4.818-4.969
		c-0.359-1.334-1.231-1.332-1.993-1.361c-1.756-0.068-3.515-0.067-5.273-0.062c-9.59,0.024-19.181,0.003-28.771,0.105
		c-7.669,0.083-15.336,0.313-23.004,0.501c-0.783,0.02-1.562,0.201-2.598,0.342c-0.066,0.995-0.222,1.899-0.162,2.789
		c0.074,1.111,0.269,2.224,0.508,3.313c2.088,9.515,4.314,18.993,7.121,28.327c0.275,0.916,0.515,1.85,0.686,2.79
		c1.059,5.81,2.091,11.624,3.131,17.437c0.028,0.157,0.028,0.32,0.066,0.476c1.828,7.443,3.688,14.88,5.479,22.332
		c0.971,4.039,1.839,8.104,2.732,12.16c2.062,9.359,4.134,18.716,6.157,28.083c1.989,9.205,3.886,18.43,5.894,27.631
		c1.293,5.925,2.703,11.824,4.088,17.729c0.215,0.918,0.576,1.802,0.916,2.843c0.966,0.182,1.883,0.503,2.801,0.504
		c10.557,0.015,21.115,0.091,31.67-0.08c6.697-0.108,13.389-0.602,20.246-0.931c1.17-0.979,0.814-2.51,0.791-3.887
		c-0.094-5.757-0.301-11.512-0.414-17.269c-0.207-10.544-0.229-21.078,0.17-31.627c0.477-12.624,0.653-25.27,2.118-37.817
		c0.818-7.016,0.857-14.03,1.229-21.047c0.101-1.89-0.043-3.715-0.291-6.145c-2.016,1.663-3.56,2.979-4.962,4.465
		c-0.549,0.58-1.029,1.234-1.628,1.754c-1.728,1.497-4.599,0.883-5.644-1.273c-0.214-0.442-0.059-1.365,0.285-1.73
		c3.279-3.492,6.453-7.123,10.062-10.248c1.408-1.22,3.814-1.488,5.822-1.742c1.244-0.157,2.688,0.782,2.848,2.144
		c0.439,3.774,3.467,5.07,6.052,6.828c1.036,0.704,2.11,1.354,3.104,1.988c-0.891,2.949-1.96,3.637-3.967,2.634
		c-1.82-0.911-3.584-1.936-5.328-2.886c-0.324,0.346-0.703,0.561-0.704,0.777c-0.047,7.331-0.34,14.637-1.21,21.934
		c-0.68,5.696-0.881,11.451-1.291,17.18c-0.353,4.939-0.799,9.874-1.026,14.818c-0.36,7.814-0.692,15.633-0.809,23.454
		c-0.108,7.352,0.011,14.71,0.159,22.063c0.094,4.626,0.314,9.258,0.709,13.867c0.158,1.843-0.12,3.399-0.9,5.046
		c-1.462,3.085-1.373,3.072-4.547,2.789c-2.544-0.228-5.1-0.365-7.654-0.438c-2.237-0.063-4.457-0.055-6.383,1.492
		c-1.053,0.847-2.396,0.671-3.695,0.439c-6.457-1.148-12.955-1.604-19.522-1.338c-3.984,0.16-7.982-0.033-11.975-0.028
		c-1.413,0.002-2.827,0.121-4.612,0.204c0.816,3.383,1.531,6.427,2.335,9.456c1.473,5.555,2.743,11.167,4.371,16.674
		c2.075,7.019,3.292,14.287,6.574,20.965c2.033,4.135,3.375,8.605,5.14,12.878c1.522,3.688,3.189,7.315,4.833,10.95
		c0.245,0.543,0.718,0.982,1.202,1.624c1.143-1.344,1.152-2.771,1.452-4.119c0.97-4.362,1.994-8.712,3.024-13.061
		c0.228-0.962,0.691-1.839,1.746-2.087c1.102-0.259,2.265-0.374,3.158,0.522c0.916,0.919,0.764,2.059,0.337,3.136
		c-2.85,7.204-3.713,14.823-4.721,22.413c-0.104,0.787-0.085,1.618-0.34,2.353c-1.339,3.85-5.976,4.003-7.752,1.78
		c-0.497-0.622-0.97-1.263-1.464-1.887c-2.084-2.63-4.158-5.244-6.894-7.288c-1.39-1.037-2.509-2.438-3.741-3.684
		c-2.017-2.04-4.047-4.068-6.033-6.138c-1.117-1.165-1.056-2.511,0.069-3.869c0.916-1.105,2.075-1.36,3.405-0.576
		c0.807,0.477,1.507,1.144,2.221,1.765c1.767,1.535,3.398,3.239,6.035,5.14c-0.387-1.578-0.465-2.348-0.76-3.021
		c-1.473-3.356-3.005-6.688-4.514-10.028c-3.168-7.015-5.008-14.452-6.949-21.857c-2.47-9.425-4.945-18.848-7.455-28.263
		c-0.318-1.197-0.855-2.337-1.25-3.394c-0.74-0.187-1.201-0.414-1.656-0.403c-35.809,0.826-71.614,0.844-107.42-0.206
		c-0.27-0.008-0.549,0.262-0.842,0.411c-0.574,0.853-0.01,1.471,0.473,2.096c8.006,10.367,15.943,20.789,24.043,31.082
		c7.509,9.542,15.152,18.978,22.817,28.395c3.626,4.454,7.353,8.835,11.203,13.095c2.027,2.243,4.397,4.182,6.665,6.2
		c0.531,0.474,1.27,0.718,2.434,1.351c-0.317-3.107-0.508-5.613-0.931-8.12c-0.345-2.04-0.55-4.123-0.581-6.19
		c-0.016-1.056,0.366-2.172,0.789-3.166c0.475-1.115,1.928-1.343,2.809-0.527c0.949,0.878,2.003,1.909,1.57,3.278
		c-0.917,2.906-0.206,5.716,0.21,8.539c0.419,2.838,0.89,5.684,1.602,8.458c0.469,1.827,1.403,3.535,2.261,5.615
		c-0.379,0.538-0.818,1.384-1.459,2.028c-1.338,1.343-2.785,1.651-4.322,0.77c-7.361-4.223-15.487-5.692-23.738-6.75
		c-0.314-0.041-0.645-0.056-0.936-0.164c-0.939-0.35-1.846-0.887-1.717-2.003c0.083-0.707,0.471-1.595,1.02-1.987
		c1.478-1.06,3.099-1.312,4.979-0.734c2.582,0.793,5.27,1.254,7.923,1.807c0.56,0.117,1.163,0.018,1.719,0.018
		c0.345-1.673-0.79-2.304-1.49-3.031c-8.776-9.116-16.435-19.148-24.143-29.149c-5.852-7.592-11.906-15.027-17.794-22.592
		c-3.533-4.539-6.887-9.219-10.383-13.786c-3.398-4.44-6.918-8.787-10.297-13.241c-1.188-1.564-2.639-2.113-4.528-2.161
		c-12.466-0.321-24.963-0.251-37.386-1.173c-15.504-1.151-31.001-0.404-46.494-0.834c-4.152-0.115-8.297-0.502-12.449-0.632
		c-5.593-0.176-11.193-0.135-16.784-0.343c-15.981-0.596-31.958-1.32-47.941-1.882c-4.808-0.169-5.565-1.551-9.166,4.84
		c-4.073,7.232-8.251,14.405-12.393,21.599c-0.478,0.83-1.001,1.634-1.521,2.439c-3.109,4.825-6.005,9.779-8.738,14.826
		c-0.413,0.763-0.547,1.678-1.033,3.236c1.775-0.769,2.922-1.155,3.963-1.734c3.907-2.175,7.81-4.362,11.65-6.653
		c1.451-0.865,2.625-0.856,3.915,0.225c1.844,1.544,1.696,3.034-0.424,3.991c-2.609,1.18-5.236,2.331-7.779,3.641
		c-3.404,1.754-6.729,3.66-10.104,5.475c-0.843,0.453-1.72,0.861-2.616,1.195c-2.835,1.057-4.955,0.372-6.52-2.246
		c-0.452-0.756-0.847-1.872-0.631-2.647c1.511-5.445,0.361-10.774-0.488-16.119c-0.25-1.572-0.732-3.106-0.997-4.677
		c-0.245-1.456,0.411-2.761,1.491-3.224c1.33-0.57,2.479-0.228,3.52,0.72c1.123,1.022,1.659,2.285,1.797,3.788
		c0.217,2.353,0.513,4.698,0.751,6.835c1.12,0.649,1.452-0.053,1.792-0.521c2.443-3.35,4.701-6.789,6.73-10.44
		c4.182-7.526,8.846-14.785,13.294-22.164c0.315-0.524,0.488-1.135,0.776-1.823c-1.704-1.096-3.495-0.896-5.188-0.939
		c-7.992-0.206-15.988-0.321-23.98-0.502c-3.837-0.086-7.672-0.25-11.508-0.37c-8.471-0.266-16.941-0.517-25.413-0.79
		c-7.829-0.252-15.659-0.549-23.489-0.777c-2.7-0.079-5.404-0.013-8.326-0.013c-0.711,3.739-0.08,7.206-0.066,10.639
		c0.014,3.507,0.451,7.009,0.593,10.517c0.14,3.48,0.448,6.905,1.896,10.489c1.783-0.988,2.37-2.486,3.182-3.782
		c1.101-1.759,2.091-3.6,3.329-5.255c1.309-1.751,3.557-2.004,5.627-0.891c0.615,0.331,0.922,1.505,0.491,2.112
		c-0.364,0.514-0.778,1.009-1.243,1.431c-4.596,4.17-7.889,9.113-9.292,15.24c-0.282,1.232-0.798,2.427-1.329,3.582
		c-0.762,1.662-2.229,2.153-3.949,2.156c-1.525,0.002-2.306-0.979-2.865-2.177c-2.207-4.726-5.786-8.385-9.297-12.104
		c-1.645-1.742-3.301-3.479-4.845-5.308c-0.942-1.117-0.438-2.62,0.904-3.098c1.956-0.693,3.772-0.578,5.31,0.993
		c1.453,1.486,2.891,2.987,4.361,4.455c0.41,0.408,0.916,0.72,1.373,1.072c0.359-0.436,0.712-0.666,0.706-0.885
		c-0.257-8.946-0.536-17.892-0.852-26.836c-0.021-0.604-0.351-1.196-0.612-2.038c-1.244-0.162-2.469-0.437-3.699-0.464
		c-11.019-0.253-22.038-0.575-33.06-0.653c-11.829-0.083-23.661,0.091-35.491,0.124c-6.232,0.019-12.48-0.308-18.695,0.021
		c-14.865,0.786-29.734,0.571-44.602,0.479c-6.389-0.041-12.771-0.669-19.161-0.756c-14.394-0.195-28.79-0.192-43.186-0.334
		c-3.028-0.029-6.052-0.433-9.081-0.487c-11.191-0.202-22.385-0.43-33.578-0.464c-19.504-0.059-39.01,0.066-58.516,0.01
		c-6.067-0.018-12.134-0.368-18.201-0.582c-0.791-0.028-1.608-0.041-2.361-0.25c-1.171-0.324-1.932-1.816-1.701-3.071
		c0.26-1.415,1.129-2.022,2.776-1.826c8.108,0.965,16.226,0.844,24.38,0.67c13.59-0.291,27.19-0.11,40.787-0.111
		c4.957,0,9.94-0.269,14.867,0.137c13.573,1.115,27.166,0.594,40.749,0.849c22.532,0.422,45.063,0.938,67.598,1.265
		c10.229,0.148,20.466-0.067,30.698-0.106c20.475-0.078,40.951-0.187,61.426-0.205c10.874-0.011,21.747,0.148,32.621,0.212
		c1.732,0.01,3.466-0.082,5.246-0.129c1.527-4.174,0.443-8.182,0.672-12.092c0.221-3.782-0.238-7.604-0.399-11.427
		c-1.753-1.06-3.554-0.724-5.259-0.729c-14.713-0.048-29.424-0.025-44.135-0.062c-23.193-0.057-46.387-0.178-69.58-0.203
		c-16.309-0.019-32.617,0.094-48.925,0.113c-8.158,0.01-16.318,0.028-24.475-0.122c-3.829-0.07-7.647-0.625-11.479-0.794
		c-15.33-0.673-30.668-1.213-45.996-1.931c-15.018-0.702-30.032-0.535-45.051-0.183c-6.23,0.146-12.46,0.309-18.691,0.421
		c-1.434,0.026-2.876-0.068-4.306-0.203c-1.344-0.126-2.45-0.788-3.116-1.975c-0.286-0.511-0.569-1.271-0.384-1.725
		c0.17-0.415,1.007-0.848,1.497-0.794c6.703,0.735,13.377-0.355,20.078-0.252c16.948,0.261,33.902,0.115,50.853,0.242
		c3.983,0.03,7.96,0.59,11.946,0.738c13.096,0.486,26.203,0.72,39.289,1.372c23.016,1.146,46.029,0.792,69.049,0.386
		c4.14-0.072,8.283,0.159,12.426,0.217c4.158,0.058,8.316,0.091,12.474,0.104c19.032,0.059,38.063,0.106,57.096,0.158
		c14.072,0.038,28.145,0.084,42.217,0.101C526.719,565.915,527.982,565.731,529.498,565.614z M710.767,479.291
		c-0.555-0.891-1.068-1.875-1.727-2.75c-7.78-10.337-15.541-20.688-23.396-30.97c-3.338-4.369-3.427-4.231-9.354-3.821
		c-8.604,0.595-17.209,1.205-25.824,1.588c-11.016,0.489-22.043,0.718-33.062,1.135c-12.457,0.473-24.913,0.986-37.365,1.571
		c-4.463,0.21-8.91,0.771-13.372,1.01c-8.774,0.471-17.556,0.835-26.335,1.229c-1.594,0.071-3.219-0.046-4.801,1.264
		c-0.197,9.521-0.377,19.245-0.607,28.968c-0.226,9.557,0.021,19.11,0.067,28.665c0.046,9.695-0.579,19.398-0.367,29.086
		c0.211,9.667-0.017,19.365,0.839,29.259c1.369,0.087,2.453,0.248,3.529,0.208c6.863-0.262,13.723-0.772,20.586-0.817
		c15.822-0.104,31.637-0.307,47.439-1.156c12.599-0.677,25.198-1.35,37.8-1.972c3.671-0.181,7.356-0.348,11.022-0.211
		c3.559,0.133,6.225-0.853,7.723-4.301c0.504-1.159,1.344-2.169,1.998-3.267c2.291-3.841,4.51-7.726,6.86-11.529
		c5.29-8.559,10.669-17.061,15.96-25.619c5.881-9.511,11.743-19.033,17.525-28.604C707.626,485.407,709.684,482.716,710.767,479.291
		z M925.919,602.468c0.08-0.166,0.153-0.303,0.211-0.445c0.061-0.147,0.142-0.299,0.15-0.453c0.019-0.317,0.049-0.649-0.018-0.956
		c-11.682-53.953-23.902-107.787-35.945-161.66c-0.104-0.463-0.313-0.903-0.487-1.349c-0.058-0.146-0.14-0.288-0.241-0.405
		c-0.104-0.119-0.244-0.205-0.73-0.597c-1.357-0.075-3.096-0.267-4.832-0.251c-4.146,0.039-8.292,0.286-12.436,0.25
		c-7.027-0.062-14.055-0.278-21.082-0.429c-6.71-0.144-13.424-0.478-20.131-0.375c-7.182,0.11-14.361,0.569-21.533,1.009
		c-2.496,0.152-4.969,0.701-7.719,1.108c0,1.053-0.031,1.821,0.004,2.586c0.227,4.789,0.514,9.575,0.697,14.366
		c0.385,10.059,0.258,20.135,1.272,30.171c0.53,5.242,0.72,10.52,1.259,15.761c0.783,7.621,1.795,15.219,2.609,22.837
		c0.578,5.398,0.975,10.816,1.484,16.223c0.465,4.92,0.914,9.836,0.707,14.792c-0.037,0.894,0.341,1.859,0.729,2.698
		c0.39,0.843,1.139,1.518,1.542,2.357c0.646,1.348,0.322,2.508-0.789,3.405c-0.905,0.731-1.92,1.146-3.105,0.889
		c-0.93-0.202-1.852-0.653-2.775-0.645c-5.909,0.052-11.82,0.155-17.727,0.355c-1.177,0.04-2.337,0.572-3.927,0.988
		c1.16,1.673,1.995,3.006,2.955,4.241c8.138,10.461,16.315,20.891,24.433,31.367c1.389,1.794,3.059,2.601,5.318,2.655
		c8.623,0.212,17.244,0.602,25.867,0.772c6.229,0.123,12.461,0.043,18.691-0.013c20.293-0.181,40.586-0.379,60.879-0.618
		C922.815,603.086,924.464,603.292,925.919,602.468z M803.988,557.375c0.155-1.53,0.364-2.479,0.327-3.42
		c-0.172-4.31-0.323-8.624-0.651-12.924c-0.401-5.247-0.949-10.482-1.474-15.719c-0.605-6.037-1.248-12.07-1.887-18.104
		c-0.606-5.717-1.271-11.428-1.828-17.148c-0.356-3.654-0.608-7.32-0.826-10.985c-0.207-3.502-0.269-7.011-0.467-10.513
		c-0.35-6.211-0.762-12.418-1.133-18.628c-0.086-1.432-0.104-2.868-0.178-4.301c-0.121-2.352,0.119-4.748-0.688-7.22
		c-1.064-0.131-1.981-0.366-2.889-0.331c-1.911,0.074-3.815,0.374-5.727,0.434c-13.419,0.42-26.839,0.806-40.258,1.191
		c-1.438,0.041-2.878,0.008-4.316,0.011c-1.749,0.004-3.067,0.689-3.877,2.312c-0.427,0.855-1.019,1.626-1.488,2.461
		c-2.346,4.172-4.641,8.371-7.02,12.523c-3.334,5.819-6.711,11.614-10.105,17.399c-1.043,1.777-2.041,3.558-2.76,5.652
		c6.913,8.929,13.666,17.823,20.607,26.567c6.854,8.633,13.994,17.039,20.835,25.682c6.927,8.751,13.643,17.671,20.675,26.808
		C787.14,558.563,795.365,557.936,803.988,557.375z M535.45,443.864c1.386,0.083,2.312,0.228,3.229,0.18
		c7.021-0.365,14.04-0.769,21.06-1.16c8.294-0.463,16.587-0.922,24.88-1.394c3.185-0.182,6.365-0.473,9.553-0.578
		c9.414-0.312,18.832-0.513,28.246-0.838c10.537-0.364,21.073-0.788,31.607-1.242c7.185-0.311,14.365-0.7,21.546-1.099
		c1.051-0.059,2.31,0.177,2.999-1.428c-0.376-0.656-0.766-1.516-1.311-2.261c-3.962-5.408-7.932-10.811-11.945-16.181
		c-5.638-7.543-11.771-14.71-16.974-22.586c-2.728-4.129-5.747-8.067-8.419-12.23c-1.328-2.068-2.891-2.783-5.196-2.259
		c-0.933,0.212-1.897,0.278-2.837,0.466c-7.043,1.404-14.085,2.806-21.121,4.238c-12.205,2.487-24.393,5.055-36.61,7.479
		c-11.119,2.205-22.271,4.248-33.397,6.41c-1.207,0.234-2.354,0.782-3.774,1.269c-0.211,3.973-0.466,7.783-0.604,11.598
		c-0.274,7.5,0.096,15.016-0.87,22.503C535.146,437.57,535.45,440.476,535.45,443.864z M644.511,597.011
		c2.034,1.411,3.657,1.126,5.218,1.147c5.272,0.073,10.595-0.308,15.803,0.301c5.423,0.634,10.821,0.606,16.235,0.73
		c6.388,0.146,12.779,0.133,19.163,0.345c11.808,0.393,23.608,1.026,35.417,1.321c11.652,0.291,23.312,0.213,34.967,0.438
		c10.378,0.2,20.752,0.608,31.129,0.879c1.017,0.026,2.222,0.543,3.206-0.848c-2.607-4.504-6.299-8.266-9.437-12.43
		c-3.073-4.081-6.24-8.092-9.356-12.141c-3.199-4.156-6.386-8.322-9.392-12.24c-5.664,0-10.932-0.002-16.197,0
		c-14.377,0.006-28.752,0.008-43.128,0.025c-3.194,0.004-6.392-0.004-9.582,0.122c-4.306,0.17-8.604,0.561-12.909,0.685
		c-9.736,0.281-19.477,0.448-29.215,0.689c-0.941,0.022-1.879,0.232-2.955,0.373C656.853,576.361,650.686,586.556,644.511,597.011z
		 M668.229,560.609c1.76,0.733,3.819,0.397,5.82,0.349c5.107-0.125,10.213-0.376,15.32-0.489
		c15.312-0.341,30.627-0.635,45.939-0.961c3.341-0.07,6.707-0.523,10.014-0.243c8.155,0.692,16.274-0.044,24.408-0.198
		c0.872-0.017,1.938,0.225,2.577-1.108c-0.521-0.813-1.062-1.759-1.701-2.633c-1.882-2.575-3.761-5.154-5.714-7.674
		c-5.279-6.806-10.4-13.745-15.941-20.333c-9.758-11.603-19.118-23.515-28.404-35.492c-1.937-2.498-3.996-4.901-6.289-7.702
		c-13.27,20.923-25.617,41.932-38.592,62.55c-2.708,4.305-5.164,8.769-7.721,13.169C667.896,559.93,668.047,560.133,668.229,560.609
		z M536.364,594.721c1.924,0.141,3.662,0.324,5.406,0.383c3.675,0.125,7.354,0.155,11.028,0.276
		c6.228,0.206,12.454,0.484,18.683,0.674c5.912,0.181,11.826,0.264,17.738,0.434c6.225,0.179,12.447,0.444,18.672,0.605
		c5.754,0.149,11.509,0.237,17.264,0.3c4.297,0.047,8.596,0.01,12.982,0.01c1.173-1.666,2.37-3.163,3.35-4.791
		c4.944-8.212,9.838-16.455,14.715-24.708c0.19-0.322,0.024-0.855,0.024-1.32c-0.615-0.108-1.085-0.278-1.546-0.26
		c-7.667,0.312-15.334,0.612-22.998,0.99c-10.377,0.511-20.746,1.178-31.127,1.605c-8.94,0.369-17.893,0.496-26.839,0.732
		c-5.263,0.139-10.524,0.334-15.788,0.411c-6.554,0.097-13.109,0.082-19.664,0.162c-0.898,0.011-1.795,0.286-2.611,0.425
		C534.882,576.798,535.237,590.731,536.364,594.721z M531.38,401.488c-1.044,0.097-1.976,0.106-2.877,0.277
		c-7.994,1.515-15.975,3.102-23.975,4.578c-7.996,1.477-16.012,2.851-24.018,4.27c-0.629,0.111-1.268,0.192-1.883,0.354
		c-2.107,0.554-2.652,1.14-2.84,3.261c-0.169,1.908-0.111,3.841-0.355,5.736c-1.041,8.069-2.18,16.127-3.215,24.196
		c-0.131,1.021,0.139,2.095,0.246,3.436c6.189-0.043,12.07,0.096,17.949-0.36c6.84-0.529,13.673-1.233,20.523-1.533
		c5.586-0.243,11.174-0.3,16.714-1.142c0.893-0.136,1.759-0.444,2.577-0.658c1.447-13.625,1.327-27.033,1.625-40.424
		C531.866,402.881,531.575,402.277,531.38,401.488z M713.733,474.463c1.276-2.283,2.418-4.37,3.602-6.433
		c4.844-8.439,9.713-16.865,14.535-25.317c0.443-0.776,1.041-1.69-0.187-2.871c-13.739,0.572-27.753,1.154-41.765,1.762
		c-0.236,0.011-0.459,0.342-0.794,0.605c0.103,0.391,0.097,0.917,0.349,1.248c7.531,9.909,15.084,19.803,22.656,29.682
		C712.483,473.6,713.044,473.902,713.733,474.463z"/>
	<path fill-rule="evenodd" clip-rule="evenodd" fill="#F1F2F2" d="M664.759,226.057c-3.993,3.315-7.197,6.859-10.33,10.481
		c-3.9,4.507-8.642,8.063-13.412,11.559c-0.988,0.724-2.313,1.063-3.536,1.369c-1.192,0.299-2.175-0.18-2.78-1.739
		c2.955-2.439,6.09-4.841,9.003-7.487c2.946-2.677,6.105-5.147,8.512-8.395c2.36-3.184,5.562-5.674,7.981-9.159
		c-0.833-0.796-1.431-1.518-2.166-2.048c-11.27-8.131-22.555-16.236-33.838-24.347c-3.506-2.52-7.029-5.012-10.52-7.553
		c-8.915-6.491-17.737-13.113-26.751-19.465c-5.481-3.862-11.266-7.291-16.874-10.976c-1.535-1.009-2.888-0.849-4.488-0.138
		c-7.735,3.435-15.516,6.769-23.276,10.146c-11.564,5.033-23.106,10.121-34.696,15.093c-6.453,2.769-13.011,5.293-19.477,8.033
		c-4.994,2.116-9.926,4.383-14.866,6.625c-0.534,0.243-0.94,0.769-1.534,1.271c1.469,2.609,2.83,5.088,4.678,7.31
		c2.964,3.561,5.979,7.093,8.164,11.232c0.594,1.122,1.346,2.191,2.184,3.148c4.031,4.607,6.923,9.938,9.911,15.225
		c1.327,2.349,3.104,4.438,4.543,6.728c1.009,1.606,1.862,3.322,2.649,5.051c0.52,1.143,0.007,1.689-2.298,2.557
		c-1.797-2.665-3.662-5.397-5.487-8.157c-0.705-1.064-1.389-2.155-1.965-3.294c-4.564-9.035-10.823-16.943-16.737-25.071
		c-3.184-4.375-6.679-8.524-10.167-12.943c-0.875,0.21-1.829,0.31-2.676,0.664c-7.214,3.016-14.43,6.026-21.602,9.138
		c-9.507,4.125-18.938,8.428-28.473,12.484c-6.746,2.869-13.638,5.399-20.421,8.187c-8.419,3.459-16.8,7.016-25.186,10.555
		c-5.147,2.172-10.295,4.346-15.406,6.6c-5.405,2.384-10.738,4.886-15.796,8.002c-3.66,2.254-7.664,3.949-11.5,5.922
		c-3.977,2.045-7.893,4.215-11.916,6.162c-4.881,2.362-9.828,4.591-14.792,6.775c-0.979,0.431-2.155,0.446-3.249,0.562
		c-0.511,0.054-0.983-1.127-0.627-1.53c0.413-0.467,0.822-1,1.352-1.288c1.4-0.762,2.861-1.414,4.304-2.097
		c3.894-1.844,7.823-3.616,11.68-5.535c6.008-2.989,11.983-6.046,17.942-9.132c2.979-1.543,5.884-3.226,8.832-4.827
		c7.031-3.821,14.462-6.763,21.83-9.84c11.199-4.677,22.326-9.538,33.624-13.964c11.903-4.663,23.499-10.007,35.187-15.155
		c9.791-4.314,19.616-8.554,29.433-12.811c1.603-0.694,3.251-1.289,4.754-2.824c-4.816-6.71-8.757-13.983-14.528-19.878
		c-1.457,0.708-0.949,1.771-1.021,2.632c-0.08,0.952,0.027,1.922-0.082,2.868c-0.189,1.644-1.299,2.454-3.029,2.334
		c-1.432-0.101-2.263-0.953-2.307-2.458c-0.037-1.278-0.02-2.559,0.006-3.838c0.066-3.377-0.369-6.679-1.145-9.973
		c-0.52-2.208,1.122-3.678,3.364-3.285c0.312,0.054,0.634,0.111,0.919,0.241c4.68,2.136,9.761,2.956,14.629,4.475
		c1.062,0.331,2.127,0.686,3.141,1.14c0.9,0.403,0.871,1.056-0.08,2.919c-4.092-0.979-8.236-1.97-12.828-3.067
		c0.149,0.948,0.112,1.557,0.352,2.022c0.359,0.701,0.84,1.376,1.395,1.937c4.19,4.24,7.24,9.329,10.626,14.168
		c1.189,1.699,2.364,3.411,3.615,5.063c0.366,0.482,0.974,0.783,1.398,1.111c6.198-1.719,89.636-37.93,94.026-40.786
		c0.23-1.001-0.549-1.423-1.171-1.854c-3.674-2.551-7.353-5.096-11.064-7.589c-7.161-4.81-14.341-9.594-21.529-14.361
		c-0.775-0.514-1.666-0.854-2.444-1.245c-1.152,1.101-0.301,1.922,0.116,2.664c1.093,1.946,2.366,3.793,3.434,5.751
		c0.622,1.141,0.239,2.342-0.682,2.985c-1.106,0.774-2.634,0.656-3.45-0.374c-0.487-0.615-0.822-1.355-1.191-2.057
		c-0.743-1.41-1.413-2.861-2.203-4.244c-1.74-3.049-3.358-6.168-5.853-8.737c-1.157-1.192-0.483-2.887,1.18-3.309
		c0.765-0.194,1.585-0.328,2.366-0.272c5.309,0.379,10.492-0.76,15.729-1.249c0.316-0.029,0.625-0.145,0.941-0.171
		c0.842-0.07,1.608,0.077,1.95,0.975c0.318,0.837-0.347,1.792-1.522,2.021c-2.194,0.429-4.412,0.733-6.607,1.158
		c-0.73,0.142-1.419,0.495-2.588,0.92c3.244,3.051,6.808,4.797,10,7.041c3.269,2.297,6.643,4.443,9.955,6.677
		c3.182,2.145,6.334,4.333,9.521,6.471c3.312,2.223,6.647,4.407,9.69,6.421c0.534,0.064,0.692,0.094,0.852,0.1
		c0.157,0.006,0.332,0.028,0.471-0.027c1.778-0.705,3.584-1.353,5.322-2.148c26.707-12.235,53.852-23.455,80.918-34.856
		c0.276-0.116,0.48-0.405,0.786-0.673c-0.946-0.96-2.067-1.799-2.786-2.901c-0.91-1.398-0.015-2.956,1.627-3.139
		c3.328-0.371,6.668-0.652,9.988-1.083c2.521-0.327,5.036-0.755,7.527-1.271c3.661-0.76,5.614,0.83,5.087,4.594
		c-0.427,3.05-0.532,6.035,0.036,9.06c0.111,0.591-0.066,1.236-0.107,1.816c-2.571,0.513-3.518,0.164-4.154-1.761
		c-0.597-1.803-0.973-3.678-1.421-5.423c-0.21-0.178-0.314-0.314-0.45-0.367c-0.143-0.055-0.325-0.066-0.475-0.03
		c-0.459,0.112-0.924,0.224-1.363,0.394c-32.308,12.462-64.334,25.596-95.671,39.885c-0.521,1.818,0.784,2.253,1.604,2.817
		c5.132,3.535,10.338,6.963,15.475,10.491c3.554,2.44,7.043,4.977,10.547,7.489c9.741,6.983,19.485,13.963,29.208,20.971
		c9.46,6.819,18.893,13.676,28.345,20.506c1.402,1.014,2.844,1.975,4.458,3.091c2.532-2.359,4.89-4.482,7.162-6.692
		c4.585-4.458,9.119-8.965,13.68-13.446c4.788-4.705,9.581-9.405,14.374-14.104c2.283-2.239,4.986-4.041,7.271-6.184
		c2.235-2.097,4.03-4.753,6.309-6.967c3.663-3.56,7.157-7.286,11.167-10.48c0.797-0.635,1.361-1.562,2.764-3.216
		c-1.955,0.536-2.842,0.708-3.678,1.022c-2.241,0.843-4.432,1.829-6.695,2.603c-2.232,0.763-3.689,0.034-4.588-2.09
		c-0.248-0.587-0.442-1.204-0.594-1.823c-0.292-1.192,0.289-2.176,1.479-2.604c3.45-1.241,6.936-2.394,10.338-3.752
		c3.549-1.417,7.037-2.991,10.508-4.591c0.951-0.438,1.78-0.484,2.748-0.202c2.108,0.615,3.695,1.859,4.725,3.782
		c0.532,0.992,0.93,2.027,0.434,3.197c-1.666,3.916-0.195,7.486,1.27,11.046c0.304,0.736,0.786,1.411,1.014,2.166
		c0.502,1.673-1.038,3.281-2.713,2.897c-2.266-0.521-3.645-1.919-3.994-4.224c-0.309-2.038-0.424-4.115-1.346-6.05
		c-4.646,3.007-61.025,55.934-66.638,62.824c1.21,1.618,2.905,2.771,4.565,3.914c18.678,12.866,37.367,25.716,56.066,38.55
		c8.557,5.873,17.193,11.633,25.697,17.58c5.393,3.771,11.032,7.181,17.141,9.467c8.908,3.333,16.593,8.807,24.895,13.186
		c3.945,2.081,7.758,4.417,11.619,6.659c0.685,0.398,1.49,0.782,1.904,1.398c0.385,0.575,0.594,1.545,0.379,2.168
		c-0.218,0.632-0.975,1.324-1.63,1.507c-1.458,0.408-2.747-0.172-4.001-1.065c-7.152-5.098-14.425-10.089-22.326-13.899
		c-6.33-3.053-12.254-6.865-18.714-9.626c-5.042-2.154-9.389-5.459-13.921-8.412c-6.681-4.352-13.045-9.188-19.578-13.77
		c-2.482-1.74-5.083-3.309-7.59-5.013c-12.024-8.174-24.049-16.346-36.044-24.562c-6.724-4.604-13.39-9.295-20.087-13.938
		C666.187,226.842,665.623,226.562,664.759,226.057z"/>
	<path fill-rule="evenodd" clip-rule="evenodd" fill="#F1F2F2" d="M1087.593,12.802c0.725-0.476,1.252-0.827,1.784-1.17
		c0.991-0.639,2.022-1.055,3.095-0.222c1.096,0.852,1.512,2.02,1.377,3.388c-0.016,0.153-0.091,0.301-0.143,0.45
		c-1.636,4.769-1.576,9.733-1.729,14.678c-0.049,1.596-0.25,3.187-0.318,4.782c-0.222,5.104-0.443,10.21-0.611,15.317
		c-0.211,6.388-0.466,12.775-0.521,19.164c-0.046,5.408,0.179,10.817,0.253,16.228c0.01,0.792-0.225,1.587-0.223,2.381
		c0.008,3.509,0.071,7.018,0.096,10.526c0.027,3.83,0.088,7.661,0.037,11.489c-0.123,9.431-0.218,18.862-0.486,28.288
		c-0.254,8.949-0.725,17.893-1.08,26.839c-0.338,8.464-0.629,16.93-0.984,25.393c-0.146,3.506-0.613,7.009-0.574,10.51
		c0.104,9.269,0.283,18.54,0.668,27.801c0.279,6.699,0.975,13.381,1.416,20.075c0.514,7.818,0.942,15.643,1.428,23.463
		c0.516,8.293,0.9,16.599,1.619,24.875c1.052,12.092,2.827,24.125,2.578,36.312c-0.039,1.907,0.158,3.832,0.397,5.729
		c1.187,9.434,0.424,18.833-0.415,28.234c-0.014,0.159-0.016,0.32-0.041,0.478c-0.268,1.644-1.329,2.712-2.357,2.377
		c-1.072-0.351-1.678-1.685-1.374-3.219c1.625-8.2,2.029-16.424,1.306-24.783c-0.578-6.682-0.383-13.427-0.693-20.136
		c-0.154-3.344-0.648-6.674-1.033-10.005c-0.439-3.807-1.129-7.596-1.361-11.413c-0.815-13.398-2.233-26.758-2.333-40.207
		c-0.042-5.581-0.649-11.176-1.303-16.729c-0.861-7.316-1.257-14.633-1.354-22c-0.207-15.514-0.199-31.024,0.246-46.532
		c0.152-5.265,0.492-10.525,0.805-15.784c0.465-7.82,1.111-15.632,1.436-23.457c0.246-5.906,0.144-11.829,0.138-17.744
		c-0.011-10.55-0.031-21.101-0.116-31.65c-0.045-5.59-0.266-11.178-0.344-16.768c-0.035-2.558,0.087-5.116,0.135-7.675
		c0.178-9.435,0.473-18.869,0.48-28.305c0.004-4.638-0.135-9.257,0.568-13.863c0.164-1.08,0.023-2.208,0.023-3.5
		c-0.736-0.155-1.316-0.364-1.905-0.39c-7.821-0.328-15.646-0.573-23.464-0.959c-5.904-0.292-11.803-0.717-17.699-1.15
		c-10.205-0.75-20.404-1.559-30.607-2.331c-5.578-0.422-11.161-0.772-16.734-1.252c-2.38-0.204-4.738-0.66-7.107-0.992
		c-8.38-1.175-16.73-2.707-25.15-3.408c-7.615-0.634-15.27-1.592-22.967-0.604c-2.684,0.345-5.438,0.091-8.149,0.261
		c-8.129,0.51-16.249,1.171-24.382,1.622c-5.427,0.301-10.867,0.358-16.303,0.498c-9.104,0.235-18.209,0.54-27.314,0.646
		c-11.514,0.135-23.029,0.107-34.545,0.136c-7.356,0.019-14.713,0.015-22.068,0.013c-20.631-0.004-41.263-0.166-61.893,0.032
		c-15.511,0.148-31.012-0.048-46.516-0.404c-16.145-0.371-32.291-0.655-48.438-0.871c-8.145-0.108-16.293,0.009-24.44,0.042
		c-11.348,0.047-22.694,0.103-34.042,0.171c-14.868,0.089-29.738,0.062-44.604,0.343c-8.947,0.169-17.883,0.889-26.827,1.253
		c-7.021,0.285-14.062,0.203-21.072,0.643c-13.425,0.842-26.856,0.752-40.292,0.776c-4.955,0.01-9.914,0.073-14.868-0.025
		c-5.942-0.118-11.785,0.704-17.638,1.538c-2.214,0.314-4.45,0.47-6.67,0.748c-1.721,0.215-3.432,0.509-4.751,0.709
		c-1.487,1.742-1.669,3.447-1.283,4.947c0.933,3.617,0.259,7.632,2.411,11.086c0.702-0.271,1.232-0.327,1.543-0.618
		c3.147-2.944,6.268-5.917,9.371-8.907c0.454-0.437,0.73-1.056,1.179-1.5c1.367-1.356,3.169-1.237,4.669,0.257
		c1.172,1.168,1.265,3.722,0.047,4.777c-1.201,1.042-2.541,1.926-3.818,2.88c-3.471,2.588-6.616,5.515-9.348,8.886
		c-0.59,0.729-1.345,1.322-1.977,1.934c-3.025-0.222-5.302-1.458-7.19-3.621c-2.312-2.645-4.761-5.14-7.677-7.181
		c-2.164-1.515-2.25-2.156-2.222-5.85c1.618-1.262,2.972-0.605,4.229,0.615c1.466,1.424,2.913,2.866,4.264,4.197
		c1.41-0.449,1.171-1.331,1.061-2.08c-0.513-3.476-1.066-6.945-1.612-10.417c-0.124-0.788-0.34-1.566-0.402-2.357
		c-0.125-1.598,1.014-2.859,2.646-2.606c2.225,0.346,4.41,0.336,6.641,0.179c3.037-0.216,6.037-0.515,8.955-1.463
		c1.049-0.341,2.178-0.649,3.262-0.625c6.867,0.154,13.73-0.201,20.605,0.534c4.748,0.509,9.588,0.329,14.381,0.221
		c13.264-0.299,26.523-0.704,39.784-1.102c9.263-0.278,18.548-0.3,27.779-1.005c9.903-0.758,19.813-0.714,29.718-0.957
		c8.146-0.2,16.303,0.163,24.454,0.145c11.98-0.027,23.96-0.153,35.94-0.273c10.23-0.102,20.462-0.366,30.692-0.343
		c7.026,0.018,14.052,0.454,21.08,0.612c5.437,0.121,10.874,0.107,16.312,0.141c5.757,0.036,11.561-0.393,17.259,0.201
		c6.707,0.699,13.402-0.118,20.091,0.561c3.155,0.321,6.379-0.038,9.571-0.097c8.949-0.164,17.898-0.439,26.85-0.478
		c21.913-0.093,43.826-0.082,65.74-0.102c10.709-0.01,21.42,0.059,32.129-0.013c4.471-0.029,8.94-0.373,13.413-0.496
		c7.193-0.199,14.388-0.374,21.583-0.481c4.629-0.068,9.221-0.254,13.848-0.77c7.933-0.883,15.939-1.16,23.922-1.523
		c6.383-0.29,12.766-0.255,19.163,0.083c5.918,0.312,11.753,1.102,17.613,1.866c15.202,1.98,30.276,4.987,45.698,5.221
		c6.206,0.094,12.399,1.062,18.599,1.635c0.478,0.044,0.952,0.134,1.431,0.152c11.98,0.467,23.961,0.922,35.941,1.394
		C1079.802,11.269,1083.638,11.344,1087.593,12.802z"/>
	<path fill-rule="evenodd" clip-rule="evenodd" fill="#F1F2F2" d="M288.419,337.977c3.462,0.13,6.639,0.259,9.816,0.361
		c0.958,0.031,1.92-0.044,2.879-0.013c3.439,0.109,4.199,1.631,2.516,5.025c-4.743,1.095-9.412-1.842-14.436-0.312
		c0.15,1.403,0.295,2.762,0.436,4.074c-3.653,1.435-4.414,0.945-6.397-4.137c-1.467-0.084-3.045-0.191-4.624-0.263
		c-6.388-0.286-12.773-0.631-19.163-0.824c-8.63-0.262-17.263-0.561-25.894-0.558c-11.349,0.003-22.725-0.149-34.039,0.552
		c-14.072,0.872-28.146,0.208-42.205,0.798c-6.391,0.269-12.778,0.724-19.171,0.793c-10.872,0.119-21.748-0.015-32.622-0.012
		c-3.519,0.001-7.037,0.062-10.553,0.173c-0.914,0.028-1.819,0.345-2.933,0.57c-0.163,2.017-0.314,3.879-0.46,5.677
		c-3.167,0.793-3.877,0.486-4.343-1.826c-0.218-1.083-0.354-2.183-0.568-3.529c-0.961-0.131-1.866-0.405-2.749-0.346
		c-2.87,0.192-5.732,0.503-8.597,0.779c-0.63,0.061-1.258,0.255-1.882,0.235c-1.256-0.042-2.312-1.247-2.371-2.586
		c-0.047-1.033,0.867-2.268,1.982-2.354c2.708-0.21,5.428-0.282,8.141-0.428c1.568-0.084,3.135-0.202,4.922-0.32
		c0.195-1.147,0.477-2.051,0.482-2.955c0.059-9.446-0.865-18.832-1.813-28.215c-0.225-2.225-0.252-4.473-0.541-6.688
		c-0.517-3.955-1.148-7.895-1.774-11.834c-0.068-0.437-0.407-0.83-0.689-1.377c-2.667-0.59-5.361-0.033-8.047,0.042
		c-2.557,0.07-5.111,0.25-7.666,0.239c-1.202-0.005-1.912-0.994-1.971-2.292c-0.048-1.09,0.549-1.948,1.558-2.054
		c0.948-0.1,1.911-0.042,2.866-0.093c3.029-0.159,6.058-0.47,9.085-0.464c2.011,0.005,3.69-0.565,5.196-2.092
		c2.628,1.993,5.516,1.74,8.386,1.72c8.478-0.062,16.956,0,25.431-0.149c4.152-0.072,8.296-0.562,12.447-0.764
		c8.144-0.396,16.291-0.719,24.437-1.082c0.768-0.034,1.532-0.146,2.616-0.254c-0.889-1.596-1.632-2.932-2.438-4.38
		c0.652-0.663,1.174-1.252,1.756-1.773c0.833-0.745,1.883-1.31,2.539-2.179c3.956-5.237,9.41-9,13.578-14.059
		c4.159-5.049,8.777-9.722,13.197-14.556c0.756-0.825,1.392-1.863,2.314-2.414c3.799-2.266,6.284-5.868,9.322-8.9
		c2.824-2.818,5.479-5.807,8.279-8.649c8.748-8.88,17.522-17.733,26.305-26.579c1.237-1.246,2.578-2.389,3.866-3.585
		c1.522-1.414,3.194-2.705,4.532-4.277c4.372-5.137,9.554-9.414,14.471-13.974c1.152-1.068,2.221-2.228,3.816-3.839
		c-1.331-0.057-2.058-0.248-2.693-0.084c-1.854,0.479-3.665,1.117-5.503,1.661c-1.639,0.485-3.218,0.354-4.462-0.908
		c-1.362-1.381-1.662-3.002-0.678-4.936c0.597-0.105,1.203-0.298,1.811-0.307c6.869-0.102,13.157-2.453,19.319-5.135
		c1.736-0.756,3.205-1.383,4.886-0.161c1.898,1.381,3.23,3.065,3.117,5.577c-0.114,2.549-0.224,5.098-0.288,7.647
		c-0.057,2.267,0.278,4.463,1.37,6.499c0.225,0.417,0.406,0.871,0.518,1.33c0.353,1.461-0.331,2.775-1.547,3.056
		c-1.692,0.391-3.187-0.151-3.537-1.584c-0.527-2.152-0.836-4.363-1.152-6.562c-0.223-1.55-0.307-3.12-0.433-4.474
		c-1.23-0.715-1.814-0.037-2.392,0.451c-3.163,2.669-6.518,5.158-9.387,8.115c-2.676,2.758-5.503,5.287-8.395,7.799
		c-3.856,3.351-7.432,7.026-11.123,10.566c-2.528,2.424-5.049,4.856-7.574,7.283c-0.461,0.442-0.977,0.837-1.389,1.319
		c-3.436,4.01-7.22,7.662-11.071,11.273c-3.606,3.382-6.894,7.108-10.268,10.732c-4.245,4.56-8.435,9.171-12.652,13.756
		c-0.541,0.589-1.1,1.161-1.657,1.733c-6.799,6.985-13.563,14.005-20.413,20.939c-3.814,3.861-7.773,7.58-11.659,11.371
		c-0.451,0.44-0.852,0.934-1.223,1.343c0.175,0.992,0.872,0.962,1.477,0.942c3.354-0.104,6.707-0.275,10.062-0.362
		c4.794-0.124,9.588-0.254,14.382-0.274c7.352-0.032,14.705-0.075,22.053,0.07c11.83,0.233,23.662,0.494,35.483,0.984
		c6.214,0.258,12.399,1.156,18.61,1.535c8.458,0.517,16.931,0.785,25.394,1.219c2.869,0.147,5.739,0.386,8.589,0.742
		c2.486,0.312,2.803,1.182,1.662,4.219c-0.51,0.074-1.124,0.27-1.723,0.232c-6.061-0.383-12.119-0.78-18.176-1.218
		c-9.567-0.689-19.132-1.413-28.697-2.123c-0.319-0.024-0.637-0.074-0.956-0.087c-9.584-0.398-19.166-1.052-28.753-1.134
		c-18.233-0.157-36.469,0.012-54.704,0.045c-10.351,1.293-20.759,0.753-31.142,1.051c-4.143,0.118-8.267,0.785-12.409,0.979
		c-4.625,0.216-9.262,0.163-13.894,0.252c-5.436,0.104-10.87,0.209-16.304,0.377c-0.914,0.028-1.818,0.376-2.866,0.606
		c1.648,16.833,3.277,33.48,4.907,50.124c1.227,1.192,2.733,0.737,4.12,0.731c6.717-0.029,13.433-0.178,20.148-0.154
		c5.754,0.021,11.506,0.257,17.26,0.317c2.232,0.023,4.466-0.209,6.7-0.264c10.71-0.262,21.423-0.458,32.132-0.765
		c9.422-0.271,18.839-0.691,28.26-0.98c7.515-0.23,15.033-0.539,22.548-0.498c13.429,0.074,26.858,0.335,40.285,0.627
		c4.63,0.101,9.252,0.556,13.881,0.791c1.74,0.089,3.489,0.015,5.51,0.015c0.095-0.891,0.302-1.637,0.226-2.354
		c-0.25-2.382-0.601-4.753-0.915-7.127c-1.05-7.919-1.894-15.873-3.232-23.743c-0.722-4.242-0.355-8.63-1.825-12.766
		c-0.168-0.473,0.102-1.453,0.482-1.688c0.592-0.364,1.525-0.54,2.186-0.349c1.359,0.394,1.881,1.546,2.043,2.937
		c0.556,4.763,1.106,9.528,1.774,14.276c1.313,9.336,2.7,18.661,4.07,27.988C287.908,336.128,288.11,336.728,288.419,337.977z"/>
	<path fill-rule="evenodd" clip-rule="evenodd" fill="#F1F2F2" d="M708.648,668.799c-1.747,1.26-1.595,2.936-1.468,4.498
		c0.414,5.095,0.868,10.187,1.42,15.268c0.742,6.825,1.504,13.649,2.414,20.454c1.396,10.436,2.145,20.962,4.533,31.26
		c1.19,5.135,2.115,10.329,3.199,15.488c0.193,0.923,0.574,1.806,0.957,2.982c0.979,0,1.897,0.001,2.814,0
		c1.438-0.003,2.877-0.05,4.312,0c1.526,0.054,2.648,0.9,2.857,2.04c0.233,1.282-0.876,2.917-2.339,3.149
		c-1.573,0.249-3.179,0.35-4.773,0.396c-10.068,0.291-20.136,0.567-30.206,0.809c-5.104,0.122-10.18,0.632-15.318,0.337
		c-3.957-0.228-7.963,0.414-11.947,0.664c-7.335,0.461-14.668,0.956-22.006,1.361c-3.352,0.185-6.712,0.165-10.067,0.279
		c-9.578,0.325-19.155,0.686-28.733,1.004c-8.786,0.293-17.572,0.618-26.361,0.801c-7.988,0.166-15.98,0.197-23.971,0.221
		c-9.756,0.028-19.511-0.063-29.266-0.003c-5.109,0.032-10.218,0.056-15.309,0.816c-3.943,0.589-7.947,0.764-11.924,1.119
		c-1.451,0.129-2.766,0.309-3.581,1.874c-0.703,1.349-2.406,1.57-3.337,0.772c-2.586-2.219-5.368-1.391-8.176-1.095
		c-1.107,0.116-2.224,0.23-3.333,0.206c-0.813-0.019-2.015-1.268-1.817-1.931c0.211-0.711,0.641-1.703,1.207-1.897
		c1.793-0.614,3.685-0.967,5.559-1.315c1.238-0.23,2.512-0.278,3.951-0.427c0.168-1.048,0.469-1.965,0.432-2.869
		c-0.147-3.669-0.375-7.336-0.619-11c-0.361-5.422-0.74-10.842-1.153-16.26c-1.36-17.865-1.208-35.783-1.901-53.672
		c-0.217-5.596-1.214-11.081-2.276-16.603c-2.605-1.197-5.153-0.513-7.645-0.306c-3.024,0.252-6.028,0.762-9.052,1.023
		c-1.225,0.105-2.48-0.148-4.117-0.268c0.388-1.363,0.666-2.343,0.944-3.321c6.104-0.389,11.936-1.023,17.838-1.8
		c0.138-0.914,0.192-1.531,0.326-2.13c0.505-2.259,2.519-2.977,4.207-1.473c0.462,0.412,0.835,0.966,1.126,1.519
		c0.283,0.542,0.41,1.166,0.622,1.803c3.541,0.859,6.946,1.23,10.487,0.479c1.838-0.389,3.791-0.346,5.689-0.323
		c7.512,0.089,14.984-0.776,22.524-0.459c7.806,0.329,15.645-0.157,23.47-0.271c9.592-0.14,19.184-0.309,28.777-0.358
		c2.22-0.012,4.443,0.604,6.663,0.596c15.335-0.061,30.665,0.346,45.999,0.325c3.027-0.003,6.053-0.441,9.083-0.523
		c3.989-0.108,7.989-0.223,11.974-0.049c8.3,0.361,16.605-0.052,24.894,0.194c8.126,0.24,16.282-0.09,24.387,1.116
		c3.771,0.562,7.646,0.396,11.467,0.645c2.864,0.187,5.734,0.406,8.567,0.837c0.797,0.122,1.649,0.917,2.164,1.628
		c0.851,1.178-0.024,2.728-1.451,2.69c-3.676-0.096-7.35-0.267-11.024-0.387C709.718,668.693,709.089,668.774,708.648,668.799z
		 M487.667,667.112c-0.169,0.626-0.406,1.079-0.389,1.522c0.049,1.274,0.084,2.568,0.329,3.814
		c2.081,10.562,2.257,21.263,2.409,31.967c0.109,7.672,0.01,15.354,0.363,23.014c0.397,8.604,1.193,17.188,1.828,25.78
		c0.317,4.299,0.648,8.598,1.01,12.893c0.038,0.441,0.336,0.861,0.543,1.364c1.682,0.841,3.402,0.561,5.146,0.351
		c5.07-0.611,10.134-1.42,15.224-1.675c6.529-0.328,13.082-0.19,19.624-0.257c7.025-0.071,14.06,0.042,21.073-0.279
		c6.063-0.277,12.111-0.496,18.185-0.396c5.264,0.087,10.566,0.137,15.793-0.38c5.91-0.585,11.804-0.55,17.712-0.61
		c3.993-0.042,7.989-0.074,11.979-0.215c3.665-0.13,7.323-0.437,10.987-0.596c8.938-0.39,17.878-0.737,26.815-1.105
		c1.118-0.046,2.236-0.1,3.353-0.175c7.164-0.479,14.321-1.141,21.493-1.404c8.464-0.311,16.939-0.295,25.41-0.385
		c2.398-0.025,4.752-0.235,7.252-0.998c0.101-0.963,0.394-1.916,0.262-2.806c-0.682-4.571-1.172-9.201-2.289-13.671
		c-1.906-7.63-2.682-15.406-3.646-23.165c-0.414-3.326-0.618-6.68-1.022-10.008c-1.502-12.365-3.046-24.726-4.581-37.087
		c-0.194-1.571-0.239-3.196-1.417-4.624c-0.831-0.193-1.746-0.484-2.684-0.613c-6.185-0.854-12.399-1.289-18.646-1.251
		c-19.661,0.119-39.322,0.276-58.982,0.313c-9.907,0.019-19.814-0.185-29.723-0.302c-3.835-0.046-7.671-0.102-11.506-0.204
		c-4.311-0.114-8.621-0.436-12.93-0.404c-8.79,0.064-17.578,0.359-26.367,0.461c-10.865,0.126-21.73,0.1-32.596,0.244
		c-5.907,0.079-11.812,0.367-17.718,0.584C489.195,666.838,488.434,667.008,487.667,667.112z"/>
	<path fill-rule="evenodd" clip-rule="evenodd" fill="#F1F2F2" d="M906.477,717.209c0.721-1.602,0.361-2.987,0.138-4.401
		c-0.118-0.753-0.16-1.671,0.172-2.3c0.315-0.6,1.133-1.22,1.781-1.281c0.638-0.06,1.594,0.401,1.955,0.939
		c0.504,0.752,0.645,1.775,0.832,2.704c0.25,1.234,0.395,2.49,0.611,3.918c1.045,0.145,1.969,0.407,2.881,0.376
		c4.766-0.163,9.527-0.399,14.289-0.612c0.16-0.007,0.318-0.038,0.479-0.041c3.996-0.083,7.996-0.089,11.988-0.267
		c3.973-0.177,7.935-0.667,11.907-0.757c3.331-0.074,6.7,0.001,10.001,0.415c6.088,0.763,12.131,0.012,18.19-0.145
		c2.396-0.062,4.789-0.271,7.186-0.349c6.702-0.219,13.405-0.461,20.11-0.571c2.387-0.039,4.777,0.367,7.17,0.409
		c5.916,0.103,11.834,0.046,17.748,0.178c7.023,0.156,14.054,0.78,21.064,0.59c8.959-0.243,17.886,0.261,26.825,0.428
		c3.341,0.062,6.669,0.609,10.01,0.791c8.293,0.453,16.559,1.273,24.89,1.194c7.665-0.072,15.335,0.352,23.003,0.542
		c0.792,0.02,1.588-0.068,2.228-0.099c0.396-0.298,0.727-0.433,0.876-0.677c0.542-0.886,0.521-2.329,2.08-2.187
		c1.296,0.118,2.555,0.357,2.968,1.933c0.111,0.428,0.484,0.787,0.844,1.342c1.82,0.265,3.732,0.451,5.6,0.848
		c1.228,0.262,2.479,0.676,3.556,1.304c0.849,0.495,1.14,1.528,0.725,2.539c-0.369,0.9-1.204,1.003-2.009,0.862
		c-0.94-0.165-1.848-0.51-2.782-0.72c-1.54-0.346-3.089-0.66-4.841-0.232c-0.686,2.914-0.206,5.787-0.047,8.607
		c0.512,9.095,1.042,18.194,1.859,27.265c0.859,9.548,2.123,19.06,3.08,28.6c0.462,4.604,0.689,9.236,0.896,13.862
		c0.088,1.969,0.216,3.62,2.112,4.955c1.522,1.072,0.837,3.288-0.977,3.629c-1.391,0.261-2.903,0.454-4.262,0.183
		c-3.034-0.605-6.002-0.284-9.029-0.081c-4.783,0.32-9.588,0.314-14.382,0.487c-3.509,0.127-7.016,0.416-10.525,0.461
		c-6.386,0.081-12.771,0.346-19.159-0.287c-3.168-0.313-6.39-0.076-9.587-0.072c-8.791,0.011-17.583-0.023-26.374,0.062
		c-6.227,0.061-12.453,0.304-18.68,0.437c-5.116,0.11-10.232,0.222-15.35,0.255c-6.562,0.043-13.078,0.605-19.607,1.237
		c-5.396,0.523-10.85,0.471-16.277,0.692c-10.854,0.442-21.711,0.812-32.5,2.272c-2.992,0.405-6.062,0.262-9.098,0.323
		c-8.95,0.184-17.901,0.391-26.854,0.476c-2.045,0.019-3.645,0.94-5.201,2.183c-3.237-2.334-6.679-2.676-10.23-2.507
		c-0.478,0.022-0.962-0.006-1.438-0.058c-2.635-0.284-3.062-1.281-1.768-4.53c3.061,0.235,6.201,0.478,9.582,0.738
		c0.25-1.155,0.634-2.044,0.596-2.914c-0.123-2.871-0.427-5.732-0.609-8.602c-0.173-2.711-0.237-5.43-0.424-8.14
		c-0.68-9.874-1.267-19.755-2.576-29.578c-0.399-3.002-0.281-6.068-0.544-9.094c-0.4-4.614-0.925-9.218-1.396-13.826
		c-0.358-3.498-0.683-7.001-1.082-10.494c-0.308-2.682-0.71-5.353-1.096-8.221c-1.306-0.238-2.366-0.611-3.419-0.593
		c-4.639,0.084-9.236,0.533-13.709,1.887c-0.591,0.179-1.254,0.169-1.883,0.167c-0.782-0.002-1.39-0.997-1.125-1.733
		c0.457-1.277,1.258-2.271,2.58-2.621c1.54-0.408,3.11-0.764,4.689-0.941c3.019-0.341,6.054-0.529,9.079-0.806
		C904.981,717.493,905.737,717.327,906.477,717.209z M1144.032,723.465c-2.61-0.883-4.709-0.7-6.752-0.715
		c-10.218-0.072-20.425-0.326-30.635-0.815c-8.464-0.406-16.896-1.053-25.324-1.858c-1.748-0.167-3.509-0.246-5.266-0.276
		c-16.459-0.284-32.918-0.604-49.378-0.801c-12.944-0.154-25.894-0.596-38.832,0.083c-7.025,0.368-14.043,0.753-21.079,0.532
		c-3.992-0.124-7.992-0.509-11.974-0.369c-12.935,0.454-25.863,1.08-38.791,1.695c-1.034,0.049-2.05,0.519-3.12,0.805
		c0.355,4.254,0.597,8.223,1.031,12.17c1.068,9.684,2.244,19.345,2.656,29.102c0.377,8.932,1.379,17.837,2.098,26.755
		c0.551,6.845,1.068,13.692,1.661,20.534c0.077,0.897,0.511,1.764,0.815,2.764c1.431,0.098,2.693,0.269,3.955,0.256
		c9.594-0.094,19.188-0.138,28.778-0.38c4.468-0.112,8.926-0.61,13.386-0.974c5.25-0.429,10.49-1.032,15.746-1.324
		c8.137-0.451,16.287-0.653,24.426-1.062c3.348-0.168,6.676-0.77,10.022-0.873c10.056-0.312,20.108-0.633,30.161-1.069
		c9.417-0.409,18.863-0.17,28.297-0.182c17.59-0.021,35.18,0.127,52.766-0.099c6.851-0.088,13.69-0.993,20.532-1.558
		c0.253-0.021,0.479-0.371,1.015-0.813c0.033-1.806,0.074-3.868,0.109-5.931c0.172-9.946-1.721-19.715-2.733-29.55
		c-1.212-11.767-2.536-23.504-2.736-35.347C1144.808,730.673,1144.335,727.188,1144.032,723.465z"/>
	<path fill-rule="evenodd" clip-rule="evenodd" fill="#F1F2F2" d="M302.214,153.196c-0.12,1.724-0.126,3.149-0.342,4.543
		c-0.217,1.406-0.508,2.836-1.042,4.142c-0.222,0.543-1.161,0.792-1.911,1.26c-1.477-3.249-1.066-6.565-1.877-9.611
		c-3.193-1.447-6.426-0.821-9.575-0.938c-1.112-0.041-2.231,0.147-3.348,0.165c-0.469,0.008-0.95-0.118-1.409-0.244
		c-1.059-0.291-1.619-1.074-1.604-2.108c0.014-0.94,0.789-1.372,1.63-1.409c3.505-0.155,7.012-0.258,10.519-0.364
		c0.938-0.029,1.879-0.005,3.074-0.005c0.128-1.029,0.396-1.938,0.327-2.821c-0.776-10.028-1.595-20.054-2.421-30.078
		c-0.445-5.41-1.048-10.811-1.364-16.229c-0.726-12.443-1.345-24.894-1.953-37.344c-0.18-3.672-0.665-7.278-1.501-10.737
		c-1.611-1.07-3.25-0.637-4.812-0.67c-3.676-0.078-7.354-0.044-11.027-0.174c-0.616-0.021-1.211-0.636-2.629-1.434
		c8.609-0.461,16.249-1.043,23.898-1.244c17.097-0.449,34.201-0.61,51.297-1.081c9.901-0.272,19.799-0.819,29.686-1.436
		c5.408-0.336,10.791-1.085,16.188-1.621c1.588-0.157,3.184-0.302,4.777-0.32c19.502-0.229,39.002-0.429,58.508-0.055
		c11.824,0.228,23.657,0.021,35.486-0.001c0.31-0.001,0.619-0.139,1.039-0.24c0.16-0.354,0.377-0.76,0.529-1.188
		c0.727-2.031,2.48-2.511,3.767-0.925c0.572,0.705,0.829,1.668,1.354,2.777c2.182,0.141,4.392,0.316,6.604,0.412
		c1.275,0.055,2.558-0.064,3.835-0.021c0.626,0.021,1.27,0.165,1.862,0.374c1.015,0.355,1.648,1.646,1.362,2.749
		c-0.275,1.062-1.004,1.564-2.114,1.502c-2.872-0.162-5.743-0.33-8.616-0.469c-0.934-0.045-1.87-0.007-3.047-0.007
		c-0.205,1.123-0.551,2.025-0.504,2.906c0.368,6.859,0.811,13.715,1.23,20.571c0.187,3.028,0.416,6.056,0.556,9.086
		c0.485,10.531,0.779,21.073,1.457,31.591c0.534,8.281,1.533,16.531,2.31,24.797c0.18,1.909,0.248,3.829,0.447,5.736
		c0.163,1.562,0.443,3.111,0.682,4.733c3.105,1.294,6.162,0.961,9.154,1.1c1.27,0.059,2.561,0.013,3.805,0.225
		c1.042,0.179,1.551,1.042,1.639,2.093c0.101,1.219-0.557,2.451-1.629,2.602c-1.241,0.173-2.527,0.119-3.787,0.047
		c-2.531-0.146-5.057-0.371-7.833-0.581c-0.218,1.178-0.511,2.062-0.518,2.949c-0.018,2.076,0.14,4.153,0.153,6.23
		c0.008,1.385-0.791,2.269-1.883,2.257c-1.119-0.012-2.327-0.849-2.456-1.895c-0.177-1.425-0.189-2.869-0.272-4.306
		c-0.102-1.737,0.088-3.525-1.02-5.423c-0.9-0.134-1.961-0.417-3.024-0.428c-4.156-0.045-8.315,0.081-12.47-0.017
		c-4.791-0.111-9.576-0.405-14.365-0.594c-3.194-0.125-6.39-0.288-9.584-0.289c-11.027-0.002-22.055,0.091-33.082,0.088
		c-8.951-0.002-17.904-0.216-26.853-0.108c-10.544,0.127-21.083,0.537-31.627,0.751c-7.669,0.156-15.342,0.147-23.012,0.3
		c-4.788,0.095-9.572,0.431-14.36,0.503c-2.383,0.037-4.782-0.17-7.153-0.447C316.343,152.003,309.379,152.589,302.214,153.196z
		 M301.684,148.612c3.877,0.389,7.515,0.231,11.163-0.101c1.584-0.144,3.187-0.233,4.773-0.17c4.305,0.172,8.611,0.706,12.907,0.621
		c13.261-0.262,26.519-0.197,39.786-0.716c23.152-0.905,46.338-0.734,69.514-0.485c3.822,0.041,7.646-0.11,11.49-0.173
		c1.012-2.362,2.426-3.578,4.85-2.543c0.31,0.746,0.605,1.459,1.003,2.416c13.706,0.455,27.373,0.981,41.257,0.243
		c0.341-2.189,0.154-4.041-0.004-5.938c-0.951-11.453-2.52-22.86-2.512-34.387c0.002-3.19-0.311-6.381-0.494-9.57
		c-0.359-6.222-0.742-12.442-1.092-18.664c-0.482-8.618-0.924-17.238-1.427-25.854c-0.101-1.711-0.112-3.479-1.03-5.177
		c-4.562-0.427-9.014-0.547-13.478-0.532c-8.472,0.027-16.944,0.058-25.416-0.005c-3.353-0.024-6.702-0.41-10.054-0.427
		c-12.151-0.057-24.303-0.107-36.454,0.005c-6.228,0.059-12.46,0.346-18.675,0.754c-5.896,0.388-11.763,1.327-17.66,1.567
		c-12.773,0.519-25.556,0.838-38.338,1.062c-11.35,0.199-22.704,0.148-34.057,0.241c-1.571,0.013-3.203-0.324-4.69,0.493
		c0.683,4.749,1.615,9.455,1.986,14.204c0.622,7.959,0.837,15.948,1.317,23.919c0.394,6.537,0.902,13.066,1.4,19.597
		c0.958,12.578,2.984,25.06,3.415,37.687C301.182,147.135,301.401,147.584,301.684,148.612z"/>
	<path fill-rule="evenodd" clip-rule="evenodd" fill="#F1F2F2" d="M12.683,513.276c-3.761,0-6.927,0-10.06,0
		c-1.183-3.078-0.519-4.357,2.305-4.549c1.275-0.086,2.554-0.123,3.828-0.219c0.993-0.074,1.686-0.566,2.407-1.321
		c1.451-1.52,2.951-1.643,4.442-0.079c1.146,1.202,2.366,1.49,3.808,1.599c8.611,0.65,17.232,1.062,25.87,1.176
		c2.539,0.033,5.072,0.464,7.608,0.708c0.955,0.092,1.908,0.206,2.865,0.247c23.977,1.027,47.964,1.317,71.958,0.961
		c7.515-0.111,15.026-0.426,22.54-0.568c2.551-0.049,5.104,0.165,7.656,0.225c8.156,0.189,16.312,0.34,24.468,0.562
		c1.75,0.048,3.491,0.37,5.242,0.492c1.088,0.076,2.187,0.014,3.459,0.014c0.218-0.61,0.489-1.172,0.614-1.765
		c0.271-1.271,1.006-1.982,2.3-2.01c1.279-0.027,1.988,0.688,2.453,2.377c0.124,0.451,0.189,0.919,0.305,1.496
		c1.528,1.061,3.336,0.798,5.04,1.021c1.733,0.227,3.475,0.445,5.179,0.821c0.978,0.216,1.181,1.432,0.593,2.348
		c-0.66,1.028-1.549,1.562-2.776,1.557c-2.393-0.01-4.785-0.003-7.449-0.003c-0.173,1.015-0.506,1.907-0.442,2.771
		c0.471,6.377,0.994,12.751,1.554,19.12c0.503,5.728,1.14,11.444,1.596,17.175c0.495,6.215,0.81,12.443,1.282,18.66
		c0.387,5.098,0.881,10.187,1.344,15.278c0.551,6.05,1.133,12.097,1.667,18.148c0.153,1.738,0.398,3.516-0.798,5.323
		c-0.797-0.07-1.693-0.149-2.786-0.245c-0.3-1.327-0.568-2.512-0.9-3.982c-1.628-0.091-3.195-0.249-4.764-0.256
		c-7.997-0.034-15.995,0.023-23.992-0.054c-6.551-0.063-13.1-0.346-19.65-0.387c-4.146-0.025-8.293,0.316-12.438,0.301
		c-3.348-0.013-6.691-0.376-10.04-0.471c-4.304-0.122-8.609-0.504-12.905,0.32c-1.389,0.267-2.892,0.265-4.298,0.065
		c-7.438-1.05-14.924-1.606-22.416-1.781c-11.361-0.265-22.655-1.385-33.972-2.232c-2.389-0.179-4.785-0.338-7.18-0.359
		c-7.197-0.063-14.396-0.042-21.593-0.084c-1.808-0.011-3.386,0.076-4.467,1.984c-0.686,1.209-2.095,1.215-2.725,0.024
		c-0.947-1.792-2.239-2.175-3.947-1.728c-1.13,0.296-2.147,0.536-3.118-0.369c-1.238-1.154-1.177-2.521-0.668-4.269
		c2.061-0.199,4.222-0.408,6.385-0.617c1.323-2.596,0.822-5.225,0.568-7.674c-1.549-14.964-2.177-29.98-2.839-44.997
		c-0.204-4.632-0.348-9.271-0.722-13.89c-0.335-4.131-0.956-8.237-1.438-12.356C13.324,519.114,13.036,516.442,12.683,513.276z
		 M191.538,517.792c-4.405-0.703-8.851-1.32-13.28-1.359c-18.378-0.162-36.761-0.284-55.137-0.062
		c-17.742,0.214-35.48,0.403-53.207-0.384c-15.958-0.708-31.904-1.696-47.858-2.524c-1.369-0.071-2.864-0.683-4.289,0.722
		c-0.231,2.522,0.158,5.202,0.451,7.881c0.139,1.27,0.443,2.524,0.526,3.796c0.683,10.52,1.356,21.04,1.983,31.562
		c0.684,11.48,1.27,22.966,2.002,34.442c0.181,2.83,0.764,5.635,1.178,8.565c0.952,0.149,1.721,0.359,2.492,0.377
		c7.988,0.178,15.978,0.271,23.964,0.5c4.789,0.138,9.606,0.2,14.352,0.783c8.258,1.016,16.544,1.407,24.839,1.749
		c4.783,0.197,9.588-0.068,14.324,0.934c1.081,0.229,2.227,0.202,3.343,0.208c9.749,0.054,19.497,0.069,29.246,0.134
		c8.3,0.055,16.6,0.112,24.898,0.26c4.458,0.079,8.911,0.463,13.368,0.508c5.587,0.056,11.177-0.12,16.766-0.144
		c2.707-0.012,5.286-0.547,8.074-1.328c-0.126-2.166-0.053-4.092-0.377-5.947c-1.546-8.825-1.941-17.759-2.647-26.663
		c-0.505-6.366-0.907-12.741-1.392-19.11c-0.471-6.205-0.98-12.406-1.486-18.609c-0.362-4.453-0.707-8.908-1.151-13.354
		C192.429,519.814,191.936,518.941,191.538,517.792z"/>
	<path fill-rule="evenodd" clip-rule="evenodd" fill="#F1F2F2" d="M712.444,129.723c-0.235,1.307-0.28,2.111-0.533,2.845
		c-0.596,1.732-2.602,2.101-3.76,0.688c-0.387-0.471-0.548-1.124-0.828-1.686c-0.209-0.417-0.444-0.821-0.715-1.318
		c-2.577-0.363-5.082,0.182-7.604,0.511c-2.376,0.31-4.755,0.637-7.144,0.772c-0.682,0.039-1.544-0.413-2.068-0.91
		c-0.729-0.692-0.943-1.779-0.31-2.616c0.419-0.554,1.226-1.047,1.911-1.127c3.807-0.442,7.633-0.721,11.444-1.125
		c1.068-0.113,2.111-0.459,3.209-0.708c0.401-4.216,0.323-8.183,0.089-12.171c-0.6-10.208-0.959-20.432-1.635-30.634
		c-0.76-11.491-0.57-23.002-1.029-34.493c-0.228-5.713-0.783-11.457-2.371-17.238c-0.884-0.212-1.78-0.624-2.668-0.606
		c-3.349,0.065-6.693,0.277-10.041,0.418c-1.275,0.055-2.558,0.14-3.828,0.065c-0.602-0.035-1.367-0.255-1.728-0.675
		c-0.464-0.54-0.911-1.432-0.782-2.049c0.123-0.584,0.976-1.398,1.553-1.438c2.707-0.186,5.43-0.151,8.146-0.171
		c2.391-0.019,4.782-0.004,7.092-0.004c0.87-1.067,1.561-1.915,2.477-3.038c0.917,0.308,2.203,0.364,2.869,1.035
		c1.805,1.815,3.947,1.914,6.215,1.794c5.266-0.281,10.527-0.711,15.797-0.847c14.535-0.376,29.074-0.631,43.611-0.936
		c11.809-0.247,23.619-0.459,35.428-0.759c9.568-0.243,19.133-0.725,28.702-0.863c11.026-0.16,22.058-0.104,33.086-0.035
		c2.214,0.015,4.426,0.508,6.503,0.764c1.048,2.106,1.048,2.106,0.146,3.962c-1.523,0.126-3.067,0.253-4.871,0.402
		c-0.102,0.943-0.331,1.709-0.242,2.437c1.795,14.739,3.581,29.479,5.474,44.206c0.65,5.061,1.612,10.081,2.378,15.128
		c1.485,9.785,2.934,19.576,4.389,29.366c0.117,0.79,0.113,1.6,0.253,2.384c0.312,1.745,1.026,2.54,2.865,2.66
		c2.224,0.146,4.466-0.018,6.698,0.028c1.859,0.038,2.668,0.872,2.711,2.614c0.048,2.022-0.902,2.899-2.947,2.702
		c-1.904-0.184-3.805-0.419-5.713-0.548c-0.785-0.054-1.584,0.111-2.512,0.188c-0.639,1.072-1.279,2.15-1.914,3.216
		c-3.148,0.346-3.148,0.346-4.194-3.422c-9.505-0.72-19.037-1.089-28.628-0.262c-5.396,0.465-10.856,0.292-16.286,0.231
		c-17.577-0.196-35.152-0.592-52.729-0.655c-6.055-0.021-12.117,0.645-18.167,1.107c-13.718,1.052-27.446,1.296-41.192,0.747
		C716.997,129.578,714.938,129.693,712.444,129.723z M706.481,30.312c0,0.941-0.09,1.73,0.014,2.493
		c1.299,9.521,2.012,19.08,1.9,28.695c-0.016,1.277,0.107,2.556,0.165,3.833c0.399,8.784,0.853,17.566,1.181,26.354
		c0.291,7.825,0.291,15.661,1.293,23.45c0.404,3.144,0.617,6.312,0.938,9.679c3.444,0.149,6.796,0.113,10.104,0.478
		c5.746,0.633,11.502,0.733,17.252,0.461c9.098-0.432,18.178-1.322,27.279-1.574c11.342-0.313,22.667-1.013,34.044-0.664
		c15.022,0.46,30.065,0.285,45.1,0.324c8.62,0.022,17.237-0.682,25.864-0.063c1.376,0.099,2.785-0.256,4.215-0.404
		c0.555-1.873,0.458-3.439,0.207-5.019c-0.227-1.421-0.449-2.843-0.652-4.267c-1.195-8.38-2.37-16.762-3.58-25.139
		c-0.73-5.062-1.533-10.113-2.266-15.175c-0.458-3.164-0.902-6.333-1.252-9.511c-0.906-8.257-1.822-16.514-2.604-24.782
		c-0.391-4.146-1.258-8.166-2.355-12.339c-1.004-0.158-1.924-0.406-2.851-0.43c-3.837-0.099-7.679-0.229-11.516-0.166
		c-17.912,0.289-35.823,0.642-53.734,0.967c-10.395,0.189-20.79,0.343-31.183,0.564c-6.713,0.143-13.424,0.56-20.135,0.533
		c-11.527-0.047-23.027,0.4-34.518,1.24C708.462,29.919,707.544,30.139,706.481,30.312z"/>
	<path fill-rule="evenodd" clip-rule="evenodd" fill="#F1F2F2" d="M988.374,379.441c-1.284-1.053-2.564-0.973-3.848-0.877
		c-5.413,0.407-10.826,0.817-16.24,1.219c-0.475,0.035-0.957,0.047-1.43,0.007c-0.867-0.072-1.92-1.067-1.884-1.888
		c0.042-0.947,0.765-1.343,1.603-1.416c3.974-0.344,7.945-0.712,11.926-0.953c3.016-0.183,6.042-0.187,8.794-0.263
		c0.464-0.514,0.739-0.708,0.862-0.973c0.445-0.971,0.413-2.311,1.879-2.472c1.205-0.132,2.202,0.337,2.92,1.303
		c0.47,0.632,0.855,1.327,1.199,1.868c0.457,0.19,0.74,0.402,1.036,0.419c6.215,0.349,12.429,0.893,18.648,0.963
		c14.548,0.164,29.099,0.019,43.647,0.158c8.781,0.085,17.562,0.418,26.34,0.733c9.895,0.355,19.783,0.934,29.68,1.197
		c9.599,0.256,19.123,1.289,28.659,2.255c5.714,0.578,11.435,1.125,17.034,2.492c9.328-0.068,18.305,2.853,27.579,3.253
		c2.233,0.096,4.469,0.226,6.696,0.419c3.971,0.344,7.938,0.734,11.902,1.145c0.617,0.064,1.262,0.248,1.81,0.535
		c0.843,0.443,1.665,0.986,1.687,2.116c0.014,0.723-0.916,1.202-2.283,1.198c-1.749-0.005-3.499-0.001-5.52-0.001
		c-0.18,0.822-0.536,1.707-0.537,2.592c-0.002,3.195,0.054,6.394,0.201,9.585c0.354,7.662,0.814,15.32,1.154,22.983
		c0.531,11.987,1.978,23.877,3.725,35.736c0.066,0.452,0.35,0.872,0.652,1.596c0.947,0.149,2.004,0.384,3.072,0.47
		c1.752,0.141,3.523,0.091,5.266,0.295c2.085,0.245,3.292,1.792,3.33,3.992c0.016,0.941-0.941,1.844-1.887,1.699
		c-0.625-0.096-1.229-0.329-1.844-0.493c-2.943-0.787-5.854-1.618-8.876-0.145c-1.032,0.503-2.128,0.012-3.208-0.438
		c-1.447-0.603-2.999-1.139-4.545-1.278c-4.771-0.434-9.602-0.38-14.337-1.035c-9.665-1.339-19.438-0.89-29.106-2.09
		c-7.601-0.943-15.223-1.726-22.849-2.454c-5.243-0.501-10.509-0.756-15.759-1.181c-3.342-0.27-6.668-0.838-10.011-0.944
		c-8.142-0.259-16.292-0.22-24.433-0.5c-8.467-0.292-16.913-0.411-25.385,0.132c-4.434,0.284-8.92-0.305-13.385-0.436
		c-4.473-0.131-8.947-0.198-13.422-0.264c-8.627-0.126-17.254-0.23-25.882-0.347c-0.318-0.005-0.636-0.06-0.954-0.074
		c-3.146-0.145-6.092,1.287-9.374,0.795c-2.946-0.442-6.036,0.13-9.063,0.161c-2.389,0.025-4.791,0.028-7.166-0.186
		c-1.839-0.165-2.127-0.821-2.075-3.588c2.889-1.168,5.925-0.188,8.89-0.339c3.01-0.152,6.038-0.073,9.223-0.928
		c0.168-1.364,0.482-2.606,0.442-3.837c-0.158-4.791-0.256-9.595-0.698-14.363c-0.678-7.316-1.193-14.645-1.805-21.962
		c-0.931-11.149-1.188-22.314-1.703-33.475C988.688,380.79,988.474,380.026,988.374,379.441z M1196.038,391.429
		c-1.828-0.301-3.215-0.579-4.615-0.75c-7.288-0.891-14.583-1.721-21.867-2.632c-13.305-1.665-26.58-3.591-39.912-4.981
		c-8.094-0.845-16.27-0.892-24.41-1.297c-1.754-0.087-3.51-0.146-5.263-0.263c-6.056-0.4-12.104-1.025-18.165-1.191
		c-12.913-0.354-25.827-0.645-38.753-0.417c-7.18,0.126-14.37-0.366-21.556-0.519c-7.832-0.165-15.664-0.272-23.496-0.366
		c-1.238-0.015-2.48,0.177-3.736,0.274c-0.959,2.581-0.561,4.992-0.47,7.333c0.382,9.734,0.88,19.465,1.346,29.196
		c0.267,5.583,0.511,11.167,0.841,16.745c0.36,6.057,0.795,12.108,1.227,18.16c0.101,1.406,0.32,2.803,0.475,4.115
		c0.76,0.261,1.199,0.527,1.65,0.548c3.668,0.16,7.338,0.353,11.008,0.388c6.706,0.062,13.412-0.005,20.119,0.038
		c6.072,0.039,12.145,0.206,18.217,0.221c11.986,0.031,23.974-0.148,35.957,0.031c10.537,0.158,21.068,0.686,31.603,1.056
		c0.479,0.017,0.963,0.041,1.431,0.133c6.926,1.361,13.978,1.302,20.975,1.859c1.433,0.114,2.875,0.126,4.303,0.278
		c5.711,0.606,11.41,1.345,17.13,1.85c4.774,0.421,9.577,0.506,14.356,0.885c4.451,0.352,8.886,0.919,13.332,1.341
		c2.067,0.196,4.146,0.37,6.221,0.373c2.188,0.003,4.406,0.544,6.467,0.015c0.213-0.539,0.451-0.839,0.422-1.109
		C1198.267,439.251,1196.796,415.679,1196.038,391.429z"/>
	<path fill-rule="evenodd" clip-rule="evenodd" fill="#F1F2F2" d="M475.491,314.799c0.047-1.39,0.206-2.485,0.102-3.557
		c-1.387-14.295-1.353-28.745-4.565-43.183c-1.754-0.121-3.468-0.184-5.168-0.373c-1.512-0.168-2.713-2.073-2.349-3.563
		c0.25-1.027,1.344-1.954,2.465-1.922c1.435,0.041,2.868,0.323,4.299,0.295c3.352-0.064,6.701-0.337,10.053-0.373
		c5.587-0.059,11.175,0.012,16.762,0.01c3.18-0.001,6.355,0.372,9.531-0.41c1.354-0.333,2.867-0.177,4.288-0.04
		c6.687,0.645,13.364,0.672,20.083,0.44c6.694-0.229,13.41,0.146,20.117,0.251c4.311,0.066,8.623,0.187,12.935,0.17
		c10.39-0.04,20.78-0.191,31.171-0.205c3.994-0.006,7.986,0.281,11.981,0.362c10.544,0.216,21.091,0.308,31.633,0.607
		c8.618,0.245,17.229,0.694,25.843,1.097c6.541,0.305,13.079,0.67,19.617,1.024c1.835,0.1,2.699,1.031,2.575,2.688
		c-0.108,1.453-1.014,2.379-2.442,2.392c-0.797,0.007-1.594-0.164-2.392-0.171c-0.618-0.005-1.239,0.121-1.933,0.197
		c-1.178,2.532-0.922,5.1-0.508,7.581c1.759,10.555,3.659,21.086,5.441,31.637c0.312,1.847,1.14,2.907,3.046,3.062
		c0.634,0.052,1.274,0.168,1.886,0.348c1.039,0.305,1.577,1.115,1.598,2.136c0.021,1.099-0.783,1.813-1.725,2.026
		c-1.229,0.279-2.528,0.359-3.795,0.342c-5.756-0.08-11.512-0.231-17.267-0.34c-1.594-0.029-3.19-0.025-4.784,0.013
		c-2.877,0.069-5.753,0.186-8.631,0.263c-11.025,0.299-22.052,0.716-33.08,0.85c-12.789,0.154-25.582,0.035-38.374,0.079
		c-5.751,0.021-11.496-0.122-17.243,0.601c-3.309,0.415-6.727,0.401-10.054,0.11c-6.388-0.559-12.728-0.452-19.114,0.037
		c-5.091,0.39-10.225,0.271-15.34,0.283c-13.279,0.032-26.558-0.033-39.836,0.046c-3.021,0.019-6.039,0.47-9.059,0.706
		c-0.956,0.074-1.92,0.176-2.873,0.13c-1.424-0.069-2.473-1.419-2.459-3.017c0.01-1.096,0.812-1.88,2.232-2.062
		C471.862,315.148,473.574,315,475.491,314.799z M674.252,270.046c-3.804-0.939-7.304-1.128-10.817-1.233
		c-3.195-0.097-6.391-0.209-9.585-0.337c-5.427-0.217-10.851-0.524-16.278-0.66c-5.914-0.147-11.834-0.073-17.748-0.224
		c-8.307-0.212-16.609-0.713-24.915-0.784c-14.548-0.125-29.098,0.022-43.646-0.02c-15.828-0.047-31.656-0.214-47.483-0.261
		c-7.673-0.023-15.347,0.081-23.02,0.193c-1.545,0.022-3.226-0.32-4.687,1.032c-0.041,0.68-0.213,1.48-0.113,2.244
		c0.619,4.745,1.314,9.479,1.953,14.222c0.275,2.056,0.688,4.124,0.668,6.184c-0.068,7.062,0.99,14.022,1.717,21.012
		c0.096,0.916,0.412,1.809,0.604,2.624c2.661,1.222,5.255,0.54,7.771,0.626c17.579,0.596,35.157,0.687,52.726-0.411
		c1.275-0.079,2.557-0.072,3.835-0.079c28.453-0.156,56.909,0.281,85.357-0.734c11.168-0.399,22.353-0.333,33.526-0.58
		c4.629-0.103,9.254-0.45,13.877-0.744c0.763-0.049,1.506-0.394,2.244-0.598c0.162-0.593,0.453-1.07,0.387-1.492
		C678.54,296.804,676.419,283.588,674.252,270.046z"/>
	<path fill-rule="evenodd" clip-rule="evenodd" fill="#F1F2F2" d="M304.233,417.298c0.875,8.464,1.621,16.381,2.532,24.28
		c0.894,7.76,1.955,15.501,2.949,23.296c1.56,0.63,2.905,1.097,4.182,1.708c1.62,0.776,1.747,1.362,1.074,4.155
		c-1.467,0.769-3.764,0.108-4.793,2.287c-0.472,0.999-1.764,0.821-2.558,0.247c-1.005-0.727-1.814-1.723-3.104-2.991
		c-1.288,0-3.021,0.003-4.755,0c-21.75-0.041-43.499-0.12-65.248-0.089c-3.819,0.005-7.646,0.04-11.461,0.77
		c-2.644,0.505-5.42,0.288-8.133,0.452c-17.572,1.062-35.152,1.174-52.744,0.589c-8.625-0.288-17.257-0.542-25.885-0.541
		c-5.266,0-10.529,0.525-15.796,0.785c-1.265,0.062-2.536,0.01-3.833,0.01c-0.266-0.513-0.572-0.896-0.662-1.324
		c-0.19-0.91-0.269-1.843-0.396-2.792c3.305-2.32,7.188,0.103,10.441-1.831c0-1.06,0.055-2.156-0.009-3.247
		c-0.937-15.954-2.258-31.87-4.741-47.669c-0.068-0.435-0.481-0.815-0.804-1.332c-2.948-0.612-5.973-0.229-8.988-0.111
		c-0.636,0.025-1.276,0.137-1.905,0.089c-1.291-0.098-2.146-1.236-2.104-2.728c0.033-1.159,0.769-1.746,1.804-1.854
		c2.067-0.215,4.154-0.243,6.217-0.493c2.029-0.246,4.036-0.673,6.861-1.159c2.604,1.399,6.283,1.308,9.958,1.282
		c8.469-0.059,16.94,0.021,25.406-0.18c11.347-0.268,22.688-0.769,34.034-1.121c3.029-0.095,6.065-0.049,9.098-0.008
		c14.545,0.198,29.095,0.271,43.635,0.673c12.786,0.354,25.564,1.036,38.34,1.676c3.507,0.175,6.99,0.786,10.494,1.069
		c4.299,0.347,8.611,0.521,12.912,0.852c1.408,0.108,2.855,0.305,4.179,0.767c1.468,0.512,1.576,2.671,0.215,3.489
		c-0.796,0.478-1.739,0.819-2.656,0.957C306.909,417.423,305.786,417.298,304.233,417.298z M299.562,416.892
		c-5.961-0.745-11.328-1.735-16.732-2.028c-14.527-0.789-29.068-1.373-43.609-1.854c-9.27-0.307-18.55-0.391-27.824-0.38
		c-10.875,0.013-21.75,0.201-32.623,0.38c-7.355,0.121-14.707,0.422-22.062,0.522c-8.636,0.118-17.274,0.082-25.911,0.176
		c-1.548,0.017-3.223-0.372-4.812,0.977c0,1.077-0.12,2.331,0.02,3.555c0.864,7.621,1.903,15.224,2.653,22.856
		c0.609,6.193,1.792,12.344,1.559,18.615c-0.054,1.429,0.122,2.881,0.343,4.298c0.116,0.747,0.559,1.443,0.969,2.445
		c1.918,0.073,3.813,0.173,5.71,0.212c6.07,0.124,12.143,0.196,18.213,0.343c12.943,0.313,25.879,1.115,38.837,0.517
		c10.223-0.473,20.466-0.641,30.67-1.365c12.457-0.885,24.914-0.725,37.377-0.715c4.79,0.004,9.598,0.337,14.365,0.034
		c5.285-0.336,10.532-0.008,15.798,0.027c4.097,0.027,8.197-0.465,12.44-0.735c0-1.704,0.133-3.121-0.021-4.507
		c-1.109-10.004-2.24-20.006-3.445-29.998C300.94,425.845,300.219,421.446,299.562,416.892z"/>
	<path fill-rule="evenodd" clip-rule="evenodd" fill="#F1F2F2" d="M907.13,330.304c-0.404,14.68-0.064,28.829,1.243,43.228
		c1.461,0.188,2.679,0.44,3.903,0.482c2.392,0.081,4.789,0,7.182,0.068c2.43,0.07,2.955,0.77,2.574,3.359
		c-0.062,0.427-0.439,0.809-0.827,1.483c-2.738,0.196-5.59-0.101-8.431-0.052c-2.596,0.045-2.596,0.046-5.161,1.826
		c-0.149,0-0.339,0.059-0.458-0.008c-3.521-1.978-7.384-1.65-11.188-1.638c-18.382,0.062-36.764,0.131-55.145,0.229
		c-11.668,0.062-23.334,0.241-35.001,0.244c-5.911,0.002-11.825-0.431-17.734-0.376c-8.625,0.08-17.247,0.432-25.87,0.648
		c-1.758,0.044-3.518-0.033-5.273,0.015c-1.247,0.034-2.49,0.186-3.922,0.299c0.09,1.634,0.166,3.019,0.237,4.296
		c-1.497,1.399-3.003,1.01-3.971-0.059c-0.909-1.004-1.257-2.517-1.931-3.979c-1.764-0.603-3.635-0.135-5.502,0.162
		c-1.262,0.2-2.509,0.515-3.776,0.652c-1.87,0.203-3.142-0.775-3.21-2.643c-0.023-0.616,0.561-1.508,1.121-1.825
		c0.631-0.357,1.552-0.185,2.342-0.283c3.141-0.391,6.279-0.798,9.297-1.183c1.338-2.741,0.869-5.359,0.922-7.86
		c0.473-22.727,0.097-30.603-1.702-38.007c-0.942-0.112-2.003-0.347-3.063-0.347c-3.516,0.001-7.031,0.094-10.547,0.133
		c-1.421,0.017-2.412-0.626-2.975-1.969c-0.596-1.418,0.037-2.677,1.541-2.752c1.434-0.072,2.875,0.014,4.313,0.031
		c2.558,0.03,5.114,0.1,7.671,0.07c0.771-0.009,1.54-0.29,2.388-0.462c0.276-1.455,0.532-2.794,0.8-4.2
		c3.055-0.192,2.721,3.144,4.618,4.183c9.253,0.2,18.505,0.556,27.759,0.565c15.184,0.016,30.369-0.164,45.554-0.318
		c7.985-0.081,15.972-0.488,23.953-0.384c12.942,0.169,25.896,0.351,38.813,1.069c10.393,0.578,20.765,0.524,31.15,0.46
		c1.277-0.008,2.562-0.022,3.83,0.093c1.076,0.099,1.709,0.855,1.86,1.887c0.146,1-0.853,2.346-1.819,2.484
		c-0.785,0.114-1.592,0.099-2.391,0.1c-3.037,0.005-6.074-0.034-9.111-0.001C909.938,330.041,908.685,330.193,907.13,330.304z
		 M901.98,330.312c-0.876-0.1-1.651-0.234-2.432-0.268c-6.54-0.279-13.081-0.6-19.624-0.793
		c-11.816-0.351-23.635-0.784-35.456-0.877c-10.062-0.08-20.126,0.331-30.189,0.416c-13.898,0.119-27.798,0.174-41.698,0.18
		c-6.066,0.002-12.134-0.209-18.201-0.259c-0.875-0.008-1.753,0.347-2.734,0.556c0.337,5.354,0.729,10.432,0.957,15.518
		c0.219,4.933,0.299,9.872,0.386,14.81c0.089,5.061,0.112,10.122,0.165,15.299c0.909,0.193,1.514,0.438,2.114,0.432
		c5.269-0.054,10.552,0.076,15.8-0.292c8.627-0.604,17.254-0.781,25.855-0.09c7.195,0.578,14.395,0.652,21.542,0.148
		c6.562-0.463,13.069-0.446,19.61-0.118c3.029,0.151,6.098,0.486,9.093,0.19c9.887-0.978,19.786-0.254,29.674-0.494
		c7.823-0.189,15.65-0.234,23.476-0.364c1.251-0.021,2.584,0.131,3.73-1.283c0-1.327,0.05-2.912-0.008-4.492
		c-0.292-7.978-0.635-15.953-0.91-23.932c-0.1-2.873-0.088-5.751-0.08-8.626C903.056,334.047,902.675,332.222,901.98,330.312z"/>
	<path fill-rule="evenodd" clip-rule="evenodd" fill="#F1F2F2" d="M901.286,161.076c0.154,3.114,0.546,5.249,1.506,7.301
		c0.664,1.417,0.607,2.856-0.691,3.919c-1.407,1.152-3.01,1.942-4.852,1.092c-0.494-0.229-1.111-0.916-1.107-1.388
		c0.059-6.344-3.111-12.042-3.6-18.278c-0.096-1.222-0.875-2.383-1.303-3.585c-1.193-3.36,1.1-6.182,4.626-5.631
		c1.097,0.171,2.155,0.598,3.229,0.909c4.904,1.42,9.774,2.98,14.729,4.195c2.13,0.521,4.436,0.334,6.662,0.452
		c0.795,0.042,1.65-0.145,2.375,0.09c1.086,0.351,1.96,1.084,2.082,2.374c0.098,1.021-0.14,1.914-1.049,2.502
		c-1.807,1.169-3.617,1.808-5.851,0.93c-4.302-1.69-8.895-2.075-13.392-2.931c-0.097,0.617-0.293,1.021-0.168,1.194
		c1.861,2.574,3.76,5.121,5.66,7.665c0.472,0.631,1.029,1.2,1.472,1.85c3.599,5.271,7.061,10.642,10.79,15.818
		c9.15,12.701,18.228,25.448,26.755,38.58c3.998,6.157,8.11,12.239,12.144,18.373c7.021,10.673,14.012,21.365,21.03,32.04
		c5.698,8.668,11.132,17.514,17.392,25.808c1.439,1.906,2.592,4.031,3.851,6.07c2.517,4.076,5.069,8.133,7.509,12.255
		c2.029,3.429,3.879,6.963,5.882,10.407c1.685,2.897,3.244,5.911,5.271,8.557c4.096,5.349,7.59,11.067,10.959,16.866
		c1.456,2.506,2.884,4.944,5.148,6.839c1.303,1.09,1.584,2.4,0.924,3.33c-0.956,1.348-2.137,2.387-3.969,2.209
		c-1.131-0.109-1.545-0.998-2.036-1.827c-2.847-4.81-5.7-9.615-8.56-14.417c-0.489-0.823-0.894-1.739-1.539-2.422
		c-5.23-5.535-8.48-12.326-12.213-18.836c-3.49-6.089-7.377-11.95-11.089-17.912c-1.435-2.303-2.83-4.633-4.315-6.903
		c-5.935-9.079-11.861-18.164-17.864-27.198c-3.618-5.445-7.399-10.781-11.052-16.204c-2.312-3.436-4.279-7.134-6.84-10.366
		c-2.898-3.659-4.865-7.845-7.418-11.686c-2.477-3.725-4.848-7.519-7.333-11.236c-3.013-4.509-6.063-8.993-9.157-13.446
		c-5.738-8.259-11.482-16.515-17.302-24.716c-2.4-3.382-5.06-6.579-7.502-9.933c-2.617-3.594-5.423-7.06-7.617-10.955
		C903.185,162.337,902.527,162.056,901.286,161.076z"/>
	<path fill-rule="evenodd" clip-rule="evenodd" fill="#F1F2F2" d="M1145.55,473.338c0.703-0.24,1.425-0.65,2.174-0.709
		c2.07-0.162,3.216,0.808,2.936,2.75c-0.592,4.107-1.354,8.194-2.153,12.269c-0.864,4.406-2.592,8.54-4.171,12.723
		c-1.07,2.837-1.941,5.749-2.897,8.629c-2.011,6.057-4.066,12.1-6.016,18.177c-2.142,6.679-4.173,13.394-6.274,20.086
		c-1.77,5.635-3.316,11.355-5.417,16.864c-3.017,7.913-5.591,15.954-8.114,24.028c-2.758,8.829-5.848,17.555-8.844,26.308
		c-3.824,11.172-7.629,22.352-11.58,33.479c-1.973,5.554-3.775,11.171-6.342,16.518c-1.999,4.164-3.59,8.526-5.322,12.816
		c-0.346,0.855-0.51,1.783-0.973,3.455c1.391-0.992,2.189-1.407,2.792-2.018c4.599-4.655,9.135-9.372,13.743-14.019
		c1.596-1.61,3.889-1.648,5.632-0.278c0.766,0.602,0.94,1.846,0.348,2.555c-0.204,0.244-0.404,0.51-0.661,0.688
		c-6.36,4.437-11.11,10.54-16.521,15.958c-2.37,2.375-4.617,4.875-6.987,7.251c-1.008,1.009-2.12,1.946-3.305,2.736
		c-1.617,1.077-3.503,0.907-4.979-0.055c-1.294-0.842-2.666-2.415-2.084-4.026c1.945-5.37-0.836-10.385-0.827-15.583
		c0.001-0.948-0.341-1.903-0.29-2.843c0.143-2.636-0.574-5.046-1.622-7.411c-0.739-1.668-1.233-3.452,0.333-4.877
		c1.415-1.286,3.235-1.228,4.971-0.715c0.564,0.167,1.01,0.738,1.717,1.285c-0.592,5.259,1.19,10.239,2.232,15.979
		c0.809-1.006,1.408-1.501,1.684-2.136c1.27-2.929,2.502-5.875,3.648-8.854c2.005-5.207,3.939-10.442,5.898-15.668
		c0.504-1.342,0.925-2.718,1.496-4.028c2.549-5.849,4.712-11.831,6.752-17.88c2.749-8.147,5.891-16.163,8.848-24.24
		c0.768-2.096,1.645-4.172,2.18-6.329c2.343-9.462,5.789-18.553,8.983-27.738c3.086-8.878,5.752-17.901,8.671-26.839
		c1.683-5.154,3.531-10.254,5.248-15.396c1.416-4.236,2.931-8.451,4.074-12.762c1.887-7.11,4.609-13.93,6.961-20.875
		c1.958-5.778,3.451-11.619,3.765-17.73C1145.279,474.423,1145.427,473.969,1145.55,473.338z"/>
	<path fill-rule="evenodd" clip-rule="evenodd" fill="#F1F2F2" d="M837.833,165.065c-1.791,2.83-3.098,4.805-4.309,6.835
		c-1.063,1.782-1.98,3.651-3.035,5.438c-1.277,2.162-3.79,2.534-5.604,0.726c-0.406-0.407-0.518-1.62-0.216-2.144
		c1.511-2.62,3.21-5.132,4.835-7.686c1.625-2.552,3.472-4.975,4.217-8.011c0.173-0.707,0.814-1.316,1.297-1.925
		c0.888-1.116,1.869-2.16,2.719-3.305c1.908-2.573,3.129-2.906,6.078-1.467c0.413,0.202,0.729,0.604,1.062,0.89
		c0.264,7.437,0.227,7.478,5.898,12.617c2.957,2.68,6.082,5.172,9.107,7.775c0.579,0.498,1.049,1.121,1.455,1.563
		c-0.239,1.624-1.207,2.016-2.391,2.207c-1.637,0.263-3.214,0.223-4.541-0.9c-0.602-0.509-1.113-1.14-1.6-1.766
		c-1.977-2.54-4.592-4.348-7.09-6.613c-0.373,0.602-0.83,0.997-0.779,1.311c0.74,4.58,0.316,9.188,0.381,13.782
		c0.016,1.113-0.299,2.261-0.125,3.339c0.847,5.235-0.16,10.537,0.438,15.727c1.119,9.732,0.24,19.477,0.713,29.199
		c0.317,6.536,0.902,13.061,1.213,19.598c0.34,7.174,0.549,14.354,0.723,21.535c0.102,4.154-0.059,8.314,0.053,12.468
		c0.072,2.704,0.436,5.399,0.639,8.102c0.107,1.429,0.275,2.869,0.196,4.293c-0.28,5.095-0.635,10.187-1.004,15.276
		c-0.152,2.097-1.657,3.076-3.696,2.46c-0.814-0.245-1.421-0.79-1.426-1.698c-0.005-0.629,0.211-1.256,0.261-1.889
		c0.417-5.257,0.95-10.506-0.21-15.757c-0.306-1.381-0.168-2.863-0.197-4.3c-0.236-11.822-0.439-23.645-0.717-35.466
		c-0.06-2.545-0.271-5.098-0.598-7.624c-1.166-9.031-1.043-18.146-1.827-27.205c-0.26-2.999,0.276-6.06,0.146-9.079
		c-0.299-6.981-0.789-13.954-1.184-20.932c-0.036-0.632-0.025-1.284,0.094-1.903c0.636-3.34,0.41-6.658-0.076-9.992
		c-0.502-3.435-0.891-6.862,0.004-10.328C839.086,168.866,838.813,167.427,837.833,165.065z"/>
	<path fill-rule="evenodd" clip-rule="evenodd" fill="#F1F2F2" d="M743.091,730.338c0.467,0.416,0.768,0.915,1.148,0.987
		c6.103,1.152,12.223,2.211,18.323,3.37c5.948,1.131,11.89,2.307,17.816,3.542c14.062,2.931,27.915,6.812,42.105,9.148
		c8.501,1.399,17.042,2.478,25.591,3.544c8.703,1.085,17.445,1.98,26.004,4.061c5.883,1.43,11.814,2.656,17.719,3.999
		c0.932,0.213,1.85,0.516,2.74,0.864c1.246,0.488,1.799,1.404,1.67,2.583c-0.121,1.113-0.998,1.799-2.477,1.609
		c-3.164-0.405-6.336-0.817-9.456-1.458c-5.628-1.155-11.208-2.55-16.835-3.707c-3.121-0.642-6.295-1.025-9.451-1.482
		c-2.678-0.388-5.367-0.7-8.047-1.069c-8.384-1.155-16.76-2.37-25.15-3.471c-8.241-1.082-16.332-2.898-24.391-4.867
		c-11.166-2.729-22.411-5.071-33.736-7.034c-6.913-1.197-13.816-2.448-20.729-3.643c-0.702-0.122-1.444-0.017-2.882-0.017
		c1.896,2.097,3.791,2.93,5.472,4.031c0.527,0.345,1.132,0.613,1.739,0.787c1.387,0.397,2.064,1.513,2.576,2.662
		c0.297,0.669,0.42,1.67,0.128,2.288c-0.443,0.938-1.317,1.671-1.901,2.366c-0.636-0.119-1.025-0.075-1.238-0.249
		c-3.342-2.721-6.805-5.247-10.597-7.333c-1.521-0.836-2.78-2.132-4.218-3.133c-1.163-0.811-2.391-1.537-3.633-2.223
		c-2.946-1.626-3.425-4.966-0.844-7.049c1.354-1.093,2.867-2.203,4.493-2.696c4.056-1.232,7.422-3.651,10.972-5.771
		c0.684-0.408,1.324-0.891,2.007-1.302c1.673-1.007,2.606-1.042,3.412-0.164c1.191,1.296,1.46,3.726,0.349,4.83
		c-0.891,0.885-2.02,1.534-3.062,2.26C746.901,727.859,744.745,728.613,743.091,730.338z"/>
	<path fill-rule="evenodd" clip-rule="evenodd" fill="#F1F2F2" d="M452.712,319.574c-2.388-0.428-3.869,0.725-5.434,1.4
		c-13.053,5.638-25.519,12.487-38.32,18.647c-11.508,5.536-23.002,11.104-34.398,16.866c-10.963,5.542-21.82,11.295-32.67,17.057
		c-8.035,4.268-16.028,8.578-24.437,12.117c-4.245,1.786-8.113,4.446-12.263,6.485c-4.434,2.179-8.988,4.115-13.519,6.09
		c-0.689,0.301-1.552,0.377-2.31,0.305c-0.824-0.078-1.396-0.636-1.602-1.537c-0.205-0.9,0.076-1.56,0.789-2.066
		c0.257-0.183,0.57-0.285,0.855-0.431c7.823-3.977,15.646-7.955,23.47-11.929c1.139-0.578,2.25-1.235,3.438-1.685
		c9.305-3.521,17.74-8.763,26.529-13.307c9.646-4.986,19.295-9.973,28.984-14.872c14.819-7.494,29.686-14.893,44.511-22.373
		c6.842-3.452,13.638-6.994,20.444-10.517c0.821-0.426,1.57-0.991,2.425-1.538c-1.083-1.92-3.017-3.243-2.677-5.626
		c0.689-1.241,1.787-1.819,3.176-1.534c4.645,0.955,9.224,0.186,13.814-0.41c0.791-0.104,1.573-0.324,2.367-0.37
		c2.151-0.124,3.678,1.389,3.545,3.543c-0.049,0.781-0.151,1.65-0.53,2.306c-1.909,3.297-2.315,6.917-2.493,10.604
		c-0.016,0.318-0.027,0.64-0.078,0.954c-0.238,1.479-1.057,2.487-1.914,2.364c-1.285-0.185-1.978-1.139-2.258-2.208
		c-0.274-1.051-0.256-2.217-0.167-3.316C452.119,323.028,452.429,321.477,452.712,319.574z"/>
	<path fill-rule="evenodd" clip-rule="evenodd" fill="#F1F2F2" d="M100.021,351.317c1.373,0.613,2.636,0.809,3.23,1.545
		c0.612,0.758,0.933,2.109,0.75,3.083c-0.5,2.66-1.21,5.299-2.058,7.873c-2.645,8.036-5.367,16.047-8.106,24.052
		c-3.462,10.117-6.943,20.228-10.476,30.32c-1,2.857-2.24,5.63-3.311,8.464c-1.861,4.928-3.697,9.866-5.508,14.813
		c-2.466,6.739-4.982,13.462-7.321,20.246c-2.341,6.788-4.515,13.634-6.686,20.479c-0.256,0.806-0.035,1.764-0.035,2.96
		c2.183-0.841,3.141-2.593,4.511-3.85c1.386-1.272,2.814-1.298,4.29-0.119c1.533,1.225,1.531,2.855-0.186,3.876
		c-5.072,3.014-8.819,7.3-12.039,12.138c-1.179,1.771-2.979,2.309-5.005,1.628c-1.678-0.563-3.254-2.657-3.199-4.347
		c0.025-0.795,0.039-1.646,0.322-2.367c1.661-4.223,1.045-8.479,0.393-12.768c-0.335-2.204-0.426-4.443-0.66-6.664
		c-0.133-1.262,0.305-2.242,1.456-2.74c1.073-0.464,2.19-0.452,3.147,0.386c0.966,0.846,1.908,1.679,1.932,3.148
		c0.013,0.741,0.285,1.478,0.419,2.116c1.122,0.244,1.336-0.428,1.548-0.997c2.57-6.883,5.062-13.797,7.695-20.655
		c4.062-10.58,7.748-21.297,11.991-31.817c3.512-8.708,6.286-17.715,9.328-26.61c3.101-9.067,6.108-18.166,9.194-27.238
		C97.44,362.979,98.839,357.583,100.021,351.317z"/>
	<path fill-rule="evenodd" clip-rule="evenodd" fill="#F1F2F2" d="M214.936,389.8c3.239-3.458,4.307-7.66,6.294-11.282
		c2.865-0.351,2.861-0.334,4.786,1.363c-1.825,3.837-3.71,7.666-5.47,11.551c-1.053,2.32-1.791,4.785-2.889,7.081
		c-1.043,2.185-2.979,3.144-5.072,2.709c-1.805-0.375-3.251-1.121-3.447-3.354c-0.092-1.032-0.651-2.117-1.262-2.994
		c-2.275-3.272-4.67-6.462-6.999-9.696c-0.822-1.143-1.587-2.327-2.363-3.469c2.19-1.798,3.312-1.99,4.693-0.76
		c0.701,0.624,1.222,1.453,1.812,2.199c1.156,1.462,2.304,2.931,3.381,4.302c1.145-0.348,0.996-1.09,0.983-1.669
		c-0.201-9.412-0.328-18.827-0.71-28.231c-0.128-3.152-0.133-6.373-1.263-9.445c-0.469-1.277,0.846-2.44,2.279-2.241
		c1.553,0.216,2.709,0.958,3.133,2.537c0.205,0.763,0.378,1.558,0.401,2.344c0.282,9.717,0.479,19.438,0.823,29.152
		C214.165,383.204,214.63,386.499,214.936,389.8z"/>
</g>
</svg>
