<?xml version="1.0" encoding="utf-8"?>
<!-- Generator: Adobe Illustrator 16.0.0, SVG Export Plug-In . SVG Version: 6.00 Build 0)  -->
<!DOCTYPE svg PUBLIC "-//W3C//DTD SVG 1.1//EN" "http://www.w3.org/Graphics/SVG/1.1/DTD/svg11.dtd">
<svg version="1.1" id="Layer_1" xmlns="http://www.w3.org/2000/svg" xmlns:xlink="http://www.w3.org/1999/xlink" x="0px" y="0px"
	 width="662px" height="548px" viewBox="0 0 662 548" enable-background="new 0 0 662 548" xml:space="preserve">
<g opacity="0.2">
	<path fill="none" stroke="#000000" stroke-miterlimit="10" d="M567.55,414.908L483,366.086V386h-18.856
		c15.14-32,22.1-67.191,19.835-102.451c-3.428-53.329-27.413-103.059-67.542-138.341c-82.836-72.839-209.488-65.17-282.328,17.669
		C84.15,219.691,70.701,299.793,98.792,369.562l-13.272,9.069l88.276,41.661l-7.999-97.337l-11.277,7.794
		c-12.061-43.41-1.705-90.75,28.607-125.226c49.074-55.808,134.395-61.294,190.207-12.223
		c27.036,23.769,43.194,58.509,45.502,94.432c2.274,35.389-9.19,68.268-32.253,98.268H322v64h161v13.732L567.55,414.908z"/>
	<path fill="none" stroke="#000000" stroke-miterlimit="10" d="M577.55,404.314L493,355.492V373h-20.028
		c15.14-32,22.099-65.986,19.836-101.25c-3.428-53.326-27.414-102.455-67.542-137.738c-82.837-72.837-209.49-64.869-282.33,17.971
		c-49.957,56.814-63.406,137.066-35.314,206.835l-13.273,9.145l88.276,41.698l-7.998-97.317l-11.279,7.804
		c-12.061-43.411-1.705-90.745,28.608-125.222c49.074-55.807,134.395-61.292,190.206-12.221
		c27.037,23.769,43.196,57.308,45.503,93.233c2.274,35.388-9.19,69.063-32.254,97.063H334v65h159v15.139L577.55,404.314z"/>
</g>
</svg>
