<?xml version="1.0" encoding="utf-8"?>
<!-- Generator: Adobe Illustrator 16.0.0, SVG Export Plug-In . SVG Version: 6.00 Build 0)  -->
<!DOCTYPE svg PUBLIC "-//W3C//DTD SVG 1.1//EN" "http://www.w3.org/Graphics/SVG/1.1/DTD/svg11.dtd">
<svg version="1.1" id="Layer_1" xmlns="http://www.w3.org/2000/svg" xmlns:xlink="http://www.w3.org/1999/xlink" x="0px" y="0px"
	 width="662px" height="548px" viewBox="0 0 662 548" enable-background="new 0 0 662 548" xml:space="preserve">
<g opacity="0.2">
	<circle fill="none" stroke="#231F20" stroke-miterlimit="10" cx="280.682" cy="239.137" r="185.137"/>
	<path fill="none" stroke="#231F20" stroke-miterlimit="10" d="M175.039,302.961l-82.58-39.208
		c-9.312-4.41-14.947-11.271-14.947-20.827v-2.451c0-9.557,5.635-16.417,14.947-20.83l82.58-39.207
		c2.94-1.47,5.636-2.449,9.066-2.449c7.842-0.246,14.949,6.617,14.949,15.438c0,7.105-3.921,12.005-10.292,14.947l-74.002,33.079
		l74.002,33.081c6.371,2.942,10.292,8.577,10.292,15.438c0,9.068-7.106,15.438-16.173,15.194
		C180.185,305.168,177.489,304.187,175.039,302.961z"/>
	<path fill="none" stroke="#231F20" stroke-miterlimit="10" d="M221.601,339.717l95.811-200.2c2.695-5.635,7.107-8.577,12.988-8.577
		c7.841,0,14.458,6.617,14.458,13.968c0,2.696-0.981,5.391-1.717,7.105L247.33,352.215c-2.695,5.636-7.107,8.577-12.988,8.577
		c-7.841,0-14.458-6.616-14.458-13.968C219.884,344.128,220.864,341.433,221.601,339.717z"/>
	<path fill="none" stroke="#231F20" stroke-miterlimit="10" d="M393.132,180.438l82.579,39.207
		c9.312,4.412,14.948,11.273,14.948,20.83v2.451c0,9.557-5.636,16.417-14.948,20.827l-82.579,39.208
		c-2.94,1.47-5.637,2.451-9.067,2.451c-7.841,0.244-14.947-6.617-14.947-15.438c0-7.105,3.921-12.008,10.291-14.947l74.004-33.082
		l-74.004-33.081c-6.37-2.94-10.291-8.575-10.291-15.436c0-9.068,7.106-15.438,16.173-15.194
		C387.986,178.234,390.682,179.215,393.132,180.438z"/>
	<path fill="none" stroke="#231F20" stroke-miterlimit="10" d="M171.635,296.231l-82.58-39.208
		c-9.311-4.41-14.947-11.271-14.947-20.827v-2.451c0-9.557,5.636-16.417,14.947-20.829l82.58-39.208
		c2.941-1.47,5.636-2.449,9.067-2.449c7.841-0.247,14.947,6.617,14.947,15.438c0,7.105-3.92,12.005-10.292,14.948l-74.003,33.079
		l74.003,33.082c6.372,2.942,10.292,8.577,10.292,15.438c0,9.068-7.106,15.438-16.172,15.194
		C176.782,298.438,174.086,297.457,171.635,296.231z"/>
	<path fill="none" stroke="#231F20" stroke-miterlimit="10" d="M218.196,332.987l95.812-200.2c2.694-5.635,7.106-8.577,12.988-8.577
		c7.84,0,14.457,6.617,14.457,13.968c0,2.696-0.98,5.391-1.716,7.105l-95.812,200.201c-2.695,5.636-7.106,8.577-12.987,8.577
		c-7.842,0-14.458-6.616-14.458-13.968C216.48,337.398,217.461,334.703,218.196,332.987z"/>
	<path fill="none" stroke="#231F20" stroke-miterlimit="10" d="M389.729,173.709l82.579,39.208
		c9.312,4.412,14.948,11.272,14.948,20.829v2.451c0,9.557-5.637,16.417-14.948,20.827l-82.579,39.208
		c-2.94,1.47-5.637,2.451-9.067,2.451c-7.841,0.244-14.948-6.617-14.948-15.438c0-7.105,3.921-12.008,10.292-14.947l74.004-33.082
		l-74.004-33.081c-6.371-2.94-10.292-8.575-10.292-15.436c0-9.068,7.107-15.438,16.173-15.194
		C384.581,171.504,387.276,172.486,389.729,173.709z"/>
</g>
<g opacity="0.2">
	<circle fill="none" stroke="#231F20" stroke-miterlimit="10" cx="416.716" cy="366.568" r="127.431"/>
	<path fill="none" stroke="#231F20" stroke-miterlimit="10" d="M275.878,412.115c0-2.907,0.581-10.08,0.581-13.376
		c0-13.764-5.428-18.804-15.702-19.58c-7.367-0.581-12.02-5.04-12.02-11.631c0-6.592,4.652-11.05,12.02-11.632
		c10.274-0.774,15.702-5.816,15.702-19.58c0-3.295-0.581-10.468-0.581-13.375c0-18.417,8.724-30.243,37.608-36.834
		c7.559-1.744,13.57,2.908,13.57,10.081c0,5.815-4.071,8.917-6.979,9.887c-14.734,5.233-17.253,10.662-17.253,21.131
		c0,3.877,0.583,10.275,0.583,14.346c0,14.151-7.174,21.712-20.163,25.977c12.988,4.266,20.163,11.825,20.163,25.977
		c0,4.071-0.583,10.469-0.583,14.347c0,10.469,2.52,15.896,17.253,21.13c2.908,0.97,6.979,4.071,6.979,9.887
		c0,7.173-6.011,11.825-13.57,10.082C284.603,442.357,275.878,430.533,275.878,412.115z"/>
	<path fill="none" stroke="#231F20" stroke-miterlimit="10" d="M344.311,321.003v-0.389c0-19.191,13.375-34.7,33.149-34.7
		c19.579,0,32.762,15.314,32.762,34.312v0.388c0,18.998-13.377,34.701-33.15,34.701C357.491,355.315,344.311,340,344.311,321.003z
		 M389.866,321.003v-0.389c0-9.111-5.041-17.059-12.795-17.059c-8.142,0-12.406,7.753-12.406,16.671v0.388
		c0,9.111,5.039,17.061,12.795,17.061C385.602,337.675,389.866,329.726,389.866,321.003z M368.154,409.014l86.655-118.641
		c1.744-2.52,4.846-4.072,7.948-4.072c5.039,0,9.111,4.072,9.111,9.112c0,2.521-0.775,4.459-2.134,6.203l-86.653,118.641
		c-1.746,2.521-4.848,4.071-7.948,4.071c-5.041,0-9.112-4.071-9.112-9.111C366.021,412.697,366.991,410.759,368.154,409.014z
		 M427.669,390.403v-0.388c0-19.191,13.376-34.7,33.15-34.7c19.579,0,32.762,15.315,32.762,34.312v0.388
		c0,18.998-13.377,34.701-33.15,34.701C440.852,424.717,427.669,409.402,427.669,390.403z M473.225,390.403v-0.388
		c0-9.111-5.04-17.06-12.794-17.06c-8.142,0-12.406,7.754-12.406,16.672v0.388c0,9.111,5.04,17.061,12.795,17.061
		C468.96,407.076,473.225,399.127,473.225,390.403z"/>
	<path fill="none" stroke="#231F20" stroke-miterlimit="10" d="M562.013,322.941c0,2.907-0.582,10.08-0.582,13.375
		c0,13.764,5.429,18.806,15.703,19.58c7.366,0.582,12.019,5.04,12.019,11.632c0,6.591-4.652,11.05-12.019,11.631
		c-10.274,0.776-15.703,5.816-15.703,19.58c0,3.296,0.582,10.469,0.582,13.376c0,18.418-8.724,30.242-37.609,36.835
		c-7.561,1.743-13.57-2.909-13.57-10.082c0-5.815,4.071-8.917,6.979-9.887c14.733-5.234,17.253-10.661,17.253-21.13
		c0-3.878-0.581-10.275-0.581-14.347c0-14.151,7.172-21.711,20.161-25.977c-12.989-4.265-20.161-11.825-20.161-25.977
		c0-4.07,0.581-10.469,0.581-14.346c0-10.469-2.52-15.897-17.253-21.131c-2.908-0.97-6.979-4.071-6.979-9.887
		c0-7.173,6.01-11.825,13.57-10.081C553.289,292.698,562.013,304.524,562.013,322.941z"/>
	<path fill="none" stroke="#231F20" stroke-miterlimit="10" d="M272.247,407.15c0-2.908,0.582-10.08,0.582-13.376
		c0-13.764-5.428-18.804-15.703-19.58c-7.367-0.581-12.02-5.04-12.02-11.631c0-6.592,4.653-11.05,12.02-11.632
		c10.275-0.774,15.703-5.816,15.703-19.58c0-3.296-0.582-10.468-0.582-13.376c0-18.416,8.723-30.242,37.608-36.833
		c7.561-1.744,13.57,2.908,13.57,10.08c0,5.816-4.071,8.918-6.978,9.888c-14.734,5.233-17.254,10.662-17.254,21.131
		c0,3.877,0.581,10.275,0.581,14.346c0,14.151-7.172,21.712-20.16,25.977c12.988,4.266,20.16,11.826,20.16,25.977
		c0,4.071-0.581,10.469-0.581,14.347c0,10.468,2.521,15.896,17.254,21.131c2.907,0.969,6.978,4.07,6.978,9.886
		c0,7.172-6.01,11.825-13.57,10.081C280.97,437.393,272.247,425.568,272.247,407.15z"/>
	<path fill="none" stroke="#231F20" stroke-miterlimit="10" d="M340.678,316.036v-0.387c0-19.191,13.378-34.7,33.15-34.7
		c19.58,0,32.763,15.314,32.763,34.312v0.388c0,18.997-13.376,34.701-33.149,34.701
		C353.861,350.351,340.678,335.035,340.678,316.036z M386.235,316.036v-0.387c0-9.111-5.04-17.059-12.794-17.059
		c-8.143,0-12.407,7.753-12.407,16.671v0.388c0,9.112,5.04,17.061,12.794,17.061C381.971,332.71,386.235,324.762,386.235,316.036z
		 M364.523,404.049l86.654-118.641c1.745-2.52,4.847-4.072,7.948-4.072c5.04,0,9.111,4.072,9.111,9.112
		c0,2.521-0.775,4.459-2.132,6.203l-86.654,118.641c-1.745,2.521-4.847,4.071-7.949,4.071c-5.04,0-9.11-4.071-9.11-9.111
		C362.392,407.732,363.359,405.794,364.523,404.049z M424.037,385.439v-0.389c0-19.191,13.377-34.7,33.15-34.7
		c19.58,0,32.763,15.313,32.763,34.312v0.388c0,18.998-13.376,34.701-33.149,34.701
		C437.221,419.752,424.037,404.438,424.037,385.439z M469.595,385.439v-0.389c0-9.111-5.04-17.06-12.794-17.06
		c-8.144,0-12.408,7.754-12.408,16.672v0.388c0,9.111,5.041,17.061,12.795,17.061C465.331,402.111,469.595,394.162,469.595,385.439z
		"/>
	<path fill="none" stroke="#231F20" stroke-miterlimit="10" d="M558.382,317.976c0,2.908-0.581,10.08-0.581,13.376
		c0,13.764,5.427,18.806,15.702,19.58c7.367,0.582,12.019,5.04,12.019,11.632c0,6.591-4.651,11.05-12.019,11.631
		c-10.275,0.776-15.702,5.816-15.702,19.58c0,3.296,0.581,10.468,0.581,13.376c0,18.418-8.725,30.242-37.608,36.834
		c-7.561,1.744-13.57-2.909-13.57-10.081c0-5.815,4.07-8.917,6.979-9.886c14.732-5.235,17.253-10.663,17.253-21.131
		c0-3.878-0.582-10.275-0.582-14.347c0-14.15,7.173-21.711,20.161-25.977c-12.988-4.265-20.161-11.825-20.161-25.977
		c0-4.07,0.582-10.469,0.582-14.346c0-10.469-2.521-15.897-17.253-21.131c-2.909-0.97-6.979-4.071-6.979-9.888
		c0-7.172,6.01-11.824,13.57-10.08C549.657,287.733,558.382,299.56,558.382,317.976z"/>
</g>
</svg>
