<?xml version="1.0" encoding="utf-8"?>
<!-- Generator: Adobe Illustrator 16.0.0, SVG Export Plug-In . SVG Version: 6.00 Build 0)  -->
<!DOCTYPE svg PUBLIC "-//W3C//DTD SVG 1.1//EN" "http://www.w3.org/Graphics/SVG/1.1/DTD/svg11.dtd">
<svg version="1.1" id="Layer_1" xmlns="http://www.w3.org/2000/svg" xmlns:xlink="http://www.w3.org/1999/xlink" x="0px" y="0px"
	 width="300px" height="300px" viewBox="0 0 300 300" enable-background="new 0 0 300 300" xml:space="preserve">
<g>
	<path fill="#FFFFFF" d="M190,270c0,11.046-8.954,20-20,20h-41c-11.046,0-20-8.954-20-20v-41c0-11.046,8.954-20,20-20h41
		c11.046,0,20,8.954,20,20V270z"/>
	<path fill="none" stroke="#E0D04E" stroke-miterlimit="10" d="M190.5,270.5c0,11.046-8.954,20-20,20h-41c-11.046,0-20-8.954-20-20
		v-41c0-11.046,8.954-20,20-20h41c11.046,0,20,8.954,20,20V270.5z"/>
</g>
<g>
	<path fill="#FFFFFF" d="M190,70c0,11.046-8.954,20-20,20h-41c-11.046,0-20-8.954-20-20V29c0-11.046,8.954-20,20-20h41
		c11.046,0,20,8.954,20,20V70z"/>
	<path fill="none" stroke="#E0D04E" stroke-miterlimit="10" d="M190.5,70.5c0,11.046-8.954,20-20,20h-41c-11.046,0-20-8.954-20-20
		v-41c0-11.046,8.954-20,20-20h41c11.046,0,20,8.954,20,20V70.5z"/>
</g>
<path fill="#F1F2F2" d="M207.316,17.841l-0.415,0.027c0,0-0.174,0.012-0.51,0.034c-0.336,0.027-0.847,0.045-1.488,0.121
	c-1.303,0.12-3.197,0.356-5.534,0.882c-0.584,0.13-1.229,0.234-1.856,0.415c-0.637,0.176-1.303,0.359-1.998,0.551
	c-1.418,0.356-2.864,0.885-4.44,1.437c-1.604,0.523-3.179,1.261-4.916,1.981c-0.879,0.35-1.709,0.794-2.586,1.226
	c-0.867,0.442-1.783,0.875-2.675,1.364c-3.582,1.951-7.343,4.295-11.07,7.093c-3.732,2.791-7.448,6.008-11.011,9.599
	c-3.565,3.587-6.979,7.545-10.134,11.802c-1.961,2.643-3.813,5.405-5.568,8.257c-0.89-0.928-1.781-1.838-2.676-2.719
	c-3.173-3.149-6.436-5.939-9.542-8.429c-1.601-1.211-3.105-2.39-4.637-3.43c-0.773-0.517-1.508-1.021-2.253-1.5
	c-0.738-0.481-1.441-0.949-2.181-1.364c-2.869-1.714-5.523-3.047-7.817-3.974c-0.578-0.224-1.125-0.437-1.639-0.636
	c-0.517-0.19-1.037-0.338-1.494-0.486c-0.893-0.294-1.793-0.51-2.439-0.656c-0.648-0.143-1.143-0.155-1.48-0.207
	c-0.335-0.039-0.509-0.058-0.509-0.058L106,39.119c-0.306-0.034-0.621,0.092-0.815,0.358c-0.29,0.396-0.204,0.951,0.192,1.241
	c0,0,0.125,0.091,0.364,0.267c0.234,0.177,0.612,0.432,1.046,0.78c0.84,0.681,2.098,1.749,3.586,3.247
	c1.486,1.499,3.217,3.407,5.104,5.69c1.885,2.285,3.931,4.937,6.121,7.868c2.175,2.942,4.464,6.186,6.807,9.671
	c2.345,3.486,4.741,7.215,7.202,11.081c1.222,1.964,2.465,3.961,3.724,5.982c0.089,0.129,0.145,0.236,0.262,0.384l0.339,0.432
	c0.229,0.285,0.453,0.583,0.712,0.824c0.482,0.518,1.048,0.999,1.683,1.423c0.65,0.411,1.378,0.774,2.202,0.962l0.622,0.127
	c0.209,0.036,0.43,0.029,0.645,0.041c0.217,0,0.435,0.023,0.648-0.006l0.644-0.096l0.32-0.056l0.303-0.099l0.604-0.211
	c0.388-0.161,0.735-0.378,1.097-0.578c0.318-0.234,0.638-0.474,0.939-0.725l0.802-0.812l0.675-0.87
	c0.211-0.295,0.382-0.602,0.573-0.904c0.2-0.301,0.335-0.615,0.493-0.926c0.155-0.312,0.314-0.638,0.421-0.878
	c0.995-2.145,2.123-4.315,3.272-6.443c4.581-8.56,9.948-16.719,15.528-23.922c2.803-3.592,5.61-6.989,8.413-10.086
	c2.805-3.094,5.565-5.923,8.229-8.412c2.677-2.471,5.171-4.701,7.473-6.565c0.575-0.468,1.131-0.922,1.667-1.359
	c0.55-0.421,1.079-0.827,1.588-1.217c1.019-0.781,1.956-1.495,2.834-2.098c0.871-0.612,1.641-1.171,2.324-1.637
	c0.692-0.454,1.28-0.839,1.758-1.152c0.955-0.626,1.465-0.96,1.465-0.96c0.261-0.172,0.425-0.475,0.403-0.809
	C208.237,18.183,207.811,17.809,207.316,17.841z"/>
<path fill="none" stroke="#6EBF67" stroke-miterlimit="10" d="M203.721,10.563c-4.783,0.318-9.49,1.173-14.044,2.701
	c-5.494,1.845-10.74,4.267-15.714,7.244c-10.083,6.036-18.918,14.062-26.268,23.209c-2.972,3.699-5.689,7.594-8.175,11.634
	c-4.074-4.248-8.424-8.257-13.109-11.825c-4.579-3.487-9.413-6.691-14.686-9.036c-1.238-0.55-2.508-1.073-3.802-1.477
	c-1.263-0.394-2.549-0.833-3.869-0.987c-0.581-0.068-1.751-0.402-2.273-0.022c-1.173,0.856,0.541,1.816,1.129,2.263
	c4.046,3.07,7.396,7.141,10.539,11.092c7.402,9.303,13.937,19.254,20.214,29.338c1.223,1.965,2.302,4.096,4.094,5.611
	c1.397,1.182,3.243,2.18,5.147,1.896c1.444-0.216,2.851-0.741,3.906-1.81c1.194-1.209,2.055-2.52,2.787-4.07
	c5.009-10.604,11.277-20.661,18.41-29.965c7.143-9.317,15.176-17.989,24.27-25.437c2.556-2.094,5.186-4.074,7.883-5.983
	c1.181-0.835,2.402-1.611,3.611-2.404c0.302-0.198,0.689-0.381,0.836-0.732C204.86,11.199,204.372,10.52,203.721,10.563z"/>
<g>
	<path fill="#FFFFFF" d="M190,170c0,11.046-8.954,20-20,20h-41c-11.046,0-20-8.954-20-20v-41c0-11.046,8.954-20,20-20h41
		c11.046,0,20,8.954,20,20V170z"/>
	<path fill="none" stroke="#E0D04E" stroke-miterlimit="10" d="M190.5,170.5c0,11.046-8.954,20-20,20h-41c-11.046,0-20-8.954-20-20
		v-41c0-11.046,8.954-20,20-20h41c11.046,0,20,8.954,20,20V170.5z"/>
</g>
<path fill="#F1F2F2" d="M207.316,118.02l-0.415,0.027c0,0-0.174,0.012-0.51,0.034c-0.336,0.027-0.847,0.046-1.488,0.121
	c-1.303,0.12-3.197,0.356-5.534,0.882c-0.584,0.131-1.229,0.234-1.856,0.416c-0.637,0.175-1.303,0.359-1.998,0.55
	c-1.418,0.356-2.864,0.885-4.44,1.436c-1.604,0.523-3.179,1.262-4.916,1.982c-0.879,0.35-1.709,0.793-2.586,1.227
	c-0.867,0.441-1.783,0.874-2.675,1.363c-3.582,1.951-7.343,4.296-11.07,7.093c-3.732,2.791-7.448,6.008-11.011,9.599
	c-3.565,3.587-6.979,7.545-10.134,11.802c-1.961,2.643-3.813,5.405-5.568,8.257c-0.89-0.928-1.781-1.839-2.676-2.719
	c-3.173-3.149-6.436-5.939-9.542-8.43c-1.601-1.21-3.105-2.389-4.637-3.43c-0.773-0.517-1.508-1.021-2.253-1.5
	c-0.738-0.482-1.441-0.949-2.181-1.364c-2.869-1.713-5.523-3.047-7.817-3.974c-0.578-0.225-1.125-0.437-1.639-0.636
	c-0.517-0.19-1.037-0.337-1.494-0.485c-0.893-0.294-1.793-0.51-2.439-0.657c-0.648-0.143-1.143-0.155-1.48-0.207
	c-0.335-0.039-0.509-0.058-0.509-0.058l-0.45-0.052c-0.306-0.034-0.621,0.092-0.815,0.358c-0.29,0.396-0.204,0.951,0.192,1.241
	c0,0,0.125,0.09,0.364,0.267c0.234,0.177,0.612,0.433,1.046,0.78c0.84,0.681,2.098,1.749,3.586,3.247
	c1.486,1.499,3.217,3.406,5.104,5.69c1.885,2.285,3.931,4.937,6.121,7.868c2.175,2.942,4.464,6.186,6.807,9.671
	c2.345,3.486,4.741,7.215,7.202,11.081c1.222,1.964,2.465,3.961,3.724,5.982c0.089,0.129,0.145,0.236,0.262,0.384l0.339,0.432
	c0.229,0.286,0.453,0.583,0.712,0.825c0.482,0.519,1.048,0.999,1.683,1.423c0.65,0.411,1.378,0.774,2.202,0.962l0.622,0.127
	c0.209,0.036,0.43,0.03,0.645,0.041c0.217,0,0.435,0.023,0.648-0.006l0.644-0.096l0.32-0.056l0.303-0.099l0.604-0.211
	c0.388-0.161,0.735-0.378,1.097-0.578c0.318-0.234,0.638-0.474,0.939-0.725l0.802-0.812l0.675-0.87
	c0.211-0.295,0.382-0.602,0.573-0.904c0.2-0.301,0.335-0.615,0.493-0.926c0.155-0.312,0.314-0.638,0.421-0.878
	c0.995-2.145,2.123-4.315,3.272-6.442c4.581-8.56,9.948-16.72,15.528-23.923c2.803-3.591,5.61-6.989,8.413-10.086
	c2.805-3.094,5.565-5.923,8.229-8.411c2.677-2.472,5.171-4.701,7.473-6.566c0.575-0.468,1.131-0.921,1.667-1.359
	c0.55-0.421,1.079-0.827,1.588-1.217c1.019-0.781,1.956-1.496,2.834-2.098c0.871-0.613,1.641-1.171,2.324-1.637
	c0.692-0.454,1.28-0.839,1.758-1.152c0.955-0.626,1.465-0.96,1.465-0.96c0.261-0.172,0.425-0.475,0.403-0.809
	C208.237,118.361,207.811,117.987,207.316,118.02z"/>
<path fill="none" stroke="#6EBF67" stroke-miterlimit="10" d="M203.721,114.393c-4.783,0.318-9.49,1.172-14.044,2.701
	c-5.494,1.845-10.74,4.266-15.714,7.243c-10.083,6.037-18.918,14.063-26.268,23.209c-2.972,3.699-5.689,7.594-8.175,11.634
	c-4.074-4.248-8.424-8.257-13.109-11.826c-4.579-3.486-9.413-6.691-14.686-9.035c-1.238-0.55-2.508-1.074-3.802-1.477
	c-1.263-0.394-2.549-0.833-3.869-0.987c-0.581-0.068-1.751-0.401-2.273-0.022c-1.173,0.857,0.541,1.816,1.129,2.263
	c4.046,3.071,7.396,7.142,10.539,11.093c7.402,9.303,13.937,19.253,20.214,29.338c1.223,1.965,2.302,4.095,4.094,5.611
	c1.397,1.182,3.243,2.18,5.147,1.895c1.444-0.216,2.851-0.741,3.906-1.81c1.194-1.209,2.055-2.519,2.787-4.07
	c5.009-10.604,11.277-20.661,18.41-29.965c7.143-9.318,15.176-17.989,24.27-25.437c2.556-2.094,5.186-4.073,7.883-5.982
	c1.181-0.835,2.402-1.611,3.611-2.404c0.302-0.198,0.689-0.381,0.836-0.732C204.86,115.028,204.372,114.35,203.721,114.393z"/>
</svg>
