<?xml version="1.0" encoding="utf-8"?>
<!-- Generator: Adobe Illustrator 16.0.0, SVG Export Plug-In . SVG Version: 6.00 Build 0)  -->
<!DOCTYPE svg PUBLIC "-//W3C//DTD SVG 1.1//EN" "http://www.w3.org/Graphics/SVG/1.1/DTD/svg11.dtd">
<svg version="1.1" id="Layer_1" xmlns="http://www.w3.org/2000/svg" xmlns:xlink="http://www.w3.org/1999/xlink" x="0px" y="0px"
	 width="662px" height="548px" viewBox="0 0 662 548" enable-background="new 0 0 662 548" xml:space="preserve">
<g opacity="0.2">
	<path fill="none" stroke="#231F20" stroke-miterlimit="10" d="M494.74,209.735c0,46.198-39.789,83.646-88.873,83.646
		c-49.083,0-88.873-37.447-88.873-83.646c0-46.196,39.79-83.645,88.873-83.645c28.7,0,54.223,12.803,70.471,32.673
		c8.601-0.652,35.364-5.104,38.007,0.001C520.068,169.818,494.74,196.611,494.74,209.735z"/>
	<path fill="none" stroke="#231F20" stroke-miterlimit="10" d="M514.58,158.957c0,0,10.221,12.877,12.181,44.244
		c1.961,31.367-41.169,11.763-41.169,11.763l-24.179-45.091L514.58,158.957z"/>
	
		<ellipse transform="matrix(0.9823 -0.1875 0.1875 0.9823 -22.1088 94.3812)" fill="none" stroke="#231F20" stroke-miterlimit="10" cx="487.852" cy="164.059" rx="27.211" ry="3.332"/>
	
		<ellipse transform="matrix(0.9823 -0.1875 0.1875 0.9823 -21.2374 96.6855)" fill="none" stroke="#231F20" stroke-miterlimit="10" cx="500.329" cy="160.575" rx="9.094" ry="1.846"/>
	
		<ellipse transform="matrix(-0.9087 0.4174 -0.4174 -0.9087 1207.7767 284.4533)" fill="none" stroke="#231F20" stroke-miterlimit="10" cx="572.783" cy="274.298" rx="29.152" ry="7.625"/>
	<ellipse fill="none" stroke="#231F20" stroke-miterlimit="10" cx="406.522" cy="216.924" rx="64.041" ry="57.506"/>
	<ellipse fill="none" stroke="#231F20" stroke-miterlimit="10" cx="404.888" cy="213.33" rx="82.665" ry="77.437"/>
	<path fill="none" stroke="#231F20" stroke-miterlimit="10" d="M569.48,278.79c30.252,37.19,17.768,97.442-27.883,134.579
		c-45.651,37.135-107.184,37.094-137.438-0.093c-30.251-37.193-17.769-97.443,27.884-134.579
		C477.694,241.561,539.229,241.605,569.48,278.79z"/>
	
		<ellipse transform="matrix(0.7757 -0.6311 0.6311 0.7757 -113.2844 399.6545)" fill="none" stroke="#231F20" stroke-miterlimit="10" cx="505.642" cy="359.21" rx="34.928" ry="25.319"/>
	<path fill="none" stroke="#231F20" stroke-miterlimit="10" d="M567.313,283.72c29.065,35.733,17.285,93.448-26.313,128.916
		c-43.598,35.465-102.504,35.251-131.572-0.478c-29.066-35.734-17.285-93.449,26.314-128.916
		C479.34,247.775,538.248,247.992,567.313,283.72z"/>
	
		<ellipse transform="matrix(0.7574 -0.653 0.653 0.7574 -109.2933 413.9173)" fill="none" stroke="#231F20" stroke-miterlimit="10" cx="502.336" cy="354.028" rx="78.597" ry="64.029"/>
	<g>
		<path fill="none" stroke="#231F20" stroke-miterlimit="10" d="M440.502,269.368c-22.871,18.951-36.986,38.535-48.357,67.733
			c-0.817,2.234-2.843,3.5-4.662,2.869l0,0c-1.819-0.633-2.787-2.965-2.024-5.255c10.626-29.896,30.212-54.238,51.776-72.535
			c3.268-2.614,7.842-4.575,9.803-1.308C448.423,263.184,442.99,267.843,440.502,269.368z"/>
	</g>
	<path fill="none" stroke="#231F20" stroke-miterlimit="10" d="M385.609,337.164c0.654,3.268,5.229,8.312,5.229,13.069"/>
	<path fill="none" stroke="#231F20" stroke-miterlimit="10" d="M447.69,262.014c3.267,0.654,6.534,3.268,10.456,2.614"/>
	
		<ellipse transform="matrix(-0.9087 0.4175 -0.4175 -0.9087 1226.9535 267.0807)" fill="none" stroke="#231F20" stroke-miterlimit="10" cx="584.27" cy="267.714" rx="12.949" ry="4.929"/>
	<path fill="none" stroke="#231F20" stroke-miterlimit="10" d="M599.951,263.32c3.854,16.086,7.43,38.146,8.217,54.708
		c0.213,4.466-0.283,8.97-1.683,13.254c-1.469,4.74-5.906,8.571-9.802,11.109c-4.5,2.931-8.496,5.882-13.301,7.964"/>
	<path fill="none" stroke="#231F20" stroke-miterlimit="10" d="M572.503,273.12c-33.325-32.018-65.347-45.087-113.05-27.443
		c-47.704,17.644-58.16,44.437-84.298,65.348c-26.139,20.911-131.35,69.269-180.359,84.299
		c-49.012,15.03-90.181,16.337-107.171,3.921s-43.783-39.209-30.06-62.733c13.723-23.525,73.19-113.052,264.004-201.271
		c76.939-35.571,133.31-44.437,188.202,21.564l-0.653,1.308c-41.822-40.516-68.615-49.665-113.052-43.783
		c-44.436,5.881-116.972,51.625-179.052,87.566C154.932,237.836,57.564,324.748,71.288,361.996s163.369-8.494,260.084-71.883
		c96.714-63.387,136.577-84.299,187.548-78.417c50.971,5.881,69.922,38.556,77.117,50.612"/>
	<path fill="none" stroke="#231F20" stroke-miterlimit="10" d="M491.473,162.198c-13.104-13.111-28.237-24.77-45.834-31.096
		c-17.037-6.125-35.56-6.397-53.08-2.198c-17.133,4.106-33.49,12.411-46.358,24.521c-6.997,6.585-12.233,14.502-18.153,22.002
		c-6.484,8.216-13.971,14.015-23.437,18.452c-20.005,9.377-40.468,17.718-60.332,27.418c-19.206,9.378-37.903,19.785-55.748,31.561
		c-17.227,11.369-33.649,23.982-48.839,37.966c-15.35,14.13-30.38,29.448-41.897,46.927c-6.356,9.647-16.907,27.565-5.562,37.585"/>
</g>
</svg>
