<?xml version="1.0" encoding="utf-8"?>
<!-- Generator: Adobe Illustrator 16.0.0, SVG Export Plug-In . SVG Version: 6.00 Build 0)  -->
<!DOCTYPE svg PUBLIC "-//W3C//DTD SVG 1.1//EN" "http://www.w3.org/Graphics/SVG/1.1/DTD/svg11.dtd">
<svg version="1.1" id="Layer_1" xmlns="http://www.w3.org/2000/svg" xmlns:xlink="http://www.w3.org/1999/xlink" x="0px" y="0px"
	 width="640px" height="480px" viewBox="0 0 640 480" enable-background="new 0 0 640 480" xml:space="preserve">
<circle fill="#F1F2F2" cx="319.576" cy="240" r="175"/>
<path fill-rule="evenodd" clip-rule="evenodd" fill="#FFFFFF" d="M511.078,100.223l-206.406-16.18
	c-6.234-0.49-12.239,4.146-13.345,10.298l-24.969,138.939c-0.44,2.452-0.056,4.94,0.934,7.158
	c-5.31-0.223-11.319,0.625-15.386,2.364l-122.622,52.448c-2.922,1.249-4.349,2.899-4.297,4.541l-0.187-0.07l2.478,9.082
	c0.289,1.468,1.701,2.896,4.239,4.011l221.61,97.165c5.726,2.511,14.176,1.101,18.778-3.132l100.074-92.04
	c1.369-1.257,2.223-2.567,2.596-3.834l0.09,0.116l2.089-8.562c3.959-0.826,7.191-3.918,8.041-8.279l35.444-181.979
	C521.433,106.131,517.312,100.71,511.078,100.223z"/>
<g>
	<polygon fill="#376034" points="329.008,386.251 329.423,387.104 339.5,391.368 339.5,390.516 	"/>
	<path fill="#538F4D" d="M474.262,291.326l-8.087,4.591c-0.005,0-0.01-0.002-0.014-0.002l-195.822-55.219
		c-6.018-1.697-15.621-1.019-21.341,1.508L130.034,294.76l-8.479-3.149l2.477,9.082c0.29,1.466,1.701,2.896,4.24,4.009
		l221.608,97.165c5.727,2.511,14.178,1.102,18.779-3.13l100.076-92.041c1.367-1.257,2.22-2.567,2.595-3.835l0.088,0.117
		L474.262,291.326z"/>
	<g>
		<path fill="#3B2A57" d="M481.551,286.135c-1.195,6.137-7.102,9.782-13.123,8.102l-196.375-54.821
			c-6.022-1.681-10.045-8.091-8.939-14.247l24.968-138.939c1.106-6.152,7.111-10.789,13.345-10.299l206.407,16.18
			c6.233,0.488,10.354,5.909,9.16,12.046L481.551,286.135z"/>
		<path fill="none" stroke="#6EBF67" stroke-width="4" stroke-miterlimit="10" d="M481.551,286.135
			c-1.195,6.137-7.102,9.782-13.123,8.102l-196.375-54.821c-6.022-1.681-10.045-8.091-8.939-14.247l24.968-138.939
			c1.106-6.152,7.111-10.789,13.345-10.299l206.407,16.18c6.233,0.488,10.354,5.909,9.16,12.046L481.551,286.135z"/>
	</g>
	<polygon fill="#4E3874" points="468.009,273.136 272.188,224.536 297.767,88.684 501.262,107.391 	"/>
	<path fill="#6EBF67" d="M369.883,388.031c-4.649,4.18-13.164,5.606-18.921,3.17L126.057,296.04
		c-5.758-2.437-5.766-6.442-0.017-8.902l122.621-52.447c5.75-2.459,15.395-3.146,21.435-1.528l198.584,53.23
		c6.039,1.618,7.179,6.363,2.527,10.543L369.883,388.031z"/>
	<path fill="#8BCC85" d="M267.045,347.195c-1.313,0.848-3.567,1.043-5.007,0.436l-72.78-30.758c-1.44-0.609-1.474-1.676-0.075-2.374
		l48.771-24.322c1.399-0.696,3.745-0.831,5.215-0.299l69.547,25.206c1.469,0.533,1.595,1.661,0.282,2.507L267.045,347.195z"/>
	<path fill="#6EBF67" d="M201.5,327.162v1.964c0,1.563,0.636,3.348,2.072,3.967l30.783,13.382c1.436,0.618,2.505-0.153,2.561-1.716
		l0.592-2.136L201.5,327.162z"/>
	<g id="PCqO7b_4_">
		<g>
			<path fill-rule="evenodd" clip-rule="evenodd" fill="#3B2A57" d="M200.704,268.023c2.002-0.936,3.975-1.944,6.013-2.798
				c6.533-2.734,4.773-2.622,11.546-0.461c0.964,0.308,1.916,0.656,3.261,1.115c-0.742,0.474-1.093,0.763-1.492,0.939
				c-2.76,1.228-5.528,2.436-8.296,3.644c-1.341,0.584-2.635,0.696-4.084,0.133c-2.268-0.886-4.627-1.537-6.948-2.288
				C200.704,268.215,200.704,268.119,200.704,268.023z"/>
			<path fill-rule="evenodd" clip-rule="evenodd" fill="#3B2A57" d="M249.602,284.819c0.724-0.472,1.119-0.784,1.56-1.005
				c2.665-1.33,5.354-2.61,8.005-3.967c1.346-0.687,2.674-0.801,4.102-0.333c20.393,6.702,40.79,13.39,61.179,20.101
				c0.458,0.15,0.843,0.528,1.261,0.8c-0.32,0.362-0.581,0.824-0.976,1.071c-2.567,1.608-5.167,3.159-7.745,4.75
				c-1.208,0.747-2.428,0.866-3.786,0.399c-20.678-7.087-41.363-14.154-62.046-21.228
				C250.762,285.273,250.376,285.113,249.602,284.819z"/>
			<path fill-rule="evenodd" clip-rule="evenodd" fill="#3B2A57" d="M412.028,327.054c-0.936-0.215-1.639-0.32-2.307-0.537
				c-10.393-3.387-20.779-6.786-31.165-10.187c-0.361-0.117-0.737-0.213-1.064-0.393c-0.703-0.392-0.843-0.922-0.146-1.432
				c2.179-1.59,4.314-3.258,6.61-4.664c0.775-0.476,2.079-0.579,2.974-0.304c10.717,3.295,21.405,6.682,32.093,10.074
				c1.541,0.492,1.608,1.065,0.367,2.093c-1.752,1.448-3.482,2.922-5.285,4.304C413.467,326.501,412.644,326.752,412.028,327.054z"
				/>
			<path fill-rule="evenodd" clip-rule="evenodd" fill="#3B2A57" d="M429.808,313.131c-2.499,2.045-4.613,3.936-6.917,5.56
				c-0.673,0.472-1.967,0.458-2.832,0.195c-7.986-2.423-15.943-4.944-23.897-7.468c-0.447-0.144-0.802-0.578-1.2-0.877
				c0.283-0.347,0.513-0.761,0.857-1.027c1.686-1.295,3.422-2.526,5.104-3.828c1.146-0.887,2.37-1.082,3.731-0.667
				c7.813,2.38,15.632,4.752,23.44,7.15C428.592,312.321,429.028,312.685,429.808,313.131z"/>
			<path fill-rule="evenodd" clip-rule="evenodd" fill="#3B2A57" d="M416.756,297.928c2.417-1.795,4.421-3.462,6.617-4.809
				c0.755-0.462,2.066-0.374,3.009-0.117c6.165,1.667,12.302,3.435,18.435,5.213c0.544,0.157,1.004,0.608,1.504,0.924
				c-0.343,0.427-0.632,0.91-1.037,1.265c-1.284,1.115-2.625,2.16-3.915,3.271c-1.016,0.871-2.112,1.146-3.414,0.766
				c-6.533-1.92-13.073-3.813-19.607-5.731C417.923,298.584,417.539,298.318,416.756,297.928z"/>
			<path fill-rule="evenodd" clip-rule="evenodd" fill="#3B2A57" d="M247.079,265.503c-0.68,0.388-1.051,0.632-1.45,0.814
				c-2.18,1.018-4.32,2.144-6.571,2.971c-1.077,0.396-2.476,0.56-3.543,0.23c-6.81-2.107-13.567-4.38-20.341-6.605
				c-0.335-0.111-0.647-0.292-1.269-0.576c0.691-0.366,1.109-0.623,1.555-0.815c2.209-0.952,4.388-1.998,6.658-2.777
				c1.05-0.36,2.382-0.506,3.419-0.194c6.736,2.021,13.428,4.192,20.132,6.324C246.045,264.993,246.394,265.195,247.079,265.503z"/>
			<path fill-rule="evenodd" clip-rule="evenodd" fill="#3B2A57" d="M328.562,301.17c0.818,0.178,1.477,0.265,2.099,0.466
				c4.042,1.31,8.082,2.625,12.108,3.987c0.533,0.179,0.972,0.636,1.453,0.964c-0.372,0.387-0.688,0.856-1.125,1.146
				c-2.436,1.626-4.914,3.188-7.354,4.811c-1.189,0.791-2.391,0.965-3.753,0.493c-4.401-1.531-8.822-3.006-13.226-4.533
				c-0.4-0.14-0.726-0.491-1.087-0.744c0.309-0.327,0.566-0.741,0.937-0.975c2.596-1.636,5.2-3.261,7.839-4.826
				C327.117,301.563,327.921,301.401,328.562,301.17z"/>
			<path fill-rule="evenodd" clip-rule="evenodd" fill="#3B2A57" d="M379.404,317.98c0.761,0.086,1.205,0.063,1.602,0.192
				c3.733,1.204,7.471,2.399,11.176,3.68c1.248,0.431,1.285,1.083,0.228,1.907c-2.424,1.889-4.856,3.767-7.298,5.632
				c-1.038,0.794-2.163,1.043-3.458,0.592c-3.739-1.297-7.501-2.535-11.239-3.84c-0.439-0.154-0.787-0.572-1.177-0.865
				c0.275-0.355,0.486-0.789,0.832-1.049c2.464-1.836,4.934-3.665,7.447-5.426C378.144,318.362,378.946,318.174,379.404,317.98z"/>
			<path fill-rule="evenodd" clip-rule="evenodd" fill="#3B2A57" d="M347.785,307.456c0.781,0.174,1.394,0.258,1.975,0.444
				c3.018,0.974,6.033,1.952,9.031,2.981c0.499,0.169,0.912,0.588,1.365,0.894c-0.362,0.447-0.646,1.002-1.096,1.322
				c-2.391,1.7-4.814,3.356-7.245,5c-1.07,0.726-2.214,0.956-3.494,0.507c-3.386-1.178-6.795-2.297-10.182-3.478
				c-0.396-0.14-0.703-0.521-1.054-0.789c0.287-0.35,0.513-0.793,0.874-1.036c2.511-1.69,5.029-3.371,7.595-4.979
				C346.25,307.887,347.11,307.713,347.785,307.456z"/>
			<path fill-rule="evenodd" clip-rule="evenodd" fill="#3B2A57" d="M258.982,278.734c-0.827,0.424-1.648,0.855-2.479,1.267
				c-2.33,1.158-4.628,2.384-7.012,3.413c-0.898,0.386-2.103,0.646-2.988,0.375c-3.779-1.151-7.491-2.521-11.226-3.817
				c-0.159-0.054-0.304-0.146-0.732-0.356c0.628-0.4,1.018-0.708,1.455-0.917c2.641-1.264,5.302-2.479,7.936-3.756
				c1.485-0.722,2.955-0.826,4.521-0.291c3.04,1.039,6.102,2.02,9.149,3.037c0.468,0.157,0.912,0.392,1.369,0.591
				C258.978,278.43,258.98,278.583,258.982,278.734z"/>
			<path fill-rule="evenodd" clip-rule="evenodd" fill="#3B2A57" d="M373.586,314.516c-0.835-0.189-1.396-0.276-1.93-0.448
				c-3.193-1.03-6.386-2.061-9.561-3.141c-0.49-0.165-0.896-0.581-1.341-0.883c0.368-0.394,0.682-0.868,1.113-1.174
				c1.775-1.251,3.626-2.398,5.371-3.696c1.265-0.939,2.592-1.096,4.013-0.66c3.296,1.011,6.583,2.053,9.858,3.13
				c0.446,0.147,0.802,0.571,1.198,0.865c-0.322,0.378-0.588,0.828-0.974,1.116c-1.861,1.377-3.725,2.753-5.648,4.036
				C375.015,314.108,374.166,314.288,373.586,314.516z"/>
			<path fill-rule="evenodd" clip-rule="evenodd" fill="#3B2A57" d="M225.445,257.43c0.537-0.309,0.865-0.541,1.227-0.694
				c2.168-0.929,4.308-1.945,6.535-2.703c1.002-0.341,2.265-0.438,3.272-0.157c4.769,1.328,9.491,2.823,14.227,4.266
				c0.39,0.117,0.759,0.304,1.111,0.449c-0.038,0.198-0.027,0.348-0.075,0.367c-2.878,1.297-5.747,2.612-8.656,3.833
				c-0.46,0.191-1.135,0.058-1.658-0.103c-4.993-1.535-9.975-3.103-14.957-4.673C226.184,257.924,225.934,257.712,225.445,257.43z"
				/>
			<path fill-rule="evenodd" clip-rule="evenodd" fill="#3B2A57" d="M430.705,311.677c-0.818-0.145-1.346-0.186-1.838-0.332
				c-3.53-1.059-7.059-2.123-10.572-3.236c-0.492-0.157-0.894-0.598-1.335-0.908c0.324-0.376,0.601-0.81,0.98-1.114
				c1.546-1.242,3.049-2.568,4.721-3.613c0.832-0.52,2.093-0.888,2.997-0.666c3.849,0.951,7.646,2.125,11.445,3.27
				c1.349,0.407,1.41,0.889,0.326,1.792c-1.594,1.334-3.173,2.687-4.828,3.939C431.996,311.266,431.192,311.461,430.705,311.677z"/>
			<path fill-rule="evenodd" clip-rule="evenodd" fill="#3B2A57" d="M391.787,309.893c-0.694-0.156-1.16-0.231-1.603-0.369
				c-3.333-1.039-6.665-2.077-9.983-3.153c-0.459-0.149-0.853-0.508-1.276-0.767c0.331-0.416,0.591-0.929,1.004-1.231
				c1.755-1.281,3.489-2.618,5.369-3.693c0.854-0.487,2.12-0.769,3.041-0.532c3.611,0.928,7.164,2.086,10.726,3.195
				c0.358,0.114,0.85,0.454,0.891,0.743c0.042,0.284-0.354,0.718-0.662,0.951c-1.811,1.368-3.624,2.737-5.495,4.019
				C393.168,309.485,392.363,309.661,391.787,309.893z"/>
			<path fill-rule="evenodd" clip-rule="evenodd" fill="#3B2A57" d="M344.844,304.944c0.8-0.578,1.342-1.001,1.912-1.377
				c1.701-1.118,3.43-2.198,5.119-3.332c1.224-0.822,2.511-1.051,3.914-0.608c3.157,0.999,6.318,1.986,9.466,3.015
				c0.415,0.138,0.756,0.493,1.134,0.747c-0.304,0.378-0.539,0.85-0.92,1.116c-1.896,1.336-3.763,2.741-5.782,3.866
				c-0.946,0.527-2.323,0.884-3.318,0.62c-3.469-0.924-6.86-2.145-10.272-3.275C345.756,305.604,345.469,305.335,344.844,304.944z"
				/>
			<path fill-rule="evenodd" clip-rule="evenodd" fill="#3B2A57" d="M400.111,302.195c2.648-1.854,4.929-3.583,7.358-5.071
				c0.631-0.386,1.764-0.205,2.584,0.017c3.415,0.929,6.804,1.955,10.189,2.994c0.446,0.138,0.81,0.541,1.212,0.823
				c-0.284,0.355-0.514,0.774-0.859,1.051c-1.475,1.176-3.031,2.252-4.461,3.476c-1.122,0.962-2.357,1.225-3.688,0.842
				c-3.628-1.043-7.235-2.16-10.844-3.272C401.222,302.936,400.89,302.652,400.111,302.195z"/>
			<path fill-rule="evenodd" clip-rule="evenodd" fill="#3B2A57" d="M375.934,304.803c-0.793-0.12-1.226-0.131-1.627-0.257
				c-3.289-1.016-6.578-2.038-9.852-3.102c-0.411-0.131-0.744-0.506-1.113-0.769c0.287-0.339,0.517-0.762,0.87-1.005
				c1.833-1.256,3.62-2.613,5.581-3.631c0.992-0.519,2.406-0.761,3.475-0.499c3.298,0.808,6.525,1.907,9.77,2.929
				c0.41,0.129,0.751,0.483,1.124,0.732c-0.289,0.346-0.52,0.772-0.874,1.025c-1.768,1.269-3.545,2.53-5.369,3.712
				C377.239,304.381,376.418,304.601,375.934,304.803z"/>
			<path fill-rule="evenodd" clip-rule="evenodd" fill="#3B2A57" d="M351.617,298.708c-3.026,1.901-5.646,3.653-8.387,5.188
				c-0.669,0.376-1.796,0.234-2.612-0.006c-3.121-0.921-6.208-1.965-9.292-3.004c-0.401-0.137-0.72-0.522-1.075-0.792
				c0.3-0.335,0.545-0.756,0.911-0.987c2.037-1.28,4.043-2.641,6.188-3.712c0.972-0.485,2.335-0.723,3.364-0.46
				c3.193,0.818,6.315,1.925,9.456,2.945C350.545,298.003,350.87,298.275,351.617,298.708z"/>
			<path fill-rule="evenodd" clip-rule="evenodd" fill="#3B2A57" d="M397.598,301.638c-0.749-0.131-1.226-0.166-1.673-0.301
				c-3.302-0.982-6.602-1.975-9.892-3.002c-0.416-0.127-0.764-0.479-1.144-0.729c0.304-0.378,0.545-0.838,0.922-1.113
				c1.56-1.142,3.164-2.219,4.742-3.333c1.145-0.805,2.346-1.101,3.735-0.682c3.341,1.013,6.706,1.956,10.048,2.973
				c0.397,0.12,0.711,0.524,1.062,0.798c-0.272,0.302-0.503,0.661-0.823,0.899c-1.704,1.267-3.405,2.536-5.161,3.729
				C398.821,301.276,398.07,301.444,397.598,301.638z"/>
			<path fill-rule="evenodd" clip-rule="evenodd" fill="#3B2A57" d="M348.146,295.57c2.521-1.55,5.009-3.162,7.591-4.601
				c0.619-0.343,1.618-0.299,2.346-0.096c3.268,0.917,6.504,1.945,9.742,2.962c0.373,0.115,0.695,0.386,1.284,0.726
				c-0.958,0.691-1.69,1.253-2.456,1.765c-1.411,0.947-2.86,1.838-4.262,2.802c-1.146,0.786-2.357,0.905-3.64,0.507
				c-3.101-0.963-6.202-1.936-9.294-2.931c-0.453-0.146-0.863-0.432-1.295-0.649C348.156,295.893,348.151,295.729,348.146,295.57z"
				/>
			<path fill-rule="evenodd" clip-rule="evenodd" fill="#3B2A57" d="M336.84,294.067c-1.146,0.712-2.009,1.26-2.881,1.793
				c-1.532,0.938-3.013,1.988-4.628,2.757c-0.922,0.439-2.166,0.777-3.093,0.526c-3.326-0.905-6.578-2.076-9.853-3.163
				c-0.206-0.068-0.366-0.27-0.727-0.547c0.419-0.354,0.72-0.685,1.085-0.905c2.111-1.266,4.185-2.604,6.38-3.703
				c0.904-0.452,2.167-0.703,3.111-0.456c3.196,0.838,6.325,1.935,9.474,2.954C335.996,293.416,336.234,293.66,336.84,294.067z"/>
			<path fill-rule="evenodd" clip-rule="evenodd" fill="#3B2A57" d="M401.359,293.388c1.382-1.015,2.649-1.753,3.686-2.737
				c2.536-2.406,5.274-2.638,8.441-1.396c2.143,0.841,4.443,1.275,6.658,1.935c0.646,0.194,1.243,0.542,2.265,0.996
				c-2.517,1.83-4.665,3.478-6.92,4.965c-0.497,0.327-1.419,0.248-2.065,0.072c-3.641-0.995-7.259-2.072-10.88-3.142
				C402.246,293.993,401.989,293.762,401.359,293.388z"/>
			<path fill-rule="evenodd" clip-rule="evenodd" fill="#3B2A57" d="M369.134,292.83c2.798-1.766,5.166-3.382,7.665-4.758
				c0.666-0.367,1.782-0.153,2.615,0.071c3.104,0.831,6.179,1.765,9.255,2.693c0.421,0.13,0.783,0.452,1.173,0.686
				c-0.312,0.369-0.568,0.82-0.948,1.091c-1.729,1.237-3.418,2.562-5.278,3.563c-0.9,0.482-2.228,0.648-3.219,0.398
				c-3.297-0.834-6.528-1.912-9.775-2.922C370.245,293.537,369.917,293.271,369.134,292.83z"/>
			<path fill-rule="evenodd" clip-rule="evenodd" fill="#3B2A57" d="M354.189,289.927c-0.561,0.453-0.886,0.772-1.26,1.01
				c-1.875,1.189-3.692,2.502-5.675,3.476c-1.014,0.498-2.418,0.732-3.493,0.467c-3.056-0.756-6.037-1.819-9.036-2.793
				c-0.37-0.12-0.674-0.449-1.008-0.681c0.29-0.333,0.524-0.756,0.882-0.979c1.926-1.195,3.82-2.474,5.856-3.449
				c0.972-0.467,2.311-0.654,3.347-0.403c3.021,0.729,5.975,1.733,8.948,2.652C353.168,289.354,353.548,289.608,354.189,289.927z"/>
			<path fill-rule="evenodd" clip-rule="evenodd" fill="#3B2A57" d="M301.6,290.777c1.627-0.938,2.948-1.733,4.299-2.474
				c5.56-3.044,4.362-3.048,10.56-1.103c1.532,0.481,3.066,0.954,4.588,1.469c0.458,0.154,0.874,0.434,1.576,0.788
				c-0.651,0.456-1.04,0.77-1.465,1.021c-1.995,1.181-3.945,2.452-6.021,3.463c-0.948,0.463-2.244,0.767-3.218,0.514
				c-3.102-0.809-6.13-1.905-9.18-2.912C302.449,291.446,302.211,291.195,301.6,290.777z"/>
			<path fill-rule="evenodd" clip-rule="evenodd" fill="#3B2A57" d="M406.35,287.912c-1.131,0.818-2.364,1.523-3.368,2.475
				c-2.528,2.395-5.243,2.735-8.433,1.425c-2.13-0.877-4.429-1.33-6.641-2.001c-0.562-0.17-1.093-0.449-1.995-0.83
				c1.14-0.812,1.977-1.455,2.858-2.026c5.384-3.495,3.715-3.615,10.482-1.706c1.772,0.497,3.546,0.996,5.309,1.526
				c0.572,0.171,1.11,0.445,1.662,0.673C406.267,287.603,406.306,287.758,406.35,287.912z"/>
			<path fill-rule="evenodd" clip-rule="evenodd" fill="#3B2A57" d="M259.91,253.282c-1.314,0.602-2.396,1.122-3.5,1.596
				c-6.464,2.777-4.408,2.769-11.382,0.677c-2.308-0.693-4.615-1.388-6.92-2.093c-0.482-0.148-0.951-0.343-1.782-0.646
				c0.967-0.498,1.597-0.869,2.265-1.156c1.82-0.781,3.628-1.599,5.493-2.256c0.809-0.284,1.813-0.465,2.609-0.251
				c4.15,1.118,8.261,2.376,12.384,3.599C259.278,252.811,259.446,252.982,259.91,253.282z"/>
			<path fill-rule="evenodd" clip-rule="evenodd" fill="#3B2A57" d="M339.979,285.679c-1.536,0.946-2.793,1.753-4.079,2.507
				c-5.143,3.007-4.027,3.05-9.813,1.165c-1.747-0.568-3.51-1.092-5.258-1.66c-0.414-0.138-0.795-0.374-1.437-0.68
				c0.542-0.419,0.839-0.701,1.184-0.902c1.96-1.143,3.891-2.352,5.921-3.353c0.876-0.43,2.057-0.764,2.946-0.541
				c3.201,0.804,6.338,1.855,9.495,2.831C339.188,285.124,339.4,285.322,339.979,285.679z"/>
			<path fill-rule="evenodd" clip-rule="evenodd" fill="#3B2A57" d="M309.002,285.225c-1.685,0.94-3.067,1.726-4.46,2.493
				c-5.675,3.123-4.18,3.031-10.407,1.02c-1.871-0.604-3.729-1.244-5.94-1.984c0.599-0.502,0.865-0.811,1.2-0.995
				c2.244-1.221,4.462-2.507,6.778-3.576c0.883-0.405,2.084-0.604,3.002-0.366c2.924,0.765,5.786,1.771,8.664,2.7
				C308.129,284.612,308.376,284.838,309.002,285.225z"/>
			<path fill-rule="evenodd" clip-rule="evenodd" fill="#3B2A57" d="M391.604,283.486c-1.297,0.865-2.446,1.439-3.354,2.271
				c-2.826,2.601-5.855,2.977-9.355,1.453c-1.888-0.821-3.967-1.202-5.952-1.807c-0.472-0.146-0.91-0.392-1.69-0.736
				c1.174-0.805,2.071-1.45,2.996-2.049c0.99-0.64,2.069-1.157,2.991-1.878c1.126-0.88,2.374-1,3.621-0.681
				c3.152,0.815,6.273,1.746,9.399,2.654C390.604,282.813,390.9,283.074,391.604,283.486z"/>
			<path fill-rule="evenodd" clip-rule="evenodd" fill="#3B2A57" d="M374.882,287.28c-2.508,1.622-4.768,3.151-7.108,4.543
				c-0.543,0.322-1.423,0.378-2.052,0.202c-3.361-0.939-6.693-1.985-10.03-3.014c-0.248-0.075-0.453-0.282-0.644-0.406
				c0.014-0.182-0.016-0.33,0.032-0.357c2.34-1.488,4.654-3.02,7.055-4.403c0.54-0.311,1.427-0.284,2.07-0.107
				c3.271,0.89,6.517,1.874,9.765,2.849C374.213,286.658,374.402,286.906,374.882,287.28z"/>
			<path fill-rule="evenodd" clip-rule="evenodd" fill="#3B2A57" d="M222.81,275.714c0.67-0.432,1.015-0.714,1.405-0.896
				c2.738-1.266,5.489-2.503,8.229-3.767c1.386-0.64,2.774-0.754,4.236-0.244c1.96,0.684,3.946,1.29,5.915,1.949
				c0.46,0.156,0.892,0.396,1.779,0.8c-1.449,0.744-2.496,1.312-3.57,1.825c-1.999,0.954-4.023,1.855-6.017,2.821
				c-1.393,0.676-2.764,0.771-4.232,0.228C228.108,277.524,225.63,276.698,222.81,275.714z"/>
			<path fill-rule="evenodd" clip-rule="evenodd" fill="#3B2A57" d="M360.566,282.948c-2.687,1.642-5.05,3.178-7.514,4.534
				c-0.617,0.339-1.611,0.291-2.34,0.089c-3.182-0.879-6.333-1.877-9.487-2.85c-0.25-0.075-0.457-0.285-0.886-0.562
				c0.439-0.368,0.741-0.694,1.107-0.914c1.821-1.094,3.606-2.266,5.512-3.188c0.909-0.442,2.137-0.731,3.08-0.506
				c3.164,0.755,6.266,1.768,9.385,2.7C359.712,282.339,359.956,282.57,360.566,282.948z"/>
			<path fill-rule="evenodd" clip-rule="evenodd" fill="#3B2A57" d="M326.125,281.467c-0.849,0.519-1.503,0.938-2.172,1.322
				c-1.677,0.967-3.31,2.037-5.065,2.832c-0.928,0.419-2.16,0.687-3.108,0.442c-3.001-0.767-5.937-1.8-8.889-2.753
				c-0.281-0.09-0.506-0.348-0.992-0.692c0.898-0.524,1.603-0.956,2.324-1.354c1.652-0.912,3.266-1.915,4.987-2.675
				c0.896-0.396,2.068-0.675,2.975-0.447c3.011,0.759,5.96,1.761,8.927,2.69C325.396,280.921,325.633,281.151,326.125,281.467z"/>
			<path fill-rule="evenodd" clip-rule="evenodd" fill="#3B2A57" d="M275.249,282.249c0.733-0.435,1.225-0.761,1.747-1.03
				c2.011-1.042,3.988-2.172,6.071-3.05c0.976-0.412,2.24-0.645,3.236-0.398c2.743,0.671,5.417,1.632,8.111,2.499
				c0.329,0.107,0.616,0.344,1.093,0.618c-0.447,0.342-0.706,0.602-1.017,0.772c-2.196,1.199-4.358,2.479-6.628,3.521
				c-0.92,0.423-2.169,0.646-3.119,0.396c-2.914-0.769-5.757-1.81-8.624-2.76C275.91,282.749,275.735,282.57,275.249,282.249z"/>
			<path fill-rule="evenodd" clip-rule="evenodd" fill="#3B2A57" d="M356.983,280.352c2.606-1.543,4.905-3.019,7.324-4.26
				c0.697-0.358,1.782-0.207,2.614,0.004c2.884,0.736,5.736,1.594,8.594,2.431c0.423,0.124,0.807,0.39,1.486,0.729
				c-0.955,0.662-1.656,1.177-2.385,1.65c-1.23,0.797-2.421,1.685-3.731,2.312c-0.885,0.426-2.038,0.837-2.919,0.627
				c-3.394-0.814-6.73-1.874-10.084-2.86C357.679,280.925,357.514,280.73,356.983,280.352z"/>
			<path fill-rule="evenodd" clip-rule="evenodd" fill="#3B2A57" d="M211.819,271.576c0.442-0.243,0.868-0.52,1.327-0.725
				c2.676-1.188,5.362-2.355,8.04-3.54c1.401-0.62,2.791-0.713,4.263-0.19c2.259,0.803,4.55,1.512,7.219,2.389
				c-0.685,0.508-1.025,0.858-1.438,1.047c-2.786,1.29-5.543,2.666-8.408,3.755c-1.097,0.415-2.526,0.44-3.67,0.139
				c-2.488-0.654-4.889-1.632-7.326-2.477C211.823,271.842,211.822,271.708,211.819,271.576z"/>
			<path fill-rule="evenodd" clip-rule="evenodd" fill="#3B2A57" d="M326.521,279.938c0.747-0.478,1.269-0.843,1.818-1.156
				c1.64-0.939,3.24-1.972,4.956-2.744c0.933-0.419,2.147-0.714,3.1-0.492c3.073,0.729,6.085,1.718,9.116,2.625
				c0.252,0.075,0.463,0.28,0.883,0.543c-0.427,0.332-0.718,0.605-1.055,0.805c-1.823,1.092-3.604,2.277-5.512,3.197
				c-0.953,0.46-2.232,0.781-3.215,0.546c-3.115-0.756-6.16-1.8-9.228-2.748C327.178,280.449,327.005,280.266,326.521,279.938z"/>
			<path fill-rule="evenodd" clip-rule="evenodd" fill="#3B2A57" d="M292.794,278.664c0.625-0.425,0.978-0.712,1.37-0.922
				c1.917-1.026,3.853-2.013,5.763-3.049c1.277-0.689,2.556-0.828,3.952-0.376c2.467,0.799,4.96,1.517,7.437,2.286
				c0.421,0.131,0.816,0.345,1.521,0.647c-0.635,0.438-0.986,0.722-1.374,0.937c-1.985,1.097-3.924,2.303-5.994,3.209
				c-1.002,0.438-2.332,0.611-3.382,0.357c-2.694-0.649-5.316-1.596-7.963-2.441C293.777,279.202,293.462,278.994,292.794,278.664z"
				/>
			<path fill-rule="evenodd" clip-rule="evenodd" fill="#3B2A57" d="M262.911,278.224c0.506-0.34,0.852-0.632,1.246-0.829
				c2.237-1.12,4.453-2.299,6.75-3.28c0.857-0.368,1.994-0.532,2.877-0.303c2.782,0.723,5.508,1.672,8.25,2.551
				c0.199,0.063,0.357,0.262,0.505,0.374c-0.037,0.178-0.026,0.324-0.075,0.35c-2.845,1.466-5.676,2.961-8.561,4.343
				c-0.531,0.255-1.332,0.207-1.925,0.027c-2.756-0.835-5.483-1.759-8.218-2.668C263.519,278.708,263.319,278.501,262.911,278.224z"
				/>
			<path fill-rule="evenodd" clip-rule="evenodd" fill="#3B2A57" d="M391.333,327.653c0.551,0.115,1.118,0.183,1.651,0.356
				c3.633,1.196,7.265,2.396,10.882,3.639c1.866,0.64,1.948,1.166,0.476,2.401c-0.544,0.455-1.099,0.894-1.635,1.356
				c-0.984,0.85-2.107,1.033-3.307,0.629c-4.016-1.352-8.028-2.718-12.034-4.103c-1.384-0.479-1.488-1.025-0.279-1.902
				C388.39,329.086,389.427,327.6,391.333,327.653z"/>
			<path fill-rule="evenodd" clip-rule="evenodd" fill="#3B2A57" d="M362.779,275.276c-0.951,0.616-1.664,1.126-2.419,1.562
				c-6.356,3.673-4.154,3.647-11.496,1.524c-1.837-0.531-3.665-1.093-5.496-1.641c-0.013-0.142-0.026-0.279-0.038-0.421
				c0.481-0.321,0.949-0.665,1.445-0.958c1.506-0.896,2.961-1.911,4.556-2.603c1.065-0.465,2.413-0.821,3.501-0.592
				c2.953,0.624,5.84,1.579,8.745,2.427C361.908,274.674,362.194,274.931,362.779,275.276z"/>
			<path fill-rule="evenodd" clip-rule="evenodd" fill="#3B2A57" d="M313.242,275.911c0.971-0.571,1.707-1.041,2.477-1.45
				c7.286-3.876,4.766-3.582,12.547-1.372c1.364,0.387,2.716,0.824,4.069,1.246c0.128,0.04,0.235,0.149,0.415,0.266
				c-0.196,0.268-0.287,0.511-0.458,0.607c-2.221,1.266-4.424,2.567-6.702,3.722c-0.664,0.335-1.617,0.473-2.325,0.281
				c-3.107-0.83-6.172-1.813-9.25-2.755C313.847,276.406,313.712,276.249,313.242,275.911z"/>
			<path fill-rule="evenodd" clip-rule="evenodd" fill="#3B2A57" d="M280.248,274.494c0.511-0.301,0.895-0.545,1.295-0.755
				c0.585-0.308,1.178-0.602,1.774-0.886c6.827-3.274,4.563-3.382,11.641-1.228c1.545,0.472,3.082,0.973,4.621,1.459
				c0.004,0.143,0.01,0.28,0.016,0.423c-1.092,0.608-2.164,1.255-3.279,1.816c-6.828,3.438-4.483,3.14-11.213,1.148
				c-1.488-0.441-2.955-0.954-4.427-1.451C280.562,274.984,280.498,274.812,280.248,274.494z"/>
			<path fill-rule="evenodd" clip-rule="evenodd" fill="#3B2A57" d="M270.184,272.744c-0.026,0.225-0.016,0.299-0.037,0.311
				c-3.078,1.479-6.153,2.969-9.248,4.413c-0.302,0.143-0.763,0.079-1.106-0.029c-2.835-0.894-5.659-1.815-8.483-2.745
				c-0.112-0.035-0.182-0.196-0.4-0.45c0.397-0.27,0.737-0.564,1.126-0.755c2.121-1.035,4.26-2.037,6.384-3.066
				c1.291-0.623,2.588-0.777,3.978-0.307c2.189,0.742,4.405,1.41,6.604,2.125C269.425,272.378,269.824,272.589,270.184,272.744z"/>
			<path fill-rule="evenodd" clip-rule="evenodd" fill="#3B2A57" d="M329.891,272.257c1.386-0.774,2.867-1.416,4.132-2.349
				c2.577-1.904,5.22-2.05,8.134-0.916c1.71,0.667,3.533,1.033,5.297,1.563c0.469,0.142,0.903,0.392,1.723,0.755
				c-1.478,0.864-2.73,1.422-3.774,2.241c-2.889,2.268-5.884,2.558-9.254,1.128c-1.967-0.835-4.106-1.266-6.168-1.877
				C329.949,272.621,329.92,272.438,329.891,272.257z"/>
			<path fill-rule="evenodd" clip-rule="evenodd" fill="#3B2A57" d="M319.849,270.975c-1.301,0.703-2.352,1.287-3.415,1.849
				c-6.162,3.245-4.221,3.05-10.97,1.08c-1.608-0.468-3.198-1.002-5.054-1.586c0.471-0.446,0.66-0.716,0.918-0.853
				c2.079-1.119,4.134-2.294,6.277-3.272c0.807-0.365,1.896-0.524,2.74-0.315c2.93,0.728,5.812,1.654,8.707,2.521
				C319.218,270.446,319.35,270.607,319.849,270.975z"/>
			<path fill-rule="evenodd" clip-rule="evenodd" fill="#3B2A57" d="M267.914,270.642c3.037-1.42,5.782-2.749,8.576-3.966
				c0.553-0.242,1.335-0.203,1.939-0.035c2.72,0.759,5.415,1.61,8.112,2.438c0.205,0.062,0.378,0.229,0.688,0.423
				c-0.334,0.288-0.536,0.546-0.801,0.681c-2.272,1.155-4.526,2.354-6.852,3.39c-0.77,0.342-1.806,0.505-2.599,0.295
				c-2.768-0.733-5.485-1.664-8.215-2.539C268.563,271.264,268.412,271.052,267.914,270.642z"/>
			<path fill-rule="evenodd" clip-rule="evenodd" fill="#3B2A57" d="M258.178,269.356c-1.713,0.837-3.505,1.547-5.121,2.539
				c-2.953,1.812-5.865,1.975-9.001,0.508c-1.554-0.729-3.263-1.125-4.869-1.66c0.052-0.3,0.04-0.446,0.086-0.468
				c2.945-1.369,5.892-2.738,8.851-4.077c0.283-0.127,0.677-0.169,0.973-0.086c3.021,0.857,6.034,1.747,9.049,2.629
				C258.155,268.947,258.167,269.15,258.178,269.356z"/>
			<path fill-rule="evenodd" clip-rule="evenodd" fill="#3B2A57" d="M335.981,267.666c-2.845,1.469-5.383,2.789-7.938,4.08
				c-0.277,0.141-0.676,0.21-0.968,0.131c-3.353-0.917-6.695-1.87-10.476-2.936c0.737-0.558,1.082-0.896,1.49-1.115
				c1.788-0.969,3.542-2.029,5.414-2.797c0.978-0.397,2.236-0.532,3.26-0.306c2.672,0.589,5.287,1.437,7.917,2.207
				C335.015,267.029,335.304,267.276,335.981,267.666z"/>
			<path fill-rule="evenodd" clip-rule="evenodd" fill="#3B2A57" d="M365.771,324.475c-0.408-0.105-0.823-0.184-1.222-0.315
				c-3.517-1.197-7.035-2.393-10.539-3.626c-0.439-0.155-0.793-0.544-1.188-0.825c0.326-0.367,0.63-0.758,0.98-1.102
				c2.313-2.271,4.866-2.394,7.79-1.164c2.604,1.093,5.364,1.81,8.032,2.752c0.484,0.171,0.86,0.637,1.286,0.966
				c-0.312,0.377-0.563,0.852-0.954,1.113c-1.291,0.874-2.634,1.671-3.956,2.499C365.925,324.672,365.846,324.574,365.771,324.475z"
				/>
			<path fill-rule="evenodd" clip-rule="evenodd" fill="#3B2A57" d="M306.962,267.1c-0.693,0.414-1.221,0.756-1.775,1.051
				c-1.708,0.914-3.385,1.909-5.159,2.674c-0.905,0.389-2.07,0.663-2.984,0.443c-2.846-0.692-5.627-1.646-8.43-2.508
				c-0.166-0.052-0.296-0.217-0.428-0.319c0.017-0.133-0.001-0.282,0.044-0.306c2.599-1.333,5.187-2.693,7.825-3.944
				c0.5-0.236,1.245-0.166,1.813-0.011c2.782,0.765,5.543,1.601,8.309,2.428C306.381,266.669,306.554,266.84,306.962,267.1z"/>
			<path fill-rule="evenodd" clip-rule="evenodd" fill="#3B2A57" d="M256.36,266.857c1.005-0.479,2.008-0.967,3.018-1.44
				c1.367-0.644,2.755-1.243,4.101-1.927c1.303-0.663,2.592-0.707,3.965-0.262c2.104,0.684,4.229,1.303,6.343,1.963
				c0.422,0.131,0.826,0.318,1.575,0.61c-0.739,0.44-1.148,0.725-1.591,0.94c-1.867,0.912-3.757,1.776-5.61,2.713
				c-1.417,0.716-2.789,0.891-4.333,0.318c-2.069-0.769-4.206-1.346-6.312-2.016c-0.378-0.12-0.743-0.292-1.114-0.438
				C256.388,267.166,256.374,267.011,256.36,266.857z"/>
			<path fill-rule="evenodd" clip-rule="evenodd" fill="#3B2A57" d="M304.229,264.935c1.459-0.758,2.832-1.288,3.999-2.109
				c2.96-2.08,5.982-2.145,9.25-0.83c1.724,0.695,3.577,1.068,5.371,1.586c0.013,0.163,0.023,0.326,0.034,0.488
				c-1.183,0.641-2.363,1.281-3.549,1.916c-1,0.535-1.965,1.175-3.021,1.561c-0.854,0.31-1.89,0.593-2.725,0.391
				c-2.89-0.699-5.727-1.614-8.58-2.46C304.812,265.417,304.649,265.232,304.229,264.935z"/>
			<path fill-rule="evenodd" clip-rule="evenodd" fill="#3B2A57" d="M275.945,264.676c0.53-0.322,0.9-0.592,1.303-0.789
				c1.951-0.952,3.894-1.922,5.877-2.803c0.668-0.295,1.512-0.617,2.164-0.462c3.101,0.746,6.163,1.65,9.188,2.487
				c-0.025,0.344,0,0.496-0.043,0.518c-2.641,1.338-5.268,2.702-7.949,3.956c-0.495,0.231-1.238,0.137-1.805-0.023
				c-2.633-0.748-5.246-1.567-7.861-2.375C276.573,265.109,276.361,264.922,275.945,264.676z"/>
			<path fill-rule="evenodd" clip-rule="evenodd" fill="#3B2A57" d="M244.763,263.265c2.126-0.978,4.292-1.884,6.371-2.955
				c1.899-0.979,3.72-1.054,5.718-0.31c2.06,0.768,4.205,1.312,6.397,2.336c-0.447,0.265-0.876,0.562-1.342,0.786
				c-1.961,0.937-3.912,1.897-5.912,2.745c-0.759,0.322-1.713,0.659-2.449,0.476c-2.947-0.732-5.845-1.667-8.761-2.525
				C244.777,263.632,244.77,263.448,244.763,263.265z"/>
			<path fill-rule="evenodd" clip-rule="evenodd" fill="#3B2A57" d="M291.964,261.448c1.172-0.591,2.065-1.059,2.975-1.497
				c6.31-3.042,4.477-3.053,11.463-1.066c1.333,0.38,2.665,0.769,3.997,1.155c0.016,0.169,0.032,0.339,0.049,0.509
				c-0.764,0.396-1.522,0.803-2.292,1.187c-7.138,3.565-4.58,3.236-12.186,1.13c-1.134-0.312-2.249-0.694-3.37-1.053
				C292.474,261.772,292.364,261.68,291.964,261.448z"/>
			<path fill-rule="evenodd" clip-rule="evenodd" fill="#3B2A57" d="M264.413,260.97c1.04-0.506,2.07-1.029,3.12-1.512
				c6.463-2.958,4.623-2.835,11.363-0.88c1.247,0.361,2.487,0.737,3.731,1.104c0.005,0.128,0.009,0.259,0.015,0.39
				c-0.38,0.232-0.744,0.505-1.144,0.699c-1.956,0.949-3.896,1.933-5.895,2.783c-0.749,0.318-1.707,0.584-2.453,0.401
				c-2.919-0.72-5.792-1.629-8.681-2.467C264.451,261.313,264.432,261.143,264.413,260.97z"/>
			<path fill-rule="evenodd" clip-rule="evenodd" fill="#3B2A57" d="M280.052,258.19c0.648-0.444,0.885-0.657,1.16-0.789
				c1.36-0.644,2.828-1.118,4.08-1.928c2.477-1.601,4.936-1.432,7.552-0.478c1.785,0.651,3.646,1.096,5.797,1.729
				c-0.619,0.45-0.882,0.71-1.199,0.863c-2.031,0.993-4.048,2.019-6.126,2.905c-0.695,0.297-1.609,0.456-2.319,0.274
				C286.136,260.037,283.314,259.146,280.052,258.19z"/>
			<path fill-rule="evenodd" clip-rule="evenodd" fill="#3B2A57" d="M252.838,257.665c0.667-0.341,1.136-0.602,1.621-0.824
				c1.889-0.862,3.751-1.793,5.687-2.532c0.885-0.335,1.982-0.555,2.873-0.348c2.528,0.586,5.001,1.416,7.491,2.159
				c0.164,0.05,0.3,0.188,0.754,0.486c-1.286,0.611-2.356,1.13-3.432,1.633c-1.282,0.603-2.53,1.309-3.866,1.753
				c-0.939,0.312-2.062,0.536-2.99,0.321c-2.481-0.579-4.903-1.411-7.344-2.157C253.425,258.094,253.253,257.927,252.838,257.665z"
				/>
			<path fill-rule="evenodd" clip-rule="evenodd" fill="#3B2A57" d="M286.649,253.768c-1.715,0.833-3.484,1.572-5.131,2.526
				c-2.232,1.294-4.412,1.281-6.771,0.381c-1.874-0.718-3.847-1.174-5.777-1.744c-0.015-0.13-0.032-0.257-0.047-0.386
				c1.506-0.716,3.08-1.315,4.504-2.168c2.749-1.646,5.494-1.655,8.407-0.511c1.549,0.608,3.197,0.962,4.8,1.429
				C286.639,253.451,286.645,253.608,286.649,253.768z"/>
			<path fill-rule="evenodd" clip-rule="evenodd" fill="#3B2A57" d="M257.882,251.333c0.392-0.212,0.772-0.451,1.178-0.633
				c1.767-0.788,3.52-1.611,5.321-2.314c0.81-0.313,1.78-0.655,2.575-0.492c2.806,0.579,5.568,1.376,8.307,2.079
				c-0.031,0.332-0.012,0.478-0.052,0.496c-2.556,1.191-5.111,2.381-7.681,3.546c-0.241,0.109-0.58,0.121-0.84,0.054
				c-2.943-0.749-5.88-1.522-8.817-2.289C257.876,251.63,257.878,251.48,257.882,251.333z"/>
			<path fill-rule="evenodd" clip-rule="evenodd" fill="#3B2A57" d="M451.524,294.962c-2.286,2.874-3.358,3.247-6.478,2.371
				c-3.096-0.87-6.191-1.734-9.277-2.636c-0.592-0.173-1.139-0.502-1.777-0.793c2.81-2.982,3.837-3.202,6.555-2.36
				c3.105,0.964,6.268,1.749,9.395,2.649C450.48,294.35,450.967,294.688,451.524,294.962z"/>
			<path fill-rule="evenodd" clip-rule="evenodd" fill="#3B2A57" d="M264.391,247.509c-2.822,1.128-5.638,2.268-8.469,3.367
				c-0.278,0.107-0.666,0.035-0.974-0.055c-2.613-0.748-5.219-1.521-7.827-2.286c-0.005-0.12-0.009-0.24-0.014-0.361
				c0.351-0.177,0.693-0.373,1.055-0.529c1.386-0.598,2.864-1.037,4.153-1.797c4.36-2.567,8.016,0.489,11.984,1.014
				C264.329,247.076,264.359,247.293,264.391,247.509z"/>
			<path fill-rule="evenodd" clip-rule="evenodd" fill="#3B2A57" d="M434.467,290.167c-2.09,2.483-4.245,3.26-7.121,2.214
				c-2.792-1.017-5.721-1.656-8.576-2.509c-0.447-0.134-0.819-0.523-1.226-0.796c0.297-0.342,0.569-0.707,0.894-1.022
				c1.719-1.672,3.637-1.798,5.872-1.041c2.766,0.936,5.629,1.58,8.44,2.384C433.303,289.555,433.812,289.868,434.467,290.167z"/>
			<path fill-rule="evenodd" clip-rule="evenodd" fill="#3B2A57" d="M418.248,285.722c-1.984,1.897-3.823,3.223-6.646,2.194
				c-2.657-0.966-5.446-1.573-8.17-2.362c-0.616-0.179-1.202-0.458-1.821-0.698c1.072-1.886,3.427-3.094,5.272-2.622
				c3.378,0.867,6.73,1.834,10.085,2.788C417.381,285.14,417.743,285.44,418.248,285.722z"/>
			<path fill-rule="evenodd" clip-rule="evenodd" fill="#3B2A57" d="M402.304,281.268c-2.101,1.998-4.116,3.086-6.92,2.059
				c-2.525-0.924-5.177-1.504-7.767-2.257c-0.525-0.155-1.021-0.408-1.55-0.622c1.026-1.718,3.566-3.016,5.204-2.59
				c3.334,0.866,6.645,1.818,9.957,2.761C401.563,280.712,401.848,280.987,402.304,281.268z"/>
			<path fill-rule="evenodd" clip-rule="evenodd" fill="#3B2A57" d="M387.439,277.1c-2.178,1.808-4.135,3.082-6.957,2.008
				c-2.378-0.905-4.902-1.419-7.353-2.133c-0.562-0.164-1.087-0.441-1.901-0.779c2.063-1.54,3.74-2.995,6.328-2.187
				c2.743,0.855,5.541,1.536,8.303,2.329C386.362,276.481,386.813,276.792,387.439,277.1z"/>
			<path fill-rule="evenodd" clip-rule="evenodd" fill="#3B2A57" d="M356.654,272.055c2.179-1.387,3.859-2.884,6.432-2.059
				c2.645,0.849,5.35,1.509,8.023,2.271c0.43,0.123,0.835,0.336,1.572,0.639c-2.071,1.383-3.631,2.991-6.182,2.207
				c-2.801-0.863-5.64-1.602-8.457-2.411C357.692,272.602,357.374,272.393,356.654,272.055z"/>
			<path fill-rule="evenodd" clip-rule="evenodd" fill="#3B2A57" d="M358.56,269.038c-2.106,1.442-3.898,2.91-6.579,1.986
				c-2.409-0.831-4.902-1.418-7.354-2.128c-0.474-0.137-0.924-0.357-1.719-0.675c2.087-1.278,3.7-2.756,6.052-2.136
				c2.825,0.743,5.635,1.537,8.445,2.334C357.744,268.515,358.044,268.756,358.56,269.038z"/>
			<path fill-rule="evenodd" clip-rule="evenodd" fill="#3B2A57" d="M329.509,264.301c2.023-1.177,3.661-2.702,6.154-1.94
				c2.471,0.756,4.979,1.381,7.47,2.08c0.439,0.123,0.856,0.333,1.627,0.641c-1.861,1.131-3.291,2.677-5.355,2.227
				c-3.081-0.672-6.099-1.644-9.139-2.501C330.064,264.75,329.899,264.566,329.509,264.301z"/>
			<path fill-rule="evenodd" clip-rule="evenodd" fill="#3B2A57" d="M331.244,261.489c-2.24,1.626-4.341,2.683-7.085,1.669
				c-2.423-0.895-4.966-1.471-7.859-2.302c2.063-1.361,3.728-2.686,5.958-2.162c2.75,0.645,5.456,1.482,8.175,2.26
				C330.696,261.03,330.914,261.266,331.244,261.489z"/>
			<path fill-rule="evenodd" clip-rule="evenodd" fill="#3B2A57" d="M304.013,256.934c2.203-1.442,4.406-2.492,7.211-1.406
				c2.206,0.855,4.557,1.338,7.25,2.098c-1.681,1.25-3.192,2.469-4.771,2.223c-3.309-0.514-6.532-1.567-9.791-2.401
				C303.945,257.274,303.979,257.105,304.013,256.934z"/>
			<path fill-rule="evenodd" clip-rule="evenodd" fill="#3B2A57" d="M292.006,253.533c2.115-1.127,4.114-2.44,6.813-1.437
				c2.272,0.842,4.669,1.344,7.049,2.221c-1.456,1.063-2.935,2.361-4.722,2.051c-3.086-0.543-6.097-1.516-9.139-2.308
				C292.007,253.885,292.006,253.709,292.006,253.533z"/>
			<path fill-rule="evenodd" clip-rule="evenodd" fill="#3B2A57" d="M293.758,251.013c-2.375,1.514-4.588,2.497-7.333,1.451
				c-2.06-0.783-4.242-1.242-6.381-2.036c1.719-1.189,3.431-2.424,5.613-1.933c2.526,0.569,5.002,1.357,7.496,2.067
				C293.314,250.606,293.442,250.771,293.758,251.013z"/>
			<path fill-rule="evenodd" clip-rule="evenodd" fill="#3B2A57" d="M281.956,247.903c-2.079,1.116-4.078,2.335-6.696,1.393
				c-2.156-0.775-4.407-1.29-6.602-2.098c2.09-1.304,4.097-2.501,6.696-1.617c2.164,0.734,4.401,1.259,6.604,1.878
				C281.958,247.605,281.958,247.754,281.956,247.903z"/>
			<path fill-rule="evenodd" clip-rule="evenodd" fill="#3B2A57" d="M270.659,244.542c-2.274,1.218-4.298,2.428-6.906,1.504
				c-2.078-0.737-4.238-1.248-6.803-1.986c2.172-1.112,3.897-2.317,6.052-1.843c2.334,0.518,4.621,1.254,6.925,1.909
				C270.13,244.183,270.306,244.336,270.659,244.542z"/>
		</g>
	</g>
</g>
</svg>
