<?xml version="1.0" encoding="utf-8"?>
<!-- Generator: Adobe Illustrator 16.0.0, SVG Export Plug-In . SVG Version: 6.00 Build 0)  -->
<!DOCTYPE svg PUBLIC "-//W3C//DTD SVG 1.1//EN" "http://www.w3.org/Graphics/SVG/1.1/DTD/svg11.dtd">
<svg version="1.1" id="Layer_1" xmlns="http://www.w3.org/2000/svg" xmlns:xlink="http://www.w3.org/1999/xlink" x="0px" y="0px"
	 width="640px" height="480px" viewBox="0 0 640 480" enable-background="new 0 0 640 480" xml:space="preserve">
<circle fill="#F1F2F2" cx="320.543" cy="239.618" r="175"/>
<path fill="#FFFFFF" d="M378.92,122.545c0,0-1.96-12.312-13.091-14.783c-11.131-2.471-36.122-1.079-57.406,1.448
	c-21.285,2.526-45.908,7.023-56.151,12.031c-6.818,3.334-8.663,9.952-9.135,14.006c-0.422,2.592-0.277,4.475-0.277,4.477
	c10.849,103.852,26.661,224.624,26.661,224.624s1.959,12.312,13.09,14.782c11.131,2.472,36.122,1.078,57.407-1.448
	c21.282-2.526,45.907-7.021,56.149-12.03c6.826-3.337,8.667-9.965,9.138-14.019c0.42-2.586,0.275-4.465,0.275-4.465
	C394.732,243.316,378.92,122.545,378.92,122.545z"/>
<g>
	
		<rect x="255.833" y="130.404" transform="matrix(-0.993 0.1179 -0.1179 -0.993 663.5202 420.2343)" fill="#6EBF67" width="127.003" height="198.664"/>
	<g>
		<path fill="#3B2A57" d="M375.6,118.653c0,0-1.96-12.312-13.09-14.783c-11.132-2.471-36.123-1.079-57.407,1.447
			c-21.285,2.526-45.908,7.023-56.15,12.031c-10.242,5.008-9.266,17.431-9.266,17.436l0,0
			c10.849,103.852,26.662,224.624,26.662,224.624l0,0c0,0,1.959,12.312,13.09,14.782c11.131,2.473,36.122,1.079,57.406-1.448
			c21.285-2.526,45.908-7.021,56.151-12.029c10.243-5.009,9.266-17.437,9.266-17.437C391.412,239.424,375.6,118.653,375.6,118.653z
			 M393.975,331.766l-122.525,14.543l-24.06-202.704l122.525-14.543L393.975,331.766z"/>
		<path fill="#4E3874" d="M375.453,119.7c0,0-1.959-12.312-13.091-14.783c-11.13-2.471-36.123-1.079-57.406,1.448
			c-21.285,2.526-45.907,7.023-56.15,12.031c-10.242,5.008-9.267,17.431-9.266,17.436l0,0
			c10.849,103.852,26.662,224.624,26.662,224.624l0,0c0,0,1.959,12.311,13.09,14.782s36.122,1.078,57.407-1.448
			c21.282-2.526,45.907-7.021,56.149-12.03c10.244-5.009,9.267-17.437,9.267-17.437C391.266,240.471,375.453,119.7,375.453,119.7z
			 M400.606,340.87c0,0,0.985,12.427-9.087,17.415c-10.074,4.989-34.303,9.438-55.247,11.924s-45.542,3.832-56.502,1.34
			c-10.96-2.491-12.911-14.803-12.911-14.803s-10.804-86.821-13.398-108.673c-2.594-21.852-12.44-109.02-12.44-109.02
			s-0.985-12.427,9.087-17.415c7.633-3.78,23.393-7.249,39.694-9.79c0.355,0.132,0.689,0.331,0.967,0.633
			c1.5,1.645,1.943,2.185,1.943,2.185s0.229,0.35,1.152,0.24c0.922-0.11,11.938-1.417,11.938-1.417s11.015-1.308,11.938-1.417
			s1.063-0.503,1.063-0.503s0.304-0.629,1.378-2.58c0.197-0.359,0.478-0.63,0.792-0.842c16.442-1.345,32.577-1.662,40.882,0.226
			c10.961,2.493,12.912,14.804,12.912,14.804s10.832,87.051,13.426,108.903S400.606,340.87,400.606,340.87z"/>
		
			<rect x="270.242" y="324.963" transform="matrix(0.993 -0.1179 0.1179 0.993 -36.8756 41.442)" fill="#271C3A" width="123.384" height="15.044"/>
		<g>
			<g>
				<path fill="#6EBF67" d="M367.444,329.732l-8.696,1.033l-0.474-3.983l8.697-1.033L367.444,329.732z M359.33,330.02l7.372-0.875
					l-0.314-2.648l-7.372,0.874L359.33,330.02z"/>
				<polygon fill="#6EBF67" points="369.319,327.838 368.658,327.917 368.278,324.716 360.698,325.616 360.619,324.948 
					368.861,323.97 				"/>
			</g>
			<path fill="#6EBF67" d="M337.698,333.312l-11.45,1.359l-0.459-3.867l5.445-3.041l6.006,1.683L337.698,333.312z M326.832,333.926
				l10.126-1.202l-0.326-2.751l-5.312-1.487l-4.814,2.689L326.832,333.926z"/>
			<path fill="#6EBF67" d="M303.351,333.413l-7.726,0.917l0.961-1.506l-0.859,0.103l-1.193,1.868l1.645,1.635l0.86-0.103
				l-1.348-1.328l7.721-0.917c0.04-0.001,0.991-0.051,1.118,1.025c0.138,1.161-0.725,1.427-0.78,1.446l-4.028,0.478l0.08,0.668
				l4.07-0.486c0.531-0.134,1.489-0.762,1.321-2.185C305.031,333.666,303.929,333.376,303.351,333.413z"/>
		</g>
		<path fill="#19171A" d="M291.035,112.45c1.501,1.644,1.944,2.185,1.944,2.185s0.229,0.35,1.152,0.24
			c0.923-0.109,11.938-1.417,11.938-1.417s11.014-1.307,11.938-1.417c0.923-0.11,1.063-0.503,1.063-0.503s0.305-0.629,1.378-2.579
			c0.06-0.105,0.126-0.201,0.196-0.292c-5.041,0.423-10.101,0.938-14.964,1.516c-4.864,0.577-9.904,1.261-14.903,2.029
			C290.866,112.284,290.953,112.361,291.035,112.45z"/>
		
			<line fill="none" stroke="#2E2E30" stroke-linecap="round" stroke-linejoin="round" stroke-miterlimit="10" x1="247.306" y1="142.901" x2="369.83" y2="128.358"/>
		
			<line fill="none" stroke="#2E2E30" stroke-linecap="round" stroke-linejoin="round" stroke-miterlimit="10" x1="247.51" y1="144.621" x2="271.57" y2="347.325"/>
		<line fill="none" stroke="#625579" stroke-miterlimit="10" x1="271.569" y1="347.324" x2="394.094" y2="332.781"/>
		<line fill="none" stroke="#625579" stroke-miterlimit="10" x1="394.096" y1="332.781" x2="370.035" y2="130.077"/>
		
			<linearGradient id="SVGID_1_" gradientUnits="userSpaceOnUse" x1="301.6714" y1="105.2319" x2="301.6714" y2="371.4409" gradientTransform="matrix(0.993 -0.1179 0.1179 0.993 -26.2162 39.7025)">
			<stop  offset="0" style="stop-color:#FFFFFF"/>
			<stop  offset="1" style="stop-color:#FFFFFF;stop-opacity:0.3"/>
		</linearGradient>
		<path opacity="0.08" fill="url(#SVGID_1_)" d="M335.016,103.843c-9.59,0.421-20.077,1.337-29.792,2.49
			c-21.285,2.526-45.908,7.023-56.15,12.031c-10.242,5.008-9.266,17.431-9.266,17.437l0,0
			c10.849,103.852,26.662,224.623,26.662,224.623l0,0c0,0,1.959,12.312,13.09,14.782c2.532,0.562,5.788,0.923,9.546,1.117
			L335.016,103.843z"/>
	</g>
</g>
</svg>
