<?xml version="1.0" encoding="utf-8"?>
<!-- Generator: Adobe Illustrator 18.1.0, SVG Export Plug-In . SVG Version: 6.00 Build 0)  -->
<!DOCTYPE svg PUBLIC "-//W3C//DTD SVG 1.1//EN" "http://www.w3.org/Graphics/SVG/1.1/DTD/svg11.dtd">
<svg version="1.1" id="Layer_1" xmlns="http://www.w3.org/2000/svg" xmlns:xlink="http://www.w3.org/1999/xlink" x="0px" y="0px"
	 viewBox="395 -188 960 456" enable-background="new 395 -188 960 456" xml:space="preserve">
<g>
	<polygon fill="#F1F2F2" points="779.9,26.2 732,-1.5 732,9 655,9 655,46 732,46 732,53.8 	"/>
</g>
<g>
	<path fill="#F1F2F2" d="M1203.9,26.2L1156-1.5V9h-12c8.6-18,12.5-37.6,11.2-57.6c-1.9-30.2-15.5-58.2-38.3-78.1
		C1070-168,998.3-163.6,957-116.7c-28.3,32.2-35.9,77.6-20,117.1l-7.5,5.2l50,23.6L975-25.9l-6.4,4.4c-6.8-24.6-1-51.4,16.2-70.9
		c27.8-31.6,76.1-34.7,107.7-6.9c15.3,13.5,24.5,32.7,25.8,53.1c1.3,20-5.2,39.2-18.3,55.2h-35v37h91v7.8L1203.9,26.2z"/>
</g>
<g>
	<g>
		<polygon fill="#FFFFFF" points="504,-21.5 504,9.5 523.1,18.1 552,13.2 552,-14.9 534.1,-25.5 		"/>
		<path fill="#E0D04E" d="M523.5,18.6l-0.1-0.1L504,9.8v-31.7l30.7-4.2L553-15.2v28.8L523.5,18.6z M505,9.2l18.7,8.4l28.3-4.8v-27.4
			L534.5-25L505-21V9.2z"/>
	</g>
	<g>
		<line fill="none" x1="524.3" y1="-9.9" x2="504.7" y2="-21.3"/>
		
			<rect x="503.2" y="-16.1" transform="matrix(-0.8638 -0.5039 0.5039 -0.8638 966.76 230.1886)" fill="#E0D04E" width="22.6" height="1"/>
	</g>
	<g>
		<line fill="none" x1="524.3" y1="-9.9" x2="553.3" y2="-14.9"/>
		
			<rect x="538.3" y="-27.2" transform="matrix(-0.1711 -0.9853 0.9853 -0.1711 643.2233 516.3348)" fill="#E0D04E" width="1" height="29.5"/>
	</g>
	<g>
		<line fill="none" x1="524" y1="-10" x2="524" y2="18"/>
		<rect x="524" y="-10" fill="#E0D04E" width="1" height="28"/>
	</g>
</g>
<g>
	<g>
		<polygon fill="#FFFFFF" points="466,-14.9 466,16 485.6,24.6 515,19.7 515,-8.4 496.6,-19 		"/>
		<path fill="#E0D04E" d="M486,25.1l-20-8.7v-31.7l31.2-4.2L516-8.7v28.8L486,25.1z M467,15.7l19.2,8.4l28.8-4.8V-8.1l-18-10.4
			l-30,4V15.7z"/>
	</g>
	<g>
		<line fill="none" x1="486.8" y1="-3.4" x2="467.2" y2="-14.8"/>
		
			<rect x="465.7" y="-9.6" transform="matrix(-0.8638 -0.5038 0.5038 -0.8638 893.6639 223.4016)" fill="#E0D04E" width="22.6" height="1"/>
	</g>
	<g>
		<line fill="none" x1="486.8" y1="-3.4" x2="515.9" y2="-8.4"/>
		
			<rect x="500.8" y="-20.6" transform="matrix(-0.1711 -0.9853 0.9853 -0.1711 592.9061 487.0378)" fill="#E0D04E" width="1" height="29.5"/>
	</g>
	<g>
		<line fill="none" x1="486" y1="-3" x2="486" y2="24"/>
		<rect x="486" y="-3" fill="#E0D04E" width="1" height="27"/>
	</g>
</g>
<g>
	<g>
		<polygon fill="#FFFFFF" points="429,-6.8 429,21.7 448.6,32.7 478,27.8 478,-0.3 459.6,-10.9 		"/>
		<path fill="#E0D04E" d="M449,33.2l-0.2-0.1L429,22V-7.2l0.4-0.1l30.8-4.1L479-0.6v28.8L449,33.2z M430,21.4l19.2,10.8l28.8-4.8V0
			l-18-10.4l-30,4V21.4z"/>
	</g>
	<g>
		<line fill="none" x1="449.3" y1="4.8" x2="429.8" y2="-6.6"/>
		
			<rect x="428.2" y="-1.4" transform="matrix(-0.8638 -0.5039 0.5039 -0.8638 819.6573 219.7503)" fill="#E0D04E" width="22.6" height="1"/>
	</g>
	<g>
		<line fill="none" x1="449.3" y1="4.8" x2="478.4" y2="-0.3"/>
		
			<rect x="463.3" y="-12.5" transform="matrix(-0.1711 -0.9853 0.9853 -0.1711 540.9843 459.649)" fill="#E0D04E" width="1" height="29.5"/>
	</g>
	<g>
		<line fill="none" x1="449" y1="5" x2="449" y2="33"/>
		<rect x="449" y="5" fill="#E0D04E" width="1" height="28"/>
	</g>
</g>
<g>
	<g>
		<polygon fill="#FFFFFF" points="529,-6.8 529,24.2 548.1,32.7 577,27.8 577,-0.3 559.1,-10.9 		"/>
		<path fill="#E0D04E" d="M548.5,33.2l-0.1-0.1L529,24.5V-7.2l30.7-4.2L578-0.6v28.8L548.5,33.2z M530,23.8l18.7,8.4l28.3-4.8V0
			l-17.5-10.4l-29.5,4V23.8z"/>
	</g>
	<g>
		<line fill="none" x1="548.7" y1="4.8" x2="529.2" y2="-6.6"/>
		
			<rect x="527.6" y="-1.4" transform="matrix(-0.8638 -0.5039 0.5039 -0.8638 1004.9277 269.8432)" fill="#E0D04E" width="22.6" height="1"/>
	</g>
	<g>
		<line fill="none" x1="548.7" y1="4.8" x2="577.8" y2="-0.3"/>
		
			<rect x="562.8" y="-12.5" transform="matrix(-0.1711 -0.9853 0.9853 -0.1711 657.3971 557.5966)" fill="#E0D04E" width="1" height="29.5"/>
	</g>
	<g>
		<line fill="none" x1="549" y1="5" x2="549" y2="33"/>
		<rect x="549" y="5" fill="#E0D04E" width="1" height="28"/>
	</g>
</g>
<g>
	<g>
		<polygon fill="#FFFFFF" points="491,-0.3 491,30.7 510.6,39.2 540,34.3 540,6.2 521.6,-4.4 		"/>
		<path fill="#E0D04E" d="M511,39.8L491,31V-0.7l0.4-0.1l30.8-4.1l0.1,0.1L541,5.9v28.8L511,39.8z M492,30.4l19.2,8.4l28.8-4.8V6.5
			L522-3.8l-30,4V30.4z"/>
	</g>
	<g>
		<line fill="none" x1="511.2" y1="11.3" x2="491.7" y2="-0.1"/>
		
			<rect x="490.2" y="5.1" transform="matrix(-0.8638 -0.5038 0.5038 -0.8638 931.8352 263.0516)" fill="#E0D04E" width="22.6" height="1"/>
	</g>
	<g>
		<line fill="none" x1="511.2" y1="11.3" x2="540.3" y2="6.2"/>
		
			<rect x="525.3" y="-6" transform="matrix(-0.1711 -0.9853 0.9853 -0.1711 607.0814 528.2991)" fill="#E0D04E" width="1" height="29.5"/>
	</g>
	<g>
		<line fill="none" x1="510" y1="12" x2="510" y2="39"/>
		<rect x="510" y="12" fill="#E0D04E" width="1" height="27"/>
	</g>
</g>
<g>
	<g>
		<polygon fill="#FFFFFF" points="454,7.9 454,36.4 473.6,47.4 503,42.5 503,14.4 484.6,3.8 		"/>
		<path fill="#E0D04E" d="M474,47.9l-0.2-0.1L454,36.7V7.4l0.4-0.1l30.8-4.1l0.1,0.1L504,14.1v28.8L474,47.9z M455,36.1l19.2,10.8
			l28.8-4.8V14.7L485,4.3l-30,4V36.1z"/>
	</g>
	<g>
		<line fill="none" x1="473.8" y1="19.4" x2="454.2" y2="8"/>
		
			<rect x="452.7" y="13.2" transform="matrix(-0.8638 -0.5039 0.5039 -0.8638 857.824 259.4022)" fill="#E0D04E" width="22.6" height="1"/>
	</g>
	<g>
		<line fill="none" x1="473.8" y1="19.4" x2="502.8" y2="14.4"/>
		
			<rect x="487.8" y="2.2" transform="matrix(-0.1711 -0.9853 0.9853 -0.1711 555.1583 500.9096)" fill="#E0D04E" width="1" height="29.5"/>
	</g>
	<g>
		<line fill="none" x1="473" y1="19" x2="473" y2="48"/>
		<rect x="473" y="19" fill="#E0D04E" width="1" height="29"/>
	</g>
</g>
<g>
	<g>
		<polygon fill="#FFFFFF" points="577,29 577,57.5 596.6,68.6 626,63.7 626,35.6 607.6,25 		"/>
		<path fill="#4E3874" d="M597,69.1l-0.2-0.1L577,57.8V28.6l0.4-0.1l30.8-4.1l0.1,0.1L627,35.3v28.8L597,69.1z M578,57.3L597.2,68
			l28.8-4.8V35.9l-18-10.4l-30,4V57.3z"/>
	</g>
	<g>
		<line fill="none" x1="597.6" y1="40.6" x2="578" y2="29.2"/>
		
			<rect x="576.5" y="34.4" transform="matrix(-0.8638 -0.5039 0.5039 -0.8638 1077.9774 361.298)" fill="#4E3874" width="22.6" height="1"/>
	</g>
	<g>
		<line fill="none" x1="597.6" y1="40.6" x2="626.7" y2="35.6"/>
		
			<rect x="611.6" y="23.4" transform="matrix(-0.1711 -0.9853 0.9853 -0.1711 679.3239 647.7527)" fill="#4E3874" width="1" height="29.5"/>
	</g>
	<g>
		<line fill="none" x1="597" y1="40" x2="597" y2="69"/>
		<rect x="597" y="40" fill="#4E3874" width="1" height="29"/>
	</g>
</g>
<g>
	<g>
		<polygon fill="#FFFFFF" points="515,14.4 515,45.3 535.1,53.9 565,49 565,20.9 546.1,10.3 		"/>
		<path fill="#4E3874" d="M535.5,54.4L515,45.7V13.9l31.7-4.2L566,20.6v28.8L535.5,54.4z M516,45l19.7,8.4l29.3-4.8V21.2l-18.5-10.4
			l-30.5,4V45z"/>
	</g>
	<g>
		<line fill="none" x1="535.7" y1="26" x2="516.1" y2="14.6"/>
		
			<rect x="514.6" y="19.7" transform="matrix(-0.8638 -0.5038 0.5038 -0.8638 970.0061 302.6992)" fill="#4E3874" width="22.6" height="1"/>
	</g>
	<g>
		<line fill="none" x1="535.7" y1="26" x2="564.8" y2="20.9"/>
		
			<rect x="549.7" y="8.7" transform="matrix(-0.1711 -0.9853 0.9853 -0.1711 621.2554 569.5596)" fill="#4E3874" width="1" height="29.5"/>
	</g>
	<g>
		<line fill="none" x1="535" y1="27" x2="535" y2="54"/>
		<rect x="535" y="27" fill="#4E3874" width="1" height="27"/>
	</g>
</g>
<g>
	<g>
		<polygon fill="#FFFFFF" points="478,22.5 478,51 497.1,62 526,57.2 526,29 508.1,18.5 		"/>
		<path fill="#4E3874" d="M497.5,62.6L478,51.3V22.1l30.7-4.2l0.1,0.1L527,28.8v28.8L497.5,62.6z M479,50.7l18.7,10.8l28.3-4.8V29.3
			L508.5,19L479,23V50.7z"/>
	</g>
	<g>
		<line fill="none" x1="498.2" y1="34.1" x2="478.6" y2="22.7"/>
		
			<rect x="477.1" y="27.9" transform="matrix(-0.8638 -0.5038 0.5038 -0.8638 896.0436 299.0079)" fill="#4E3874" width="22.6" height="1"/>
	</g>
	<g>
		<line fill="none" x1="498.2" y1="34.1" x2="527.3" y2="29"/>
		
			<rect x="512.2" y="16.8" transform="matrix(-0.1711 -0.9853 0.9853 -0.1711 569.3336 542.1709)" fill="#4E3874" width="1" height="29.5"/>
	</g>
	<g>
		<line fill="none" x1="498" y1="34" x2="498" y2="62"/>
		<rect x="498" y="34" fill="#4E3874" width="1" height="28"/>
	</g>
</g>
<g>
	<path fill="#6EBF67" d="M737,48.7V40h-77V2h77V-8.3l49.4,28.5L737,48.7z M661,39h77v8l46.4-26.8L738-6.6V3h-77V39z"/>
</g>
<g>
	<path fill="#6EBF67" d="M1161,48.7V40h-91V2h34.8c13-16.1,19.3-34.9,18-54.5c-1.3-20.5-10.4-39.1-25.6-52.5
		c-13.8-12.2-31.6-18.8-50-18.8c-21.8,0-42.6,9.4-57,25.7c-16.8,19.1-22.9,45.2-16.3,69.8l6.5-4.5l4.7,56.8L933.5-0.3l7.9-5.4
		c-7.7-19.4-10-40.6-6.5-61.2c3.5-20.8,12.8-40.2,26.7-56.1c21.5-24.5,52.7-38.6,85.4-38.6c27.7,0,54.4,10.1,75.2,28.3
		c22.8,20.1,36.5,47.9,38.4,78.4c1.3,19.6-2.4,38.7-10.9,56.9h11.3V-8.3l49.4,28.5L1161,48.7z M1071,39h91v8l46.4-26.8L1162-6.6V3
		h-13.8l0.3-0.7c8.7-18.2,12.4-37.4,11.2-57.1c-1.9-30.2-15.5-57.8-38.1-77.7c-20.6-18.1-47.1-28.1-74.5-28.1
		c-32.5,0-63.3,13.9-84.7,38.2c-13.8,15.7-23,34.9-26.5,55.6c-3.5,20.6-1.2,41.7,6.5,61.1l0.1,0.4l-7.1,4.9l48.4,22.9L979.6-31
		l-6.3,4.3l-0.2-0.7c-7-25.1-0.9-51.8,16.3-71.4c14.6-16.6,35.6-26.1,57.7-26.1c18.7,0,36.7,6.8,50.7,19.1
		c15.4,13.5,24.6,32.4,25.9,53.2c1.3,19.9-5.1,39-18.4,55.3l-0.2,0.2H1071V39z"/>
</g>
<g>
	<g>
		<g>
			<polygon fill="#897F9A" points="1271,29 1271,60 1290.6,68.6 1320,63.7 1320,35.6 1301.6,25 			"/>
			<path fill="#4E3874" d="M1291,69.1l-20-8.7V28.6l0.4-0.1l30.8-4.1l0.1,0.1l18.6,10.7v28.8L1291,69.1z M1272,59.7l19.2,8.4
				l28.8-4.8V35.9l-18-10.4l-30,4V59.7z"/>
		</g>
		<g>
			<line fill="none" x1="1291.1" y1="40.6" x2="1271.6" y2="29.2"/>
			
				<rect x="1270" y="34.4" transform="matrix(-0.8638 -0.5039 0.5039 -0.8638 2370.562 710.7818)" fill="#4E3874" width="22.6" height="1"/>
		</g>
		<g>
			<line fill="none" x1="1291.1" y1="40.6" x2="1320.2" y2="35.6"/>
			
				<rect x="1305.2" y="23.3" transform="matrix(-0.172 -0.9851 0.9851 -0.172 1492.6984 1330.8486)" fill="#4E3874" width="1" height="29.5"/>
		</g>
		<g>
			<line fill="none" x1="1290" y1="41" x2="1290" y2="69"/>
			<rect x="1290" y="41" fill="#4E3874" width="1" height="28"/>
		</g>
	</g>
	<g>
		<g>
			<polygon fill="#897F9A" points="1231,27.3 1231,58.3 1250.1,66.9 1279,62 1279,33.9 1261.1,23.3 			"/>
			<path fill="#4E3874" d="M1250.5,67.4l-0.1-0.1l-19.4-8.7V26.9l30.7-4.2l0.1,0.1l18.1,10.7v28.8L1250.5,67.4z M1232,58l18.7,8.4
				l28.3-4.8V34.1l-17.5-10.4l-29.5,4V58z"/>
		</g>
		<g>
			<line fill="none" x1="1251.2" y1="38.9" x2="1231.6" y2="27.5"/>
			
				<rect x="1230.1" y="32.7" transform="matrix(-0.8638 -0.5039 0.5039 -0.8638 2296.9417 687.4818)" fill="#4E3874" width="22.6" height="1"/>
		</g>
		<g>
			<line fill="none" x1="1251.2" y1="38.9" x2="1280.2" y2="33.9"/>
			
				<rect x="1265.2" y="21.6" transform="matrix(-0.172 -0.9851 0.9851 -0.172 1447.5682 1289.4932)" fill="#4E3874" width="1" height="29.5"/>
		</g>
		<g>
			<line fill="none" x1="1251" y1="39" x2="1251" y2="67"/>
			<rect x="1251" y="39" fill="#4E3874" width="1" height="28"/>
		</g>
	</g>
	<g>
		<g>
			<polygon fill="#897F9A" points="1256,-3.1 1256,27.8 1275.6,36.4 1305,31.5 1305,3.4 1286.6,-7.2 			"/>
			<path fill="#4E3874" d="M1276,36.9l-20-8.7V-3.6l0.4-0.1l30.8-4.1l0.1,0.1L1306,3.1v28.8L1276,36.9z M1257,27.5l19.2,8.4
				l28.8-4.8V3.7l-18-10.4l-30,4V27.5z"/>
		</g>
		<g>
			<line fill="none" x1="1276.6" y1="8.5" x2="1257.1" y2="-2.9"/>
			
				<rect x="1255.6" y="2.3" transform="matrix(-0.8638 -0.5039 0.5039 -0.8638 2359.8093 643.5164)" fill="#4E3874" width="22.6" height="1"/>
		</g>
		<g>
			<line fill="none" x1="1276.6" y1="8.5" x2="1305.7" y2="3.4"/>
			
				<rect x="1290.7" y="-8.8" transform="matrix(-0.172 -0.9851 0.9851 -0.172 1507.4087 1278.8849)" fill="#4E3874" width="1" height="29.5"/>
		</g>
		<g>
			<line fill="none" x1="1276" y1="8" x2="1276" y2="37"/>
			<rect x="1276" y="8" fill="#4E3874" width="1" height="29"/>
		</g>
	</g>
</g>
<g>
	<g>
		<g>
			<polygon fill="#FFFFFF" points="846,29 846,60 865.6,68.6 895,63.7 895,35.6 876.6,25 			"/>
			<path fill="#4E3874" d="M866,69.1l-20-8.7V28.6l0.4-0.1l30.8-4.1l0.1,0.1L896,35.3v28.8L866,69.1z M847,59.7l19.2,8.4l28.8-4.8
				V35.9l-18-10.4l-30,4V59.7z"/>
		</g>
		<g>
			<line fill="none" x1="866" y1="40.6" x2="846.5" y2="29.2"/>
			
				<rect x="845" y="34.4" transform="matrix(-0.8638 -0.5039 0.5039 -0.8638 1578.3125 496.5706)" fill="#4E3874" width="22.6" height="1"/>
		</g>
		<g>
			<line fill="none" x1="866" y1="40.6" x2="895.1" y2="35.6"/>
			
				<rect x="880.1" y="23.4" transform="matrix(-0.1711 -0.9853 0.9853 -0.1711 993.6971 912.2598)" fill="#4E3874" width="1" height="29.5"/>
		</g>
		<g>
			<line fill="none" x1="865" y1="41" x2="865" y2="69"/>
			<rect x="865" y="41" fill="#4E3874" width="1" height="28"/>
		</g>
	</g>
	<g>
		<g>
			<polygon fill="#FFFFFF" points="806,27.3 806,58.3 825.1,66.9 854,62 854,33.9 836.1,23.3 			"/>
			<path fill="#4E3874" d="M825.5,67.4l-0.1-0.1L806,58.6V26.9l30.7-4.2l0.1,0.1L855,33.6v28.8L825.5,67.4z M807,58l18.7,8.4
				l28.3-4.8V34.1l-17.5-10.4l-29.5,4V58z"/>
		</g>
		<g>
			<line fill="none" x1="826.1" y1="38.9" x2="806.5" y2="27.5"/>
			
				<rect x="805" y="32.7" transform="matrix(-0.8638 -0.5039 0.5039 -0.8638 1504.7041 473.258)" fill="#4E3874" width="22.6" height="1"/>
		</g>
		<g>
			<line fill="none" x1="826.1" y1="38.9" x2="855.2" y2="33.9"/>
			
				<rect x="840.2" y="21.7" transform="matrix(-0.1711 -0.9853 0.9853 -0.1711 948.6051 870.8965)" fill="#4E3874" width="1" height="29.5"/>
		</g>
		<g>
			<line fill="none" x1="826" y1="39" x2="826" y2="67"/>
			<rect x="826" y="39" fill="#4E3874" width="1" height="28"/>
		</g>
	</g>
	<g>
		<g>
			<polygon fill="#FFFFFF" points="831,-3.1 831,27.8 850.6,36.4 880,31.5 880,3.4 861.6,-7.2 			"/>
			<path fill="#4E3874" d="M851,36.9l-20-8.7V-3.6l0.4-0.1l30.8-4.1l0.1,0.1L881,3.1v28.8L851,36.9z M832,27.5l19.2,8.4l28.8-4.8
				V3.7L862-6.7l-30,4V27.5z"/>
		</g>
		<g>
			<line fill="none" x1="851.6" y1="8.5" x2="832" y2="-2.9"/>
			
				<rect x="830.5" y="2.3" transform="matrix(-0.8638 -0.5039 0.5039 -0.8638 1567.5269 429.3235)" fill="#4E3874" width="22.6" height="1"/>
		</g>
		<g>
			<line fill="none" x1="851.6" y1="8.5" x2="880.6" y2="3.4"/>
			
				<rect x="865.6" y="-8.8" transform="matrix(-0.1711 -0.9853 0.9853 -0.1711 1008.4297 860.321)" fill="#4E3874" width="1" height="29.5"/>
		</g>
		<g>
			<line fill="none" x1="851" y1="8" x2="851" y2="37"/>
			<rect x="851" y="8" fill="#4E3874" width="1" height="29"/>
		</g>
	</g>
</g>
<g>
	<path d="M454-40.3v-10.2h2.2c2.1,0,3.2,0.8,3.2,2.5c0,1.1-0.5,1.8-1.4,2.2c1,0.4,1.8,1.1,1.8,2.6c0,1.6-1.1,2.8-2.9,2.8L454-40.3
		L454-40.3z M455.1-49.5v3.4h1.2c1.2,0,1.9-0.7,1.9-1.8c0-1.3-0.8-1.6-2-1.6L455.1-49.5L455.1-49.5z M455.1-41.3h1.7
		c0.9,0,1.8-0.6,1.8-1.8c0-1.2-0.8-2.1-2.3-2.1h-1.3L455.1-41.3L455.1-41.3z"/>
	<path d="M463.5-43.3l-0.8,3h-1.1l2.9-10.2h1.3l2.9,10.2h-1.1l-0.8-3H463.5z M466.4-44.3l-1.3-4.5l-1.3,4.5H466.4z"/>
	<path d="M476.5-42.9c0,0.4-0.1,0.8-0.3,1.3c-0.5,1-1.3,1.5-2.5,1.5c-2.1,0-3.2-1.8-3.2-5.2c0-3.5,1.2-5.3,3.3-5.3
		c1,0,1.9,0.5,2.3,1.4c0.2,0.4,0.2,0.8,0.3,1.1h-1.1c-0.1-1.1-0.7-1.5-1.4-1.5c-1.5,0-2.2,1.5-2.2,4.4c0,2.8,0.7,4.2,2.1,4.2
		c0.9,0,1.6-0.5,1.7-1.8L476.5-42.9L476.5-42.9z"/>
	<path d="M480.6-50.5v4.4c0.6-0.2,1-0.6,1.4-1.1c1.3-1.6,1.7-2.7,2-3.5l1.1,0.6l-0.9,1.4c-0.9,1.5-1.6,2.5-2.6,3.2l4.4,5.1h-1.5
		l-3.9-4.7v4.7h-1.1v-10.2H480.6z"/>
	<path d="M489.4-50.5v9.2h4.4v1h-5.5v-10.2H489.4z"/>
	<path d="M501.5-48.4c0.2,0.8,0.3,1.8,0.3,3c0,0.8,0,1.7-0.2,2.4c-0.4,1.9-1.4,2.8-3,2.8c-1.6,0-2.6-1-3-2.8
		c-0.2-0.8-0.2-1.6-0.2-2.4c0-1.4,0.1-2.5,0.5-3.5c0.5-1.2,1.4-1.8,2.7-1.8C500.1-50.7,501.1-49.9,501.5-48.4z M496.7-45.4
		c0,2.9,0.6,4.3,2,4.3c1.4,0,2-1.4,2-4.3s-0.6-4.3-2-4.3C497.3-49.7,496.7-48.4,496.7-45.4z"/>
	<path d="M509.3-41.2c-0.5,0.6-1.1,1.1-2.2,1.1c-2.1,0-3.1-1.7-3.1-5.1c0-3.7,1-5.5,3.2-5.5c1.1,0,1.9,0.5,2.3,1.4
		c0.2,0.5,0.2,1,0.3,1.4h-1.1v-0.3c0-1-0.5-1.6-1.4-1.6c-1.5,0-2.1,1.5-2.1,4.4c0,2.8,0.6,4.2,2,4.2c1.1,0,2-1,2-2.8v-0.6h-2.4v-1
		h3.5v5.3h-1.1C509.3-40.1,509.3-41.2,509.3-41.2z"/>
	<path d="M521.2-40.3v-10.2h2.6c2.3,0,3.3,1.6,3.3,5.1c0,3.6-1,5.1-3.4,5.1L521.2-40.3L521.2-40.3z M522.4-49.5v8.2h1.2
		c1.8,0,2.4-1,2.4-4.1c0-3.3-0.7-4.1-2.4-4.1L522.4-49.5L522.4-49.5z"/>
	<path d="M535.1-48.4c0.2,0.8,0.3,1.8,0.3,3c0,0.8,0,1.7-0.2,2.4c-0.4,1.9-1.4,2.8-3,2.8c-1.6,0-2.6-1-3-2.8
		c-0.2-0.8-0.2-1.6-0.2-2.4c0-1.4,0.1-2.5,0.5-3.5c0.5-1.2,1.4-1.8,2.7-1.8C533.7-50.7,534.7-49.9,535.1-48.4z M530.3-45.4
		c0,2.9,0.6,4.3,2,4.3c1.4,0,2-1.4,2-4.3s-0.6-4.3-2-4.3S530.3-48.4,530.3-45.4z"/>
	<path d="M546.7-40.3v-10.2h2.5c1.9,0,2.9,1.1,2.9,3.1c0,2-1.2,3.1-3.4,3.1h-0.8v4H546.7z M547.9-45.3h1.1c1.3,0,2-0.7,2-2.2
		c0-1.4-0.6-2.1-1.9-2.1h-1.2L547.9-45.3L547.9-45.3z"/>
	<path d="M555.1-40.3v-10.2h2.7c1.9,0,2.8,1.4,2.8,2.9c0,1.5-0.8,2.2-1.8,2.8l2.7,4.5h-1.4l-2.4-4.2h-1.5v4.2L555.1-40.3L555.1-40.3
		z M556.2-45.5h1c1.5,0,2.2-0.8,2.2-2.2c0-1.3-0.6-1.9-2.2-1.9h-1V-45.5z"/>
	<path d="M568.7-48.4c0.2,0.8,0.3,1.8,0.3,3c0,0.8,0,1.7-0.2,2.4c-0.4,1.9-1.4,2.8-3,2.8c-1.6,0-2.6-1-3-2.8
		c-0.2-0.8-0.2-1.6-0.2-2.4c0-1.4,0.1-2.5,0.5-3.5c0.5-1.2,1.4-1.8,2.7-1.8C567.3-50.7,568.3-49.9,568.7-48.4z M563.9-45.4
		c0,2.9,0.6,4.3,2,4.3c1.4,0,2-1.4,2-4.3s-0.6-4.3-2-4.3S563.9-48.4,563.9-45.4z"/>
	<path d="M571.6-40.3v-10.2h2.6c2.3,0,3.3,1.6,3.3,5.1c0,3.6-1,5.1-3.4,5.1L571.6-40.3L571.6-40.3z M572.8-49.5v8.2h1.2
		c1.8,0,2.4-1,2.4-4.1c0-3.3-0.7-4.1-2.4-4.1L572.8-49.5L572.8-49.5z"/>
	<path d="M579.9-50.5h1.1v7.4c0,1.3,0.6,2,1.7,2c1.1,0,1.7-0.7,1.7-2v-7.4h1.1v7.5c0,1.8-1.3,2.9-2.8,2.9s-2.8-1.1-2.8-2.9V-50.5z"
		/>
	<path d="M594.5-50.5v1h-2.9v9.2h-1.1v-9.2h-2.8v-1H594.5z"/>
	<path d="M602.3-48.4c0.2,0.8,0.3,1.8,0.3,3c0,0.8,0,1.7-0.2,2.4c-0.4,1.9-1.4,2.8-3,2.8c-1.6,0-2.6-1-3-2.8
		c-0.2-0.8-0.2-1.6-0.2-2.4c0-1.4,0.1-2.5,0.5-3.5c0.5-1.2,1.4-1.8,2.7-1.8C600.9-50.7,601.9-49.9,602.3-48.4z M597.5-45.4
		c0,2.9,0.6,4.3,2,4.3c1.4,0,2-1.4,2-4.3s-0.6-4.3-2-4.3S597.5-48.4,597.5-45.4z"/>
</g>
<g>
	<path d="M781.1-40.3v-10.2h2.2c2.1,0,3.2,0.8,3.2,2.5c0,1.1-0.5,1.8-1.4,2.2c1,0.4,1.8,1.1,1.8,2.6c0,1.6-1.1,2.8-2.9,2.8
		L781.1-40.3L781.1-40.3z M782.2-49.5v3.4h1.2c1.2,0,1.9-0.7,1.9-1.8c0-1.3-0.8-1.6-2-1.6L782.2-49.5L782.2-49.5z M782.2-41.3h1.7
		c0.9,0,1.8-0.6,1.8-1.8c0-1.2-0.8-2.1-2.3-2.1h-1.3L782.2-41.3L782.2-41.3z"/>
	<path d="M790.6-43.3l-0.8,3h-1.1l2.9-10.2h1.3l2.9,10.2h-1.1l-0.8-3H790.6z M793.5-44.3l-1.3-4.5l-1.3,4.5H793.5z"/>
	<path d="M803.6-42.9c0,0.4-0.1,0.8-0.3,1.3c-0.5,1-1.3,1.5-2.5,1.5c-2.1,0-3.2-1.8-3.2-5.2c0-3.5,1.2-5.3,3.3-5.3
		c1,0,1.9,0.5,2.3,1.4c0.2,0.4,0.2,0.8,0.3,1.1h-1.1c-0.1-1.1-0.7-1.5-1.4-1.5c-1.5,0-2.2,1.5-2.2,4.4c0,2.8,0.7,4.2,2.1,4.2
		c0.9,0,1.6-0.5,1.7-1.8L803.6-42.9L803.6-42.9z"/>
	<path d="M807.7-50.5v4.4c0.6-0.2,1-0.6,1.4-1.1c1.3-1.6,1.7-2.7,2-3.5l1.1,0.6l-0.9,1.4c-0.9,1.5-1.6,2.5-2.6,3.2l4.4,5.1h-1.5
		l-3.9-4.7v4.7h-1.1v-10.2H807.7z"/>
	<path d="M816.5-50.5v9.2h4.4v1h-5.5v-10.2H816.5z"/>
	<path d="M828.6-48.4c0.2,0.8,0.3,1.8,0.3,3c0,0.8,0,1.7-0.2,2.4c-0.4,1.9-1.4,2.8-3,2.8c-1.6,0-2.6-1-3-2.8
		c-0.2-0.8-0.2-1.6-0.2-2.4c0-1.4,0.1-2.5,0.5-3.5c0.5-1.2,1.4-1.8,2.7-1.8C827.2-50.7,828.2-49.9,828.6-48.4z M823.8-45.4
		c0,2.9,0.6,4.3,2,4.3s2-1.4,2-4.3s-0.6-4.3-2-4.3S823.8-48.4,823.8-45.4z"/>
	<path d="M836.4-41.2c-0.5,0.6-1.1,1.1-2.2,1.1c-2.1,0-3.1-1.7-3.1-5.1c0-3.7,1-5.5,3.2-5.5c1.1,0,1.9,0.5,2.3,1.4
		c0.2,0.5,0.2,1,0.3,1.4h-1.1v-0.3c0-1-0.5-1.6-1.4-1.6c-1.5,0-2.1,1.5-2.1,4.4c0,2.8,0.6,4.2,2,4.2c1.1,0,2-1,2-2.8v-0.6H834v-1
		h3.5v5.3h-1.1V-41.2L836.4-41.2z"/>
	<path d="M848.3-40.3v-10.2h2.6c2.3,0,3.3,1.6,3.3,5.1c0,3.6-1,5.1-3.4,5.1L848.3-40.3L848.3-40.3z M849.5-49.5v8.2h1.2
		c1.8,0,2.4-1,2.4-4.1c0-3.3-0.7-4.1-2.4-4.1L849.5-49.5L849.5-49.5z"/>
	<path d="M862.2-48.4c0.2,0.8,0.3,1.8,0.3,3c0,0.8,0,1.7-0.2,2.4c-0.4,1.9-1.4,2.8-3,2.8c-1.6,0-2.6-1-3-2.8
		c-0.2-0.8-0.2-1.6-0.2-2.4c0-1.4,0.1-2.5,0.5-3.5c0.5-1.2,1.4-1.8,2.7-1.8C860.8-50.7,861.8-49.9,862.2-48.4z M857.4-45.4
		c0,2.9,0.6,4.3,2,4.3s2-1.4,2-4.3s-0.6-4.3-2-4.3S857.4-48.4,857.4-45.4z"/>
	<path d="M875.4-45.6c-1.2-0.7-1.9-1.4-1.9-2.6c0-1.5,1.1-2.5,2.8-2.5c1.1,0,2,0.6,2.8,1.3l-0.7,0.8c-0.7-0.6-1.4-1.1-2.2-1.1
		c-0.9,0-1.6,0.6-1.6,1.5c0,0.7,0.4,1.1,1.4,1.8l0.8,0.5c1.5,1,2.4,1.4,2.4,2.9c0,1.8-1.2,2.9-3,2.9c-1.6,0-2.4-0.9-3.1-1.7l0.9-0.7
		c0.5,0.7,1.1,1.4,2.2,1.4c1,0,1.9-0.7,1.9-1.9c0-0.8-0.3-1.1-1.8-2L875.4-45.6z"/>
	<path d="M882.2-40.3v-10.2h2.5c1.9,0,2.9,1.1,2.9,3.1c0,2-1.2,3.1-3.4,3.1h-0.8v4H882.2z M883.4-45.3h1.1c1.3,0,2-0.7,2-2.2
		c0-1.4-0.6-2.1-1.9-2.1h-1.2V-45.3z"/>
	<path d="M890.6-40.3v-10.2h2.7c1.9,0,2.8,1.4,2.8,2.9c0,1.5-0.8,2.2-1.8,2.8l2.7,4.5h-1.4l-2.4-4.2h-1.5v4.2L890.6-40.3L890.6-40.3
		z M891.7-45.5h1c1.5,0,2.2-0.8,2.2-2.2c0-1.3-0.6-1.9-2.2-1.9h-1V-45.5z"/>
	<path d="M903.3-50.5v1H902v8.2h1.4v1h-3.9v-1h1.4v-8.2h-1.4v-1L903.3-50.5L903.3-50.5z"/>
	<path d="M908.2-40.3h-1.1v-10.2h1.3l3,7.7v-7.7h1.1v10.3h-1.1l-3.3-8.2V-40.3z"/>
	<path d="M921.6-50.5v1h-2.9v9.2h-1.1v-9.2h-2.8v-1H921.6z"/>
</g>
<g>
	<path d="M1026-74.6c-1.2-0.7-1.9-1.4-1.9-2.6c0-1.5,1.1-2.5,2.8-2.5c1.1,0,2,0.6,2.8,1.3l-0.7,0.8c-0.7-0.6-1.4-1.1-2.2-1.1
		c-0.9,0-1.6,0.6-1.6,1.5c0,0.7,0.3,1.1,1.4,1.8l0.8,0.5c1.5,1,2.4,1.4,2.4,2.9c0,1.8-1.2,2.9-3,2.9c-1.6,0-2.4-0.9-3.1-1.7l0.9-0.7
		c0.5,0.7,1.1,1.4,2.2,1.4c1,0,1.9-0.7,1.9-1.9c0-0.8-0.3-1.1-1.8-2L1026-74.6z"/>
	<path d="M1032.9-69.3v-10.2h2.5c1.9,0,2.9,1.1,2.9,3.1c0,2-1.2,3.1-3.4,3.1h-0.8v4H1032.9z M1034-74.3h1.1c1.3,0,2-0.7,2-2.2
		c0-1.4-0.6-2.1-1.9-2.1h-1.2V-74.3z"/>
	<path d="M1041.2-69.3v-10.2h2.7c1.9,0,2.8,1.4,2.8,2.9c0,1.5-0.8,2.2-1.8,2.8l2.7,4.5h-1.4l-2.4-4.2h-1.5v4.2
		C1042.4-69.3,1041.2-69.3,1041.2-69.3z M1042.4-74.5h1c1.5,0,2.2-0.8,2.2-2.2c0-1.3-0.6-1.9-2.2-1.9h-1L1042.4-74.5L1042.4-74.5z"
		/>
	<path d="M1054-79.5v1h-1.4v8.2h1.4v1h-3.9v-1h1.4v-8.2h-1.4v-1H1054z"/>
	<path d="M1058.9-69.3h-1.1v-10.2h1.3l3,7.7v-7.7h1.1v10.3h-1.1l-3.3-8.2V-69.3z"/>
	<path d="M1072.3-79.5v1h-2.9v9.2h-1.1v-9.2h-2.8v-1H1072.3z"/>
	<path d="M986.4-52.5v-10.2h2.6c2.3,0,3.3,1.6,3.3,5.1c0,3.6-1,5.1-3.4,5.1L986.4-52.5L986.4-52.5z M987.5-61.7v8.2h1.2
		c1.8,0,2.4-1,2.4-4.1c0-3.3-0.7-4.1-2.4-4.1C988.7-61.7,987.5-61.7,987.5-61.7z"/>
	<path d="M1000.5-53.2c-0.8,0.4-1.8,0.8-2.9,0.8c-1.9,0-3.1-1.5-3.1-3.9c0-2.4,1.2-4,3.2-4c2,0,2.9,1.9,2.9,3.6v0.6h-5
		c0.1,1.7,0.7,2.7,2.1,2.7c0.9,0,1.7-0.4,2.4-0.8L1000.5-53.2z M999.4-57c-0.1-1.6-0.9-2.3-1.9-2.3c-1.1,0-1.8,1-2,2.3H999.4z"/>
	<path d="M1003.7-54.6c0.8,0.8,1.6,1.3,2.5,1.3c0.7,0,1.2-0.4,1.2-1.1c0-0.6-0.3-1-1.1-1.3c-1.5-0.6-2.8-1.1-2.8-2.5
		c0-1.1,1-2,2.4-2c1.1,0,1.8,0.4,2.5,0.9l-0.5,0.9c-0.7-0.5-1.3-0.9-2-0.9c-0.6,0-1.2,0.5-1.2,1.1c0,1.6,3.9,1.1,3.9,3.7
		c0,1.2-1.1,2.1-2.3,2.1c-1.3,0-2.3-0.6-3.1-1.3L1003.7-54.6z"/>
	<path d="M1017.3-53.2c-0.8,0.4-1.8,0.8-2.9,0.8c-1.9,0-3.1-1.5-3.1-3.9c0-2.4,1.2-4,3.2-4c2,0,2.9,1.9,2.9,3.6v0.6h-5
		c0.1,1.7,0.7,2.7,2.1,2.7c0.9,0,1.7-0.4,2.4-0.8L1017.3-53.2z M1016.2-57c-0.1-1.6-0.9-2.3-1.9-2.3c-1.1,0-1.8,1-2,2.3H1016.2z"/>
	<path d="M1020.9-58.8c0.7-1,1.6-1.5,2.5-1.5c1.1,0,1.8,0.8,1.8,2.4v5.3h-1.1v-5c0-1-0.1-1.8-0.9-1.8c-1.1,0-2.2,1.2-2.2,3.6v3.2
		h-1.1v-3.8c0-1,0-2.2-0.3-3.8h1.1L1020.9-58.8z"/>
	<path d="M1032.8-60.1h1.1l-2.4,7.7h-1.1l-2.4-7.7h1.1l1.8,5.7L1032.8-60.1z"/>
	<path d="M1036.4-56.3c0-2.6,1.3-3.9,3-3.9c2,0,3,1.5,3,3.9c0,2.6-1.3,3.9-3,3.9C1037.7-52.4,1036.4-53.8,1036.4-56.3z M1041.3-56.3
		c0-1.9-0.6-3-1.9-3c-1.2,0-1.9,1-1.9,3s0.6,3,1.9,3C1040.7-53.4,1041.3-54.4,1041.3-56.3z"/>
	<path d="M1047.4-52.5v-9.4h-2.1v-1h3.3v10.4H1047.4z"/>
	<path d="M1058-60.1h1.1l-2.4,7.7h-1.1l-2.4-7.7h1.1l1.8,5.7L1058-60.1z"/>
	<path d="M1064.3-52.5v-6.6h-2.1v-1h3.3v7.6H1064.3z M1065.7-62c0,0.5-0.4,0.9-0.9,0.9s-0.9-0.4-0.9-0.9s0.4-0.9,0.9-0.9
		S1065.7-62.5,1065.7-62z"/>
	<path d="M1073.7-52.5h-1.1v-6c0-0.5-0.2-0.8-0.5-0.8c-0.4,0-0.9,0.3-1.2,0.9v5.9h-1.1v-5.2c0-1.1-0.2-1.9-0.3-2.5h1.1l0.1,0.6
		c0.4-0.4,0.8-0.6,1.5-0.6c0.6,0,0.9,0.2,1.2,0.7c0.4-0.4,0.8-0.7,1.4-0.7c1,0,1.7,0.7,1.7,1.7v6h-1.1v-6c0-0.5-0.2-0.7-0.6-0.7
		c-0.4,0-0.8,0.3-1.1,0.7L1073.7-52.5L1073.7-52.5z"/>
	<path d="M1084.5-53.2c-0.8,0.4-1.8,0.8-2.9,0.8c-1.9,0-3.1-1.5-3.1-3.9c0-2.4,1.2-4,3.2-4c2,0,2.9,1.9,2.9,3.6v0.6h-5
		c0.1,1.7,0.7,2.7,2.1,2.7c0.9,0,1.7-0.4,2.4-0.8L1084.5-53.2z M1083.4-57c-0.1-1.6-0.9-2.3-1.9-2.3c-1.1,0-1.8,1-2,2.3H1083.4z"/>
	<path d="M1088.1-58.8c0.7-1,1.6-1.5,2.5-1.5c1.1,0,1.8,0.8,1.8,2.4v5.3h-1.1v-5c0-1-0.1-1.8-0.9-1.8c-1.1,0-2.2,1.2-2.2,3.6v3.2
		h-1.1v-3.8c0-1,0-2.2-0.4-3.8h1.1L1088.1-58.8z"/>
	<path d="M1100.6-60.1v1h-2.7v4.2c0,1,0.1,1.6,0.9,1.6c0.8,0,1.2-0.6,1.6-1.3l1.1,0.3c-0.6,1.1-1.3,2-2.7,2c-1.4,0-2-0.8-2-2.6v-4.1
		h-1.6v-1h1.6v-2.3h1.1v2.3H1100.6z"/>
	<path d="M1103.6-56.3c0-2.6,1.3-3.9,3-3.9c2,0,3,1.5,3,3.9c0,2.6-1.3,3.9-3,3.9C1104.9-52.4,1103.6-53.8,1103.6-56.3z M1108.5-56.3
		c0-1.9-0.6-3-1.9-3c-1.2,0-1.9,1-1.9,3s0.6,3,1.9,3C1107.9-53.4,1108.5-54.4,1108.5-56.3z"/>
	<path d="M1021.5-36.4c-0.8,0.4-1.8,0.8-2.9,0.8c-1.9,0-3.1-1.5-3.1-3.9c0-2.4,1.2-4,3.2-4c2,0,2.9,1.9,2.9,3.6v0.6h-5
		c0.1,1.7,0.7,2.7,2.1,2.7c0.9,0,1.7-0.4,2.4-0.8L1021.5-36.4z M1020.4-40.2c-0.1-1.6-0.9-2.3-1.9-2.3c-1.1,0-1.8,1-2,2.3H1020.4z"
		/>
	<path d="M1037.6-43.3v1h-2.7v4.2c0,1,0.1,1.6,0.9,1.6c0.8,0,1.2-0.6,1.6-1.3l1.1,0.3c-0.6,1.1-1.3,2-2.7,2c-1.4,0-2-0.8-2-2.6v-4.1
		h-1.6v-1h1.6v-2.3h1.1v2.3H1037.6z"/>
	<path d="M1046.7-36.4c-0.8,0.4-1.8,0.8-2.9,0.8c-1.9,0-3.1-1.5-3.1-3.9c0-2.4,1.2-4,3.2-4c2,0,2.9,1.9,2.9,3.6v0.6h-5
		c0.1,1.7,0.7,2.7,2.1,2.7c0.9,0,1.7-0.4,2.4-0.8L1046.7-36.4z M1045.6-40.2c-0.1-1.6-0.9-2.3-1.9-2.3c-1.1,0-1.8,1-2,2.3H1045.6z"
		/>
	<path d="M1049.9-37.8c0.8,0.8,1.6,1.3,2.5,1.3c0.7,0,1.2-0.4,1.2-1.1c0-0.6-0.3-1-1.1-1.3c-1.5-0.6-2.8-1.1-2.8-2.5
		c0-1.1,1-2,2.4-2c1.1,0,1.8,0.4,2.5,0.9l-0.5,0.9c-0.7-0.5-1.3-0.9-2-0.9c-0.6,0-1.2,0.5-1.2,1.1c0,1.6,3.9,1.1,3.9,3.7
		c0,1.2-1.1,2.1-2.3,2.1c-1.3,0-2.3-0.6-3.1-1.3L1049.9-37.8z"/>
	<path d="M1062.8-43.3v1h-2.7v4.2c0,1,0.1,1.6,0.9,1.6c0.8,0,1.2-0.6,1.6-1.3l1.1,0.3c-0.6,1.1-1.3,2-2.7,2c-1.4,0-2-0.8-2-2.6v-4.1
		h-1.6v-1h1.6v-2.3h1.1v2.3H1062.8z"/>
	<path d="M1071.9-36.4c-0.8,0.4-1.8,0.8-2.9,0.8c-1.9,0-3.1-1.5-3.1-3.9c0-2.4,1.2-4,3.2-4c2,0,2.9,1.9,2.9,3.6v0.6h-5
		c0.1,1.7,0.7,2.7,2.1,2.7c0.9,0,1.7-0.4,2.4-0.8L1071.9-36.4z M1070.8-40.2c-0.1-1.6-0.9-2.3-1.9-2.3c-1.1,0-1.8,1-2,2.3H1070.8z"
		/>
	<path d="M1075.1-37.8c0.8,0.8,1.6,1.3,2.5,1.3c0.7,0,1.2-0.4,1.2-1.1c0-0.6-0.3-1-1.1-1.3c-1.5-0.6-2.8-1.1-2.8-2.5
		c0-1.1,1-2,2.4-2c1.1,0,1.8,0.4,2.5,0.9l-0.5,0.9c-0.7-0.5-1.3-0.9-2-0.9c-0.6,0-1.2,0.5-1.2,1.1c0,1.6,3.9,1.1,3.9,3.7
		c0,1.2-1.1,2.1-2.3,2.1c-1.3,0-2.3-0.6-3.1-1.3L1075.1-37.8z"/>
</g>
<g>
	<path d="M1253.8-50.5v1h-4.2v3.5h3v1h-3v3.8h4.3v1h-5.4v-10.2H1253.8z"/>
	<path d="M1257.6-40.3h-1.1v-10.2h1.3l3,7.7v-7.7h1.1v10.3h-1.1l-3.3-8.2V-40.3z"/>
	<path d="M1271-50.5v1h-2.9v9.2h-1.1v-9.2h-2.8v-1H1271z"/>
	<path d="M1273.6-40.3v-10.2h2.7c1.9,0,2.8,1.4,2.8,2.9c0,1.5-0.8,2.2-1.8,2.8l2.7,4.5h-1.4l-2.4-4.2h-1.5v4.2H1273.6z M1274.7-45.5
		h1c1.5,0,2.2-0.8,2.2-2.2c0-1.3-0.6-1.9-2.2-1.9h-1V-45.5L1274.7-45.5z"/>
	<path d="M1287.4-50.5v1h-4.2v3.5h3v1h-3v3.8h4.3v1h-5.4v-10.2H1287.4z"/>
	<path d="M1295-41.2c-0.5,0.6-1.1,1.1-2.2,1.1c-2.1,0-3.1-1.7-3.1-5.1c0-3.7,1-5.5,3.2-5.5c1.1,0,1.9,0.5,2.3,1.4
		c0.2,0.5,0.2,1,0.3,1.4h-1.1v-0.3c0-1-0.5-1.6-1.4-1.6c-1.5,0-2.1,1.5-2.1,4.4c0,2.8,0.6,4.2,2,4.2c1.1,0,2-1,2-2.8v-0.6h-2.4v-1
		h3.5v5.3h-1.1L1295-41.2L1295-41.2z"/>
	<path d="M1299.6-43.3l-0.8,3h-1.1l2.9-10.2h1.3l2.9,10.2h-1.1l-0.8-3H1299.6z M1302.5-44.3l-1.3-4.5l-1.3,4.5H1302.5z"/>
</g>
<g>
	<g>
		<path d="M506.9,168.1v-10.2h2.4c1.7,0,2.7,1.1,2.7,2.8c0,1.3-0.6,2.3-1.9,2.8l2.7,4.5h-0.9l-2.5-4.4h-1.8v4.4L506.9,168.1
			L506.9,168.1z M507.6,158.6v4.5h1.4c1,0,2.2-0.7,2.2-2.4c0-1.5-0.8-2.2-2.1-2.2H507.6z"/>
		<path d="M520.4,157.9v0.6h-4.3v4h3.1v0.6h-3.1v4.3h4.4v0.6h-5.1v-10.2L520.4,157.9L520.4,157.9z"/>
		<path d="M524,157.9v7.4c0,1.5,0.6,2.3,1.9,2.3c1.2,0,2-0.8,2-2.3v-7.4h0.7v7.6c0,1.7-1,2.8-2.7,2.8c-1.7,0-2.7-1.1-2.7-2.8v-7.6
			H524z"/>
		<path d="M531.7,157.9h1l3.4,8.5v-8.5h0.7v10.3h-0.7l-3.7-9.2v9.1h-0.7V157.9z"/>
		<path d="M544.5,157.9v0.6h-1.4v8.9h1.4v0.6h-3.5v-0.6h1.4v-8.9h-1.4v-0.6H544.5z"/>
		<path d="M549.3,165l-0.8,3.1h-0.8l2.8-10.2h1l2.9,10.2h-0.8l-0.8-3.1H549.3z M548.5,156.7c0.4-0.8,0.8-1.4,1.6-1.4
			c0.4,0,0.8,0.2,1.2,0.4c0.4,0.2,0.7,0.4,1,0.4c0.5,0,0.7-0.4,0.9-0.8l0.6,0.2c-0.3,0.6-0.7,1.2-1.5,1.2c-0.4,0-0.8-0.2-1.2-0.4
			c-0.3-0.2-0.6-0.4-1-0.4c-0.4,0-0.7,0.4-1,1L548.5,156.7z M552.7,164.4l-1.6-5.7l-1.6,5.7H552.7z"/>
		<path d="M562.5,163c0,3.4-0.7,5.3-3,5.3s-3-1.9-3-5.3c0-3.3,0.7-5.3,3-5.3C561.8,157.7,562.5,159.6,562.5,163z M561.7,163
			c0-3.2-0.7-4.6-2.2-4.6s-2.2,1.4-2.2,4.6c0,3.2,0.7,4.6,2.2,4.6S561.7,166.2,561.7,163z"/>
		<path d="M573.8,168.1v-10.2h2.4c2.3,0,3.3,1.5,3.3,5.1c0,3.5-1,5.1-3.3,5.1H573.8z M574.5,158.6v8.9h1.2c2.1,0,2.9-0.9,2.9-4.4
			c0-3.7-0.9-4.4-2.9-4.4L574.5,158.6L574.5,158.6z"/>
		<path d="M587.6,157.9v0.6h-4.3v4h3.1v0.6h-3.1v4.3h4.4v0.6h-5.1v-10.2L587.6,157.9L587.6,157.9z"/>
		<path d="M600.8,162.7c-1.2-0.7-1.8-1.4-1.8-2.5c0-1.5,1.1-2.4,2.6-2.4c1.1,0,1.9,0.5,2.6,1.2l-0.4,0.5c-0.7-0.6-1.4-1.1-2.2-1.1
			c-1,0-1.8,0.7-1.8,1.7c0,0.9,0.5,1.4,1.6,2l0.8,0.5c1.5,0.9,2.3,1.4,2.3,2.8c0,1.7-1.1,2.8-2.9,2.8c-1.5,0-2.3-0.8-2.9-1.5
			l0.6-0.5c0.6,0.7,1.2,1.3,2.3,1.3c1.1,0,2.1-0.8,2.1-2.1c0-0.9-0.4-1.3-1.9-2.3L600.8,162.7z"/>
		<path d="M607.7,168.1v-10.2h2.3c1.8,0,2.8,1.1,2.8,3s-1,3-2.8,3h-1.6v4.1H607.7z M608.4,163.3h1.5c1.2,0,2.1-0.7,2.1-2.4
			c0-1.7-0.9-2.4-2.1-2.4h-1.5V163.3z"/>
		<path d="M616.1,168.1v-10.2h2.4c1.7,0,2.7,1.1,2.7,2.8c0,1.3-0.6,2.3-1.9,2.8l2.7,4.5h-0.9l-2.5-4.4h-1.8v4.4L616.1,168.1
			L616.1,168.1z M616.8,158.6v4.5h1.4c1,0,2.2-0.7,2.2-2.4c0-1.5-0.8-2.2-2.1-2.2H616.8z"/>
		<path d="M628.5,157.9v0.6h-1.4v8.9h1.4v0.6h-3.5v-0.6h1.4v-8.9h-1.4v-0.6H628.5z"/>
		<path d="M632.5,157.9h1l3.4,8.5v-8.5h0.7v10.3h-0.7l-3.7-9.2v9.1h-0.7V157.9z"/>
		<path d="M646.8,157.9v0.6h-2.9v9.5h-0.7v-9.5h-2.9v-0.6H646.8z"/>
		<path d="M658.1,168.1v-10.2h2.3c1.8,0,2.8,1.1,2.8,3s-1,3-2.8,3h-1.6v4.1H658.1z M658.8,163.3h1.5c1.2,0,2.1-0.7,2.1-2.4
			c0-1.7-0.9-2.4-2.1-2.4h-1.5V163.3z"/>
		<path d="M667.6,157.9v9.5h4.4v0.6h-5.2v-10.2L667.6,157.9L667.6,157.9z"/>
		<path d="M675.3,165l-0.8,3.1h-0.8l2.8-10.2h1l2.9,10.2h-0.8l-0.8-3.1H675.3z M678.7,164.4l-1.6-5.7l-1.6,5.7H678.7z"/>
		<path d="M682.9,157.9h1l3.4,8.5v-8.5h0.7v10.3h-0.7l-3.7-9.2v9.1h-0.7V157.9z"/>
		<path d="M691.3,157.9h1l3.4,8.5v-8.5h0.7v10.3h-0.7l-3.7-9.2v9.1h-0.7V157.9z"/>
		<path d="M704.1,157.9v0.6h-1.4v8.9h1.4v0.6h-3.5v-0.6h1.4v-8.9h-1.4v-0.6H704.1z"/>
		<path d="M708.1,157.9h1l3.4,8.5v-8.5h0.7v10.3h-0.7l-3.7-9.2v9.1h-0.7V157.9z"/>
		<path d="M721.5,166.8c-0.4,1-1.3,1.5-2.3,1.5c-2.1,0-2.9-1.7-2.9-5.1c0-3.7,0.9-5.5,3.1-5.5c1.1,0,1.9,0.5,2.3,1.6
			c0.1,0.4,0.2,0.7,0.2,1H721c0-1.3-0.7-1.9-1.7-1.9c-1.7,0-2.3,1.7-2.3,4.7c0,3,0.6,4.6,2.2,4.6c1.4,0,2.3-1.1,2.3-3.1v-0.8h-2.4
			v-0.6h3.2v5.1h-0.7L721.5,166.8L721.5,166.8z"/>
	</g>
	<g>
		<path d="M512.8,190.1h-3.4v-0.8h3.4V190.1z"/>
		<path d="M525.7,193.5v-10.2h2.4c1.7,0,2.7,1.1,2.7,2.8c0,1.3-0.6,2.3-1.9,2.8l2.7,4.5h-0.9l-2.5-4.4h-1.8v4.4L525.7,193.5
			L525.7,193.5z M526.4,183.9v4.5h1.4c1,0,2.2-0.7,2.2-2.4c0-1.5-0.8-2.2-2.1-2.2H526.4z"/>
		<path d="M534.2,189.9c0.2,1.9,0.7,3.1,2.3,3.1c0.9,0,1.7-0.4,2.4-0.7l0.3,0.7c-0.8,0.3-1.7,0.7-2.7,0.7c-1.9,0-3-1.5-3-3.9
			s1.2-3.9,3.1-3.9c1.5,0,2.5,1.2,2.7,3.2c0,0.3,0,0.6,0.1,0.9L534.2,189.9L534.2,189.9z M538.5,189.2c0-1.8-1-2.8-2.1-2.8
			c-1.1,0-2.2,1-2.2,2.8H538.5z"/>
		<path d="M546.7,186h0.7l-2.4,7.6h-0.8l-2.4-7.6h0.7l2,6.5L546.7,186z"/>
		<path d="M552.9,193.5v-6.9h-2.2V186h2.9v7.5L552.9,193.5L552.9,193.5z M554,183.9c0,0.4-0.3,0.8-0.8,0.8c-0.4,0-0.8-0.3-0.8-0.8
			s0.3-0.8,0.8-0.8C553.7,183.1,554,183.5,554,183.9z"/>
		<path d="M559.3,191.8c0.8,0.7,1.5,1.2,2.5,1.2c0.8,0,1.5-0.5,1.5-1.3c0-0.7-0.4-1.2-1.2-1.5c-1.5-0.6-2.8-1-2.8-2.4
			c0-1,1-1.9,2.2-1.9c1,0,1.7,0.4,2.3,0.8l-0.3,0.6c-0.6-0.4-1.2-0.8-2-0.8c-0.7,0-1.4,0.6-1.4,1.3c0,1.8,4,1.2,4,3.9
			c0,1.2-1,2-2.3,2c-0.8,0-1.8-0.4-2.8-1.2L559.3,191.8z"/>
		<path d="M572,191.5c0,1,0.1,1.3,0.3,2l-0.7,0.1c-0.1-0.2-0.2-0.6-0.3-1.2c-0.5,0.7-1.1,1.2-2,1.2c-1.3,0-2.1-1-2.1-2.4
			c0-1.6,0.9-2.7,2.3-2.7c0.5,0,1.2,0.2,1.7,0.5c0-1.5,0-2.5-1.4-2.5c-0.7,0-1.3,0.3-1.8,0.5l-0.2-0.7c0.6-0.2,1.2-0.5,2-0.5
			c0.8,0,1.4,0.3,1.8,0.9c0.3,0.5,0.4,1.1,0.4,1.7L572,191.5L572,191.5z M567.3,184.7c0.4-0.8,0.8-1.4,1.6-1.4
			c0.4,0,0.8,0.2,1.2,0.4s0.7,0.4,1,0.4c0.5,0,0.7-0.4,0.9-0.8l0.6,0.2c-0.3,0.6-0.7,1.2-1.5,1.2c-0.4,0-0.8-0.2-1.2-0.4
			c-0.3-0.2-0.6-0.4-1-0.4c-0.4,0-0.7,0.4-1,1L567.3,184.7z M571.2,189.6c-0.5-0.3-1-0.4-1.6-0.4c-1.1,0-1.7,0.9-1.7,2
			c0,1.1,0.6,1.8,1.4,1.8c0.8,0,1.4-0.6,1.9-1.5L571.2,189.6L571.2,189.6z"/>
		<path d="M575.4,189.7c0-2.6,1.2-3.9,2.9-3.9c1.7,0,2.9,1.3,2.9,3.9c0,2.6-1.2,3.9-2.9,3.9C576.6,193.6,575.4,192.3,575.4,189.7z
			 M580.4,189.7c0-2.1-0.7-3.2-2.1-3.2c-1.4,0-2.1,1.1-2.1,3.2c0,2.1,0.7,3.3,2.1,3.3S580.4,191.8,580.4,189.7z"/>
		<path d="M597.6,183.1v7.7c0,1.6,0.3,2.4,0.3,2.7l-0.7,0.1l-0.3-1.1c-0.5,0.8-1,1.1-2,1.1c-1.6,0-2.9-1.4-2.9-4
			c0-2.6,1.5-3.9,3-3.9c0.7,0,1.3,0.2,1.8,0.6v-3.3L597.6,183.1L597.6,183.1z M596.8,187.2c-0.5-0.4-1-0.7-1.6-0.7
			c-1.3,0-2.4,1.1-2.4,3.2c0,2.2,1.1,3.3,2.2,3.3c0.8,0,1.3-0.5,1.8-1.5V187.2L596.8,187.2z"/>
		<path d="M600.6,189.7c0-2.6,1.2-3.9,2.9-3.9c1.7,0,2.9,1.3,2.9,3.9c0,2.6-1.2,3.9-2.9,3.9C601.8,193.6,600.6,192.3,600.6,189.7z
			 M605.6,189.7c0-2.1-0.7-3.2-2.1-3.2c-1.4,0-2.1,1.1-2.1,3.2c0,2.1,0.7,3.3,2.1,3.3C604.9,193,605.6,191.8,605.6,189.7z"/>
		<path d="M617.7,193.5v-10.2h2.5c1.5,0,2.5,1,2.5,2.5c0,1.1-0.6,1.8-1.5,2.3c1.3,0.5,2,1.3,2,2.7c0,1.5-0.9,2.7-2.8,2.7
			L617.7,193.5L617.7,193.5z M618.5,187.9h1c1.7,0,2.6-0.8,2.6-2.1c0-1.2-0.7-1.8-2.1-1.8h-1.5V187.9z M618.5,192.8h1.8
			c1.3,0,2.2-0.7,2.2-2c0-1.3-0.9-2.3-2.3-2.3h-1.7L618.5,192.8L618.5,192.8z"/>
		<path d="M630.7,191.5c0,1,0.1,1.3,0.3,2l-0.7,0.1c-0.1-0.2-0.2-0.6-0.3-1.2c-0.5,0.7-1.1,1.2-2,1.2c-1.3,0-2.1-1-2.1-2.4
			c0-1.6,0.9-2.7,2.3-2.7c0.5,0,1.2,0.2,1.7,0.5c0-1.5,0-2.5-1.4-2.5c-0.7,0-1.3,0.3-1.8,0.5l-0.2-0.7c0.6-0.2,1.2-0.5,2-0.5
			c0.8,0,1.4,0.3,1.8,0.9c0.3,0.5,0.4,1.1,0.4,1.7L630.7,191.5L630.7,191.5z M630,189.6c-0.5-0.3-1-0.4-1.6-0.4
			c-1.1,0-1.7,0.9-1.7,2c0,1.1,0.6,1.8,1.4,1.8c0.8,0,1.4-0.6,1.9-1.5L630,189.6L630,189.6z"/>
		<path d="M639.5,187.8c-0.6-0.8-1.3-1.3-2-1.3c-1.4,0-2.3,1.1-2.3,3.2c0,2.2,1,3.3,2.4,3.3c0.7,0,1.4-0.5,2-1.2l0.5,0.5
			c-0.7,0.7-1.3,1.3-2.5,1.3c-1.8,0-3.1-1.3-3.1-3.8c0-2.6,1.3-4,3.1-4c1.4,0,2.1,0.8,2.6,1.6L639.5,187.8z"/>
		<path d="M644.1,189.6c0.8-0.7,1.8-1.7,3.1-3.6h1c-1.2,1.5-2.2,2.6-3,3.4l3.6,4.1h-1l-3.1-3.6l-0.7,0.6v3h-0.7v-10.4h0.7V189.6
			L644.1,189.6z"/>
		<path d="M653.6,193.5v-9.7h-2.2v-0.6h2.9v10.4L653.6,193.5L653.6,193.5z"/>
		<path d="M659.4,189.7c0-2.6,1.2-3.9,2.9-3.9c1.7,0,2.9,1.3,2.9,3.9c0,2.6-1.2,3.9-2.9,3.9C660.6,193.6,659.4,192.3,659.4,189.7z
			 M664.4,189.7c0-2.1-0.7-3.2-2.1-3.2c-1.4,0-2.1,1.1-2.1,3.2c0,2.1,0.7,3.3,2.1,3.3C663.7,193,664.4,191.8,664.4,189.7z"/>
		<path d="M672.8,185.8h0.8c-0.4,1.6-0.3,2.7-0.3,3.9v3.1c0,1.9-1.2,3-2.7,3c-0.8,0-1.5-0.4-2.2-1l0.5-0.5c0.4,0.4,0.9,0.9,1.8,0.9
			c1,0,1.8-0.9,1.8-2.4V192c-0.6,0.6-1.4,0.9-2,0.9c-1.5,0-2.6-1.4-2.6-3.4c0-2.1,1-3.6,2.8-3.6c0.9,0,1.4,0.4,2,0.8L672.8,185.8z
			 M672.5,187.5c-0.5-0.7-1.1-1.1-1.9-1.1c-1.3,0-2,1.2-2,2.9c0,1.9,1,2.8,1.9,2.8c0.7,0,1.4-0.4,2-1.1V187.5z"/>
		<path d="M690,183.1v7.7c0,1.6,0.3,2.4,0.4,2.7l-0.7,0.1l-0.3-1.1c-0.5,0.8-1,1.1-2,1.1c-1.6,0-2.9-1.4-2.9-4c0-2.6,1.5-3.9,3-3.9
			c0.7,0,1.3,0.2,1.8,0.6v-3.3L690,183.1L690,183.1z M689.2,187.2c-0.5-0.4-1-0.7-1.6-0.7c-1.3,0-2.4,1.1-2.4,3.2
			c0,2.2,1.1,3.3,2.2,3.3c0.8,0,1.3-0.5,1.8-1.5V187.2z"/>
		<path d="M693,189.7c0-2.6,1.2-3.9,2.9-3.9c1.7,0,2.9,1.3,2.9,3.9c0,2.6-1.2,3.9-2.9,3.9C694.2,193.6,693,192.3,693,189.7z
			 M698,189.7c0-2.1-0.7-3.2-2.1-3.2c-1.4,0-2.1,1.1-2.1,3.2c0,2.1,0.7,3.3,2.1,3.3C697.3,193,698,191.8,698,189.7z"/>
		<path d="M710.2,196.4v-7.8c0-1.6-0.2-2.3-0.4-2.7l0.7-0.1l0.3,1.2c0.4-0.8,1.1-1.2,2-1.2c1.6,0,2.9,1.4,2.9,3.9
			c0,2.6-1.5,3.9-3,3.9c-0.7,0-1.2-0.2-1.8-0.6v3.4L710.2,196.4L710.2,196.4z M711,192.3c0.5,0.4,1,0.7,1.6,0.7
			c1.3,0,2.4-1.1,2.4-3.2c0-2.2-1.1-3.3-2.2-3.3c-0.8,0-1.4,0.6-1.8,1.5V192.3z"/>
		<path d="M723.3,188.1c0-0.9-0.2-1.7-0.9-1.7c-1,0-2.4,1.4-2.4,3.9v3.1h-0.7v-5c0-0.7-0.1-1.7-0.3-2.6h0.7c0.1,0.7,0.2,1.4,0.2,2
			c0.6-1.3,1.4-2.1,2.5-2.1c1.1,0,1.5,0.9,1.6,2.3L723.3,188.1L723.3,188.1z"/>
		<path d="M726.6,189.7c0-2.6,1.2-3.9,2.9-3.9c1.7,0,2.9,1.3,2.9,3.9c0,2.6-1.2,3.9-2.9,3.9C727.8,193.6,726.6,192.3,726.6,189.7z
			 M731.6,189.7c0-2.1-0.7-3.2-2.1-3.2c-1.4,0-2.1,1.1-2.1,3.2c0,2.1,0.7,3.3,2.1,3.3C730.9,193,731.6,191.8,731.6,189.7z"/>
		<path d="M740.4,183.1v7.7c0,1.6,0.3,2.4,0.3,2.7l-0.7,0.1l-0.3-1.1c-0.5,0.8-1,1.1-2,1.1c-1.6,0-2.9-1.4-2.9-4
			c0-2.6,1.5-3.9,3-3.9c0.7,0,1.3,0.2,1.8,0.6v-3.3L740.4,183.1L740.4,183.1z M739.6,187.2c-0.5-0.4-1-0.7-1.6-0.7
			c-1.3,0-2.4,1.1-2.4,3.2c0,2.2,1.1,3.3,2.2,3.3c0.8,0,1.3-0.5,1.8-1.5V187.2z"/>
		<path d="M748.2,191.5c-0.5,1.5-1.7,2.2-2.6,2.2c-1.3,0-1.8-1.1-1.8-2.7v-5h0.7v5c0,1.2,0.3,2,1.1,2c1.2,0,2.5-1.4,2.5-4v-3h0.7
			v3.7c0,0.9,0,2.1,0.3,3.8h-0.7L748.2,191.5z"/>
		<path d="M756.9,186v0.6h-2.7v4.6c0,1.2,0.3,1.7,1.1,1.7c0.9,0,1.3-0.6,1.7-1.3l0.7,0.2c-0.5,0.9-1.2,1.8-2.4,1.8
			c-1.2,0-1.8-0.8-1.8-2.4v-4.6h-1.7V186h1.7v-2.4h0.7v2.4H756.9z"/>
		<path d="M760.2,189.7c0-2.6,1.2-3.9,2.9-3.9c1.7,0,2.9,1.3,2.9,3.9c0,2.6-1.2,3.9-2.9,3.9C761.4,193.6,760.2,192.3,760.2,189.7z
			 M765.2,189.7c0-2.1-0.7-3.2-2.1-3.2c-1.4,0-2.1,1.1-2.1,3.2c0,2.1,0.7,3.3,2.1,3.3C764.5,193,765.2,191.8,765.2,189.7z"/>
		<path d="M771.6,186.8c0.5,0,1,0.4,1,1c0,0.5-0.4,1-1,1c-0.5,0-1-0.4-1-1C770.7,187.2,771.1,186.8,771.6,186.8z M770.7,195
			c0.7-0.3,1-0.6,1.2-1.4c0,0-0.1,0-0.1,0c0,0-0.1,0-0.2,0c-0.5,0-0.9-0.4-0.9-0.9c0-0.5,0.4-1,1-1c0.6,0,1,0.4,1,1.3
			c0,1.2-0.6,2.1-2,2.5V195z"/>
		<path d="M512.8,206.9h-3.4v-0.8h3.4V206.9z"/>
		<path d="M530.8,200.1v0.6h-4.3v4h3.1v0.6h-3.1v4.3h4.4v0.6h-5.1v-10.2L530.8,200.1L530.8,200.1z"/>
		<path d="M534.1,208.6c0.8,0.7,1.5,1.2,2.5,1.2c0.8,0,1.5-0.5,1.5-1.3c0-0.7-0.4-1.2-1.2-1.5c-1.5-0.6-2.8-1-2.8-2.4
			c0-1,1-1.9,2.2-1.9c1,0,1.7,0.4,2.3,0.8l-0.3,0.6c-0.6-0.4-1.2-0.8-2-0.8c-0.7,0-1.4,0.6-1.4,1.3c0,1.8,4,1.2,4,3.9
			c0,1.2-1,2-2.3,2c-0.8,0-1.8-0.4-2.8-1.2L534.1,208.6z"/>
		<path d="M546.9,202.8v0.6h-2.7v4.6c0,1.2,0.3,1.7,1.1,1.7c0.9,0,1.3-0.6,1.7-1.3l0.7,0.2c-0.5,0.9-1.2,1.8-2.4,1.8
			c-1.2,0-1.8-0.8-1.8-2.4v-4.6h-1.7v-0.6h1.7v-2.4h0.7v2.4L546.9,202.8L546.9,202.8z"/>
		<path d="M552.9,210.3v-6.9h-2.2v-0.6h2.9v7.5L552.9,210.3L552.9,210.3z M554,200.7c0,0.4-0.3,0.8-0.8,0.8c-0.4,0-0.8-0.3-0.8-0.8
			c0-0.4,0.3-0.8,0.8-0.8C553.7,199.9,554,200.3,554,200.7z"/>
		<path d="M562,210.3h-0.7v-5.7c0-0.8-0.2-1.3-0.7-1.3c-0.5,0-1,0.3-1.4,1.1v6h-0.7v-5.2c0-1.3-0.2-2-0.3-2.4h0.8l0.2,0.9
			c0.5-0.6,1-0.9,1.7-0.9c0.6,0,0.9,0.4,1.2,0.9c0.4-0.5,0.9-0.9,1.6-0.9c0.9,0,1.5,0.6,1.5,1.6v6h-0.7v-6c0-0.6-0.3-1-0.8-1
			c-0.5,0-0.9,0.3-1.3,0.9L562,210.3L562,210.3z"/>
		<path d="M572,208.3c0,1,0.1,1.3,0.3,2l-0.7,0.1c-0.1-0.2-0.2-0.6-0.3-1.2c-0.5,0.7-1.1,1.2-2,1.2c-1.3,0-2.1-1-2.1-2.4
			c0-1.6,0.9-2.7,2.3-2.7c0.5,0,1.2,0.2,1.7,0.5c0-1.5,0-2.6-1.4-2.6c-0.7,0-1.3,0.3-1.8,0.5l-0.2-0.7c0.6-0.2,1.2-0.5,2-0.5
			c0.8,0,1.4,0.3,1.8,0.9c0.3,0.5,0.4,1.1,0.4,1.7L572,208.3L572,208.3z M571.2,206.4c-0.5-0.3-1-0.4-1.6-0.4c-1.1,0-1.7,0.9-1.7,2
			c0,1,0.6,1.8,1.4,1.8c0.8,0,1.4-0.6,1.9-1.5L571.2,206.4L571.2,206.4z"/>
		<path d="M580.5,202.8v0.6h-2.7v4.6c0,1.2,0.3,1.7,1.1,1.7c0.9,0,1.3-0.6,1.7-1.3l0.7,0.2c-0.5,0.9-1.2,1.8-2.4,1.8
			c-1.2,0-1.8-0.8-1.8-2.4v-4.6h-1.7v-0.6h1.7v-2.4h0.7v2.4L580.5,202.8L580.5,202.8z"/>
		<path d="M586.5,210.3v-6.9h-2.2v-0.6h2.9v7.5L586.5,210.3L586.5,210.3z M587.6,200.7c0,0.4-0.3,0.8-0.8,0.8
			c-0.4,0-0.8-0.3-0.8-0.8c0-0.4,0.3-0.8,0.8-0.8C587.3,199.9,587.6,200.3,587.6,200.7z"/>
		<path d="M597.1,202.8h0.7l-2.4,7.6h-0.8l-2.4-7.6h0.7l2,6.5L597.1,202.8z"/>
		<path d="M605.5,208.3c0,1,0.1,1.3,0.3,2l-0.7,0.1c-0.1-0.2-0.2-0.6-0.3-1.2c-0.5,0.7-1.1,1.2-2,1.2c-1.3,0-2.1-1-2.1-2.4
			c0-1.6,0.9-2.7,2.3-2.7c0.5,0,1.2,0.2,1.7,0.5c0-1.5,0-2.6-1.4-2.6c-0.7,0-1.3,0.3-1.8,0.5l-0.2-0.7c0.6-0.2,1.2-0.5,2-0.5
			c0.8,0,1.4,0.3,1.8,0.9c0.3,0.5,0.4,1.1,0.4,1.7L605.5,208.3L605.5,208.3z M604.8,206.4c-0.5-0.3-1-0.4-1.6-0.4
			c-1.1,0-1.7,0.9-1.7,2c0,1,0.6,1.8,1.4,1.8c0.8,0,1.4-0.6,1.9-1.5L604.8,206.4L604.8,206.4z"/>
		<path d="M622.8,199.9v7.7c0,1.6,0.3,2.4,0.3,2.7l-0.7,0.1l-0.3-1.1c-0.5,0.8-1,1.1-2,1.1c-1.6,0-2.9-1.4-2.9-3.9
			c0-2.6,1.5-3.9,3-3.9c0.7,0,1.3,0.2,1.8,0.6v-3.3H622.8z M622,204c-0.5-0.4-1-0.7-1.6-0.7c-1.3,0-2.4,1.1-2.4,3.2
			c0,2.2,1.1,3.3,2.2,3.3c0.8,0,1.3-0.5,1.8-1.5V204L622,204z"/>
		<path d="M625.8,206.5c0-2.5,1.2-3.9,2.9-3.9c1.7,0,2.9,1.3,2.9,3.9c0,2.6-1.2,3.9-2.9,3.9C627,210.4,625.8,209.1,625.8,206.5z
			 M630.8,206.5c0-2.1-0.7-3.2-2.1-3.2c-1.4,0-2.1,1.1-2.1,3.2c0,2.1,0.7,3.3,2.1,3.3C630.1,209.8,630.8,208.6,630.8,206.5z"/>
		<path d="M642.9,210.3v-10.2h2.5c1.5,0,2.5,1,2.5,2.5c0,1.1-0.6,1.8-1.5,2.3c1.3,0.5,2,1.3,2,2.7c0,1.5-0.9,2.7-2.8,2.7
			L642.9,210.3L642.9,210.3z M643.7,204.6h1c1.7,0,2.6-0.8,2.6-2.1c0-1.2-0.7-1.8-2.1-1.8h-1.5V204.6z M643.7,209.6h1.8
			c1.3,0,2.2-0.7,2.2-2c0-1.3-0.9-2.3-2.3-2.3h-1.7V209.6z"/>
		<path d="M655.9,208.3c0,1,0.1,1.3,0.3,2l-0.7,0.1c-0.1-0.2-0.2-0.6-0.3-1.2c-0.5,0.7-1.1,1.2-2,1.2c-1.3,0-2.1-1-2.1-2.4
			c0-1.6,0.9-2.7,2.3-2.7c0.5,0,1.2,0.2,1.7,0.5c0-1.5,0-2.6-1.4-2.6c-0.7,0-1.3,0.3-1.8,0.5l-0.2-0.7c0.6-0.2,1.2-0.5,2-0.5
			c0.8,0,1.4,0.3,1.8,0.9c0.3,0.5,0.4,1.1,0.4,1.7L655.9,208.3L655.9,208.3z M655.2,206.4c-0.5-0.3-1-0.4-1.6-0.4
			c-1.1,0-1.7,0.9-1.7,2c0,1,0.6,1.8,1.4,1.8c0.8,0,1.4-0.6,1.9-1.5L655.2,206.4L655.2,206.4z"/>
		<path d="M664.7,204.6c-0.6-0.8-1.3-1.3-2-1.3c-1.4,0-2.3,1.1-2.3,3.2c0,2.2,1,3.3,2.4,3.3c0.7,0,1.4-0.5,2-1.2l0.5,0.5
			c-0.7,0.7-1.3,1.3-2.5,1.3c-1.8,0-3.1-1.3-3.1-3.8c0-2.6,1.3-4,3.1-4c1.4,0,2.1,0.8,2.6,1.6L664.7,204.6z"/>
		<path d="M669.3,206.4c0.8-0.7,1.8-1.7,3.1-3.6h1c-1.2,1.5-2.2,2.6-3,3.4l3.6,4.1h-1l-3.1-3.6l-0.7,0.6v3h-0.7v-10.4h0.7V206.4z"/>
		<path d="M678.8,210.3v-9.7h-2.2v-0.6h2.9v10.4L678.8,210.3L678.8,210.3z"/>
		<path d="M684.6,206.5c0-2.5,1.2-3.9,2.9-3.9c1.7,0,2.9,1.3,2.9,3.9c0,2.6-1.2,3.9-2.9,3.9C685.8,210.4,684.6,209.1,684.6,206.5z
			 M689.6,206.5c0-2.1-0.7-3.2-2.1-3.2c-1.4,0-2.1,1.1-2.1,3.2c0,2.1,0.7,3.3,2.1,3.3S689.6,208.6,689.6,206.5z"/>
		<path d="M698,202.6h0.8c-0.4,1.6-0.3,2.7-0.3,4v3.1c0,1.9-1.2,3-2.7,3c-0.8,0-1.5-0.4-2.2-1l0.5-0.5c0.3,0.4,0.9,0.9,1.8,0.9
			c1,0,1.8-0.9,1.8-2.4v-0.8c-0.6,0.6-1.4,0.9-2,0.9c-1.5,0-2.6-1.4-2.6-3.4c0-2.1,1-3.6,2.8-3.6c0.9,0,1.4,0.4,2,0.8L698,202.6z
			 M697.7,204.3c-0.5-0.7-1.1-1.1-1.9-1.1c-1.3,0-2,1.2-2,2.9c0,1.9,1,2.8,1.9,2.8c0.7,0,1.4-0.4,2-1.1V204.3z"/>
		<path d="M715.2,199.9v7.7c0,1.6,0.3,2.4,0.4,2.7l-0.7,0.1l-0.3-1.1c-0.5,0.8-1,1.1-2,1.1c-1.6,0-2.9-1.4-2.9-3.9
			c0-2.6,1.5-3.9,3-3.9c0.7,0,1.3,0.2,1.8,0.6v-3.3H715.2z M714.4,204c-0.5-0.4-1-0.7-1.6-0.7c-1.3,0-2.4,1.1-2.4,3.2
			c0,2.2,1.1,3.3,2.2,3.3c0.8,0,1.3-0.5,1.8-1.5V204z"/>
		<path d="M718.2,206.5c0-2.5,1.2-3.9,2.9-3.9c1.7,0,2.9,1.3,2.9,3.9c0,2.6-1.2,3.9-2.9,3.9C719.4,210.4,718.2,209.1,718.2,206.5z
			 M723.2,206.5c0-2.1-0.7-3.2-2.1-3.2c-1.4,0-2.1,1.1-2.1,3.2c0,2.1,0.7,3.3,2.1,3.3S723.2,208.6,723.2,206.5z"/>
		<path d="M737.2,204.8c-1.2-0.7-1.8-1.4-1.8-2.5c0-1.5,1.1-2.4,2.6-2.4c1.1,0,1.9,0.5,2.6,1.2l-0.4,0.5c-0.7-0.6-1.4-1.1-2.2-1.1
			c-1,0-1.8,0.7-1.8,1.7c0,0.9,0.5,1.4,1.6,2l0.8,0.5c1.5,0.9,2.3,1.4,2.3,2.8c0,1.7-1.1,2.8-2.9,2.8c-1.5,0-2.3-0.8-2.9-1.5
			l0.6-0.5c0.6,0.7,1.2,1.3,2.3,1.3c1.1,0,2.1-0.8,2.1-2.1c0-0.9-0.4-1.3-1.9-2.3L737.2,204.8z"/>
		<path d="M743.8,213.2v-7.8c0-1.6-0.2-2.3-0.4-2.7l0.7-0.1l0.3,1.2c0.4-0.8,1.1-1.2,2-1.2c1.6,0,2.9,1.4,2.9,4c0,2.6-1.5,3.9-3,3.9
			c-0.7,0-1.2-0.2-1.8-0.6v3.4L743.8,213.2L743.8,213.2z M744.6,209.1c0.5,0.4,1,0.7,1.6,0.7c1.3,0,2.4-1.1,2.4-3.2
			c0-2.2-1.1-3.3-2.2-3.3c-0.8,0-1.4,0.6-1.8,1.5V209.1z"/>
		<path d="M756.9,204.9c0-0.9-0.2-1.7-0.9-1.7c-1,0-2.4,1.4-2.4,4v3.1h-0.7v-5c0-0.7-0.1-1.7-0.3-2.6h0.7c0.1,0.7,0.2,1.4,0.2,2
			c0.6-1.3,1.4-2.1,2.5-2.1c1.1,0,1.5,0.9,1.6,2.3L756.9,204.9L756.9,204.9z"/>
		<path d="M762.9,210.3v-6.9h-2.2v-0.6h2.9v7.5L762.9,210.3L762.9,210.3z M764,200.7c0,0.4-0.3,0.8-0.8,0.8c-0.4,0-0.8-0.3-0.8-0.8
			c0-0.4,0.4-0.8,0.8-0.8C763.7,199.9,764,200.3,764,200.7z"/>
		<path d="M773.3,210.3v-5c0-1.2-0.2-2-1.1-2c-1.2,0-2.5,1.3-2.5,3.9v3.1H769v-3.8c0-1,0-2.2-0.3-3.8h0.7l0.3,2
			c0.5-1.4,1.7-2.1,2.6-2.1c1.1,0,1.8,0.8,1.8,2.3v5.3H773.3z"/>
		<path d="M782.1,202.8v0.6h-2.7v4.6c0,1.2,0.3,1.7,1.1,1.7c0.9,0,1.3-0.6,1.7-1.3l0.7,0.2c-0.5,0.9-1.2,1.8-2.4,1.8
			c-1.2,0-1.8-0.8-1.8-2.4v-4.6h-1.7v-0.6h1.7v-2.4h0.7v2.4L782.1,202.8L782.1,202.8z"/>
		<path d="M788.4,203.6c0.5,0,1,0.4,1,1c0,0.5-0.4,1-1,1c-0.5,0-1-0.4-1-1C787.5,204,787.9,203.6,788.4,203.6z M787.5,211.8
			c0.7-0.3,1-0.6,1.2-1.4c0,0-0.1,0-0.1,0c0,0-0.1,0-0.2,0c-0.5,0-0.9-0.4-0.9-0.9c0-0.5,0.4-1,1-1c0.6,0,1,0.4,1,1.3
			c0,1.2-0.6,2.1-2,2.5V211.8z"/>
		<path d="M512.8,223.7h-3.4v-0.8h3.4V223.7z"/>
		<path d="M530.8,224.8c0,0.3-0.1,0.6-0.2,0.9c-0.4,1-1.3,1.6-2.5,1.6c-2,0-3.1-1.8-3.1-5.1c0-3.6,1.1-5.4,3.2-5.4
			c0.8,0,1.5,0.3,2,0.9c0.4,0.5,0.4,0.9,0.5,1.3h-0.7c-0.1-1.1-0.9-1.5-1.7-1.5c-1.6,0-2.4,1.6-2.4,4.7c0,3,0.8,4.6,2.4,4.6
			c0.9,0,1.7-0.5,1.8-1.8L530.8,224.8L530.8,224.8z"/>
		<path d="M538.5,221.7c0-0.9-0.2-1.7-0.9-1.7c-1,0-2.4,1.4-2.4,3.9v3.1h-0.7v-5c0-0.7-0.1-1.7-0.3-2.6h0.7c0.1,0.7,0.2,1.4,0.2,2
			c0.6-1.3,1.4-2.1,2.5-2.1c1.1,0,1.5,0.9,1.6,2.3L538.5,221.7L538.5,221.7z"/>
		<path d="M544.5,227.1v-6.9h-2.2v-0.6h2.9v7.5L544.5,227.1L544.5,227.1z M545.6,217.5c0,0.4-0.3,0.8-0.8,0.8
			c-0.4,0-0.8-0.3-0.8-0.8s0.3-0.8,0.8-0.8C545.3,216.7,545.6,217.1,545.6,217.5z"/>
		<path d="M555.2,225.1c0,1,0.1,1.3,0.3,2l-0.7,0.1c-0.1-0.2-0.2-0.6-0.3-1.2c-0.5,0.7-1.1,1.2-2,1.2c-1.3,0-2.1-1-2.1-2.4
			c0-1.6,0.9-2.7,2.3-2.7c0.5,0,1.2,0.2,1.7,0.5c0-1.5,0-2.5-1.4-2.5c-0.7,0-1.3,0.3-1.8,0.5l-0.2-0.7c0.6-0.2,1.2-0.5,2-0.5
			c0.8,0,1.4,0.3,1.8,0.9c0.3,0.5,0.4,1.1,0.4,1.7L555.2,225.1L555.2,225.1z M554.4,223.2c-0.5-0.3-1-0.4-1.6-0.4
			c-1.1,0-1.7,0.9-1.7,2c0,1.1,0.6,1.8,1.4,1.8c0.8,0,1.4-0.6,1.9-1.5L554.4,223.2L554.4,223.2z"/>
		<path d="M564.4,225.9c-0.6,0.7-1.3,1.3-2.5,1.3h-0.1l-0.2,0.5c0.8,0.1,1.3,0.4,1.3,1c0,0.6-0.6,1.1-1.3,1.1
			c-0.5,0-0.9-0.2-1.4-0.4l0.2-0.5c0.3,0.1,0.7,0.3,1,0.3c0.3,0,0.7-0.2,0.7-0.4c0-0.3-0.3-0.4-0.8-0.4c-0.2,0-0.4,0-0.6,0l0.4-1.2
			c-1.7-0.4-2.5-1.7-2.5-3.8c0-2.6,1.3-4,3.1-4c1.4,0,2.1,0.8,2.6,1.6l-0.6,0.4c-0.4-0.6-0.8-1.3-2-1.3c-1.4,0-2.3,1.1-2.3,3.2
			c0,2.2,1,3.3,2.4,3.3c0.9,0,1.5-0.5,2-1.2L564.4,225.9z"/>
		<path d="M572,225.1c0,1,0.1,1.3,0.3,2l-0.7,0.1c-0.1-0.2-0.2-0.6-0.3-1.2c-0.5,0.7-1.1,1.2-2,1.2c-1.3,0-2.1-1-2.1-2.4
			c0-1.6,0.9-2.7,2.3-2.7c0.5,0,1.2,0.2,1.7,0.5c0-1.5,0-2.5-1.4-2.5c-0.7,0-1.3,0.3-1.8,0.5l-0.2-0.7c0.6-0.2,1.2-0.5,2-0.5
			c0.8,0,1.4,0.3,1.8,0.9c0.3,0.5,0.4,1.1,0.4,1.7L572,225.1L572,225.1z M567.3,218.3c0.4-0.8,0.8-1.4,1.6-1.4
			c0.4,0,0.8,0.2,1.2,0.4s0.7,0.4,1,0.4c0.5,0,0.7-0.4,0.9-0.8l0.6,0.2c-0.3,0.6-0.7,1.2-1.5,1.2c-0.4,0-0.8-0.2-1.2-0.4
			c-0.3-0.2-0.6-0.4-1-0.4c-0.4,0-0.7,0.4-1,1L567.3,218.3z M571.2,223.2c-0.5-0.3-1-0.4-1.6-0.4c-1.1,0-1.7,0.9-1.7,2
			c0,1.1,0.6,1.8,1.4,1.8c0.8,0,1.4-0.6,1.9-1.5L571.2,223.2L571.2,223.2z"/>
		<path d="M575.4,223.3c0-2.6,1.2-3.9,2.9-3.9c1.7,0,2.9,1.3,2.9,3.9c0,2.6-1.2,3.9-2.9,3.9C576.6,227.2,575.4,225.9,575.4,223.3z
			 M580.4,223.3c0-2.1-0.7-3.2-2.1-3.2c-1.4,0-2.1,1.1-2.1,3.2c0,2.1,0.7,3.3,2.1,3.3S580.4,225.4,580.4,223.3z"/>
		<path d="M597.6,216.7v7.7c0,1.6,0.3,2.4,0.3,2.7l-0.7,0.1l-0.3-1.1c-0.5,0.8-1,1.1-2,1.1c-1.6,0-2.9-1.4-2.9-4
			c0-2.6,1.5-3.9,3-3.9c0.7,0,1.3,0.2,1.8,0.6v-3.3L597.6,216.7L597.6,216.7z M596.8,220.8c-0.5-0.4-1-0.7-1.6-0.7
			c-1.3,0-2.4,1.1-2.4,3.2c0,2.2,1.1,3.3,2.2,3.3c0.8,0,1.3-0.5,1.8-1.5V220.8L596.8,220.8z"/>
		<path d="M600.6,223.3c0-2.6,1.2-3.9,2.9-3.9c1.7,0,2.9,1.3,2.9,3.9c0,2.6-1.2,3.9-2.9,3.9C601.8,227.2,600.6,225.9,600.6,223.3z
			 M605.6,223.3c0-2.1-0.7-3.2-2.1-3.2c-1.4,0-2.1,1.1-2.1,3.2c0,2.1,0.7,3.3,2.1,3.3C604.9,226.6,605.6,225.4,605.6,223.3z"/>
		<path d="M609.7,225.4c0.8,0.7,1.5,1.2,2.5,1.2c0.8,0,1.5-0.5,1.5-1.3c0-0.7-0.4-1.2-1.2-1.5c-1.5-0.6-2.8-1-2.8-2.4
			c0-1,1-1.9,2.2-1.9c1,0,1.7,0.4,2.3,0.8l-0.3,0.6c-0.6-0.4-1.2-0.8-2-0.8c-0.7,0-1.4,0.6-1.4,1.3c0,1.8,4,1.2,4,3.9
			c0,1.2-1,2-2.3,2c-0.8,0-1.8-0.4-2.8-1.2L609.7,225.4z"/>
		<path d="M630.9,219.6v0.6h-2.7v4.6c0,1.2,0.3,1.7,1.1,1.7c0.9,0,1.3-0.6,1.7-1.3l0.7,0.2c-0.5,0.9-1.2,1.8-2.4,1.8
			c-1.2,0-1.8-0.8-1.8-2.4v-4.6h-1.7v-0.6h1.7v-2.4h0.7v2.4H630.9z"/>
		<path d="M635,223.5c0.2,1.9,0.7,3.1,2.3,3.1c0.9,0,1.7-0.4,2.4-0.7l0.3,0.7c-0.8,0.3-1.7,0.7-2.7,0.7c-1.9,0-3-1.5-3-3.9
			s1.2-3.9,3.1-3.9c1.5,0,2.5,1.2,2.7,3.2c0,0.3,0,0.6,0.1,0.9L635,223.5L635,223.5z M639.3,222.8c0-1.8-1-2.8-2.1-2.8
			c-1.1,0-2.2,1-2.2,2.8H639.3z"/>
		<path d="M643.3,225.4c0.8,0.7,1.5,1.2,2.5,1.2c0.8,0,1.5-0.5,1.5-1.3c0-0.7-0.4-1.2-1.2-1.5c-1.5-0.6-2.8-1-2.8-2.4
			c0-1,1-1.9,2.2-1.9c1,0,1.7,0.4,2.3,0.8l-0.3,0.6c-0.6-0.4-1.2-0.8-2-0.8c-0.7,0-1.4,0.6-1.4,1.3c0,1.8,4,1.2,4,3.9
			c0,1.2-1,2-2.3,2c-0.8,0-1.8-0.4-2.8-1.2L643.3,225.4z"/>
		<path d="M656.1,219.6v0.6h-2.7v4.6c0,1.2,0.3,1.7,1.1,1.7c0.9,0,1.3-0.6,1.7-1.3l0.7,0.2c-0.5,0.9-1.2,1.8-2.4,1.8
			c-1.2,0-1.8-0.8-1.8-2.4v-4.6h-1.7v-0.6h1.7v-2.4h0.7v2.4H656.1z"/>
		<path d="M660.2,223.5c0.2,1.9,0.7,3.1,2.3,3.1c0.9,0,1.7-0.4,2.4-0.7l0.3,0.7c-0.8,0.3-1.7,0.7-2.7,0.7c-1.9,0-3-1.5-3-3.9
			s1.2-3.9,3.1-3.9c1.5,0,2.5,1.2,2.7,3.2c0,0.3,0,0.6,0.1,0.9L660.2,223.5L660.2,223.5z M664.5,222.8c0-1.8-1-2.8-2.1-2.8
			c-1.1,0-2.2,1-2.2,2.8H664.5z"/>
		<path d="M668.5,225.4c0.8,0.7,1.5,1.2,2.5,1.2c0.8,0,1.5-0.5,1.5-1.3c0-0.7-0.4-1.2-1.2-1.5c-1.5-0.6-2.8-1-2.8-2.4
			c0-1,1-1.9,2.2-1.9c1,0,1.7,0.4,2.3,0.8l-0.3,0.6c-0.6-0.4-1.2-0.8-2-0.8c-0.7,0-1.4,0.6-1.4,1.3c0,1.8,4,1.2,4,3.9
			c0,1.2-1,2-2.3,2c-0.8,0-1.8-0.4-2.8-1.2L668.5,225.4z"/>
		<path d="M690,216.7v7.7c0,1.6,0.3,2.4,0.4,2.7l-0.7,0.1l-0.3-1.1c-0.5,0.8-1,1.1-2,1.1c-1.6,0-2.9-1.4-2.9-4c0-2.6,1.5-3.9,3-3.9
			c0.7,0,1.3,0.2,1.8,0.6v-3.3L690,216.7L690,216.7z M689.2,220.8c-0.5-0.4-1-0.7-1.6-0.7c-1.3,0-2.4,1.1-2.4,3.2
			c0,2.2,1.1,3.3,2.2,3.3c0.8,0,1.3-0.5,1.8-1.5V220.8z"/>
		<path d="M693.8,223.5c0.2,1.9,0.7,3.1,2.3,3.1c0.9,0,1.7-0.4,2.4-0.7l0.3,0.7c-0.8,0.3-1.7,0.7-2.7,0.7c-1.9,0-3-1.5-3-3.9
			s1.2-3.9,3.1-3.9c1.5,0,2.5,1.2,2.7,3.2c0,0.3,0,0.6,0.1,0.9L693.8,223.5L693.8,223.5z M698.1,222.8c0-1.8-1-2.8-2.1-2.8
			c-1.1,0-2.2,1-2.2,2.8H698.1z"/>
		<path d="M714.7,225.1c0,1,0.1,1.3,0.3,2l-0.7,0.1c-0.1-0.2-0.2-0.6-0.3-1.2c-0.5,0.7-1.1,1.2-2,1.2c-1.3,0-2.1-1-2.1-2.4
			c0-1.6,0.9-2.7,2.3-2.7c0.5,0,1.2,0.2,1.7,0.5c0-1.5,0-2.5-1.4-2.5c-0.7,0-1.3,0.3-1.8,0.5l-0.2-0.7c0.6-0.2,1.2-0.5,2-0.5
			c0.8,0,1.4,0.3,1.8,0.9c0.3,0.5,0.4,1.1,0.4,1.7L714.7,225.1L714.7,225.1z M714,223.2c-0.5-0.3-1-0.4-1.6-0.4
			c-1.1,0-1.7,0.9-1.7,2c0,1.1,0.6,1.8,1.4,1.8c0.8,0,1.4-0.6,1.9-1.5L714,223.2L714,223.2z"/>
		<path d="M723.5,221.4c-0.6-0.8-1.3-1.3-2-1.3c-1.4,0-2.3,1.1-2.3,3.2c0,2.2,1,3.3,2.4,3.3c0.7,0,1.4-0.5,2-1.2l0.5,0.5
			c-0.7,0.7-1.3,1.3-2.5,1.3c-1.8,0-3.1-1.3-3.1-3.8c0-2.6,1.3-4,3.1-4c1.4,0,2.1,0.8,2.6,1.6L723.5,221.4z"/>
		<path d="M727.4,223.5c0.2,1.9,0.7,3.1,2.3,3.1c0.9,0,1.7-0.4,2.4-0.7l0.3,0.7c-0.8,0.3-1.7,0.7-2.7,0.7c-1.9,0-3-1.5-3-3.9
			s1.2-3.9,3.1-3.9c1.5,0,2.5,1.2,2.7,3.2c0,0.3,0,0.6,0.1,0.9L727.4,223.5L727.4,223.5z M731.7,222.8c0-1.8-1-2.8-2.1-2.8
			c-1.1,0-2.2,1-2.2,2.8H731.7z"/>
		<path d="M737.7,227.1v-6.9h-2.2v-0.6h2.9v7.5L737.7,227.1L737.7,227.1z M738.8,217.5c0,0.4-0.3,0.8-0.8,0.8
			c-0.4,0-0.8-0.3-0.8-0.8s0.3-0.8,0.8-0.8C738.5,216.7,738.8,217.1,738.8,217.5z"/>
		<path d="M748.5,219.6v0.6h-2.7v4.6c0,1.2,0.3,1.7,1.1,1.7c0.9,0,1.3-0.6,1.7-1.3l0.7,0.2c-0.5,0.9-1.2,1.8-2.4,1.8
			c-1.2,0-1.8-0.8-1.8-2.4v-4.6h-1.7v-0.6h1.7v-2.4h0.7v2.4H748.5z"/>
		<path d="M756.7,225.1c0,1,0.1,1.3,0.3,2l-0.7,0.1c-0.1-0.2-0.2-0.6-0.3-1.2c-0.5,0.7-1.1,1.2-2,1.2c-1.3,0-2.1-1-2.1-2.4
			c0-1.6,0.9-2.7,2.3-2.7c0.5,0,1.2,0.2,1.7,0.5c0-1.5,0-2.5-1.4-2.5c-0.7,0-1.3,0.3-1.8,0.5l-0.2-0.7c0.6-0.2,1.2-0.5,2-0.5
			c0.8,0,1.4,0.3,1.8,0.9c0.3,0.5,0.4,1.1,0.4,1.7L756.7,225.1L756.7,225.1z M756,223.2c-0.5-0.3-1-0.4-1.6-0.4
			c-1.1,0-1.7,0.9-1.7,2c0,1.1,0.6,1.8,1.4,1.8c0.8,0,1.4-0.6,1.9-1.5V223.2z"/>
		<path d="M766,225.9c-0.6,0.7-1.3,1.3-2.5,1.3h-0.1l-0.2,0.5c0.8,0.1,1.3,0.4,1.3,1c0,0.6-0.6,1.1-1.3,1.1c-0.5,0-0.9-0.2-1.4-0.4
			l0.2-0.5c0.3,0.1,0.7,0.3,1,0.3c0.3,0,0.7-0.2,0.7-0.4c0-0.3-0.3-0.4-0.8-0.4c-0.2,0-0.4,0-0.6,0l0.4-1.2
			c-1.7-0.4-2.5-1.7-2.5-3.8c0-2.6,1.3-4,3.1-4c1.4,0,2.1,0.8,2.6,1.6l-0.6,0.4c-0.4-0.6-0.8-1.3-2-1.3c-1.4,0-2.3,1.1-2.3,3.2
			c0,2.2,1,3.3,2.4,3.3c0.9,0,1.5-0.5,2-1.2L766,225.9z"/>
		<path d="M773.5,225.1c0,1,0.1,1.3,0.3,2l-0.7,0.1c-0.1-0.2-0.2-0.6-0.3-1.2c-0.5,0.7-1.1,1.2-2,1.2c-1.3,0-2.1-1-2.1-2.4
			c0-1.6,0.9-2.7,2.3-2.7c0.5,0,1.2,0.2,1.7,0.5c0-1.5,0-2.5-1.4-2.5c-0.7,0-1.3,0.3-1.8,0.5l-0.2-0.7c0.6-0.2,1.2-0.5,2-0.5
			s1.4,0.3,1.8,0.9c0.3,0.5,0.4,1.1,0.4,1.7L773.5,225.1L773.5,225.1z M768.9,218.3c0.4-0.8,0.8-1.4,1.6-1.4c0.4,0,0.8,0.2,1.2,0.4
			c0.4,0.2,0.7,0.4,1,0.4c0.5,0,0.7-0.4,0.9-0.8l0.6,0.2c-0.3,0.6-0.7,1.2-1.5,1.2c-0.4,0-0.8-0.2-1.2-0.4c-0.3-0.2-0.6-0.4-1-0.4
			c-0.4,0-0.7,0.4-1,1L768.9,218.3z M772.8,223.2c-0.5-0.3-1-0.4-1.6-0.4c-1.1,0-1.7,0.9-1.7,2c0,1.1,0.6,1.8,1.4,1.8
			c0.8,0,1.4-0.6,1.9-1.5V223.2z"/>
		<path d="M777,223.3c0-2.6,1.2-3.9,2.9-3.9c1.7,0,2.9,1.3,2.9,3.9c0,2.6-1.2,3.9-2.9,3.9C778.2,227.2,777,225.9,777,223.3z
			 M782,223.3c0-2.1-0.7-3.2-2.1-3.2c-1.4,0-2.1,1.1-2.1,3.2c0,2.1,0.7,3.3,2.1,3.3S782,225.4,782,223.3z"/>
		<path d="M788.3,225.3c0.5,0,1,0.5,1,1c0,0.5-0.5,1-1,1c-0.5,0-1-0.4-1-1C787.3,225.7,787.8,225.3,788.3,225.3z"/>
	</g>
</g>
<g>
	<g>
		<path d="M910.8,168.1v-10.2h2.4c1.7,0,2.7,1.1,2.7,2.8c0,1.3-0.6,2.3-1.9,2.8l2.7,4.5h-0.9l-2.5-4.4h-1.8v4.4L910.8,168.1
			L910.8,168.1z M911.6,158.6v4.5h1.4c1,0,2.2-0.7,2.2-2.4c0-1.5-0.8-2.2-2.1-2.2H911.6z"/>
		<path d="M924.3,157.9v0.6h-4.3v4h3.1v0.6h-3.1v4.3h4.4v0.6h-5.1v-10.2L924.3,157.9L924.3,157.9z"/>
		<path d="M927.9,157.9v7.4c0,1.5,0.6,2.3,1.9,2.3c1.2,0,2-0.8,2-2.3v-7.4h0.7v7.6c0,1.7-1,2.8-2.7,2.8c-1.7,0-2.7-1.1-2.7-2.8v-7.6
			H927.9z"/>
		<path d="M935.7,157.9h1l3.4,8.5v-8.5h0.7v10.3h-0.7l-3.7-9.2v9.1h-0.7V157.9z"/>
		<path d="M948.4,157.9v0.6H947v8.9h1.4v0.6h-3.5v-0.6h1.4v-8.9h-1.4v-0.6H948.4z"/>
		<path d="M953.3,165l-0.8,3.1h-0.8l2.8-10.2h1l2.9,10.2h-0.8l-0.8-3.1H953.3z M952.4,156.7c0.4-0.8,0.8-1.4,1.6-1.4
			c0.4,0,0.8,0.2,1.2,0.4c0.4,0.2,0.7,0.4,1,0.4c0.5,0,0.7-0.4,0.9-0.8l0.6,0.2c-0.3,0.6-0.7,1.2-1.5,1.2c-0.4,0-0.8-0.2-1.2-0.4
			c-0.3-0.2-0.6-0.4-1-0.4c-0.4,0-0.7,0.4-1,1L952.4,156.7z M956.6,164.4l-1.6-5.7l-1.6,5.7H956.6z"/>
		<path d="M966.5,163c0,3.4-0.7,5.3-3,5.3s-3-1.9-3-5.3c0-3.3,0.7-5.3,3-5.3C965.8,157.7,966.5,159.6,966.5,163z M965.7,163
			c0-3.2-0.7-4.6-2.2-4.6c-1.6,0-2.2,1.4-2.2,4.6c0,3.2,0.7,4.6,2.2,4.6C965,167.6,965.7,166.2,965.7,163z"/>
		<path d="M977.7,168.1v-10.2h2.4c2.3,0,3.3,1.5,3.3,5.1c0,3.5-1,5.1-3.3,5.1H977.7z M978.5,158.6v8.9h1.2c2.1,0,2.9-0.9,2.9-4.4
			c0-3.7-0.9-4.4-2.9-4.4L978.5,158.6L978.5,158.6z"/>
		<path d="M991.5,157.9v0.6h-4.3v4h3.1v0.6h-3.1v4.3h4.4v0.6h-5.1v-10.2L991.5,157.9L991.5,157.9z"/>
		<path d="M1004.7,162.7c-1.2-0.7-1.8-1.4-1.8-2.5c0-1.5,1.1-2.4,2.6-2.4c1.1,0,1.9,0.5,2.6,1.2l-0.4,0.5c-0.7-0.6-1.4-1.1-2.2-1.1
			c-1,0-1.8,0.7-1.8,1.7c0,0.9,0.5,1.4,1.6,2l0.8,0.5c1.5,0.9,2.3,1.4,2.3,2.8c0,1.7-1.1,2.8-2.9,2.8c-1.5,0-2.3-0.8-2.9-1.5
			l0.6-0.5c0.6,0.7,1.2,1.3,2.3,1.3c1.1,0,2.1-0.8,2.1-2.1c0-0.9-0.4-1.3-1.9-2.3L1004.7,162.7z"/>
		<path d="M1011.6,168.1v-10.2h2.3c1.8,0,2.8,1.1,2.8,3s-1,3-2.8,3h-1.6v4.1H1011.6z M1012.4,163.3h1.5c1.2,0,2.1-0.7,2.1-2.4
			c0-1.7-0.9-2.4-2.1-2.4h-1.5V163.3z"/>
		<path d="M1020,168.1v-10.2h2.4c1.7,0,2.7,1.1,2.7,2.8c0,1.3-0.6,2.3-1.9,2.8l2.7,4.5h-0.9l-2.5-4.4h-1.8v4.4L1020,168.1
			L1020,168.1z M1020.8,158.6v4.5h1.4c1,0,2.2-0.7,2.2-2.4c0-1.5-0.8-2.2-2.1-2.2H1020.8z"/>
		<path d="M1032.4,157.9v0.6h-1.4v8.9h1.4v0.6h-3.5v-0.6h1.4v-8.9h-1.4v-0.6H1032.4z"/>
		<path d="M1036.5,157.9h1l3.4,8.5v-8.5h0.7v10.3h-0.7l-3.7-9.2v9.1h-0.7V157.9z"/>
		<path d="M1050.7,157.9v0.6h-2.9v9.5h-0.7v-9.5h-2.9v-0.6H1050.7z"/>
		<path d="M1062,168.1v-10.2h2.4c1.7,0,2.7,1.1,2.7,2.8c0,1.3-0.6,2.3-1.9,2.8l2.7,4.5h-0.9l-2.5-4.4h-1.8v4.4L1062,168.1
			L1062,168.1z M1062.8,158.6v4.5h1.4c1,0,2.2-0.7,2.2-2.4c0-1.5-0.8-2.2-2.1-2.2H1062.8z"/>
		<path d="M1075.5,157.9v0.6h-4.3v4h3.1v0.6h-3.1v4.3h4.4v0.6h-5.1v-10.2L1075.5,157.9L1075.5,157.9z"/>
		<path d="M1081.1,167.5l2-9.6h0.8l-2.2,10.3h-1.1l-2.3-10.3h0.8L1081.1,167.5z"/>
		<path d="M1091.2,157.9v0.6h-1.4v8.9h1.4v0.6h-3.5v-0.6h1.4v-8.9h-1.4v-0.6H1091.2z"/>
		<path d="M1100.7,157.9v0.6h-4.3v4h3.1v0.6h-3.1v4.3h4.4v0.6h-5.1v-10.2L1100.7,157.9L1100.7,157.9z"/>
		<path d="M1106.2,161.2l1.8,5.7l0.6-9h0.8l-0.8,10.3h-1l-1.4-5l-1.4,5h-0.9l-0.8-10.3h0.8l0.6,9L1106.2,161.2z"/>
	</g>
	<g>
		<path d="M914.7,190.1h-3.4v-0.8h3.4V190.1z"/>
		<path d="M927.3,193.5v-10.2h2.4c2.3,0,3.3,1.5,3.3,5.1c0,3.5-1,5.1-3.3,5.1H927.3z M928.1,183.9v8.9h1.2c2.1,0,2.9-0.9,2.9-4.4
			c0-3.7-0.9-4.4-2.9-4.4L928.1,183.9L928.1,183.9z"/>
		<path d="M936.1,189.9c0.2,1.9,0.7,3.1,2.3,3.1c0.9,0,1.7-0.4,2.4-0.7l0.3,0.7c-0.8,0.3-1.7,0.7-2.7,0.7c-1.9,0-3-1.5-3-3.9
			s1.2-3.9,3.1-3.9c1.5,0,2.5,1.2,2.7,3.2c0,0.3,0,0.6,0.1,0.9L936.1,189.9L936.1,189.9z M940.4,189.2c0-1.8-1-2.8-2.1-2.8
			c-1.1,0-2.2,1-2.2,2.8H940.4z"/>
		<path d="M947.1,193.5h-0.7v-5.7c0-0.8-0.2-1.3-0.7-1.3c-0.5,0-1,0.3-1.4,1.1v6h-0.7v-5.2c0-1.3-0.2-2-0.3-2.4h0.8l0.2,0.9
			c0.5-0.6,1-0.9,1.7-0.9c0.6,0,0.9,0.4,1.2,0.9c0.4-0.5,0.9-0.9,1.6-0.9c0.9,0,1.5,0.6,1.5,1.6v6h-0.7v-6c0-0.6-0.3-1-0.8-1
			c-0.5,0-0.9,0.3-1.3,0.9L947.1,193.5L947.1,193.5z"/>
		<path d="M952.2,189.7c0-2.6,1.2-3.9,2.9-3.9c1.7,0,2.9,1.3,2.9,3.9c0,2.6-1.2,3.9-2.9,3.9C953.4,193.6,952.2,192.3,952.2,189.7z
			 M957.2,189.7c0-2.1-0.7-3.2-2.1-3.2c-1.4,0-2.1,1.1-2.1,3.2c0,2.1,0.7,3.3,2.1,3.3S957.2,191.8,957.2,189.7z"/>
		<path d="M965.2,193.5v-5c0-1.2-0.2-2-1.1-2c-1.2,0-2.5,1.3-2.5,3.9v3.1h-0.7v-3.8c0-1,0-2.2-0.3-3.8h0.7l0.3,2
			c0.5-1.4,1.7-2.1,2.6-2.1c1.1,0,1.8,0.8,1.8,2.3v5.3L965.2,193.5L965.2,193.5z"/>
		<path d="M969.6,191.8c0.8,0.7,1.5,1.2,2.5,1.2c0.8,0,1.5-0.5,1.5-1.3c0-0.7-0.4-1.2-1.2-1.5c-1.5-0.6-2.8-1-2.8-2.4
			c0-1,1-1.9,2.2-1.9c1,0,1.7,0.4,2.3,0.8l-0.3,0.6c-0.6-0.4-1.2-0.8-2-0.8c-0.7,0-1.4,0.6-1.4,1.3c0,1.8,4,1.2,4,3.9
			c0,1.2-1,2-2.3,2c-0.8,0-1.8-0.4-2.8-1.2L969.6,191.8z"/>
		<path d="M982.4,186v0.6h-2.7v4.6c0,1.2,0.3,1.7,1.1,1.7c0.9,0,1.3-0.6,1.7-1.3l0.7,0.2c-0.5,0.9-1.2,1.8-2.4,1.8
			c-1.2,0-1.8-0.8-1.8-2.4v-4.6h-1.7V186h1.7v-2.4h0.7v2.4H982.4z"/>
		<path d="M990.8,188.1c0-0.9-0.2-1.7-0.9-1.7c-1,0-2.4,1.4-2.4,3.9v3.1h-0.7v-5c0-0.7-0.1-1.7-0.3-2.6h0.7c0.1,0.7,0.2,1.4,0.2,2
			c0.6-1.3,1.4-2.1,2.5-2.1c1.1,0,1.5,0.9,1.6,2.3L990.8,188.1L990.8,188.1z"/>
		<path d="M999.1,191.5c0,1,0.1,1.3,0.3,2l-0.7,0.1c-0.1-0.2-0.2-0.6-0.3-1.2c-0.5,0.7-1.1,1.2-2,1.2c-1.3,0-2.1-1-2.1-2.4
			c0-1.6,0.9-2.7,2.3-2.7c0.5,0,1.2,0.2,1.7,0.5c0-1.5,0-2.5-1.4-2.5c-0.7,0-1.3,0.3-1.8,0.5l-0.2-0.7c0.6-0.2,1.2-0.5,2-0.5
			s1.4,0.3,1.8,0.9c0.3,0.5,0.3,1.1,0.3,1.7L999.1,191.5L999.1,191.5z M998.4,189.6c-0.5-0.3-1-0.4-1.6-0.4c-1.1,0-1.7,0.9-1.7,2
			c0,1.1,0.6,1.8,1.4,1.8c0.8,0,1.4-0.6,1.9-1.5V189.6z"/>
		<path d="M1008.4,192.3c-0.6,0.7-1.3,1.3-2.5,1.3h-0.1l-0.2,0.5c0.8,0.1,1.3,0.4,1.3,1c0,0.6-0.6,1.1-1.3,1.1
			c-0.5,0-0.9-0.2-1.4-0.4l0.2-0.5c0.3,0.1,0.7,0.3,1,0.3c0.3,0,0.7-0.2,0.7-0.4c0-0.3-0.3-0.4-0.8-0.4c-0.2,0-0.4,0-0.6,0l0.4-1.2
			c-1.7-0.4-2.5-1.7-2.5-3.8c0-2.6,1.3-4,3.1-4c1.4,0,2.1,0.8,2.6,1.6l-0.6,0.4c-0.4-0.6-0.8-1.3-2-1.3c-1.4,0-2.3,1.1-2.3,3.2
			c0,2.2,1,3.3,2.4,3.3c0.9,0,1.5-0.5,2-1.2L1008.4,192.3z"/>
		<path d="M1015.9,191.5c0,1,0.1,1.3,0.3,2l-0.7,0.1c-0.1-0.2-0.2-0.6-0.3-1.2c-0.5,0.7-1.1,1.2-2,1.2c-1.3,0-2.1-1-2.1-2.4
			c0-1.6,0.9-2.7,2.3-2.7c0.5,0,1.2,0.2,1.7,0.5c0-1.5,0-2.5-1.4-2.5c-0.7,0-1.3,0.3-1.8,0.5l-0.2-0.7c0.6-0.2,1.2-0.5,2-0.5
			s1.4,0.3,1.8,0.9c0.3,0.5,0.3,1.1,0.3,1.7L1015.9,191.5L1015.9,191.5z M1011.2,184.7c0.4-0.8,0.8-1.4,1.6-1.4
			c0.4,0,0.8,0.2,1.2,0.4s0.7,0.4,1,0.4c0.5,0,0.7-0.4,0.9-0.8l0.6,0.2c-0.3,0.6-0.7,1.2-1.5,1.2c-0.4,0-0.8-0.2-1.2-0.4
			c-0.3-0.2-0.6-0.4-1-0.4c-0.4,0-0.7,0.4-1,1L1011.2,184.7z M1015.2,189.6c-0.5-0.3-1-0.4-1.6-0.4c-1.1,0-1.7,0.9-1.7,2
			c0,1.1,0.6,1.8,1.4,1.8c0.8,0,1.4-0.6,1.9-1.5V189.6z"/>
		<path d="M1019.4,189.7c0-2.6,1.2-3.9,2.9-3.9c1.7,0,2.9,1.3,2.9,3.9c0,2.6-1.2,3.9-2.9,3.9
			C1020.6,193.6,1019.4,192.3,1019.4,189.7z M1024.4,189.7c0-2.1-0.7-3.2-2.1-3.2c-1.4,0-2.1,1.1-2.1,3.2c0,2.1,0.7,3.3,2.1,3.3
			S1024.4,191.8,1024.4,189.7z"/>
		<path d="M1041.5,183.1v7.7c0,1.6,0.3,2.4,0.4,2.7l-0.7,0.1l-0.3-1.1c-0.5,0.8-1,1.1-2,1.1c-1.6,0-2.9-1.4-2.9-4
			c0-2.6,1.5-3.9,3-3.9c0.7,0,1.3,0.2,1.8,0.6v-3.3L1041.5,183.1L1041.5,183.1z M1040.8,187.2c-0.5-0.4-1-0.7-1.6-0.7
			c-1.3,0-2.4,1.1-2.4,3.2c0,2.2,1.1,3.3,2.2,3.3c0.8,0,1.3-0.5,1.8-1.5L1040.8,187.2L1040.8,187.2z"/>
		<path d="M1044.6,189.7c0-2.6,1.2-3.9,2.9-3.9c1.7,0,2.9,1.3,2.9,3.9c0,2.6-1.2,3.9-2.9,3.9
			C1045.8,193.6,1044.6,192.3,1044.6,189.7z M1049.6,189.7c0-2.1-0.7-3.2-2.1-3.2c-1.4,0-2.1,1.1-2.1,3.2c0,2.1,0.7,3.3,2.1,3.3
			S1049.6,191.8,1049.6,189.7z"/>
		<path d="M1066.7,196.4h-0.7V193c-0.5,0.4-1.1,0.6-1.8,0.6c-1.4,0-3-1.3-3-3.9c0-2.6,1.3-3.9,2.9-3.9c0.9,0,1.5,0.4,2,1.2l0.3-1.2
			l0.7,0.1c-0.3,1.1-0.3,1.8-0.3,2.7V196.4z M1066,187.9c-0.4-0.9-0.9-1.5-1.8-1.5c-1.1,0-2.2,1.1-2.2,3.3c0,2.2,1.1,3.2,2.4,3.2
			c0.6,0,1.1-0.3,1.6-0.7V187.9L1066,187.9z"/>
		<path d="M1074.5,191.5c-0.5,1.5-1.7,2.2-2.6,2.2c-1.3,0-1.8-1.1-1.8-2.7v-5h0.7v5c0,1.2,0.3,2,1.1,2c1.2,0,2.5-1.4,2.5-4v-3h0.7
			v3.7c0,0.9,0,2.1,0.3,3.8h-0.7L1074.5,191.5z"/>
		<path d="M1078.9,189.9c0.2,1.9,0.7,3.1,2.3,3.1c0.9,0,1.7-0.4,2.4-0.7l0.3,0.7c-0.8,0.3-1.7,0.7-2.7,0.7c-1.9,0-3-1.5-3-3.9
			s1.2-3.9,3.1-3.9c1.5,0,2.5,1.2,2.7,3.2c0,0.3,0,0.6,0.1,0.9L1078.9,189.9L1078.9,189.9z M1083.2,189.2c0-1.8-1-2.8-2.1-2.8
			c-1.1,0-2.2,1-2.2,2.8H1083.2z"/>
		<path d="M1097,185.7c0-1.6,0.8-2.6,2.2-2.6c0.6,0,1.2,0.2,1.8,0.5v0.8c-0.8-0.4-1.2-0.6-1.8-0.6c-1.1,0-1.5,0.8-1.5,1.9v0.9h2.5
			v0.6h-2.5v6.3h-0.7v-6.3h-1.9v-0.6h1.9V185.7z"/>
		<path d="M1103.4,189.7c0-2.6,1.2-3.9,2.9-3.9c1.7,0,2.9,1.3,2.9,3.9c0,2.6-1.2,3.9-2.9,3.9
			C1104.6,193.6,1103.4,192.3,1103.4,189.7z M1108.4,189.7c0-2.1-0.7-3.2-2.1-3.2c-1.4,0-2.1,1.1-2.1,3.2c0,2.1,0.7,3.3,2.1,3.3
			C1107.6,193,1108.4,191.8,1108.4,189.7z"/>
		<path d="M1114.4,193.5v-6.9h-2.2V186h2.9v7.5L1114.4,193.5L1114.4,193.5z M1115.6,183.9c0,0.4-0.3,0.8-0.8,0.8
			c-0.4,0-0.8-0.3-0.8-0.8s0.4-0.8,0.8-0.8C1115.2,183.1,1115.6,183.5,1115.6,183.9z"/>
		<path d="M1133.9,183.1v7.7c0,1.6,0.3,2.4,0.4,2.7l-0.7,0.1l-0.3-1.1c-0.5,0.8-1,1.1-2,1.1c-1.6,0-2.9-1.4-2.9-4
			c0-2.6,1.5-3.9,3-3.9c0.7,0,1.3,0.2,1.8,0.6v-3.3L1133.9,183.1L1133.9,183.1z M1133.2,187.2c-0.5-0.4-1-0.7-1.6-0.7
			c-1.3,0-2.4,1.1-2.4,3.2c0,2.2,1.1,3.3,2.2,3.3c0.8,0,1.3-0.5,1.8-1.5L1133.2,187.2L1133.2,187.2z"/>
		<path d="M1137.7,189.9c0.2,1.9,0.7,3.1,2.3,3.1c0.9,0,1.7-0.4,2.4-0.7l0.3,0.7c-0.8,0.3-1.7,0.7-2.7,0.7c-1.9,0-3-1.5-3-3.9
			s1.2-3.9,3.1-3.9c1.5,0,2.5,1.2,2.7,3.2c0,0.3,0,0.6,0.1,0.9L1137.7,189.9L1137.7,189.9z M1142,189.2c0-1.8-1-2.8-2.1-2.8
			c-1.1,0-2.2,1-2.2,2.8H1142z"/>
		<path d="M1146,191.8c0.8,0.7,1.5,1.2,2.5,1.2c0.8,0,1.5-0.5,1.5-1.3c0-0.7-0.4-1.2-1.2-1.5c-1.5-0.6-2.8-1-2.8-2.4
			c0-1,1-1.9,2.2-1.9c1,0,1.7,0.4,2.3,0.8l-0.3,0.6c-0.6-0.4-1.2-0.8-2-0.8c-0.7,0-1.4,0.6-1.4,1.3c0,1.8,4,1.2,4,3.9
			c0,1.2-1,2-2.3,2c-0.8,0-1.8-0.4-2.8-1.2L1146,191.8z"/>
		<path d="M1154.5,189.9c0.2,1.9,0.7,3.1,2.3,3.1c0.9,0,1.7-0.4,2.4-0.7l0.3,0.7c-0.8,0.3-1.7,0.7-2.7,0.7c-1.9,0-3-1.5-3-3.9
			s1.2-3.9,3.1-3.9c1.5,0,2.5,1.2,2.7,3.2c0,0.3,0,0.6,0.1,0.9L1154.5,189.9L1154.5,189.9z M1158.8,189.2c0-1.8-1-2.8-2.1-2.8
			c-1.1,0-2.2,1-2.2,2.8H1158.8z"/>
		<path d="M1166.8,193.5v-5c0-1.2-0.2-2-1.1-2c-1.2,0-2.5,1.3-2.5,3.9v3.1h-0.7v-3.8c0-1,0-2.2-0.3-3.8h0.7l0.3,2
			c0.5-1.4,1.7-2.1,2.6-2.1c1.1,0,1.8,0.8,1.8,2.3v5.3L1166.8,193.5L1166.8,193.5z"/>
		<path d="M1175.5,186h0.7l-2.4,7.6h-0.8l-2.4-7.6h0.7l2,6.5L1175.5,186z"/>
		<path d="M1179,189.7c0-2.6,1.2-3.9,2.9-3.9c1.7,0,2.9,1.3,2.9,3.9c0,2.6-1.2,3.9-2.9,3.9C1180.2,193.6,1179,192.3,1179,189.7z
			 M1184,189.7c0-2.1-0.7-3.2-2.1-3.2c-1.4,0-2.1,1.1-2.1,3.2c0,2.1,0.7,3.3,2.1,3.3S1184,191.8,1184,189.7z"/>
		<path d="M1189.9,193.5v-9.7h-2.2v-0.6h2.9v10.4L1189.9,193.5L1189.9,193.5z"/>
		<path d="M1200.7,186h0.7l-2.4,7.6h-0.8l-2.4-7.6h0.7l2,6.5L1200.7,186z"/>
		<path d="M1206.8,193.5v-6.9h-2.2V186h2.9v7.5L1206.8,193.5L1206.8,193.5z M1208,183.9c0,0.4-0.3,0.8-0.8,0.8
			c-0.4,0-0.8-0.3-0.8-0.8s0.4-0.8,0.8-0.8C1207.6,183.1,1208,183.5,1208,183.9z"/>
		<path d="M1217.9,183.1v7.7c0,1.6,0.3,2.4,0.4,2.7l-0.7,0.1l-0.3-1.1c-0.5,0.8-1,1.1-2,1.1c-1.6,0-2.9-1.4-2.9-4
			c0-2.6,1.5-3.9,3-3.9c0.7,0,1.3,0.2,1.8,0.6v-3.3L1217.9,183.1L1217.9,183.1z M1217.2,187.2c-0.5-0.4-1-0.7-1.6-0.7
			c-1.3,0-2.4,1.1-2.4,3.2c0,2.2,1.1,3.3,2.2,3.3c0.8,0,1.3-0.5,1.8-1.5L1217.2,187.2L1217.2,187.2z"/>
		<path d="M1221,189.7c0-2.6,1.2-3.9,2.9-3.9c1.7,0,2.9,1.3,2.9,3.9c0,2.6-1.2,3.9-2.9,3.9C1222.2,193.6,1221,192.3,1221,189.7z
			 M1226,189.7c0-2.1-0.7-3.2-2.1-3.2c-1.4,0-2.1,1.1-2.1,3.2c0,2.1,0.7,3.3,2.1,3.3S1226,191.8,1226,189.7z"/>
		<path d="M1232.4,186.8c0.5,0,1,0.4,1,1c0,0.5-0.4,1-1,1c-0.5,0-1-0.4-1-1C1231.4,187.2,1231.9,186.8,1232.4,186.8z M1231.4,195
			c0.7-0.3,1-0.6,1.2-1.4c0,0-0.1,0-0.1,0c0,0-0.1,0-0.2,0c-0.5,0-0.9-0.4-0.9-0.9c0-0.5,0.4-1,1-1c0.6,0,1,0.4,1,1.3
			c0,1.2-0.6,2.1-2,2.5V195z"/>
		<path d="M914.7,206.9h-3.4v-0.8h3.4V206.9z"/>
		<path d="M927.6,210.3v-10.2h2.4c1.7,0,2.7,1.1,2.7,2.8c0,1.3-0.6,2.3-1.9,2.8l2.7,4.5h-0.9l-2.5-4.4h-1.8v4.4L927.6,210.3
			L927.6,210.3z M928.4,200.7v4.5h1.4c1,0,2.2-0.7,2.2-2.4c0-1.5-0.8-2.2-2.1-2.2H928.4z"/>
		<path d="M936.1,206.7c0.2,1.9,0.7,3.1,2.3,3.1c0.9,0,1.7-0.4,2.4-0.7l0.3,0.7c-0.8,0.3-1.7,0.7-2.7,0.7c-1.9,0-3-1.5-3-3.9
			s1.2-3.9,3.1-3.9c1.5,0,2.5,1.2,2.7,3.2c0,0.3,0,0.6,0.1,0.9H936.1z M940.4,206c0-1.8-1-2.8-2.1-2.8c-1.1,0-2.2,1-2.2,2.8H940.4z"
			/>
		<path d="M948.8,202.8v0.6h-2.7v4.6c0,1.2,0.3,1.7,1.1,1.7c0.9,0,1.3-0.6,1.7-1.3l0.7,0.2c-0.5,0.9-1.2,1.8-2.4,1.8
			c-1.2,0-1.8-0.8-1.8-2.4v-4.6h-1.7v-0.6h1.7v-2.4h0.7v2.4L948.8,202.8L948.8,202.8z"/>
		<path d="M957.2,204.9c0-0.9-0.2-1.7-0.9-1.7c-1,0-2.4,1.4-2.4,4v3.1h-0.7v-5c0-0.7-0.1-1.7-0.3-2.6h0.7c0.1,0.7,0.2,1.4,0.2,2
			c0.6-1.3,1.4-2.1,2.5-2.1c1.1,0,1.5,0.9,1.6,2.3L957.2,204.9L957.2,204.9z"/>
		<path d="M960.6,206.5c0-2.5,1.2-3.9,2.9-3.9c1.7,0,2.9,1.3,2.9,3.9c0,2.6-1.2,3.9-2.9,3.9C961.8,210.4,960.6,209.1,960.6,206.5z
			 M965.6,206.5c0-2.1-0.7-3.2-2.1-3.2c-1.4,0-2.1,1.1-2.1,3.2c0,2.1,0.7,3.3,2.1,3.3S965.6,208.6,965.6,206.5z"/>
		<path d="M969.6,208.6c0.8,0.7,1.5,1.2,2.5,1.2c0.8,0,1.5-0.5,1.5-1.3c0-0.7-0.4-1.2-1.2-1.5c-1.5-0.6-2.8-1-2.8-2.4
			c0-1,1-1.9,2.2-1.9c1,0,1.7,0.4,2.3,0.8l-0.3,0.6c-0.6-0.4-1.2-0.8-2-0.8c-0.7,0-1.4,0.6-1.4,1.3c0,1.8,4,1.2,4,3.9
			c0,1.2-1,2-2.3,2c-0.8,0-1.8-0.4-2.8-1.2L969.6,208.6z"/>
		<path d="M977.8,213.2v-7.8c0-1.6-0.2-2.3-0.3-2.7l0.7-0.1l0.3,1.2c0.4-0.8,1.1-1.2,2-1.2c1.6,0,2.9,1.4,2.9,4c0,2.6-1.5,3.9-3,3.9
			c-0.7,0-1.2-0.2-1.8-0.6v3.4L977.8,213.2L977.8,213.2z M978.5,209.1c0.5,0.4,1,0.7,1.6,0.7c1.3,0,2.4-1.1,2.4-3.2
			c0-2.2-1-3.3-2.2-3.3c-0.8,0-1.4,0.6-1.8,1.5L978.5,209.1L978.5,209.1z"/>
		<path d="M986.5,206.7c0.2,1.9,0.7,3.1,2.3,3.1c0.9,0,1.7-0.4,2.4-0.7l0.3,0.7c-0.8,0.3-1.7,0.7-2.7,0.7c-1.9,0-3-1.5-3-3.9
			s1.2-3.9,3.1-3.9c1.5,0,2.5,1.2,2.7,3.2c0,0.3,0,0.6,0.1,0.9H986.5z M990.8,206c0-1.8-1-2.8-2.1-2.8c-1.1,0-2.2,1-2.2,2.8H990.8z"
			/>
		<path d="M999.4,204.6c-0.6-0.8-1.3-1.3-2-1.3c-1.4,0-2.3,1.1-2.3,3.2c0,2.2,1,3.3,2.4,3.3c0.7,0,1.4-0.5,2-1.2l0.5,0.5
			c-0.7,0.7-1.3,1.3-2.5,1.3c-1.8,0-3.1-1.3-3.1-3.8c0-2.6,1.3-4,3.1-4c1.4,0,2.1,0.8,2.6,1.6L999.4,204.6z"/>
		<path d="M1007.6,202.8v0.6h-2.7v4.6c0,1.2,0.3,1.7,1.1,1.7c0.9,0,1.3-0.6,1.7-1.3l0.7,0.2c-0.5,0.9-1.2,1.8-2.4,1.8
			c-1.2,0-1.8-0.8-1.8-2.4v-4.6h-1.7v-0.6h1.7v-2.4h0.7v2.4L1007.6,202.8L1007.6,202.8z"/>
		<path d="M1013.7,210.3v-6.9h-2.2v-0.6h2.9v7.5L1013.7,210.3L1013.7,210.3z M1014.8,200.7c0,0.4-0.3,0.8-0.8,0.8
			c-0.4,0-0.8-0.3-0.8-0.8c0-0.4,0.4-0.8,0.8-0.8C1014.4,199.9,1014.8,200.3,1014.8,200.7z"/>
		<path d="M1024.3,202.8h0.7l-2.4,7.6h-0.8l-2.4-7.6h0.7l2,6.5L1024.3,202.8z"/>
		<path d="M1032.7,208.3c0,1,0.1,1.3,0.3,2l-0.7,0.1c-0.1-0.2-0.2-0.6-0.3-1.2c-0.5,0.7-1.1,1.2-2,1.2c-1.3,0-2.1-1-2.1-2.4
			c0-1.6,0.9-2.7,2.3-2.7c0.5,0,1.2,0.2,1.7,0.5c0-1.5,0-2.6-1.4-2.6c-0.7,0-1.3,0.3-1.8,0.5l-0.2-0.7c0.6-0.2,1.2-0.5,2-0.5
			s1.4,0.3,1.8,0.9c0.3,0.5,0.3,1.1,0.3,1.7L1032.7,208.3L1032.7,208.3z M1031.9,206.4c-0.5-0.3-1-0.4-1.6-0.4c-1.1,0-1.7,0.9-1.7,2
			c0,1,0.6,1.8,1.4,1.8c0.8,0,1.4-0.6,1.9-1.5V206.4z"/>
		<path d="M1049.9,199.9v7.7c0,1.6,0.3,2.4,0.4,2.7l-0.7,0.1l-0.3-1.1c-0.5,0.8-1,1.1-2,1.1c-1.6,0-2.9-1.4-2.9-3.9
			c0-2.6,1.5-3.9,3-3.9c0.7,0,1.3,0.2,1.8,0.6v-3.3H1049.9z M1049.2,204c-0.5-0.4-1-0.7-1.6-0.7c-1.3,0-2.4,1.1-2.4,3.2
			c0,2.2,1.1,3.3,2.2,3.3c0.8,0,1.3-0.5,1.8-1.5L1049.2,204L1049.2,204z"/>
		<path d="M1053,206.5c0-2.5,1.2-3.9,2.9-3.9c1.7,0,2.9,1.3,2.9,3.9c0,2.6-1.2,3.9-2.9,3.9C1054.2,210.4,1053,209.1,1053,206.5z
			 M1058,206.5c0-2.1-0.7-3.2-2.1-3.2c-1.4,0-2.1,1.1-2.1,3.2c0,2.1,0.7,3.3,2.1,3.3C1057.2,209.8,1058,208.6,1058,206.5z"/>
		<path d="M1062,208.6c0.8,0.7,1.5,1.2,2.5,1.2c0.8,0,1.5-0.5,1.5-1.3c0-0.7-0.4-1.2-1.2-1.5c-1.5-0.6-2.8-1-2.8-2.4
			c0-1,1-1.9,2.2-1.9c1,0,1.7,0.4,2.3,0.8l-0.3,0.6c-0.6-0.4-1.2-0.8-2-0.8c-0.7,0-1.4,0.6-1.4,1.3c0,1.8,4,1.2,4,3.9
			c0,1.2-1,2-2.3,2c-0.8,0-1.8-0.4-2.8-1.2L1062,208.6z"/>
		<path d="M1083.2,204.9c0-0.9-0.2-1.7-0.9-1.7c-1,0-2.4,1.4-2.4,4v3.1h-0.7v-5c0-0.7-0.1-1.7-0.3-2.6h0.7c0.1,0.7,0.2,1.4,0.2,2
			c0.6-1.3,1.4-2.1,2.5-2.1c1.1,0,1.5,0.9,1.6,2.3L1083.2,204.9L1083.2,204.9z"/>
		<path d="M1087.3,206.7c0.2,1.9,0.7,3.1,2.3,3.1c0.9,0,1.7-0.4,2.4-0.7l0.3,0.7c-0.8,0.3-1.7,0.7-2.7,0.7c-1.9,0-3-1.5-3-3.9
			s1.2-3.9,3.1-3.9c1.5,0,2.5,1.2,2.7,3.2c0,0.3,0,0.6,0.1,0.9H1087.3z M1091.6,206c0-1.8-1-2.8-2.1-2.8c-1.1,0-2.2,1-2.2,2.8
			H1091.6z"/>
		<path d="M1099.9,208.3c0,1,0.1,1.3,0.3,2l-0.7,0.1c-0.1-0.2-0.2-0.6-0.3-1.2c-0.5,0.7-1.1,1.2-2,1.2c-1.3,0-2.1-1-2.1-2.4
			c0-1.6,0.9-2.7,2.3-2.7c0.5,0,1.2,0.2,1.7,0.5c0-1.5,0-2.6-1.4-2.6c-0.7,0-1.3,0.3-1.8,0.5l-0.2-0.7c0.6-0.2,1.2-0.5,2-0.5
			s1.4,0.3,1.8,0.9c0.3,0.5,0.3,1.1,0.3,1.7L1099.9,208.3L1099.9,208.3z M1099.1,206.4c-0.5-0.3-1-0.4-1.6-0.4c-1.1,0-1.7,0.9-1.7,2
			c0,1,0.6,1.8,1.4,1.8c0.8,0,1.4-0.6,1.9-1.5V206.4z"/>
		<path d="M1107.7,209.9c0,1.8-1,2.7-2.3,2.7c-1.1,0-1.8-0.6-2.1-1.7c-0.1-0.4-0.1-0.8-0.1-1.2h0.7c0,1.2,0.2,2.2,1.5,2.2
			c1,0,1.5-0.6,1.5-2.1v-6.5h-2.2v-0.6h3L1107.7,209.9L1107.7,209.9z M1108,200.7c0,0.4-0.3,0.8-0.8,0.8c-0.4,0-0.8-0.3-0.8-0.8
			c0-0.4,0.4-0.8,0.8-0.8C1107.7,199.9,1108,200.3,1108,200.7z"/>
		<path d="M1116.5,208.3c-0.5,1.5-1.7,2.2-2.6,2.2c-1.3,0-1.8-1.1-1.8-2.7v-5h0.7v5c0,1.2,0.3,2,1.1,2c1.2,0,2.5-1.4,2.5-4v-3h0.7
			v3.7c0,0.9,0,2.1,0.3,3.8h-0.7L1116.5,208.3z"/>
		<path d="M1120.8,208.6c0.8,0.7,1.5,1.2,2.5,1.2c0.8,0,1.5-0.5,1.5-1.3c0-0.7-0.4-1.2-1.2-1.5c-1.5-0.6-2.8-1-2.8-2.4
			c0-1,1-1.9,2.2-1.9c1,0,1.7,0.4,2.3,0.8l-0.3,0.6c-0.6-0.4-1.2-0.8-2-0.8c-0.7,0-1.4,0.6-1.4,1.3c0,1.8,4,1.2,4,3.9
			c0,1.2-1,2-2.3,2c-0.8,0-1.8-0.4-2.8-1.2L1120.8,208.6z"/>
		<path d="M1133.6,202.8v0.6h-2.7v4.6c0,1.2,0.3,1.7,1.1,1.7c0.9,0,1.3-0.6,1.7-1.3l0.7,0.2c-0.5,0.9-1.2,1.8-2.4,1.8
			c-1.2,0-1.8-0.8-1.8-2.4v-4.6h-1.7v-0.6h1.7v-2.4h0.7v2.4L1133.6,202.8L1133.6,202.8z"/>
		<path d="M1137.7,206.7c0.2,1.9,0.7,3.1,2.3,3.1c0.9,0,1.7-0.4,2.4-0.7l0.3,0.7c-0.8,0.3-1.7,0.7-2.7,0.7c-1.9,0-3-1.5-3-3.9
			s1.2-3.9,3.1-3.9c1.5,0,2.5,1.2,2.7,3.2c0,0.3,0,0.6,0.1,0.9H1137.7z M1142,206c0-1.8-1-2.8-2.1-2.8c-1.1,0-2.2,1-2.2,2.8H1142z"
			/>
		<path d="M1146,208.6c0.8,0.7,1.5,1.2,2.5,1.2c0.8,0,1.5-0.5,1.5-1.3c0-0.7-0.4-1.2-1.2-1.5c-1.5-0.6-2.8-1-2.8-2.4
			c0-1,1-1.9,2.2-1.9c1,0,1.7,0.4,2.3,0.8l-0.3,0.6c-0.6-0.4-1.2-0.8-2-0.8c-0.7,0-1.4,0.6-1.4,1.3c0,1.8,4,1.2,4,3.9
			c0,1.2-1,2-2.3,2c-0.8,0-1.8-0.4-2.8-1.2L1146,208.6z"/>
		<path d="M1167.2,204.9c0-0.9-0.2-1.7-0.9-1.7c-1,0-2.4,1.4-2.4,4v3.1h-0.7v-5c0-0.7-0.1-1.7-0.3-2.6h0.7c0.1,0.7,0.2,1.4,0.2,2
			c0.6-1.3,1.4-2.1,2.5-2.1c1.1,0,1.5,0.9,1.6,2.3L1167.2,204.9L1167.2,204.9z"/>
		<path d="M1171.3,206.7c0.2,1.9,0.7,3.1,2.3,3.1c0.9,0,1.7-0.4,2.4-0.7l0.3,0.7c-0.8,0.3-1.7,0.7-2.7,0.7c-1.9,0-3-1.5-3-3.9
			s1.2-3.9,3.1-3.9c1.5,0,2.5,1.2,2.7,3.2c0,0.3,0,0.6,0.1,0.9H1171.3z M1175.6,206c0-1.8-1-2.8-2.1-2.8c-1.1,0-2.2,1-2.2,2.8
			H1175.6z"/>
		<path d="M1183.9,208.3c0,1,0.1,1.3,0.3,2l-0.7,0.1c-0.1-0.2-0.2-0.6-0.3-1.2c-0.5,0.7-1.1,1.2-2,1.2c-1.3,0-2.1-1-2.1-2.4
			c0-1.6,0.9-2.7,2.3-2.7c0.5,0,1.2,0.2,1.7,0.5c0-1.5,0-2.6-1.4-2.6c-0.7,0-1.3,0.3-1.8,0.5l-0.2-0.7c0.6-0.2,1.2-0.5,2-0.5
			s1.4,0.3,1.8,0.9c0.3,0.5,0.3,1.1,0.3,1.7L1183.9,208.3L1183.9,208.3z M1183.1,206.4c-0.5-0.3-1-0.4-1.6-0.4c-1.1,0-1.7,0.9-1.7,2
			c0,1,0.6,1.8,1.4,1.8c0.8,0,1.4-0.6,1.9-1.5V206.4z"/>
		<path d="M1189.9,210.3v-9.7h-2.2v-0.6h2.9v10.4L1189.9,210.3L1189.9,210.3z"/>
		<path d="M1198.4,210.3v-6.9h-2.2v-0.6h2.9v7.5L1198.4,210.3L1198.4,210.3z M1199.6,200.7c0,0.4-0.3,0.8-0.8,0.8
			c-0.4,0-0.8-0.3-0.8-0.8c0-0.4,0.4-0.8,0.8-0.8C1199.2,199.9,1199.6,200.3,1199.6,200.7z"/>
		<path d="M1204.9,202.8h4.8v0.6l-4.5,6.2h4.7v0.6h-5.6v-0.6l4.6-6.2h-3.9L1204.9,202.8L1204.9,202.8z"/>
		<path d="M1217.5,208.3c0,1,0.1,1.3,0.3,2l-0.7,0.1c-0.1-0.2-0.2-0.6-0.3-1.2c-0.5,0.7-1.1,1.2-2,1.2c-1.3,0-2.1-1-2.1-2.4
			c0-1.6,0.9-2.7,2.3-2.7c0.5,0,1.2,0.2,1.7,0.5c0-1.5,0-2.6-1.4-2.6c-0.7,0-1.3,0.3-1.8,0.5l-0.2-0.7c0.6-0.2,1.2-0.5,2-0.5
			s1.4,0.3,1.8,0.9c0.3,0.5,0.4,1.1,0.4,1.7L1217.5,208.3L1217.5,208.3z M1216.7,206.4c-0.5-0.3-1-0.4-1.6-0.4c-1.1,0-1.7,0.9-1.7,2
			c0,1,0.6,1.8,1.4,1.8c0.8,0,1.4-0.6,1.9-1.5V206.4z"/>
		<path d="M1226.3,199.9v7.7c0,1.6,0.3,2.4,0.4,2.7l-0.7,0.1l-0.3-1.1c-0.5,0.8-1,1.1-2,1.1c-1.6,0-2.9-1.4-2.9-3.9
			c0-2.6,1.5-3.9,3-3.9c0.7,0,1.3,0.2,1.8,0.6v-3.3H1226.3z M1225.6,204c-0.5-0.4-1-0.7-1.6-0.7c-1.3,0-2.4,1.1-2.4,3.2
			c0,2.2,1.1,3.3,2.2,3.3c0.8,0,1.3-0.5,1.8-1.5L1225.6,204L1225.6,204z"/>
		<path d="M1229.4,206.5c0-2.5,1.2-3.9,2.9-3.9c1.7,0,2.9,1.3,2.9,3.9c0,2.6-1.2,3.9-2.9,3.9
			C1230.6,210.4,1229.4,209.1,1229.4,206.5z M1234.4,206.5c0-2.1-0.7-3.2-2.1-3.2c-1.4,0-2.1,1.1-2.1,3.2c0,2.1,0.7,3.3,2.1,3.3
			S1234.4,208.6,1234.4,206.5z"/>
		<path d="M1238.4,208.6c0.8,0.7,1.5,1.2,2.5,1.2c0.8,0,1.5-0.5,1.5-1.3c0-0.7-0.4-1.2-1.2-1.5c-1.5-0.6-2.8-1-2.8-2.4
			c0-1,1-1.9,2.2-1.9c1,0,1.7,0.4,2.3,0.8l-0.3,0.6c-0.6-0.4-1.2-0.8-2-0.8c-0.7,0-1.4,0.6-1.4,1.3c0,1.8,4,1.2,4,3.9
			c0,1.2-1,2-2.3,2c-0.8,0-1.8-0.4-2.8-1.2L1238.4,208.6z"/>
		<path d="M932.3,216.7v7.7c0,1.6,0.3,2.4,0.4,2.7l-0.7,0.1l-0.3-1.1c-0.5,0.8-1,1.1-2,1.1c-1.6,0-2.9-1.4-2.9-4
			c0-2.6,1.5-3.9,3-3.9c0.7,0,1.3,0.2,1.8,0.6v-3.3L932.3,216.7L932.3,216.7z M931.6,220.8c-0.5-0.4-1-0.7-1.6-0.7
			c-1.3,0-2.4,1.1-2.4,3.2c0,2.2,1.1,3.3,2.2,3.3c0.8,0,1.3-0.5,1.8-1.5L931.6,220.8L931.6,220.8z"/>
		<path d="M940.1,225.1c-0.5,1.5-1.7,2.2-2.6,2.2c-1.3,0-1.8-1.1-1.8-2.7v-5h0.7v5c0,1.2,0.3,2,1.1,2c1.2,0,2.5-1.4,2.5-4v-3h0.7
			v3.7c0,0.9,0,2.1,0.3,3.8h-0.7L940.1,225.1z"/>
		<path d="M948.8,221.7c0-0.9-0.2-1.7-0.9-1.7c-1,0-2.4,1.4-2.4,3.9v3.1h-0.7v-5c0-0.7-0.1-1.7-0.3-2.6h0.7c0.1,0.7,0.2,1.4,0.2,2
			c0.6-1.3,1.4-2.1,2.5-2.1c1.1,0,1.5,0.9,1.6,2.3L948.8,221.7L948.8,221.7z"/>
		<path d="M957.1,225.1c0,1,0.1,1.3,0.3,2l-0.7,0.1c-0.1-0.2-0.2-0.6-0.3-1.2c-0.5,0.7-1.1,1.2-2,1.2c-1.3,0-2.1-1-2.1-2.4
			c0-1.6,0.9-2.7,2.3-2.7c0.5,0,1.2,0.2,1.7,0.5c0-1.5,0-2.5-1.4-2.5c-0.7,0-1.3,0.3-1.8,0.5l-0.2-0.7c0.6-0.2,1.2-0.5,2-0.5
			s1.4,0.3,1.8,0.9c0.3,0.5,0.3,1.1,0.3,1.7L957.1,225.1L957.1,225.1z M956.4,223.2c-0.5-0.3-1-0.4-1.6-0.4c-1.1,0-1.7,0.9-1.7,2
			c0,1.1,0.6,1.8,1.4,1.8c0.8,0,1.4-0.6,1.9-1.5V223.2z"/>
		<path d="M965.2,227.1v-5c0-1.2-0.2-2-1.1-2c-1.2,0-2.5,1.3-2.5,3.9v3.1h-0.7v-3.8c0-1,0-2.2-0.3-3.8h0.7l0.3,2
			c0.5-1.4,1.7-2.1,2.6-2.1c1.1,0,1.8,0.8,1.8,2.3v5.3L965.2,227.1L965.2,227.1z"/>
		<path d="M974,219.6v0.6h-2.7v4.6c0,1.2,0.3,1.7,1.1,1.7c0.9,0,1.3-0.6,1.7-1.3l0.7,0.2c-0.5,0.9-1.2,1.8-2.4,1.8
			c-1.2,0-1.8-0.8-1.8-2.4v-4.6h-1.7v-0.6h1.7v-2.4h0.7v2.4H974z"/>
		<path d="M978.1,223.5c0.2,1.9,0.7,3.1,2.3,3.1c0.9,0,1.7-0.4,2.4-0.7l0.3,0.7c-0.8,0.3-1.7,0.7-2.7,0.7c-1.9,0-3-1.5-3-3.9
			s1.2-3.9,3.1-3.9c1.5,0,2.5,1.2,2.7,3.2c0,0.3,0,0.6,0.1,0.9L978.1,223.5L978.1,223.5z M982.4,222.8c0-1.8-1-2.8-2.1-2.8
			c-1.1,0-2.2,1-2.2,2.8H982.4z"/>
		<path d="M994.2,223.3c0-2.6,1.2-3.9,2.9-3.9c1.7,0,2.9,1.3,2.9,3.9c0,2.6-1.2,3.9-2.9,3.9C995.4,227.2,994.2,225.9,994.2,223.3z
			 M999.2,223.3c0-2.1-0.7-3.2-2.1-3.2c-1.4,0-2.1,1.1-2.1,3.2c0,2.1,0.7,3.3,2.1,3.3S999.2,225.4,999.2,223.3z"/>
		<path d="M1013.1,221.6c-1.2-0.7-1.8-1.4-1.8-2.5c0-1.5,1.1-2.4,2.6-2.4c1.1,0,1.9,0.5,2.6,1.2l-0.4,0.5c-0.7-0.6-1.4-1.1-2.2-1.1
			c-1,0-1.8,0.7-1.8,1.7c0,0.9,0.5,1.4,1.6,2l0.8,0.5c1.5,0.9,2.3,1.4,2.3,2.8c0,1.7-1.1,2.8-2.9,2.8c-1.5,0-2.3-0.8-2.9-1.5
			l0.6-0.5c0.6,0.7,1.2,1.3,2.3,1.3c1.1,0,2.1-0.8,2.1-2.1c0-0.9-0.4-1.3-1.9-2.3L1013.1,221.6z"/>
		<path d="M1019.8,230v-7.8c0-1.6-0.2-2.3-0.3-2.7l0.7-0.1l0.3,1.2c0.4-0.8,1.1-1.2,2-1.2c1.6,0,2.9,1.4,2.9,3.9
			c0,2.6-1.5,3.9-3,3.9c-0.7,0-1.2-0.2-1.8-0.6v3.4L1019.8,230L1019.8,230z M1020.5,225.9c0.5,0.4,1,0.7,1.6,0.7
			c1.3,0,2.4-1.1,2.4-3.2c0-2.2-1-3.3-2.2-3.3c-0.8,0-1.4,0.6-1.8,1.5L1020.5,225.9L1020.5,225.9z"/>
		<path d="M1032.8,221.7c0-0.9-0.2-1.7-0.9-1.7c-1,0-2.4,1.4-2.4,3.9v3.1h-0.7v-5c0-0.7-0.1-1.7-0.3-2.6h0.7c0.1,0.7,0.2,1.4,0.2,2
			c0.6-1.3,1.4-2.1,2.5-2.1c1.1,0,1.5,0.9,1.6,2.3L1032.8,221.7L1032.8,221.7z"/>
		<path d="M1038.9,227.1v-6.9h-2.2v-0.6h2.9v7.5L1038.9,227.1L1038.9,227.1z M1040,217.5c0,0.4-0.3,0.8-0.8,0.8
			c-0.4,0-0.8-0.3-0.8-0.8s0.4-0.8,0.8-0.8C1039.6,216.7,1040,217.1,1040,217.5z"/>
		<path d="M1049.2,227.1v-5c0-1.2-0.2-2-1.1-2c-1.2,0-2.5,1.3-2.5,3.9v3.1h-0.7v-3.8c0-1,0-2.2-0.3-3.8h0.7l0.3,2
			c0.5-1.4,1.7-2.1,2.6-2.1c1.1,0,1.8,0.8,1.8,2.3v5.3L1049.2,227.1L1049.2,227.1z"/>
		<path d="M1058,219.6v0.6h-2.7v4.6c0,1.2,0.3,1.7,1.1,1.7c0.9,0,1.3-0.6,1.7-1.3l0.7,0.2c-0.5,0.9-1.2,1.8-2.4,1.8
			c-1.2,0-1.9-0.8-1.9-2.4v-4.6h-1.7v-0.6h1.7v-2.4h0.7v2.4H1058z"/>
		<path d="M1064.2,225.3c0.5,0,1,0.5,1,1c0,0.5-0.5,1-1,1c-0.5,0-1-0.4-1-1C1063.3,225.7,1063.7,225.3,1064.2,225.3z"/>
	</g>
</g>
<g>
	<path fill="#6EBF67" d="M1255.5,242h-358v-98h358V242z M898.5,241h356v-96h-356V241z"/>
</g>
<g>
	<path fill="#6EBF67" d="M852.5,242h-358v-98h358V242z M495.5,241h356v-96h-356V241z"/>
</g>
</svg>
