<?xml version="1.0" encoding="utf-8"?>
<!-- Generator: Adobe Illustrator 16.0.0, SVG Export Plug-In . SVG Version: 6.00 Build 0)  -->
<!DOCTYPE svg PUBLIC "-//W3C//DTD SVG 1.1//EN" "http://www.w3.org/Graphics/SVG/1.1/DTD/svg11.dtd">
<svg version="1.1" id="Layer_1" xmlns="http://www.w3.org/2000/svg" xmlns:xlink="http://www.w3.org/1999/xlink" x="0px" y="0px"
	 width="512px" height="512px" viewBox="0 0 512 512" enable-background="new 0 0 512 512" xml:space="preserve">
<path id="target-7-icon" fill="#6EBF67" d="M280.316,266.703l158.854,78.616l-55.943,21.638l53.979,69.331L405.115,462
	l-54.461-70.728l-34.746,48.97L280.316,266.703z M237.525,178.318c-19.426,0-35.178,15.748-35.178,35.177
	c0,19.427,15.752,35.178,35.178,35.178c19.428,0,35.178-15.751,35.178-35.178C272.703,194.066,256.953,178.318,237.525,178.318z
	 M270.521,343.293c-10.654,2.713-21.715,4.116-32.997,4.116c-35.449,0-68.775-13.804-93.844-38.869
	c-25.066-25.067-38.871-58.396-38.871-93.846c0-35.447,13.805-68.775,38.873-93.843c25.066-25.066,58.395-38.872,93.842-38.872
	c35.45,0,68.775,13.806,93.844,38.872c25.066,25.067,38.871,58.396,38.871,93.843c0,21.681-5.172,42.563-14.918,61.253
	l28.643,14.176c11.664-22.602,18.256-48.244,18.256-75.429C402.221,123.739,328.482,50,237.525,50
	C146.57,50,72.83,123.739,72.83,214.694c0,90.962,73.74,164.694,164.695,164.694c13.59,0,26.792-1.657,39.422-4.76L270.521,343.293z
	 M237.525,114.89c-55.119,0-99.805,44.687-99.805,99.805c0,55.122,44.686,99.805,99.805,99.805c9.129,0,17.967-1.232,26.368-3.527
	l-6.449-31.44c-6.301,1.938-12.988,2.989-19.918,2.989c-37.398,0-67.824-30.426-67.824-67.826c0-37.399,30.426-67.825,67.824-67.825
	s67.827,30.426,67.827,67.825c0,11.738-3,22.789-8.271,32.429l28.701,14.203c7.371-13.918,11.551-29.785,11.551-46.632
	C337.332,159.576,292.645,114.89,237.525,114.89z"/>
</svg>
