<?xml version="1.0" encoding="utf-8"?>
<!-- Generator: Adobe Illustrator 18.0.0, SVG Export Plug-In . SVG Version: 6.00 Build 0)  -->
<!DOCTYPE svg PUBLIC "-//W3C//DTD SVG 1.1//EN" "http://www.w3.org/Graphics/SVG/1.1/DTD/svg11.dtd">
<svg version="1.1" id="Layer_1" xmlns="http://www.w3.org/2000/svg" xmlns:xlink="http://www.w3.org/1999/xlink" x="0px" y="0px"
	 viewBox="0 0 150 30" enable-background="new 0 0 150 30" xml:space="preserve">
<g>
	<g>
		<path fill="#231F20" d="M1.6,21.7c-0.3-0.2-0.4-0.5-0.4-0.9c0-0.6,0.5-1.1,1.1-1.1c0.3,0,0.5,0.1,0.7,0.3c1.9,1.6,3.8,2.4,6.3,2.4
			c2.7,0,4.5-1.4,4.5-3.4v-0.1c0-1.9-1-2.9-5.2-3.8c-4.6-1-6.7-2.5-6.7-5.8V9.3c0-3.2,2.8-5.5,6.6-5.5c2.6,0,4.6,0.7,6.4,2
			c0.2,0.2,0.5,0.5,0.5,0.9c0,0.6-0.5,1.1-1.1,1.1c-0.3,0-0.5-0.1-0.7-0.2c-1.7-1.2-3.3-1.7-5.2-1.7C5.7,5.8,4,7.3,4,9.1v0.1
			c0,1.9,1,3,5.4,3.9c4.5,1,6.5,2.6,6.5,5.7v0.1c0,3.4-2.9,5.7-6.8,5.7C6.3,24.4,3.8,23.5,1.6,21.7z"/>
		<path fill="#231F20" d="M20.3,4.2c0-0.6,0.5-1.1,1.1-1.1c0.6,0,1.1,0.5,1.1,1.1v7.7c1-1.6,2.5-2.9,5.1-2.9c3.6,0,5.7,2.4,5.7,5.9
			v8.2c0,0.6-0.5,1.1-1.1,1.1c-0.6,0-1.1-0.5-1.1-1.1v-7.7c0-2.8-1.5-4.5-4.1-4.5c-2.5,0-4.4,1.9-4.4,4.6v7.5c0,0.6-0.5,1.1-1.1,1.1
			c-0.6,0-1.1-0.5-1.1-1.1L20.3,4.2L20.3,4.2z"/>
		<path fill="#231F20" d="M37.9,4.7c0-0.7,0.6-1.2,1.3-1.2c0.7,0,1.3,0.5,1.3,1.2v0.4c0,0.7-0.6,1.2-1.3,1.2c-0.7,0-1.3-0.5-1.3-1.2
			V4.7z M38.1,10.3c0-0.6,0.5-1.1,1.1-1.1c0.6,0,1.1,0.5,1.1,1.1v12.9c0,0.6-0.5,1.1-1.1,1.1s-1.1-0.5-1.1-1.1V10.3z"/>
		<path fill="#231F20" d="M46.3,11.3h-1.2c-0.5,0-0.9-0.4-0.9-1c0-0.5,0.4-0.9,0.9-0.9h1.2V8.1c0-1.7,0.5-3,1.3-3.8
			c0.7-0.7,1.8-1.1,3.2-1.1c0.7,0,1.3,0.1,1.7,0.2c0.4,0.1,0.8,0.5,0.8,0.9c0,0.6-0.5,1-1.1,0.9C51.9,5.1,51.5,5,51,5
			c-1.7,0-2.6,1-2.6,3.2v1.2h3.8c0.5,0,1,0.4,1,0.9c0,0.5-0.4,0.9-1,0.9h-3.8v11.9c0,0.6-0.5,1.1-1.1,1.1c-0.6,0-1.1-0.5-1.1-1.1
			V11.3z"/>
		<path fill="#231F20" d="M56.7,20.2v-8.9h-1.2c-0.5,0-1-0.5-1-1c0-0.5,0.5-1,1-1h1.2V5.8c0-0.6,0.5-1.1,1.1-1.1
			c0.6,0,1.1,0.5,1.1,1.1v3.5h3.8c0.5,0,1,0.5,1,1c0,0.5-0.5,1-1,1h-3.8v8.7c0,1.8,1,2.5,2.5,2.5c0.8,0,1.2-0.2,1.3-0.2
			c0.5,0,0.9,0.4,0.9,0.9c0,0.4-0.3,0.7-0.6,0.9c-0.6,0.3-1.3,0.4-2.2,0.4C58.5,24.4,56.7,23.2,56.7,20.2z"/>
		<path fill="#231F20" d="M76.1,4.7c0-0.7,0.6-1.2,1.3-1.2c0.7,0,1.3,0.5,1.3,1.2v0.4c0,0.7-0.6,1.2-1.3,1.2c-0.7,0-1.3-0.5-1.3-1.2
			V4.7z M76.3,10.3c0-0.6,0.5-1.1,1.1-1.1c0.6,0,1.1,0.5,1.1,1.1v12.9c0,0.6-0.5,1.1-1.1,1.1s-1.1-0.5-1.1-1.1L76.3,10.3L76.3,10.3z
			"/>
		<path fill="#231F20" d="M84.4,20.2v-8.9h-1.2c-0.5,0-1-0.5-1-1c0-0.5,0.5-1,1-1h1.2V5.8c0-0.6,0.5-1.1,1.1-1.1
			c0.6,0,1.1,0.5,1.1,1.1v3.5h3.8c0.5,0,1,0.5,1,1c0,0.5-0.5,1-1,1h-3.8v8.7c0,1.8,1,2.5,2.5,2.5c0.8,0,1.2-0.2,1.3-0.2
			c0.5,0,0.9,0.4,0.9,0.9c0,0.4-0.3,0.7-0.6,0.9c-0.6,0.3-1.3,0.4-2.2,0.4C86.2,24.4,84.4,23.2,84.4,20.2z"/>
	</g>
	<g>
		<path fill="#6EBF67" d="M106.8,6.8c0-0.5,0.4-1.4,1.4-1.4c0.9,0,1.4,0.9,1.4,1.4v16.8c0,0.5-0.4,1.4-1.4,1.4c-1,0-1.4-0.9-1.4-1.4
			V6.8z"/>
		<path fill="#6EBF67" d="M146,6.8c0-0.5,0.4-1.4,1.4-1.4c0.9,0,1.4,0.9,1.4,1.4v16.8c0,0.5-0.4,1.4-1.4,1.4c-1,0-1.4-0.9-1.4-1.4
			V6.8z"/>
		<path fill="#6EBF67" d="M126.2,7c0-0.5,0.4-1.4,1.4-1.4c0.9,0,1.4,0.9,1.4,1.4v16.8c0,0.5-0.4,1.4-1.4,1.4c-1,0-1.4-0.9-1.4-1.4V7
			z"/>
		<path fill="#6EBF67" d="M116,11.8c0-0.5,0.4-1.4,1.4-1.4c0.9,0,1.4,0.9,1.4,1.4v16.8c0,0.5-0.4,1.4-1.4,1.4c-1,0-1.4-0.9-1.4-1.4
			V11.8z"/>
		<path fill="#6EBF67" d="M136,1.4c0-0.5,0.4-1.4,1.4-1.4c0.9,0,1.4,0.9,1.4,1.4v16.8c0,0.5-0.4,1.4-1.4,1.4c-1,0-1.4-0.9-1.4-1.4
			V1.4z"/>
	</g>
</g>
</svg>
