<?xml version="1.0" encoding="utf-8"?>
<!-- Generator: Adobe Illustrator 18.0.0, SVG Export Plug-In . SVG Version: 6.00 Build 0)  -->
<!DOCTYPE svg PUBLIC "-//W3C//DTD SVG 1.1 Tiny//EN" "http://www.w3.org/Graphics/SVG/1.1/DTD/svg11-tiny.dtd">
<svg version="1.1" baseProfile="tiny" id="Layer_1" xmlns="http://www.w3.org/2000/svg" xmlns:xlink="http://www.w3.org/1999/xlink"
	 x="0px" y="0px" viewBox="32.5 -33.2 85 60" xml:space="preserve">
<g>
	<path fill="#0088CC" d="M33-19.7c0-1,0.8-2.8,2.8-2.8c1.8,0,2.8,1.8,2.8,2.8v33.6c0,1-0.8,2.8-2.8,2.8c-2.1,0-2.8-1.8-2.8-2.8
		V-19.7z"/>
	<path fill="#0088CC" d="M111.4-19.7c0-1,0.8-2.8,2.8-2.8c1.8,0,2.8,1.8,2.8,2.8v33.6c0,1-0.8,2.8-2.8,2.8c-2.1,0-2.8-1.8-2.8-2.8
		V-19.7z"/>
	<path fill="#0088CC" d="M71.7-19.3c0-1,0.8-2.8,2.8-2.8c1.8,0,2.8,1.8,2.8,2.8v33.6c0,1-0.8,2.8-2.8,2.8c-2.1,0-2.8-1.8-2.8-2.8
		V-19.3z"/>
	<path fill="#0088CC" d="M51.4-9.6c0-1,0.8-2.8,2.8-2.8c1.8,0,2.8,1.8,2.8,2.8V24c0,1-0.8,2.8-2.8,2.8c-2.1,0-2.8-1.8-2.8-2.8V-9.6z
		"/>
	<path fill="#0088CC" d="M91.4-30.5c0-1,0.8-2.8,2.8-2.8c1.8,0,2.8,1.8,2.8,2.8V3.1c0,1-0.8,2.8-2.8,2.8c-2.1,0-2.8-1.8-2.8-2.8
		V-30.5z"/>
</g>
</svg>
