<?xml version="1.0" encoding="utf-8"?>
<!-- Generator: Adobe Illustrator 16.0.0, SVG Export Plug-In . SVG Version: 6.00 Build 0)  -->
<!DOCTYPE svg PUBLIC "-//W3C//DTD SVG 1.1//EN" "http://www.w3.org/Graphics/SVG/1.1/DTD/svg11.dtd">
<svg version="1.1" id="Layer_1" xmlns="http://www.w3.org/2000/svg" xmlns:xlink="http://www.w3.org/1999/xlink" x="0px" y="0px"
	 width="40px" height="40px" viewBox="0 0 40 40" enable-background="new 0 0 40 40" xml:space="preserve">
<g>
	<path fill="#555555" d="M21.51,18.042V17.98c-0.013,0.021-0.027,0.042-0.041,0.062H21.51z"/>
	<path fill="#555555" d="M37.043,0H2.955C1.323,0,0,1.283,0,2.866v34.269C0,38.715,1.323,40,2.955,40h34.088
		C38.676,40,40,38.715,40,37.135V2.866C40,1.283,38.676,0,37.043,0z M12.124,33.482H6.083v-18.06h6.042L12.124,33.482L12.124,33.482
		z M9.104,12.956H9.063c-2.027,0-3.338-1.388-3.338-3.121c0-1.771,1.352-3.12,3.418-3.12s3.338,1.349,3.379,3.12
		C12.522,11.568,11.21,12.956,9.104,12.956z M33.909,33.482h-6.04V23.82c0-2.428-0.874-4.084-3.062-4.084
		c-1.668,0-2.662,1.118-3.101,2.196c-0.159,0.387-0.197,0.926-0.197,1.465v10.086h-6.042c0,0,0.079-16.367,0-18.061h6.042v2.556
		c0.804-1.23,2.238-2.982,5.445-2.982c3.974,0,6.954,2.582,6.954,8.13L33.909,33.482L33.909,33.482z"/>
</g>
</svg>
