<?xml version="1.0" encoding="utf-8"?>
<!-- Generator: Adobe Illustrator 16.0.0, SVG Export Plug-In . SVG Version: 6.00 Build 0)  -->
<!DOCTYPE svg PUBLIC "-//W3C//DTD SVG 1.1//EN" "http://www.w3.org/Graphics/SVG/1.1/DTD/svg11.dtd">
<svg version="1.1" id="Layer_1" xmlns="http://www.w3.org/2000/svg" xmlns:xlink="http://www.w3.org/1999/xlink" x="0px" y="0px"
	 width="40px" height="40px" viewBox="0 0 40 40" enable-background="new 0 0 40 40" xml:space="preserve">
<path fill="#555555" d="M20,0C8.953,0,0,8.957,0,20.001C0,31.046,8.953,40,20,40c11.046,0,20-8.954,20-19.999
	C40,8.957,31.046,0,20,0z M25.375,31.65c-0.824,0-5.387-0.107-6.552-0.107c-1.166,0-7.239-1.895-7.239-8.576
	c0-1.189,0-2.386-0.004-3.577c-0.004-1.11-0.027-2.219-0.031-3.321c-0.001-0.322-0.002-0.645-0.004-0.967
	c-0.008-1.683-0.15-3.577,0.391-5.193c0.414-1.232,1.394-1.726,2.601-1.726c2.919,0,3.113,2.976,3.121,5.965h8.438
	c1.336,0,2.334,1.354,2.334,3.428c0,2.071-2.162,2.536-3.295,2.536h-7.569c-0.038,1.27-0.079,2.302-0.079,2.931
	c0,1.318,0.515,2.749,3.738,2.749h4.53c1.132,0,2.812,0.856,2.812,3.25C28.564,31.432,26.198,31.65,25.375,31.65z"/>
</svg>
