<?xml version="1.0" encoding="utf-8"?>
<!-- Generator: Adobe Illustrator 16.0.0, SVG Export Plug-In . SVG Version: 6.00 Build 0)  -->
<!DOCTYPE svg PUBLIC "-//W3C//DTD SVG 1.1//EN" "http://www.w3.org/Graphics/SVG/1.1/DTD/svg11.dtd">
<svg version="1.1" id="Layer_1" xmlns="http://www.w3.org/2000/svg" xmlns:xlink="http://www.w3.org/1999/xlink" x="0px" y="0px"
	 width="512px" height="512px" viewBox="0 0 512 512" enable-background="new 0 0 512 512" xml:space="preserve">
<path id="thumb-10-icon" fill="#6EBF67" d="M50,217.433v212.832h107.903V217.433H50z M127.903,400.265H80V247.433h47.903V400.265z
	 M103.856,390.248c-6.738,0-12.2-5.462-12.2-12.2s5.462-12.199,12.2-12.199c6.737,0,11.391,5.461,11.391,12.199
	S110.594,390.248,103.856,390.248z M354.732,203.985c13.209-53.604,20.444-143.906-35.861-143.906
	c-30.391,0-38.367,27.23-46.242,54.344c-19.311,66.487-54.102,96.339-89.726,111.002v32.847
	c62.465-20.208,101.183-82.104,115.438-127.73c6.005-19.222,7.999-45.567,24.4-40.612c20.507,6.195,15.634,73.45-3.009,129.079
	c18.662,13.503,62.469,31.283,112.309,25.062c-1.14,16.812-1.925,24.872-14.397,28.407l-18.624,4.95
	c-12.9,3.903-7.092,23.507,5.925,19.566l19.264-5.681c-3.269,21.466-3.546,25.18-18.062,29.577l-14.783,4.543
	c-13.043,3.946-6.955,23.476,5.927,19.564l18.154-5.943c-2.576,19.377-3.136,24.961-17.186,29.211l-14.479,4.938
	c-12.9,3.896-7.092,23.511,5.918,19.562l15.311-5.136c-4.744,33.357-40.414,37.688-73.832,33.92
	c-50.232-5.655-66.027-35.895-148.272-36.812v29.621c32.891,1.104,54.256,5.021,85.934,18.656
	c16.921,7.283,34.419,14.816,59.066,17.592c53.212,5.991,90.035-7.604,103.651-58.857c9.487-35.705,23.458-114.007,30.444-179.798
	C434.708,218.771,389.466,218.609,354.732,203.985z"/>
</svg>
