<?xml version="1.0" encoding="utf-8"?>
<!-- Generator: Adobe Illustrator 16.0.0, SVG Export Plug-In . SVG Version: 6.00 Build 0)  -->
<!DOCTYPE svg PUBLIC "-//W3C//DTD SVG 1.1//EN" "http://www.w3.org/Graphics/SVG/1.1/DTD/svg11.dtd">
<svg version="1.1" id="Layer_1" xmlns="http://www.w3.org/2000/svg" xmlns:xlink="http://www.w3.org/1999/xlink" x="0px" y="0px"
	 width="150px" height="30px" viewBox="0 0 150 30" enable-background="new 0 0 150 30" xml:space="preserve">
<g>
	<g>
		<path fill="#231F20" d="M1.584,21.73c-0.259-0.172-0.431-0.487-0.431-0.86c0-0.63,0.488-1.117,1.089-1.117
			c0.286,0,0.544,0.115,0.688,0.257c1.891,1.605,3.782,2.379,6.333,2.379c2.693,0,4.47-1.433,4.47-3.41v-0.058
			c0-1.863-1.003-2.923-5.216-3.812c-4.613-1.002-6.733-2.492-6.733-5.788V9.266c0-3.151,2.781-5.473,6.591-5.473
			c2.636,0,4.556,0.659,6.39,1.978c0.229,0.171,0.488,0.487,0.488,0.917c0,0.602-0.488,1.088-1.089,1.088
			c-0.258,0-0.459-0.057-0.66-0.2c-1.69-1.232-3.323-1.748-5.186-1.748c-2.607,0-4.27,1.433-4.27,3.238v0.057
			c0,1.891,1.032,2.952,5.445,3.896c4.47,0.975,6.532,2.608,6.532,5.674v0.058c0,3.438-2.865,5.674-6.848,5.674
			C6.254,24.424,3.818,23.507,1.584,21.73z"/>
		<path fill="#231F20" d="M20.266,4.194c0-0.601,0.487-1.117,1.089-1.117c0.63,0,1.117,0.516,1.117,1.117v7.708
			c0.975-1.604,2.521-2.894,5.072-2.894c3.582,0,5.673,2.408,5.673,5.932v8.224c0,0.63-0.487,1.118-1.089,1.118
			c-0.629,0-1.117-0.487-1.117-1.118v-7.679c0-2.751-1.49-4.471-4.097-4.471c-2.55,0-4.441,1.863-4.441,4.642v7.507
			c0,0.63-0.458,1.118-1.088,1.118c-0.631,0-1.118-0.487-1.118-1.118V4.194z"/>
		<path fill="#231F20" d="M37.915,4.681c0-0.716,0.573-1.174,1.29-1.174c0.745,0,1.318,0.458,1.318,1.174v0.373
			c0,0.687-0.574,1.174-1.318,1.174c-0.716,0-1.29-0.487-1.29-1.174V4.681z M38.116,10.297c0-0.602,0.486-1.117,1.088-1.117
			c0.63,0,1.118,0.487,1.118,1.117v12.866c0,0.63-0.459,1.118-1.089,1.118c-0.63,0-1.117-0.487-1.117-1.118V10.297z"/>
		<path fill="#231F20" d="M46.28,11.272h-1.202c-0.544,0-0.946-0.43-0.946-0.975c0-0.516,0.431-0.945,0.946-0.945h1.202V8.063
			c0-1.691,0.459-2.98,1.29-3.811c0.745-0.745,1.834-1.146,3.181-1.146c0.715,0,1.261,0.058,1.747,0.171
			c0.431,0.086,0.803,0.459,0.803,0.946c0,0.573-0.487,1.002-1.06,0.945c-0.373-0.057-0.775-0.143-1.205-0.143
			c-1.718,0-2.578,1.031-2.578,3.151v1.204h3.84c0.545,0,0.973,0.401,0.973,0.945c0,0.516-0.428,0.946-0.973,0.946h-3.811v11.891
			c0,0.602-0.458,1.118-1.089,1.118c-0.63,0-1.118-0.516-1.118-1.118V11.272z"/>
		<path fill="#231F20" d="M56.739,20.212v-8.94h-1.204c-0.515,0-0.974-0.458-0.974-0.975c0-0.544,0.459-0.974,0.974-0.974h1.204
			V5.827c0-0.602,0.458-1.117,1.089-1.117c0.601,0,1.117,0.516,1.117,1.117v3.496h3.84c0.545,0,1.003,0.458,1.003,0.974
			c0,0.545-0.458,0.975-1.003,0.975h-3.84v8.653c0,1.806,1.003,2.465,2.494,2.465c0.773,0,1.174-0.201,1.347-0.201
			c0.516,0,0.946,0.43,0.946,0.946c0,0.401-0.258,0.716-0.631,0.86c-0.63,0.257-1.318,0.401-2.177,0.401
			C58.544,24.396,56.739,23.221,56.739,20.212z"/>
		<path fill="#231F20" d="M76.136,4.681c0-0.716,0.572-1.174,1.289-1.174c0.744,0,1.318,0.458,1.318,1.174v0.373
			c0,0.687-0.574,1.174-1.318,1.174c-0.717,0-1.289-0.487-1.289-1.174V4.681z M76.335,10.297c0-0.602,0.487-1.117,1.089-1.117
			c0.629,0,1.117,0.487,1.117,1.117v12.866c0,0.63-0.458,1.118-1.089,1.118s-1.118-0.487-1.118-1.118V10.297z"/>
		<path fill="#231F20" d="M84.445,20.212v-8.94h-1.204c-0.517,0-0.975-0.458-0.975-0.975c0-0.544,0.458-0.974,0.975-0.974h1.204
			V5.827c0-0.602,0.458-1.117,1.088-1.117c0.603,0,1.117,0.516,1.117,1.117v3.496h3.84c0.545,0,1.003,0.458,1.003,0.974
			c0,0.545-0.458,0.975-1.003,0.975h-3.84v8.653c0,1.806,1.003,2.465,2.494,2.465c0.773,0,1.174-0.201,1.346-0.201
			c0.516,0,0.947,0.43,0.947,0.946c0,0.401-0.259,0.716-0.631,0.86c-0.63,0.257-1.318,0.401-2.178,0.401
			C86.249,24.396,84.445,23.221,84.445,20.212z"/>
	</g>
	<g>
		<path fill="#6EBF67" d="M106.819,6.783c0-0.489,0.401-1.399,1.398-1.399c0.879,0,1.398,0.896,1.398,1.399v16.783
			c0,0.502-0.391,1.398-1.398,1.398c-1.034,0-1.398-0.909-1.398-1.398V6.783z"/>
		<path fill="#6EBF67" d="M146.049,6.783c0-0.489,0.401-1.399,1.398-1.399c0.88,0,1.399,0.896,1.399,1.399v16.783
			c0,0.502-0.391,1.398-1.399,1.398c-1.033,0-1.398-0.909-1.398-1.398V6.783z"/>
		<path fill="#6EBF67" d="M126.189,6.993c0-0.489,0.402-1.398,1.399-1.398c0.88,0,1.398,0.896,1.398,1.398v16.783
			c0,0.502-0.391,1.398-1.398,1.398c-1.034,0-1.399-0.909-1.399-1.398V6.993z"/>
		<path fill="#6EBF67" d="M116.049,11.818c0-0.489,0.402-1.399,1.399-1.399c0.879,0,1.399,0.896,1.399,1.399v16.783
			c0,0.502-0.391,1.398-1.399,1.398c-1.034,0-1.399-0.91-1.399-1.398V11.818z"/>
		<path fill="#6EBF67" d="M136.049,1.399c0-0.489,0.401-1.399,1.399-1.399c0.88,0,1.398,0.896,1.398,1.399v16.783
			c0,0.502-0.391,1.399-1.398,1.399c-1.035,0-1.399-0.91-1.399-1.399V1.399z"/>
	</g>
</g>
</svg>
