<?xml version="1.0" encoding="utf-8"?>
<!-- Generator: Adobe Illustrator 16.0.0, SVG Export Plug-In . SVG Version: 6.00 Build 0)  -->
<!DOCTYPE svg PUBLIC "-//W3C//DTD SVG 1.1//EN" "http://www.w3.org/Graphics/SVG/1.1/DTD/svg11.dtd">
<svg version="1.1" id="Layer_1" xmlns="http://www.w3.org/2000/svg" xmlns:xlink="http://www.w3.org/1999/xlink" x="0px" y="0px"
	 width="960px" height="560px" viewBox="0 0 960 560" enable-background="new 0 0 960 560" xml:space="preserve">
<path fill="#FFFFFF" stroke="#CCCCCC" stroke-miterlimit="10" d="M493.469,113.721c0,0,195.58-66.513,287.433-100.562
	C872.753-20.89,883.838-28.016,914.72-28.808c30.881-0.792,41.175-18.212,68.097,30.089
	c26.923,48.301,22.963,121.149,20.588,162.324c-2.375,41.176-0.791,76.016-3.168,87.893c-2.375,11.878-24.547,26.922-83.142,56.221
	C858.5,337.016,670.838,420.157,641.541,433.618c-29.299,13.462-60.576,27.317-98.979,1.584
	C503.436,408.983,493.469,113.721,493.469,113.721z"/>
<path fill="#FFFFFF" stroke="#CCCCCC" stroke-miterlimit="10" d="M442.283,284.655c-1.897-32.608,22.598-53.314,54.435-46.016
	l46.554,10.674c31.838,7.299,57.169,39.985,56.293,72.636l-2.358,87.936c-0.876,32.651-24.138,45.018-51.694,27.483l-47.867-30.461
	c-27.556-17.536-51.654-58.562-53.552-91.17L442.283,284.655z"/>
<path fill="#FFFFFF" stroke="#CCCCCC" stroke-miterlimit="10" d="M188.616,120.056c0,0,76.807,59.386,89.476,60.97
	c12.669,1.583,175.785,38.008,244.673,63.346c17.975,6.611,47.51-87.101,30.882-95.811c-16.629-8.71-93.436-76.807-114.023-79.974
	c-20.586-3.167-209.833-11.878-216.959-7.126C215.539,66.212,190.2,117.68,188.616,120.056z"/>
<path fill="#FFFFFF" stroke="#CCCCCC" stroke-miterlimit="10" d="M160.902,245.956c-3.959,7.917-11.086,42.758-3.167,51.469
	c7.918,8.71,72.848,54.636,81.558,51.468c8.71-3.167,262.094-32.464,276.347-47.51c14.253-15.044,20.066-41.375,22.171-48.301
	c-4.751-5.542-64.93-41.175-64.93-41.175L160.902,245.956z"/>
<path fill="#FFFFFF" stroke="#CCCCCC" stroke-miterlimit="10" d="M601.949,352.852c0.165,5.006,7.126,7.127,24.547-1.584
	c17.42-8.709,369.781-167.074,373.74-172.617s9.503-139.362-13.461-163.116C963.813-8.22,658.96,132.725,638.373,196.862
	C617.785,261.001,599.574,280.797,601.949,352.852z"/>
<path fill="#FFFFFF" stroke="#CCCCCC" stroke-miterlimit="10" d="M302.639,180.234c0,0-139.362,59.387-138.57,63.347
	c0.792,3.959,66.513,53.052,80.766,51.469c14.252-1.584,228.838-54.637,257.344-63.347
	C530.685,222.993,302.639,180.234,302.639,180.234z"/>
<path fill="#FFFFFF" stroke="#CCCCCC" stroke-miterlimit="10" d="M280.467,174.692c3.167-7.919,13.461-42.758,48.302-43.551
	c34.839-0.792,202.707,6.335,221.711,19.795c19.004,13.461-14.253,87.101-21.379,91.061
	C521.975,245.956,280.467,174.692,280.467,174.692z"/>
<path fill="#FFFFFF" stroke="#CCCCCC" stroke-miterlimit="10" d="M222.665,64.628c0,0,83.142,46.718,83.933,55.428
	c0.792,8.71-20.586,56.22-26.13,54.636c-5.542-1.583-91.851-54.636-91.851-54.636S219.498,55.918,222.665,64.628z"/>
<path fill="#FFFFFF" stroke="#CCCCCC" stroke-miterlimit="10" d="M244.044,341.767c-8.225-11.881,4.751-33.257,25.338-42.759
	c20.588-9.501,228.046-65.721,232.798-67.305c4.75-1.584,34.839,19.004,35.631,21.379s-11.877,41.175-22.171,48.301
	C505.346,308.51,251.17,352.061,244.044,341.767z"/>
<path fill="#FFFFFF" stroke="#CCCCCC" stroke-miterlimit="10" d="M470.387,70.6c-4.103,12.035-23.699,12.311-49.37,5.51
	c-46.322-12.273-45.979-21.584-43.294-31.25c2.685-9.665,25.604-11.738,51.192-4.63C454.502,47.337,475.257,56.314,470.387,70.6z"/>
<path fill="#FFFFFF" stroke="#CCCCCC" stroke-miterlimit="10" d="M283.239,177.462c0,0,9.501-19.399,19.004-16.232
	c9.501,3.167,6.731,19.004,4.354,20.983C304.223,184.193,283.239,177.462,283.239,177.462z"/>
<path fill="#FFFFFF" stroke="#CCCCCC" stroke-miterlimit="10" d="M307.39,182.609c0,0,5.543-22.17,19.4-17.816
	c13.857,4.356,7.918,24.151,5.147,24.151C329.165,188.944,307.39,182.609,307.39,182.609z"/>
<path fill="#FFFFFF" stroke="#CCCCCC" stroke-miterlimit="10" d="M335.687,193.944c0-3.563,5.147-23.755,19.004-19.795
	c10.72,3.062,6.335,17.419,2.772,22.566C353.9,201.862,335.687,193.944,335.687,193.944z"/>
<path fill="#FFFFFF" stroke="#CCCCCC" stroke-miterlimit="10" d="M359.609,200.092c0.397-5.147,9.503-17.42,18.213-15.836
	c8.71,1.583,11.876,21.379,6.731,22.962C379.406,208.802,359.609,200.092,359.609,200.092z"/>
<path fill="#FFFFFF" stroke="#CCCCCC" stroke-miterlimit="10" d="M387.719,208.802c0-7.126,7.126-19.399,16.233-17.816
	c9.106,1.583,10.293,21.379,5.146,22.566C403.952,214.74,387.719,208.802,387.719,208.802z"/>
<path fill="#FFFFFF" stroke="#CCCCCC" stroke-miterlimit="10" d="M411.079,214.345c0,0,7.522-18.608,20.191-17.816
	c12.669,0.791,4.354,24.15,4.354,24.15L411.079,214.345z"/>
<path fill="#FFFFFF" stroke="#CCCCCC" stroke-miterlimit="10" d="M435.229,220.679c0.792-4.354,13.066-19.796,21.776-17.816
	c8.708,1.979,6.333,22.172,1.187,22.567S435.229,220.679,435.229,220.679z"/>
<path fill="#FFFFFF" stroke="#CCCCCC" stroke-miterlimit="10" d="M467.338,222.993c-2.393-3.828,8.71-14.648,16.232-11.878
	c7.522,2.771,9.503,20.192,4.355,20.192C482.779,231.308,469.318,226.16,467.338,222.993z"/>
<path fill="#FFFFFF" stroke="#CCCCCC" stroke-miterlimit="10" d="M199.306,104.219c2.509,3.011,5.543,17.025,0,22.17
	c-5.542,5.147-9.897-4.354-10.689-6.334C187.824,118.077,197.326,101.844,199.306,104.219z"/>
<path fill="#FFFFFF" stroke="#CCCCCC" stroke-miterlimit="10" d="M215.143,115.7c3.659,2.644,3.166,21.776-2.376,22.172
	c-5.542,0.396-13.856-6.731-12.273-9.898C202.077,124.807,208.017,110.553,215.143,115.7z"/>
<path fill="#FFFFFF" stroke="#CCCCCC" stroke-miterlimit="10" d="M215.934,135.497c2.375-5.147,12.669-17.025,16.232-7.919
	c3.563,9.105-0.792,20.983-4.354,20.588c-3.563-0.396-11.878-5.543-12.669-8.71C214.351,136.288,215.934,135.497,215.934,135.497z"
	/>
<path fill="#FFFFFF" stroke="#CCCCCC" stroke-miterlimit="10" d="M239.688,134.309c3.979,0,16.233,3.563,11.482,13.064
	c-4.751,9.503-5.938,13.857-9.501,11.482c-3.563-2.376-10.294-3.563-11.086-7.126C229.792,148.166,236.125,134.309,239.688,134.309z
	"/>
<path fill="#FFFFFF" stroke="#CCCCCC" stroke-miterlimit="10" d="M260.672,146.582c4.08,1.932,5.939,17.816,1.188,22.963
	c-4.751,5.147-15.441-5.147-15.836-8.71C245.628,157.271,253.15,143.019,260.672,146.582z"/>
<path fill="#FFFFFF" stroke="#CCCCCC" stroke-miterlimit="10" d="M265.819,162.814c3.927-3.6,9.106-9.898,15.045-7.522
	c5.938,2.375,4.354,20.587-0.792,22.963c-5.147,2.375-13.065-1.188-15.044-4.751C265.028,173.504,261.067,167.168,265.819,162.814z"
	/>
<path fill="#FFFFFF" stroke="#CCCCCC" stroke-miterlimit="10" d="M681.132,144.998c0,0,4.751-10.294,12.273-5.938
	c7.521,4.354,7.521,13.064,7.521,13.064s11.482-0.791,11.085,11.878c-0.396,12.669-10.292,12.669-10.292,12.669
	s0.791,11.481-9.503,11.481c-8.71,0-7.522-9.897-7.522-9.897s-9.898,6.73-13.065-1.979c-3.166-8.71,2.771-13.461,2.771-13.461
	s-8.314-3.563-5.542-13.065C671.417,140.974,681.132,144.998,681.132,144.998z"/>
<ellipse fill="#FFFFFF" stroke="#CCCCCC" stroke-miterlimit="10" cx="687.862" cy="161.23" rx="5.939" ry="6.73"/>
<path fill="#FFFFFF" stroke="#CCCCCC" stroke-miterlimit="10" d="M822.473-2.677c18.607-2.771,47.112-6.73,53.052-5.542
	c5.938,1.188,23.755,66.909,20.983,82.745c-2.771,15.837-28.902,78.788-45.135,112.44c-16.231,33.653-28.505,70.472-30.089,76.411
	s-11.085,7.127-11.085,7.127s23.358-62.951,38.007-91.061c14.649-28.108,43.551-87.892,44.739-106.5
	c1.187-18.608-14.253-77.203-19.4-78.787c-5.146-1.583-41.176,3.959-56.615,5.543C801.489,1.282,822.473-2.677,822.473-2.677z"/>
<path fill="#FFFFFF" stroke="#CCCCCC" stroke-miterlimit="10" d="M947.977-30.5c1.188,4,0.791,9.754,5.938,21.236
	s11.48,44.667,7.126,65.65s-58.99,159.715-62.95,170.009c-3.959,10.294-7.126,5.82-7.126,5.82s41.571-104.578,49.093-124.771
	c7.522-20.191,15.046-41.6,17.024-52.289c1.98-10.689,4.064-54.5-15.44-75.886c-5.147-5.644-3.959-9.77-1.188-9.77
	C943.226-30.5,947.977-30.5,947.977-30.5z"/>
<path fill="#FFFFFF" stroke="#CCCCCC" stroke-miterlimit="10" d="M586.508,81.652c0,0,7.919,3.959,8.314,13.066
	c0.396,9.106,23.358-5.939,82.746,22.566c59.386,28.505,82.349,73.64,89.872,84.726c7.522,11.085,41.57,65.721,44.343,67.7
	c2.771,1.98,7.126-2.375,3.959-5.938c-3.168-3.562-43.154-64.137-53.448-81.953c-10.294-17.816-33.652-47.905-70.868-65.721
	c-43.057-20.612-83.539-19.4-87.498-22.567s2.377-7.126-7.126-15.045C587.301,70.567,586.508,81.652,586.508,81.652z"/>
<ellipse transform="matrix(0.9645 0.2642 -0.2642 0.9645 122.5364 -148.923)" fill="#FFFFFF" stroke="#CCCCCC" stroke-miterlimit="10" cx="614.924" cy="381.096" rx="5.33" ry="8.494"/>
<ellipse transform="matrix(0.9645 0.2642 -0.2642 0.9645 118.0634 -159.2153)" fill="#FFFFFF" stroke="#CCCCCC" stroke-miterlimit="10" cx="650.951" cy="359.32" rx="5.33" ry="8.494"/>
<ellipse transform="matrix(0.9645 0.2641 -0.2641 0.9645 114.3903 -168.6893)" fill="#FFFFFF" stroke="#CCCCCC" stroke-miterlimit="10" cx="684.604" cy="341.109" rx="5.33" ry="8.492"/>
<ellipse transform="matrix(0.9645 0.2642 -0.2642 0.9645 111.3786 -179.2666)" fill="#FFFFFF" stroke="#CCCCCC" stroke-miterlimit="10" cx="722.215" cy="324.48" rx="5.33" ry="8.493"/>
<ellipse transform="matrix(0.9122 0.4096 -0.4096 0.9122 151.4297 -252.7274)" fill="#FFFFFF" stroke="#CCCCCC" stroke-miterlimit="10" cx="665.6" cy="227.085" rx="5.331" ry="8.493"/>
<ellipse transform="matrix(0.9122 0.4097 -0.4097 0.9122 159.0352 -246.6663)" fill="#FFFFFF" stroke="#CCCCCC" stroke-miterlimit="10" cx="655.108" cy="247.772" rx="4.596" ry="7.325"/>
<ellipse transform="matrix(0.9123 0.4095 -0.4095 0.9123 166.4413 -240.4116)" fill="#FFFFFF" stroke="#CCCCCC" stroke-miterlimit="10" cx="644.617" cy="268.459" rx="3.864" ry="6.156"/>
<ellipse transform="matrix(0.9122 0.4098 -0.4098 0.9122 174.165 -234.4542)" fill="#FFFFFF" stroke="#CCCCCC" stroke-miterlimit="10" cx="634.125" cy="289.145" rx="3.13" ry="4.988"/>
<path fill="#FFFFFF" stroke="#CCCCCC" stroke-miterlimit="10" d="M625.82,310.814c-0.863,1.924-2.543,3.044-3.752,2.502
	c-1.207-0.542-1.485-2.542-0.623-4.467c0.867-1.925,2.545-3.045,3.753-2.503S626.684,308.889,625.82,310.814z"/>
<ellipse transform="matrix(0.9122 0.4097 -0.4097 0.9122 154.8681 -256.2975)" fill="#FFFFFF" stroke="#CCCCCC" stroke-miterlimit="10" cx="675.587" cy="233.286" rx="3.812" ry="6.075"/>
<ellipse transform="matrix(0.9599 0.2802 -0.2802 0.9599 97.1807 -177.2335)" fill="#FFFFFF" stroke="#CCCCCC" stroke-miterlimit="10" cx="668.349" cy="251.209" rx="3.711" ry="5.913"/>
<path fill="#FFFFFF" stroke="#CCCCCC" stroke-miterlimit="10" d="M664.151,274.557c-1.084,2.533-3.191,4.008-4.708,3.295
	c-1.516-0.715-1.865-3.347-0.78-5.881c1.084-2.533,3.192-4.008,4.708-3.293C664.887,269.391,665.235,272.023,664.151,274.557z"/>
<path fill="#FFFFFF" stroke="#CCCCCC" stroke-miterlimit="10" d="M662.224,286.478c-0.046,2.231-1.512,4.479-3.274,5.018
	c-1.762,0.539-3.154-0.832-3.109-3.064c0.047-2.234,1.514-4.479,3.275-5.019C660.877,282.871,662.269,284.244,662.224,286.478z"/>
<path fill="#FFFFFF" stroke="#CCCCCC" stroke-miterlimit="10" d="M668.954,294.791c-0.046,2.232-1.512,4.478-3.273,5.019
	c-1.763,0.54-3.155-0.834-3.11-3.066c0.048-2.232,1.514-4.478,3.275-5.019C667.608,291.186,668.999,292.559,668.954,294.791z"/>
<path fill="#FFFFFF" stroke="#CCCCCC" stroke-miterlimit="10" d="M678.853,294.791c-0.046,2.232-1.512,4.478-3.275,5.019
	c-1.762,0.54-3.153-0.834-3.108-3.066c0.046-2.232,1.512-4.478,3.275-5.019C677.505,291.186,678.897,292.559,678.853,294.791z"/>
<path fill="#FFFFFF" stroke="#CCCCCC" stroke-miterlimit="10" d="M689.146,283.706c-0.045,2.231-1.512,4.478-3.274,5.019
	c-1.762,0.538-3.153-0.834-3.108-3.066c0.046-2.232,1.512-4.479,3.275-5.019C687.799,280.101,689.19,281.474,689.146,283.706z"/>
<path fill="#FFFFFF" stroke="#CCCCCC" stroke-miterlimit="10" d="M689.146,272.225c-0.045,2.231-1.512,4.479-3.274,5.018
	c-1.762,0.54-3.153-0.832-3.108-3.064c0.046-2.234,1.512-4.479,3.275-5.019C687.799,268.618,689.19,269.991,689.146,272.225z"/>
<path fill="#FFFFFF" stroke="#CCCCCC" stroke-miterlimit="10" d="M681.428,270.708c-0.16,1.677-1.453,3.441-2.891,3.944
	c-1.436,0.501-2.469-0.449-2.31-2.125c0.161-1.678,1.455-3.444,2.892-3.946C680.555,268.079,681.588,269.03,681.428,270.708z"/>
<path fill="#FFFFFF" stroke="#CCCCCC" stroke-miterlimit="10" d="M673.92,278.715c-0.009,1.011-0.653,2.021-1.442,2.257
	c-0.787,0.234-1.419-0.395-1.411-1.407c0.009-1.012,0.655-2.021,1.442-2.258C673.296,277.071,673.928,277.702,673.92,278.715z"/>
<ellipse transform="matrix(0.9645 0.2641 -0.2641 0.9645 108.3182 -189.961)" fill="#FFFFFF" stroke="#CCCCCC" stroke-miterlimit="10" cx="760.619" cy="307.852" rx="5.33" ry="8.494"/>
<ellipse transform="matrix(0.9645 0.2642 -0.2642 0.9645 105.1668 -199.5884)" fill="#FFFFFF" stroke="#CCCCCC" stroke-miterlimit="10" cx="794.667" cy="291.224" rx="5.33" ry="8.493"/>
<ellipse transform="matrix(0.9645 0.2641 -0.2641 0.9645 101.0615 -210.4181)" fill="#FFFFFF" stroke="#CCCCCC" stroke-miterlimit="10" cx="833.07" cy="270.636" rx="5.33" ry="8.494"/>
<ellipse transform="matrix(0.9645 0.2642 -0.2642 0.9645 98.0467 -221.0917)" fill="#FFFFFF" stroke="#CCCCCC" stroke-miterlimit="10" cx="871.079" cy="254.008" rx="4.776" ry="7.521"/>
<ellipse transform="matrix(0.9645 0.2641 -0.2641 0.9645 95.4716 -230.2125)" fill="#FFFFFF" stroke="#CCCCCC" stroke-miterlimit="10" cx="903.953" cy="239.976" rx="3.873" ry="6.269"/>
<ellipse transform="matrix(0.9645 0.2642 -0.2642 0.9645 92.3281 -239.9461)" fill="#FFFFFF" stroke="#CCCCCC" stroke-miterlimit="10" cx="938.397" cy="223.347" rx="3.874" ry="6.27"/>
<ellipse transform="matrix(-0.8919 -0.4522 0.4522 -0.8919 1139.1283 705.21)" fill="#FFFFFF" stroke="#CCCCCC" stroke-miterlimit="10" cx="653.849" cy="216.46" rx="3.811" ry="6.075"/>
<ellipse transform="matrix(-0.8917 -0.4525 0.4525 -0.8917 1112.5823 739.5574)" fill="#FFFFFF" stroke="#CCCCCC" stroke-miterlimit="10" cx="644.747" cy="236.707" rx="3.668" ry="5.844"/>
<path fill="#FFFFFF" stroke="#CCCCCC" stroke-miterlimit="10" d="M628.924,251.286c-1.287,2.436-1.111,5.002,0.396,5.733
	c1.508,0.729,3.775-0.651,5.066-3.087c1.287-2.437,1.111-5.002-0.396-5.734C632.482,247.468,630.215,248.852,628.924,251.286z"/>
<path fill="#FFFFFF" stroke="#CCCCCC" stroke-miterlimit="10" d="M617.695,252.356c-1.709,1.438-2.534,3.989-1.848,5.7
	c0.688,1.71,2.631,1.931,4.338,0.494c1.707-1.44,2.535-3.991,1.848-5.702C621.346,251.139,619.404,250.919,617.695,252.356z"/>
<path fill="#FFFFFF" stroke="#CCCCCC" stroke-miterlimit="10" d="M606.205,249.573c-1.707,1.438-2.533,3.989-1.846,5.699
	c0.688,1.711,2.63,1.932,4.338,0.493c1.709-1.438,2.535-3.989,1.848-5.7C609.857,248.355,607.915,248.135,606.205,249.573z"/>
<path fill="#FFFFFF" stroke="#CCCCCC" stroke-miterlimit="10" d="M601.57,240.289c-1.707,1.438-2.533,3.989-1.846,5.7
	c0.688,1.71,2.63,1.93,4.338,0.492c1.707-1.438,2.535-3.99,1.846-5.701C605.222,239.071,603.279,238.852,601.57,240.289z"/>
<path fill="#FFFFFF" stroke="#CCCCCC" stroke-miterlimit="10" d="M600.562,229.671c-1.708,1.438-2.534,3.989-1.847,5.699
	c0.687,1.71,2.629,1.931,4.338,0.493c1.707-1.439,2.535-3.99,1.846-5.7C604.212,228.453,602.27,228.232,600.562,229.671z"/>
<path fill="#FFFFFF" stroke="#CCCCCC" stroke-miterlimit="10" d="M609.494,222.457c-1.707,1.438-2.535,3.99-1.848,5.701
	c0.688,1.709,2.631,1.929,4.338,0.491c1.709-1.438,2.535-3.989,1.848-5.7C613.146,221.239,611.202,221.019,609.494,222.457z"/>
<path fill="#FFFFFF" stroke="#CCCCCC" stroke-miterlimit="10" d="M620.273,218.799c-1.203,1.178-1.764,3.294-1.252,4.728
	c0.511,1.432,1.9,1.639,3.104,0.461c1.204-1.18,1.766-3.295,1.254-4.728C622.868,217.826,621.479,217.621,620.273,218.799z"/>
<path fill="#FFFFFF" stroke="#CCCCCC" stroke-miterlimit="10" d="M620.74,230.065c-0.78,0.643-1.162,1.779-0.85,2.541
	c0.312,0.76,1.198,0.856,1.982,0.214c0.78-0.642,1.16-1.778,0.85-2.54C622.41,229.52,621.523,229.423,620.74,230.065z"/>
<path fill="#FFFFFF" stroke="#CCCCCC" stroke-miterlimit="10" d="M689.842,53.542c0,0-1.188-5.938,5.938-7.917
	c7.126-1.98,19.004,1.188,19.004,1.188s17.42-8.314,23.754-2.771c6.335,5.542,3.168,9.106,3.168,9.106s13.065,2.771,9.503,8.71
	c-3.563,5.939-19.401,3.959-19.401,3.959s-7.522,6.731-17.419,4.355c-9.898-2.375-7.523-5.146-7.523-5.146
	s-16.213,2.538-20.587-4.751C683.902,56.314,689.842,53.542,689.842,53.542z"/>
<ellipse fill="#FFFFFF" stroke="#CCCCCC" stroke-miterlimit="10" cx="716.764" cy="56.116" rx="10.294" ry="3.365"/>
<path fill="#FFFFFF" stroke="#CCCCCC" stroke-miterlimit="10" d="M553.477,101.999c0,0-0.275-4.957,5.74-5.737
	c6.018-0.781,15.297,1.584,15.297,1.584s15.109-3.142,19.611,2.09c4.502,5.233,1.517,7.757,1.517,7.757s10.289,3.764,6.706,8.169
	c-3.582,4.406-16.213,0.962-16.213,0.962s-6.889,4.589-14.65,1.513c-7.764-3.075-5.514-5.048-5.514-5.048
	s-13.461,0.179-16.168-6.243C548.332,103.558,553.477,101.999,553.477,101.999z"/>
<ellipse transform="matrix(0.99 0.1414 -0.1414 0.99 21.0092 -80.4989)" fill="#FFFFFF" stroke="#CCCCCC" stroke-miterlimit="10" cx="577.021" cy="107.604" rx="8.444" ry="2.758"/>
<path fill="#FFFFFF" stroke="#CCCCCC" stroke-miterlimit="10" d="M797.926,39.289c0,0,8.71-5.938,17.42-1.979
	c8.711,3.959,7.918,12.273,7.918,12.273s11.085-0.792,10.689,8.314c-0.396,9.106-9.501,11.086-15.044,9.502
	c-1.188,2.375-1.979,11.085-15.44,7.918c-13.462-3.167-12.67-11.481-12.67-11.481s-19.315,1.358-22.171-7.918
	c-1.584-5.147,7.919-7.522,7.919-7.522s-3.8-6.67,3.562-9.502C790.403,34.935,797.926,39.289,797.926,39.289z"/>
<ellipse fill="#FFFFFF" stroke="#CCCCCC" stroke-miterlimit="10" cx="805.25" cy="54.334" rx="9.304" ry="5.543"/>
<path fill="#FFFFFF" stroke="#CCCCCC" stroke-miterlimit="10" d="M726.069,80.536c-1.228,2.107-3.613,3.333-5.328,2.74
	c-1.715-0.593-2.11-2.782-0.882-4.89c1.228-2.107,3.611-3.333,5.328-2.74C726.902,76.239,727.296,78.428,726.069,80.536z"/>
<path fill="#FFFFFF" stroke="#CCCCCC" stroke-miterlimit="10" d="M716.308,91.631c-0.855,2.259-3.039,3.754-4.879,3.341
	c-1.839-0.414-2.638-2.579-1.782-4.84c0.854-2.258,3.039-3.755,4.878-3.341C716.364,87.205,717.162,89.372,716.308,91.631z"/>
<path fill="#FFFFFF" stroke="#CCCCCC" stroke-miterlimit="10" d="M708.793,103.512c-0.97,1.744-2.852,2.759-4.205,2.267
	c-1.354-0.491-1.666-2.302-0.697-4.046c0.968-1.744,2.852-2.759,4.205-2.267C709.449,99.956,709.761,101.769,708.793,103.512z"/>
<path fill="#FFFFFF" stroke="#CCCCCC" stroke-miterlimit="10" d="M708.259,111.717c-0.041,1.536-1.35,3.083-2.925,3.454
	c-1.573,0.371-2.816-0.573-2.775-2.11c0.041-1.536,1.35-3.083,2.925-3.454C707.057,109.235,708.299,110.181,708.259,111.717z"/>
<path fill="#FFFFFF" stroke="#CCCCCC" stroke-miterlimit="10" d="M712.289,119.023c-0.041,1.537-1.35,3.083-2.924,3.454
	s-2.816-0.573-2.776-2.11c0.041-1.536,1.351-3.083,2.925-3.454C711.087,116.542,712.329,117.487,712.289,119.023z"/>
<path fill="#FFFFFF" stroke="#CCCCCC" stroke-miterlimit="10" d="M721.921,124.17c-0.043,1.537-1.351,3.083-2.925,3.454
	s-2.817-0.573-2.776-2.11c0.042-1.536,1.351-3.083,2.925-3.454S721.961,122.634,721.921,124.17z"/>
<path fill="#FFFFFF" stroke="#CCCCCC" stroke-miterlimit="10" d="M733.885,121.292c-0.043,1.535-1.351,3.082-2.925,3.454
	c-1.573,0.37-2.817-0.574-2.776-2.11c0.041-1.538,1.351-3.083,2.925-3.454C732.683,118.809,733.924,119.754,733.885,121.292z"/>
<path fill="#FFFFFF" stroke="#CCCCCC" stroke-miterlimit="10" d="M739.427,113.388c-0.041,1.536-1.35,3.083-2.925,3.454
	c-1.573,0.371-2.816-0.573-2.775-2.111c0.042-1.536,1.35-3.082,2.925-3.454C738.225,110.906,739.467,111.852,739.427,113.388z"/>
<path fill="#FFFFFF" stroke="#CCCCCC" stroke-miterlimit="10" d="M733.326,105.219c-0.143,1.153-1.298,2.369-2.581,2.714
	c-1.282,0.346-2.205-0.31-2.062-1.463c0.144-1.155,1.3-2.37,2.581-2.715C732.546,103.409,733.47,104.064,733.326,105.219z"/>
<path fill="#FFFFFF" stroke="#CCCCCC" stroke-miterlimit="10" d="M724.247,107.562c-0.008,0.696-0.585,1.391-1.288,1.553
	c-0.704,0.162-1.269-0.271-1.262-0.967c0.008-0.698,0.584-1.393,1.288-1.554C723.689,106.431,724.253,106.864,724.247,107.562z"/>
<path fill="#FFFFFF" stroke="#CCCCCC" stroke-miterlimit="10" d="M549.689,115.305c0,0,84.725,45.134,101.353,61.762
	c16.628,16.628,45.134,69.68,58.595,87.1c13.462,17.421,27.715,39.593,37.216,41.177c9.502,1.582-0.791-3.961-13.461-17.421
	c-12.669-13.462-49.093-68.098-55.428-83.935c-6.335-15.836-30.88-36.423-45.134-45.925c-14.254-9.501-81.559-45.926-81.559-45.926
	L549.689,115.305z"/>
<path fill="#FFFFFF" stroke="#CCCCCC" stroke-miterlimit="10" d="M535.436,184.986c1.583,1.583,8.314,3.563,10.689,0.396
	c2.376-3.167,14.254-33.652,11.481-38.404S535.436,184.986,535.436,184.986z"/>
<path fill="#FFFFFF" stroke="#CCCCCC" stroke-miterlimit="10" d="M553.647,136.684c-21.774,8.71-34.444,36.029-30.089,41.572
	c4.354,5.542,15.044,8.313,15.044,8.313s8.314-30.485,16.629-37.611C563.545,141.831,553.647,136.684,553.647,136.684z"/>
<path fill="#FFFFFF" stroke="#CCCCCC" stroke-miterlimit="10" d="M559.19,144.603c-7.919,13.857-19.399,78.391-18.212,88.685
	l3.959-8.314l8.71,11.085c0,0-1.979-65.721,10.294-86.308C576.215,129.162,559.19,144.603,559.19,144.603z"/>
<path fill="#FFFFFF" stroke="#CCCCCC" stroke-miterlimit="10" d="M582.451,184.986c-3.168,0.792-8.312,3.563-10.689,0.396
	c-2.375-3.167-14.253-33.652-11.48-38.404C563.052,142.226,582.451,184.986,582.451,184.986z"/>
<path fill="#FFFFFF" stroke="#CCCCCC" stroke-miterlimit="10" d="M564.24,136.684c21.774,8.71,35.729,35.236,31.375,40.779
	c-4.355,5.543-17.816,9.106-17.816,9.106s0.396-25.733-15.143-37.611C553.956,142.307,564.24,136.684,564.24,136.684z"/>
<path fill="#FFFFFF" stroke="#CCCCCC" stroke-miterlimit="10" d="M561.468,144.603c7.919,13.857,19.399,78.391,18.213,88.685
	l-3.96-8.314l-7.82,9.898c0,0,1.188-64.139-11.085-84.726C544.542,129.557,561.468,144.603,561.468,144.603z"/>
<ellipse transform="matrix(-0.8181 0.5751 -0.5751 -0.8181 1802.4747 -361.3055)" fill="#FFFFFF" stroke="#CCCCCC" stroke-miterlimit="10" cx="958.377" cy="104.404" rx="5.33" ry="8.494"/>
<path fill="#FFFFFF" stroke="#CCCCCC" stroke-miterlimit="10" d="M946.286,123.228c2.041,2.498,4.92,3.443,6.425,2.113
	c1.51-1.332,1.077-4.437-0.964-6.937c-2.041-2.498-4.919-3.445-6.428-2.113C943.812,117.623,944.244,120.728,946.286,123.228z"/>
<path fill="#FFFFFF" stroke="#CCCCCC" stroke-miterlimit="10" d="M957.691,135.632c1.646,2.693,4.298,4.006,5.923,2.931
	c1.626-1.073,1.609-4.127-0.036-6.822c-1.646-2.692-4.297-4.005-5.924-2.93C956.029,129.884,956.047,132.938,957.691,135.632z"/>
<path fill="#FFFFFF" stroke="#CCCCCC" stroke-miterlimit="10" d="M953.055,172.693c0.627,2.082,2.535,3.792,4.268,3.819
	s2.63-1.639,2.004-3.723c-0.625-2.082-2.535-3.792-4.268-3.819S952.43,170.61,953.055,172.693z"/>
<path fill="#FFFFFF" stroke="#CCCCCC" stroke-miterlimit="10" d="M942.447,168.258c0.625,2.082,2.535,3.791,4.268,3.819
	c1.732,0.026,2.63-1.64,2.004-3.724c-0.625-2.082-2.535-3.792-4.27-3.817C942.72,164.507,941.822,166.174,942.447,168.258z"/>
<path fill="#FFFFFF" stroke="#CCCCCC" stroke-miterlimit="10" d="M939.443,157.482c0.626,2.082,2.536,3.792,4.269,3.819
	c1.731,0.027,2.628-1.641,2.004-3.723c-0.627-2.082-2.536-3.792-4.27-3.819C939.715,153.733,938.819,155.399,939.443,157.482z"/>
<path fill="#FFFFFF" stroke="#CCCCCC" stroke-miterlimit="10" d="M946.013,153.96c0.583,1.529,2.212,2.835,3.641,2.916
	c1.428,0.08,2.111-1.094,1.528-2.624c-0.583-1.53-2.213-2.835-3.641-2.916C946.114,151.255,945.43,152.429,946.013,153.96z"/>
<path fill="#FFFFFF" stroke="#CCCCCC" stroke-miterlimit="10" d="M954.885,159.431c0.272,0.948,1.119,1.72,1.893,1.727
	c0.771,0.006,1.178-0.757,0.904-1.703c-0.271-0.948-1.118-1.72-1.892-1.728C955.018,157.72,954.611,158.483,954.885,159.431z"/>
<path fill="#FFFFFF" stroke="#CCCCCC" stroke-miterlimit="10" d="M887.798,146.582c0.396-6.335,3.167-11.878,10.689-11.085
	c6.704,0.705,3.167,10.689,3.167,10.689s8.71-0.397,8.314,8.71c-0.251,5.758-7.127,9.106-7.127,9.106s5.543,9.897-1.979,13.46
	c-5.656,2.68-10.294,0.793-10.294,0.793s-4.354,8.313-11.48,3.958c-5.593-3.417,1.979-12.273,1.979-12.273s-6.771-4.362-5.543-11.48
	C877.504,146.978,887.798,146.582,887.798,146.582z"/>
<path fill="#FFFFFF" stroke="#CCCCCC" stroke-miterlimit="10" d="M772.19,89.966c-4.124-0.258-18.606,9.501-18.606,13.065
	c0,3.563-1.188,18.608-0.793,18.213c0.396-0.397,19.399-0.792,22.963-8.314C779.317,105.407,778.525,90.362,772.19,89.966z
	 M771.399,106.99c-2.272,5.195-13.593,10.122-16.286,11.291c-0.109,0.083-0.223,0.151-0.342,0.191
	c-0.428,0.143-0.25,0.065,0.342-0.191c2.039-1.553,2.174-10.283,4.804-13.666c2.772-3.563,9.107-7.522,11.878-7.522
	C771.795,97.093,774.17,100.656,771.399,106.99z"/>
<path fill="#FFFFFF" stroke="#CCCCCC" stroke-miterlimit="10" d="M742.498,216.658c0,0,3.959-8.709,9.502-6.729
	c5.542,1.979,4.751,9.896,4.751,9.896s7.126,1.979,5.938,7.919c-1.188,5.938-5.938,7.522-5.938,7.522s1.376,12.632-6.73,14.253
	c-5.939,1.188-7.919-1.188-7.919-1.188s-7.127,3.96-9.502,0c-2.375-3.959,3.168-11.085,3.168-11.085s-6.73-6.731-3.168-13.065
	c3.563-6.335,10.294-7.522,10.294-7.522"/>
<path fill="#FFFFFF" stroke="#CCCCCC" stroke-miterlimit="10" d="M783.673,179.046c0,0,0-39.195,12.669-69.68
	c6.937-16.689-8.314-33.652-17.816-38.404c-9.501-4.75-24.546,0-15.44,3.959s23.367,9.34,26.922,24.15
	c2.376,9.898-4.496,25.88-6.729,40.779C780.901,155.688,783.673,179.046,783.673,179.046z"/>
<ellipse transform="matrix(0.9308 0.3656 -0.3656 0.9308 136.502 -257.0035)" fill="#FFFFFF" stroke="#CCCCCC" stroke-miterlimit="10" cx="746.979" cy="231.99" rx="4.042" ry="5.74"/>
<ellipse transform="matrix(0.9859 0.1674 -0.1674 0.9859 39.6243 -147.4759)" fill="#FFFFFF" stroke="#CCCCCC" stroke-miterlimit="10" cx="894.33" cy="161.23" rx="4.234" ry="6.855"/>
<path fill="#FFFFFF" stroke="#CCCCCC" stroke-miterlimit="10" d="M756.751,263.376c-7.126,1.584-9.898,10.294-5.542,13.064
	c4.354,2.772,9.501-0.396,12.668-2.375s5.938-3.958,5.938-3.958C759.917,266.146,763.877,261.792,756.751,263.376z M755.562,272.878
	c-2.375-1.188-3.958-3.168-0.791-3.563c3.166-0.396,5.938,1.188,7.127,1.188C764.913,270.503,757.938,274.065,755.562,272.878z"/>
<path fill="#FFFFFF" stroke="#CCCCCC" stroke-miterlimit="10" d="M622.537,133.121c-5.939-3.167-10.689,0.792-15.046-0.396
	c-4.354-1.188,1.188,9.105,7.126,11.085c5.939,1.979,18.609,0.792,18.609,0.792C627.287,140.247,628.475,136.288,622.537,133.121z
	 M614.223,140.247c-5.543-1.584-5.939-5.543-5.147-5.147c0.792,0.397,5.938,0,9.105,1.188c3.168,1.188,2.772,3.167,5.94,4.751
	C624.121,141.04,619.765,141.831,614.223,140.247z"/>
<path fill="#FFFFFF" stroke="#CCCCCC" stroke-miterlimit="10" d="M855.729,22.662c-3.167,0-11.086-3.563-16.628-3.959
	c-5.543-0.396-13.065,2.771-17.816,3.563c0,0,0.793,0.396,11.085,4.751C842.663,31.371,858.896,22.662,855.729,22.662z
	 M839.496,24.641c-3.959-1.188-8.711-2.375-9.106-2.375c-3.562,0,5.94-1.188,9.898-1.188c3.959,0,6.334,1.188,8.71,1.188
	C851.373,22.265,843.456,25.829,839.496,24.641z"/>
<path fill="#FFFFFF" stroke="#CCCCCC" stroke-miterlimit="10" d="M929.5,10.388c0-4.751-1.65-9.106,0.727-10.294
	c2.373-1.188,16.594,1.979,16.594,1.979s1.438,8.314-1.73,10.294c-3.168,1.979-10.59-1.188-15.59-1.584V10.388z"/>
<path fill="#FFFFFF" stroke="#CCCCCC" stroke-miterlimit="10" d="M911.156-3.073c0,2.771,0.396,4.354,3.959,7.918
	c3.563,3.563,11.086,9.501,7.918,13.46c-3.166,3.959-4.75,3.959-3.563,4.751c1.188,0.792,12.274-4.751,9.107-8.71
	c-3.168-3.958-11.878-9.897-13.066-12.669c-1.187-2.771-1.979-5.938-0.791-7.918C915.906-8.22,911.156-3.073,911.156-3.073z"/>
<path fill="#FFFFFF" stroke="#CCCCCC" stroke-miterlimit="10" d="M901.654,119.66c-1.188,2.375-1.469,7.941,4.355,9.106
	c5.938,1.187,13.857-2.285,13.857-16.232c0-13.461,0.396-22.567,1.583-26.526c1.188-3.96,5.938-8.71,5.938-8.71
	s-6.334,2.771-9.105,7.918c-2.772,5.147-1.979,16.326-1.979,22.171c0,5.938-1.584,14.253-7.919,13.857
	C905.199,121.045,902.842,117.284,901.654,119.66z"/>
<path fill="#FFFFFF" stroke="#CCCCCC" stroke-miterlimit="10" d="M942.435,84.819c-1.188,3.168-11.878,7.522-15.837,12.273
	c-3.96,4.751,0.791,7.918-1.584,12.669c0,0,3.168-0.396,9.502-3.167C940.851,103.824,943.621,81.652,942.435,84.819z
	 M930.557,100.656c-2.997,0.333,1.188-5.938,4.354-7.126s4.751-3.167,5.146-3.959C940.453,88.778,937.683,99.864,930.557,100.656z"
	/>
<path fill="#FFFFFF" stroke="#CCCCCC" stroke-miterlimit="10" d="M877.504,192.903c-4.751,4.752-9.898,13.462-10.294,20.588
	c-0.396,7.127-2.375,17.023-6.335,19.003c-3.959,1.979,10.294-0.396,9.898-17.815C870.378,197.258,877.504,192.903,877.504,192.903z
	"/>
<path fill="#FFFFFF" stroke="#CCCCCC" stroke-miterlimit="10" d="M877.504,212.304c-5.542,17.42,15.837,3.562,17.421-3.959
	c1.583-7.522,3.562-10.294,3.562-10.294C892.152,200.03,883.047,194.883,877.504,212.304z M888.193,209.136
	c-0.396,5.147-5.938,5.939-6.335,3.959c-0.391-1.951,4.224-6.982,7.769-9.4c0.093-0.082,0.15-0.102,0.15-0.102
	c-0.05,0.034-0.1,0.068-0.15,0.102C889.296,203.994,888.503,205.115,888.193,209.136z"/>
<path fill="#FFFFFF" stroke="#CCCCCC" stroke-miterlimit="10" d="M711.616,178.651c7.127,1.583,13.064,5.938,13.857,15.441
	c0.791,9.501,5.938,10.689,9.105,10.689c3.168,0,8.314,3.563,5.543,6.334c-2.771,2.771-10.294,3.563-13.064,0.396
	c-2.772-3.167-3.756-8.702-3.959-15.44C722.701,183.005,711.616,178.651,711.616,178.651z"/>
<path fill="#FFFFFF" stroke="#CCCCCC" stroke-miterlimit="10" d="M761.105,243.184c8.314,1.188,11.482,9.107,12.669,11.878
	c1.188,2.772,4.355,6.335,6.335,5.939c1.979-0.396,7.918,0.396,6.334,2.771s-7.126,6.336-11.48,1.979
	c-4.355-4.354-3.168-9.501-5.543-13.856C767.044,247.54,761.105,243.184,761.105,243.184z"/>
<path fill="#FFFFFF" stroke="#CCCCCC" stroke-miterlimit="10" d="M910.761,34.935c0,0,1.583-7.523,9.106-5.939
	c6.632,1.396,7.917,8.314,7.917,8.314s10.294-0.792,11.878,7.918c1.424,7.83-4.354,9.502-4.354,9.502s4.354,8.71,0.396,11.877
	c-3.825,3.06-10.294-2.375-10.294-2.375s-3.271,4.437-9.898,0.792c-7.917-4.355-5.146-10.69-5.146-10.69s-11.481-5.938-9.897-13.461
	C902.051,33.351,910.761,34.935,910.761,34.935z"/>
<ellipse fill="#FFFFFF" stroke="#CCCCCC" stroke-miterlimit="10" cx="923.43" cy="47.604" rx="5.542" ry="6.334"/>
<path fill="#FFFFFF" stroke="#CCCCCC" stroke-miterlimit="10" d="M601.949,118.472c5.542-0.792,18.607,0.396,26.13,7.917
	c7.522,7.523,14.253,11.482,20.983,11.482s10.294-1.584,11.086,2.375c0.791,3.96-10.689,7.919-18.607,2.376
	c-7.92-5.544-13.462-14.649-21.381-18.608C612.242,120.056,601.949,118.472,601.949,118.472z"/>
<path fill="#FFFFFF" stroke="#CCCCCC" stroke-miterlimit="10" d="M839.893,2.47c-6.047,8.063-18.213,7.126-26.526,7.522
	c-8.314,0.396-17.42,4.355-20.192,11.086c-2.771,6.73,1.979,8.314,3.959,7.522s1.979-5.146,3.961-8.314
	c1.979-3.167,7.126-5.542,11.48-5.939c4.355-0.396,21.774,0,25.734-6.334C842.268,1.678,841.08,0.886,839.893,2.47z"/>
<path fill="#FFFFFF" stroke="#CCCCCC" stroke-miterlimit="10" d="M679.152,63.836c-1.848,0.711,1.187,4.355-1.584,6.334
	c-2.772,1.98-26.922,2.376-35.236,3.959c-8.314,1.584-18.211,6.731-22.567,13.461c-4.354,6.729,5.939-8.71,26.922-9.898
	c20.983-1.188,32.466,0,36.82-2.376C687.862,72.942,689.446,59.877,679.152,63.836z"/>
<path fill="#FFFFFF" stroke="#CCCCCC" stroke-miterlimit="10" d="M670.046,79.277c-3.595,4.792-22.962,6.334-18.212,11.878
	c4.751,5.542,14.649,6.334,20.983,3.958C679.152,92.737,671.233,77.693,670.046,79.277z M669.254,90.362
	c-1.979,2.375-10.689,3.167-9.502-0.396c1.188-3.563,7.918-4.355,10.69-6.335C670.442,83.631,671.233,87.987,669.254,90.362z"/>
<path fill="#FFFFFF" stroke="#CCCCCC" stroke-miterlimit="10" d="M656.189,61.856c-2.772-0.792-17.816,0.792-20.984,3.959
	c-3.167,3.167-2.771,6.335,3.563,5.147c6.335-1.188,19.399-0.792,19.399-0.792C655.793,66.607,658.96,62.648,656.189,61.856z
	 M647.479,66.607c-3.562,0.396-6.334-0.792-6.334-0.792c3.167-0.791,3.167-2.375,7.522-1.583
	C653.021,65.024,651.042,66.212,647.479,66.607z"/>
<ellipse transform="matrix(0.8501 -0.5266 0.5266 0.8501 93.0727 454.2489)" fill="#FFFFFF" stroke="#CCCCCC" stroke-miterlimit="10" cx="844.446" cy="63.638" rx="6.532" ry="7.325"/>
<ellipse transform="matrix(0.7242 -0.6896 0.6896 0.7242 181.6936 610.1154)" fill="#FFFFFF" stroke="#CCCCCC" stroke-miterlimit="10" cx="853.575" cy="77.916" rx="4.567" ry="4.751"/>
<ellipse fill="#FFFFFF" stroke="#CCCCCC" stroke-miterlimit="10" cx="864.834" cy="89.372" rx="4.355" ry="4.554"/>
<circle fill="#FFFFFF" stroke="#CCCCCC" stroke-miterlimit="10" cx="876.515" cy="91.353" r="4.157"/>
<ellipse fill="#FFFFFF" stroke="#CCCCCC" stroke-miterlimit="10" cx="883.244" cy="82.444" rx="2.97" ry="3.167"/>
<circle fill="#FFFFFF" stroke="#CCCCCC" stroke-miterlimit="10" cx="884.432" cy="71.557" r="4.158"/>
<circle fill="#FFFFFF" stroke="#CCCCCC" stroke-miterlimit="10" cx="877.108" cy="61.856" r="3.167"/>
<ellipse transform="matrix(0.4529 0.8916 -0.8916 0.4529 528.574 -738.8741)" fill="#FFFFFF" stroke="#CCCCCC" stroke-miterlimit="10" cx="866.297" cy="61.227" rx="2.745" ry="2.772"/>
<ellipse transform="matrix(0.6645 0.7473 -0.7473 0.6645 341.7859 -621.5286)" fill="#FFFFFF" stroke="#CCCCCC" stroke-miterlimit="10" cx="863.026" cy="69.848" rx="2.404" ry="2.188"/>
<ellipse fill="#FFFFFF" stroke="#CCCCCC" stroke-miterlimit="10" cx="870.378" cy="75.515" rx="1.979" ry="1.782"/>
<ellipse transform="matrix(0.9635 0.2676 -0.2676 0.9635 30.0342 -112.5546)" fill="#FFFFFF" stroke="#CCCCCC" stroke-miterlimit="10" cx="427.906" cy="53.898" rx="39.835" ry="13.44"/>
<path fill="#FFFFFF" stroke="#CCCCCC" stroke-miterlimit="10" d="M819.305,108.574c-4.693-8.605-12.273-10.292-12.273-10.292
	c-1.584,7.126-5.938,20.586-4.751,25.733c1.188,5.147,14.253,17.816,14.253,17.816S826.432,121.64,819.305,108.574z
	 M815.742,135.497c-0.396-1.584-4.752-5.147-7.127-8.315s0.396-9.105,2.771-15.441c0,0,3.563,0.396,5.146,3.563
	C820.18,122.597,816.137,137.079,815.742,135.497z"/>
<path fill="#FFFFFF" stroke="#CCCCCC" stroke-miterlimit="10" d="M719.139,209.531c-3.166,0-2.375-7.126-8.71-7.521
	c-6.334-0.396-18.229,6.724-14.253,8.314c1.98,0.791,5.146,7.521,10.689,7.917C712.409,218.639,722.306,209.531,719.139,209.531z
	 M704.886,212.304c-2.771-0.792-3.959-3.168-3.959-3.168c1.979-0.791,3.168-2.771,6.335-2.771s3.167,2.375,5.147,2.771
	C714.389,209.531,707.657,213.095,704.886,212.304z"/>
<path fill="#FFFFFF" stroke="#CCCCCC" stroke-miterlimit="10" d="M555.004,117.705c-4.621,17.67-27.393,16.521-53.561,9.471
	c-39.647-10.683-44.399-20.186-41.002-35.737c2.764-12.66,27.448-16.726,53.561-9.472C540.113,89.22,559.981,98.677,555.004,117.705
	z"/>
<ellipse transform="matrix(0.9635 0.2677 -0.2677 0.9635 44.7018 -133.9011)" fill="#FFFFFF" stroke="#CCCCCC" stroke-miterlimit="10" cx="513.499" cy="97.015" rx="39.835" ry="14.633"/>
</svg>
