<?xml version="1.0" encoding="utf-8"?>
<!-- Generator: Adobe Illustrator 16.0.0, SVG Export Plug-In . SVG Version: 6.00 Build 0)  -->
<!DOCTYPE svg PUBLIC "-//W3C//DTD SVG 1.1//EN" "http://www.w3.org/Graphics/SVG/1.1/DTD/svg11.dtd">
<svg version="1.1" id="Layer_1" xmlns="http://www.w3.org/2000/svg" xmlns:xlink="http://www.w3.org/1999/xlink" x="0px" y="0px"
	 width="662px" height="548px" viewBox="0 0 662 548" enable-background="new 0 0 662 548" xml:space="preserve">
<g opacity="0.2">
	<path fill="none" stroke="#231F20" stroke-miterlimit="10" d="M118.5,191.125c0-4.95,4.05-14.152,14.147-14.152
		c8.892,0,14.147,9.064,14.147,14.152v169.793c0,5.083-3.952,14.148-14.147,14.148c-10.463,0-14.147-9.198-14.147-14.148V191.125z"
		/>
	<path fill="none" stroke="#231F20" stroke-miterlimit="10" d="M515.388,191.125c0-4.95,4.062-14.152,14.148-14.152
		c8.892,0,14.147,9.064,14.147,14.152v169.793c0,5.083-3.952,14.148-14.147,14.148c-10.454,0-14.148-9.198-14.148-14.148V191.125z"
		/>
	<path fill="none" stroke="#231F20" stroke-miterlimit="10" d="M314.464,193.248c0-4.949,4.061-14.147,14.157-14.147
		c8.892,0,14.148,9.06,14.148,14.147v169.794c0,5.083-3.953,14.142-14.148,14.142c-10.462,0-14.157-9.198-14.157-14.142V193.248z"/>
	<path fill="none" stroke="#231F20" stroke-miterlimit="10" d="M211.883,242.064c0-4.945,4.07-14.153,14.148-14.153
		c8.901,0,14.158,9.07,14.158,14.153v169.793c0,5.083-3.962,14.147-14.158,14.147c-10.453,0-14.148-9.203-14.148-14.147V242.064z"/>
	<path fill="none" stroke="#231F20" stroke-miterlimit="10" d="M414.22,136.652c0-4.949,4.061-14.152,14.148-14.152
		c8.911,0,14.146,9.064,14.146,14.152v169.789c0,5.083-3.95,14.152-14.146,14.152c-10.464,0-14.148-9.208-14.148-14.152V136.652z"/>
</g>
</svg>
