<?xml version="1.0" encoding="utf-8"?>
<!-- Generator: Adobe Illustrator 16.0.0, SVG Export Plug-In . SVG Version: 6.00 Build 0)  -->
<!DOCTYPE svg PUBLIC "-//W3C//DTD SVG 1.1//EN" "http://www.w3.org/Graphics/SVG/1.1/DTD/svg11.dtd">
<svg version="1.1" id="Layer_1" xmlns="http://www.w3.org/2000/svg" xmlns:xlink="http://www.w3.org/1999/xlink" x="0px" y="0px"
	 width="640px" height="360px" viewBox="0 0 640 360" enable-background="new 0 0 640 360" xml:space="preserve">
<g>
	<path fill="#FFFFFF" stroke="#E0D04E" stroke-miterlimit="10" d="M406.599,194.417c0-47.684-38.654-86.339-86.339-86.339
		c-47.684,0-86.338,38.655-86.338,86.339c0,8.354,1.191,16.427,3.404,24.067c8.553,31.79,33.383,56.467,42.756,91.336
		c0.158,0.587,0.326,1.081,0.503,1.497c5.606,16.528,21.253,28.423,39.675,28.423c17.908,0,33.188-11.238,39.18-27.047
		c0.524-0.435,0.997-1.365,1.402-2.873c10.686-39.749,41.461-66.25,45.307-105.145c0,0-0.061,0.032-0.169,0.09
		C406.386,201.374,406.599,197.922,406.599,194.417z"/>
	<g>
		<path fill="#E6E7E8" d="M306.646,174.647c-0.525-5.084,2.279-8.941,7.014-8.941h17.182c4.734,0,7.539,3.857,7.014,8.941
			l-7.539,65.921c-0.526,4.736-3.682,7.716-8.065,7.716c-4.383,0-7.539-2.979-8.065-7.716L306.646,174.647z M322.251,259.856
			c8.767,0,15.255,6.486,15.255,14.903v0.35c0,8.414-6.488,14.902-15.255,14.902c-8.766,0-15.253-6.488-15.253-14.902v-0.35
			C306.998,266.343,313.485,259.856,322.251,259.856z"/>
	</g>
	<g>
		<path fill="none" stroke="#3B2A57" stroke-miterlimit="10" d="M303.135,171.183c-0.527-5.084,2.279-8.941,7.012-8.941h17.183
			c4.735,0,7.539,3.857,7.014,8.941l-7.538,65.922c-0.527,4.735-3.684,7.716-8.066,7.716s-7.539-2.98-8.064-7.716L303.135,171.183z
			 M318.738,256.392c8.767,0,15.254,6.485,15.254,14.901v0.352c0,8.414-6.487,14.902-15.254,14.902
			c-8.766,0-15.252-6.488-15.252-14.902v-0.352C303.486,262.877,309.973,256.392,318.738,256.392z"/>
	</g>
	<g>
		<path fill="#FFFFFF" stroke="#6EBF67" stroke-miterlimit="10" d="M490.5,191.5c0,4.418-3.582,8-8,8h-39c-4.418,0-8-3.582-8-8l0,0
			c0-4.418,3.582-8,8-8h39C486.918,183.5,490.5,187.082,490.5,191.5L490.5,191.5z"/>
		<path fill="#FFFFFF" stroke="#6EBF67" stroke-miterlimit="10" d="M431.585,135.263c-3.866,2.264-8.88,0.955-11.145-2.911
			l-0.265-0.452c-2.265-3.866-0.955-8.879,2.911-11.144l33.095-19.387c3.865-2.264,8.88-0.955,11.145,2.91l0.266,0.452
			c2.264,3.866,0.952,8.881-2.913,11.145L431.585,135.263z"/>
		<path fill="#FFFFFF" stroke="#6EBF67" stroke-miterlimit="10" d="M390.079,87.751c-2.263,3.864-7.277,5.175-11.142,2.91
			l-0.454-0.266c-3.864-2.264-5.173-7.278-2.909-11.143l19.386-33.095c2.265-3.865,7.279-5.178,11.145-2.913l0.453,0.266
			c3.865,2.264,5.174,7.279,2.909,11.144L390.079,87.751z"/>
		<path fill="#FFFFFF" stroke="#6EBF67" stroke-miterlimit="10" d="M327.5,67.5c0,4.418-3.582,8-8,8l0,0c-4.418,0-8-3.582-8-8v-39
			c0-4.418,3.582-8,8-8l0,0c4.418,0,8,3.582,8,8V67.5z"/>
		<path fill="#FFFFFF" stroke="#6EBF67" stroke-miterlimit="10" d="M264.947,79.254c2.264,3.864,0.955,8.878-2.91,11.142
			l-0.453,0.265c-3.865,2.266-8.879,0.956-11.144-2.909l-19.387-33.096c-2.265-3.865-0.956-8.881,2.91-11.146l0.452-0.265
			c3.865-2.265,8.88-0.952,11.145,2.913L264.947,79.254z"/>
		<path fill="#FFFFFF" stroke="#6EBF67" stroke-miterlimit="10" d="M217.436,120.757c3.864,2.264,5.174,7.278,2.91,11.143
			l-0.266,0.452c-2.264,3.866-7.277,5.175-11.143,2.912l-33.096-19.388c-3.865-2.264-5.177-7.278-2.912-11.145l0.266-0.452
			c2.264-3.865,7.279-5.174,11.144-2.91L217.436,120.757z"/>
		<path fill="#FFFFFF" stroke="#6EBF67" stroke-miterlimit="10" d="M196.27,183.5c4.479,0,7.23,2.335,7.23,6.813v0.524
			c0,4.479-2.752,9.662-7.23,9.662h-38.356c-4.479,0-8.413-5.183-8.413-9.662v-0.524c0-4.479,3.934-6.813,8.413-6.813H196.27z"/>
	</g>
</g>
</svg>
