<?xml version="1.0" encoding="utf-8"?>
<!-- Generator: Adobe Illustrator 16.0.0, SVG Export Plug-In . SVG Version: 6.00 Build 0)  -->
<!DOCTYPE svg PUBLIC "-//W3C//DTD SVG 1.1//EN" "http://www.w3.org/Graphics/SVG/1.1/DTD/svg11.dtd">
<svg version="1.1" id="Layer_1" xmlns="http://www.w3.org/2000/svg" xmlns:xlink="http://www.w3.org/1999/xlink" x="0px" y="0px"
	 width="300px" height="300px" viewBox="0 0 300 300" enable-background="new 0 0 300 300" xml:space="preserve">
<g>
	<circle fill="#FFFFFF" stroke="#E0D04E" stroke-miterlimit="10" cx="150" cy="146" r="129.328"/>
	<g>
		<path fill="#F1F2F2" d="M146.17,214.002c-4.926,0-9.094-4.168-9.851-10.23l-4.167-42.435c-0.758-7.199,3.789-12.503,10.987-13.261
			c40.161-3.031,65.546-20.838,65.546-52.664v-0.758c0-27.279-21.217-49.254-55.316-49.254c-25.385,0-45.465,10.987-62.515,29.553
			c-2.652,2.273-6.062,4.167-10.229,4.167c-7.578,0-13.64-5.683-13.64-13.261c0-3.41,1.516-7.199,4.547-10.23
			c20.081-21.975,45.844-37.13,82.596-37.13c51.148,0,84.868,31.826,84.868,75.018v0.758c0,47.36-35.615,70.85-78.807,76.912
			l-2.652,32.584c-0.757,6.062-4.546,10.23-9.851,10.23H146.17z M146.549,245.449c10.229,0,18.186,7.577,18.186,17.807v7.578
			c0,10.23-7.957,18.187-18.186,18.187c-10.23,0-18.187-7.957-18.187-18.187v-7.578
			C128.362,253.026,136.319,245.449,146.549,245.449z"/>
	</g>
	<g>
		<path fill="none" stroke="#6EBF67" stroke-miterlimit="10" d="M143.18,206.482c-4.926,0-9.094-4.168-9.851-10.23l-4.167-42.435
			c-0.758-7.199,3.789-12.503,10.987-13.261c40.161-3.031,65.546-20.838,65.546-52.664v-0.758c0-27.279-21.217-49.254-55.316-49.254
			c-25.385,0-45.465,10.987-62.515,29.553c-2.652,2.273-6.062,4.167-10.229,4.167c-7.578,0-13.64-5.683-13.64-13.261
			c0-3.41,1.516-7.199,4.547-10.23c20.081-21.975,45.844-37.13,82.596-37.13c51.148,0,84.868,31.826,84.868,75.018v0.758
			c0,47.36-35.615,70.85-78.807,76.912l-2.652,32.584c-0.757,6.062-4.546,10.23-9.851,10.23H143.18z M143.559,237.929
			c10.229,0,18.186,7.577,18.186,17.807v7.578c0,10.23-7.957,18.187-18.186,18.187c-10.23,0-18.187-7.957-18.187-18.187v-7.578
			C125.372,245.506,133.329,237.929,143.559,237.929z"/>
	</g>
</g>
</svg>
