<?xml version="1.0" encoding="utf-8"?>
<!-- Generator: Adobe Illustrator 16.0.0, SVG Export Plug-In . SVG Version: 6.00 Build 0)  -->
<!DOCTYPE svg PUBLIC "-//W3C//DTD SVG 1.1//EN" "http://www.w3.org/Graphics/SVG/1.1/DTD/svg11.dtd">
<svg version="1.1" id="Layer_1" xmlns="http://www.w3.org/2000/svg" xmlns:xlink="http://www.w3.org/1999/xlink" x="0px" y="0px"
	 width="600px" height="600px" viewBox="0 0 600 600" enable-background="new 0 0 600 600" xml:space="preserve">
<g opacity="0.8">
	<path fill="#FFFFFF" stroke="#E0D04E" stroke-miterlimit="10" d="M450.348,325.045c0-82.56-66.925-149.487-149.486-149.487
		c-82.559,0-149.484,66.927-149.484,149.487c0,14.463,2.063,28.441,5.894,41.67c14.808,55.042,57.798,97.767,74.027,158.138
		c0.274,1.017,0.565,1.872,0.871,2.592c9.707,28.618,36.797,49.211,68.693,49.211c31.006,0,57.463-19.458,67.835-46.828
		c0.908-0.753,1.727-2.365,2.428-4.975c18.501-68.821,71.786-114.704,78.444-182.046c0,0-0.104,0.056-0.293,0.156
		C449.98,337.091,450.348,331.114,450.348,325.045z"/>
	<g>
		<path fill="#E6E7E8" d="M277.292,290.816c-0.91-8.802,3.946-15.481,12.143-15.481h29.749c8.196,0,13.053,6.679,12.143,15.481
			l-13.053,114.135c-0.911,8.201-6.374,13.359-13.965,13.359c-7.588,0-13.052-5.158-13.964-13.359L277.292,290.816z
			 M304.309,438.347c15.18,0,26.412,11.23,26.412,25.803v0.605c0,14.568-11.232,25.802-26.412,25.802
			c-15.176,0-26.409-11.233-26.409-25.802v-0.605C277.9,449.577,289.133,438.347,304.309,438.347z"/>
	</g>
	<g>
		<path fill="none" stroke="#3B2A57" stroke-miterlimit="10" d="M271.212,284.818c-0.913-8.802,3.946-15.482,12.14-15.482h29.75
			c8.199,0,13.053,6.68,12.144,15.482l-13.051,114.136c-0.914,8.198-6.378,13.359-13.967,13.359
			c-7.588,0-13.053-5.161-13.963-13.359L271.212,284.818z M298.228,432.348c15.178,0,26.411,11.228,26.411,25.8v0.608
			c0,14.569-11.232,25.802-26.411,25.802c-15.176,0-26.407-11.233-26.407-25.802v-0.608
			C271.82,443.576,283.051,432.348,298.228,432.348z"/>
	</g>
	<g>
		<path fill="#FFFFFF" stroke="#6EBF67" stroke-miterlimit="10" d="M595.5,320.649c0,7.649-6.202,13.851-13.852,13.851h-68.297
			c-7.65,0-13.852-6.201-13.852-13.851v-1.299c0-7.649,6.202-13.851,13.852-13.851h68.297c7.65,0,13.852,6.201,13.852,13.851
			V320.649z"/>
		<path fill="#FFFFFF" stroke="#6EBF67" stroke-miterlimit="10" d="M493.609,222.626c-6.694,3.92-15.375,1.654-19.295-5.04
			l-0.459-0.783c-3.921-6.694-1.653-15.373,5.041-19.294l57.299-33.565c6.692-3.92,15.375-1.654,19.296,5.039l0.459,0.782
			c3.919,6.694,1.648,15.376-5.044,19.296L493.609,222.626z"/>
		<path fill="#FFFFFF" stroke="#6EBF67" stroke-miterlimit="10" d="M421.747,140.365c-3.917,6.69-12.6,8.959-19.291,5.039
			l-0.786-0.46c-6.689-3.92-8.956-12.602-5.037-19.292l33.565-57.3c3.921-6.692,12.603-8.964,19.295-5.043l0.784,0.46
			c6.693,3.919,8.958,12.604,5.038,19.293L421.747,140.365z"/>
		<path fill="#FFFFFF" stroke="#6EBF67" stroke-miterlimit="10" d="M313.5,105.09c0,7.604-5.936,14.41-13.664,14.41h-0.671
			c-7.729,0-14.665-6.805-14.665-14.41V37.103c0-7.604,6.936-13.603,14.665-13.603h0.671c7.729,0,13.664,5.998,13.664,13.603V105.09
			z"/>
		<path fill="#FFFFFF" stroke="#6EBF67" stroke-miterlimit="10" d="M205.095,125.653c3.919,6.691,1.653,15.371-5.039,19.291
			l-0.785,0.458c-6.692,3.922-15.374,1.655-19.294-5.037l-33.566-57.302c-3.92-6.692-1.655-15.377,5.039-19.297l0.783-0.458
			c6.692-3.92,15.375-1.648,19.295,5.043L205.095,125.653z"/>
		<path fill="#FFFFFF" stroke="#6EBF67" stroke-miterlimit="10" d="M122.833,197.511c6.69,3.919,8.958,12.602,5.038,19.292
			l-0.46,0.783c-3.919,6.694-12.6,8.96-19.292,5.042l-57.301-33.567c-6.692-3.92-8.963-12.602-5.042-19.296l0.46-0.782
			c3.919-6.692,12.603-8.959,19.293-5.039L122.833,197.511z"/>
		<path fill="#FFFFFF" stroke="#6EBF67" stroke-miterlimit="10" d="M86.187,305.5c7.753,0,11.313,4.686,11.313,12.44v0.908
			c0,7.755-3.56,16.651-11.313,16.651h-66.41c-7.756,0-15.277-8.896-15.277-16.651v-0.908c0-7.754,7.521-12.44,15.277-12.44H86.187z
			"/>
	</g>
</g>
</svg>
