<?xml version="1.0" encoding="utf-8"?>
<!-- Generator: Adobe Illustrator 16.0.0, SVG Export Plug-In . SVG Version: 6.00 Build 0)  -->
<!DOCTYPE svg PUBLIC "-//W3C//DTD SVG 1.1//EN" "http://www.w3.org/Graphics/SVG/1.1/DTD/svg11.dtd">
<svg version="1.1" id="Layer_1" xmlns="http://www.w3.org/2000/svg" xmlns:xlink="http://www.w3.org/1999/xlink" x="0px" y="0px"
	 width="662px" height="548px" viewBox="0 0 662 548" enable-background="new 0 0 662 548" xml:space="preserve">
<g opacity="0.2">
	<path fill="none" stroke="#231F20" stroke-miterlimit="10" d="M415.484,527.455c-7.778,6.992-22.022,9.38-31.653,5.304
		L7.616,373.574c-9.63-4.076-9.645-10.776-0.031-14.891l205.122-87.733c9.617-4.113,25.75-5.264,35.854-2.554l332.19,89.042
		c10.103,2.707,12.006,10.645,4.226,17.636L415.484,527.455z"/>
	<g>
		<polygon fill="none" stroke="#231F20" stroke-miterlimit="10" points="347.527,524.478 348.43,525.904 365.5,533.038 
			365.5,531.61 		"/>
		<path fill="none" stroke="#231F20" stroke-miterlimit="10" d="M0.087,366.162l4.142,15.192c0.481,2.457,2.846,4.846,7.093,6.709
			l370.704,162.535c9.58,4.2,23.718,1.842,31.412-5.236l167.405-153.965c2.29-2.101,3.716-4.294,4.343-6.414l0.146,0.196
			l4.755-19.489"/>
		<path fill="none" stroke="#231F20" stroke-miterlimit="10" d="M236.882,255.021L278.65,22.607
			c1.852-10.292,11.891-18.047,22.322-17.229l345.273,27.066c10.428,0.816,17.319,9.883,15.322,20.15L602.28,357.007"/>
		<path fill="none" stroke="#231F20" stroke-miterlimit="10" d="M237.363,264.074c-0.825-2.911-1.028-6-0.481-9.053L278.65,22.607
			c1.852-10.292,11.891-18.047,22.322-17.229l345.273,27.066c10.428,0.816,17.319,9.883,15.322,20.15L602.28,357.007
			c-1.519,7.79-7.571,13.179-14.807,14.098"/>
		<polygon fill="none" stroke="#231F20" stroke-miterlimit="10" points="579.625,335.26 252.062,253.963 294.851,26.712 
			635.254,58.004 		"/>
		<path fill="none" stroke="#231F20" stroke-miterlimit="10" d="M243.459,459.147c-2.194,1.417-5.968,1.743-8.379,0.726
			l-121.746-51.451c-2.406-1.016-2.462-2.802-0.122-3.969l81.586-40.686c2.34-1.167,6.265-1.391,8.72-0.5l116.338,42.167
			c2.461,0.889,2.671,2.774,0.473,4.191L243.459,459.147z"/>
		<path fill="none" stroke="#231F20" stroke-miterlimit="10" d="M129.5,425.636v3.282c0,2.617,3.221,5.601,5.623,6.637
			l52.577,22.383c2.397,1.036,4.728-0.254,4.819-2.868l-0.902-3.572L129.5,425.636z"/>
		<g id="PCqO7b_2_">
			<g>
				<path fill-rule="evenodd" clip-rule="evenodd" fill="none" stroke="#231F20" stroke-miterlimit="10" d="M132.487,326.709
					c3.347-1.565,6.644-3.251,10.054-4.681c10.929-4.574,7.989-4.387,19.319-0.771c1.612,0.515,3.203,1.097,5.452,1.867
					c-1.24,0.79-1.828,1.273-2.493,1.57c-4.62,2.054-9.25,4.075-13.879,6.094c-2.242,0.977-4.406,1.166-6.837,0.223
					c-3.79-1.482-7.737-2.571-11.616-3.829C132.487,327.027,132.487,326.87,132.487,326.709z"/>
				<path fill-rule="evenodd" clip-rule="evenodd" fill="none" stroke="#231F20" stroke-miterlimit="10" d="M214.28,354.803
					c1.214-0.787,1.872-1.311,2.612-1.68c4.454-2.224,8.954-4.368,13.387-6.633c2.25-1.15,4.478-1.343,6.865-0.558
					c34.11,11.209,68.227,22.397,102.334,33.624c0.77,0.251,1.411,0.883,2.11,1.338c-0.535,0.603-0.967,1.377-1.628,1.791
					c-4.295,2.693-8.646,5.283-12.955,7.947c-2.022,1.249-4.064,1.446-6.333,0.668c-34.591-11.856-69.194-23.679-103.791-35.51
					C216.219,355.564,215.575,355.297,214.28,354.803z"/>
				<path fill-rule="evenodd" clip-rule="evenodd" fill="none" stroke="#231F20" stroke-miterlimit="10" d="M485.987,425.453
					c-1.567-0.358-2.747-0.534-3.862-0.897c-17.383-5.666-34.761-11.352-52.136-17.04c-0.601-0.197-1.229-0.357-1.778-0.659
					c-1.177-0.652-1.41-1.54-0.242-2.392c3.647-2.663,7.219-5.452,11.059-7.804c1.298-0.795,3.48-0.966,4.976-0.508
					c17.922,5.511,35.808,11.179,53.68,16.853c2.581,0.822,2.696,1.782,0.618,3.501c-2.932,2.424-5.824,4.887-8.84,7.199
					C488.393,424.527,487.016,424.949,485.987,425.453z"/>
				<path fill-rule="evenodd" clip-rule="evenodd" fill="none" stroke="#231F20" stroke-miterlimit="10" d="M515.725,402.162
					c-4.179,3.424-7.717,6.585-11.572,9.302c-1.124,0.79-3.288,0.767-4.735,0.326c-13.359-4.051-26.667-8.269-39.978-12.491
					c-0.744-0.238-1.338-0.968-2.003-1.468c0.471-0.579,0.854-1.272,1.433-1.717c2.82-2.168,5.72-4.229,8.537-6.405
					c1.918-1.485,3.963-1.811,6.239-1.116c13.073,3.982,26.151,7.949,39.214,11.962
					C513.693,400.811,514.422,401.418,515.725,402.162z"/>
				<path fill-rule="evenodd" clip-rule="evenodd" fill="none" stroke="#231F20" stroke-miterlimit="10" d="M493.892,376.73
					c4.044-2.999,7.396-5.788,11.073-8.041c1.26-0.774,3.449-0.626,5.029-0.197c10.311,2.789,20.579,5.746,30.834,8.719
					c0.913,0.264,1.685,1.019,2.517,1.545c-0.569,0.715-1.057,1.524-1.736,2.115c-2.145,1.868-4.39,3.617-6.547,5.471
					c-1.697,1.457-3.53,1.919-5.707,1.281c-10.932-3.208-21.87-6.375-32.801-9.587C495.848,377.83,495.202,377.385,493.892,376.73z"
					/>
				<path fill-rule="evenodd" clip-rule="evenodd" fill="none" stroke="#231F20" stroke-miterlimit="10" d="M210.06,322.493
					c-1.138,0.647-1.758,1.055-2.428,1.362c-3.645,1.702-7.225,3.586-10.989,4.97c-1.803,0.661-4.144,0.936-5.929,0.384
					c-11.389-3.525-22.694-7.325-34.024-11.048c-0.561-0.188-1.08-0.49-2.123-0.963c1.154-0.611,1.854-1.044,2.604-1.363
					c3.693-1.594,7.339-3.343,11.136-4.647c1.76-0.604,3.985-0.846,5.722-0.327c11.268,3.382,22.463,7.017,33.676,10.583
					C208.329,321.639,208.917,321.977,210.06,322.493z"/>
				<path fill-rule="evenodd" clip-rule="evenodd" fill="none" stroke="#231F20" stroke-miterlimit="10" d="M346.362,382.154
					c1.365,0.297,2.47,0.444,3.509,0.782c6.764,2.188,13.521,4.389,20.255,6.668c0.896,0.298,1.627,1.064,2.433,1.613
					c-0.623,0.647-1.154,1.432-1.881,1.916c-4.073,2.721-8.224,5.333-12.305,8.047c-1.99,1.32-3.998,1.615-6.277,0.824
					c-7.36-2.56-14.756-5.027-22.122-7.584c-0.671-0.231-1.218-0.82-1.823-1.241c0.521-0.548,0.953-1.241,1.571-1.634
					c4.341-2.733,8.698-5.453,13.115-8.072C343.947,382.813,345.292,382.542,346.362,382.154z"/>
				<path fill-rule="evenodd" clip-rule="evenodd" fill="none" stroke="#231F20" stroke-miterlimit="10" d="M431.409,410.277
					c1.274,0.143,2.017,0.105,2.681,0.319c6.242,2.014,12.496,4.013,18.696,6.159c2.085,0.72,2.149,1.808,0.379,3.188
					c-4.052,3.161-8.125,6.302-12.203,9.421c-1.74,1.329-3.622,1.744-5.788,0.991c-6.254-2.17-12.546-4.244-18.803-6.424
					c-0.737-0.259-1.312-0.957-1.971-1.448c0.462-0.593,0.82-1.32,1.394-1.752c4.123-3.075,8.254-6.132,12.459-9.078
					C429.303,410.914,430.646,410.6,431.409,410.277z"/>
				<path fill-rule="evenodd" clip-rule="evenodd" fill="none" stroke="#231F20" stroke-miterlimit="10" d="M378.518,392.673
					c1.31,0.289,2.336,0.428,3.305,0.742c5.047,1.627,10.092,3.267,15.109,4.985c0.834,0.284,1.524,0.987,2.279,1.499
					c-0.601,0.746-1.08,1.674-1.83,2.209c-4,2.846-8.055,5.613-12.121,8.365c-1.787,1.214-3.703,1.598-5.846,0.848
					c-5.664-1.972-11.362-3.842-17.028-5.818c-0.66-0.235-1.176-0.87-1.764-1.32c0.481-0.586,0.861-1.326,1.458-1.733
					c4.204-2.828,8.416-5.638,12.707-8.329C375.953,393.391,377.389,393.1,378.518,392.673z"/>
				<path fill-rule="evenodd" clip-rule="evenodd" fill="none" stroke="#231F20" stroke-miterlimit="10" d="M229.974,344.626
					c-1.388,0.707-2.76,1.433-4.148,2.12c-3.896,1.935-7.741,3.986-11.728,5.708c-1.507,0.647-3.521,1.082-5.003,0.628
					c-6.316-1.926-12.529-4.216-18.776-6.384c-0.266-0.09-0.51-0.245-1.222-0.596c1.05-0.671,1.696-1.187,2.432-1.536
					c4.419-2.112,8.868-4.147,13.275-6.283c2.48-1.207,4.941-1.381,7.559-0.485c5.089,1.738,10.209,3.376,15.309,5.08
					c0.784,0.261,1.524,0.656,2.288,0.985C229.963,344.117,229.967,344.371,229.974,344.626z"/>
				<path fill-rule="evenodd" clip-rule="evenodd" fill="none" stroke="#231F20" stroke-miterlimit="10" d="M421.677,404.48
					c-1.395-0.317-2.333-0.464-3.228-0.75c-5.342-1.723-10.682-3.446-15.996-5.253c-0.817-0.275-1.498-0.974-2.239-1.476
					c0.618-0.659,1.14-1.452,1.86-1.965c2.972-2.095,6.068-4.012,8.984-6.182c2.119-1.573,4.338-1.831,6.716-1.106
					c5.514,1.692,11.013,3.436,16.491,5.238c0.744,0.246,1.339,0.953,2.001,1.445c-0.534,0.632-0.981,1.388-1.627,1.869
					c-3.112,2.301-6.23,4.605-9.45,6.752C424.069,403.8,422.649,404.099,421.677,404.48z"/>
				<path fill-rule="evenodd" clip-rule="evenodd" fill="none" stroke="#231F20" stroke-miterlimit="10" d="M173.871,308.986
					c0.896-0.514,1.45-0.903,2.051-1.16c3.628-1.553,7.205-3.252,10.935-4.523c1.674-0.568,3.786-0.73,5.472-0.261
					c7.979,2.221,15.877,4.722,23.799,7.133c0.652,0.201,1.271,0.51,1.858,0.752c-0.064,0.333-0.043,0.583-0.126,0.617
					c-4.817,2.168-9.613,4.369-14.476,6.409c-0.773,0.322-1.903,0.098-2.775-0.171c-8.355-2.568-16.688-5.188-25.019-7.817
					C175.107,309.814,174.69,309.46,173.871,308.986z"/>
				<path fill-rule="evenodd" clip-rule="evenodd" fill="none" stroke="#231F20" stroke-miterlimit="10" d="M517.225,399.73
					c-1.365-0.242-2.249-0.308-3.076-0.556c-5.903-1.772-11.807-3.55-17.681-5.414c-0.825-0.26-1.496-0.999-2.233-1.517
					c0.543-0.629,1-1.354,1.64-1.868c2.585-2.077,5.099-4.292,7.898-6.042c1.388-0.867,3.499-1.483,5.012-1.113
					c6.439,1.589,12.792,3.553,19.146,5.471c2.256,0.679,2.356,1.484,0.543,2.996c-2.666,2.229-5.307,4.494-8.073,6.59
					C519.387,399.043,518.042,399.37,517.225,399.73z"/>
				<path fill-rule="evenodd" clip-rule="evenodd" fill="none" stroke="#231F20" stroke-miterlimit="10" d="M452.125,396.745
					c-1.163-0.261-1.941-0.384-2.683-0.616c-5.574-1.739-11.146-3.475-16.697-5.275c-0.773-0.248-1.426-0.847-2.138-1.282
					c0.554-0.694,0.988-1.551,1.683-2.059c2.931-2.145,5.835-4.379,8.98-6.179c1.43-0.816,3.545-1.286,5.087-0.889
					c6.04,1.552,11.983,3.486,17.944,5.345c0.595,0.188,1.416,0.757,1.486,1.243c0.07,0.474-0.592,1.198-1.107,1.589
					c-3.028,2.291-6.063,4.581-9.19,6.722C454.433,396.065,453.088,396.361,452.125,396.745z"/>
				<path fill-rule="evenodd" clip-rule="evenodd" fill="none" stroke="#231F20" stroke-miterlimit="10" d="M373.603,388.469
					c1.334-0.968,2.241-1.673,3.196-2.304c2.846-1.871,5.734-3.674,8.563-5.573c2.048-1.376,4.197-1.756,6.549-1.018
					c5.279,1.674,10.567,3.324,15.827,5.043c0.694,0.23,1.268,0.825,1.9,1.247c-0.507,0.636-0.9,1.423-1.539,1.869
					c-3.172,2.235-6.293,4.586-9.669,6.468c-1.589,0.884-3.886,1.479-5.555,1.037c-5.803-1.546-11.476-3.587-17.185-5.48
					C375.123,389.571,374.645,389.124,373.603,388.469z"/>
				<path fill-rule="evenodd" clip-rule="evenodd" fill="none" stroke="#231F20" stroke-miterlimit="10" d="M466.047,383.872
					c4.433-3.105,8.247-5.994,12.312-8.485c1.056-0.644,2.95-0.342,4.323,0.028c5.713,1.555,11.385,3.272,17.045,5.011
					c0.744,0.226,1.355,0.903,2.023,1.376c-0.476,0.593-0.855,1.295-1.432,1.756c-2.467,1.969-5.071,3.768-7.468,5.814
					c-1.875,1.609-3.938,2.048-6.169,1.407c-6.067-1.742-12.098-3.613-18.136-5.472
					C467.907,385.108,467.354,384.634,466.047,383.872z"/>
				<path fill-rule="evenodd" clip-rule="evenodd" fill="none" stroke="#231F20" stroke-miterlimit="10" d="M425.608,388.231
					c-1.33-0.199-2.057-0.216-2.726-0.427c-5.498-1.7-11.003-3.411-16.479-5.189c-0.689-0.221-1.245-0.846-1.86-1.286
					c0.475-0.568,0.863-1.275,1.456-1.682c3.065-2.102,6.049-4.37,9.332-6.073c1.662-0.866,4.026-1.274,5.814-0.835
					c5.518,1.352,10.914,3.189,16.344,4.902c0.686,0.214,1.253,0.809,1.877,1.222c-0.483,0.579-0.868,1.291-1.46,1.716
					c-2.958,2.12-5.93,4.232-8.98,6.21C427.789,387.525,426.412,387.893,425.608,388.231z"/>
				<path fill-rule="evenodd" clip-rule="evenodd" fill="none" stroke="#231F20" stroke-miterlimit="10" d="M384.928,378.036
					c-5.062,3.182-9.443,6.113-14.027,8.681c-1.118,0.628-3.007,0.393-4.371-0.01c-5.221-1.539-10.383-3.287-15.544-5.026
					c-0.673-0.228-1.201-0.875-1.796-1.325c0.502-0.558,0.913-1.264,1.524-1.653c3.408-2.14,6.761-4.413,10.349-6.208
					c1.627-0.812,3.912-1.208,5.627-0.769c5.346,1.371,10.567,3.22,15.818,4.927C383.137,376.858,383.68,377.314,384.928,378.036z"
					/>
				<path fill-rule="evenodd" clip-rule="evenodd" fill="none" stroke="#231F20" stroke-miterlimit="10" d="M461.844,382.937
					c-1.252-0.22-2.047-0.277-2.799-0.502c-5.521-1.644-11.042-3.303-16.547-5.021c-0.695-0.216-1.275-0.803-1.914-1.221
					c0.513-0.63,0.915-1.403,1.544-1.863c2.61-1.909,5.294-3.711,7.933-5.576c1.913-1.346,3.925-1.842,6.247-1.138
					c5.593,1.692,11.221,3.27,16.81,4.971c0.665,0.203,1.189,0.875,1.775,1.333c-0.453,0.506-0.84,1.108-1.377,1.505
					c-2.848,2.118-5.692,4.244-8.632,6.236C463.894,382.333,462.637,382.615,461.844,382.937z"/>
				<path fill-rule="evenodd" clip-rule="evenodd" fill="none" stroke="#231F20" stroke-miterlimit="10" d="M379.121,372.79
					c4.221-2.592,8.377-5.292,12.7-7.697c1.033-0.575,2.705-0.502,3.92-0.159c5.467,1.534,10.881,3.254,16.303,4.954
					c0.618,0.192,1.157,0.647,2.143,1.214c-1.599,1.158-2.825,2.096-4.107,2.952c-2.358,1.583-4.785,3.076-7.128,4.686
					c-1.918,1.314-3.943,1.513-6.088,0.847c-5.189-1.611-10.374-3.237-15.547-4.903c-0.758-0.243-1.443-0.721-2.165-1.085
					C379.139,373.327,379.128,373.057,379.121,372.79z"/>
				<path fill-rule="evenodd" clip-rule="evenodd" fill="none" stroke="#231F20" stroke-miterlimit="10" d="M360.212,370.274
					c-1.916,1.192-3.364,2.108-4.821,3c-2.562,1.57-5.04,3.327-7.74,4.612c-1.542,0.735-3.624,1.302-5.177,0.879
					c-5.56-1.511-10.999-3.471-16.48-5.288c-0.341-0.114-0.609-0.451-1.215-0.918c0.704-0.591,1.206-1.145,1.815-1.513
					c3.528-2.119,7-4.355,10.672-6.194c1.514-0.757,3.628-1.177,5.208-0.763c5.346,1.401,10.579,3.235,15.846,4.94
					C358.798,369.186,359.2,369.593,360.212,370.274z"/>
				<path fill-rule="evenodd" clip-rule="evenodd" fill="none" stroke="#231F20" stroke-miterlimit="10" d="M468.136,369.137
					c2.313-1.696,4.433-2.93,6.166-4.579c4.24-4.024,8.824-4.412,14.123-2.337c3.585,1.409,7.428,2.133,11.138,3.239
					c1.077,0.323,2.08,0.903,3.788,1.665c-4.208,3.061-7.802,5.817-11.577,8.304c-0.83,0.548-2.374,0.415-3.456,0.122
					c-6.087-1.665-12.143-3.469-18.197-5.257C469.619,370.148,469.188,369.764,468.136,369.137z"/>
				<path fill-rule="evenodd" clip-rule="evenodd" fill="none" stroke="#231F20" stroke-miterlimit="10" d="M414.231,368.207
					c4.681-2.955,8.64-5.659,12.822-7.96c1.11-0.615,2.98-0.257,4.375,0.118c5.19,1.393,10.335,2.951,15.481,4.507
					c0.702,0.216,1.311,0.757,1.959,1.146c-0.52,0.616-0.947,1.373-1.587,1.826c-2.891,2.067-5.717,4.284-8.826,5.959
					c-1.507,0.807-3.725,1.086-5.386,0.666c-5.516-1.392-10.922-3.198-16.353-4.888C416.09,369.389,415.54,368.945,414.231,368.207z
					"/>
				<path fill-rule="evenodd" clip-rule="evenodd" fill="none" stroke="#231F20" stroke-miterlimit="10" d="M389.23,363.35
					c-0.935,0.756-1.48,1.289-2.106,1.688c-3.135,1.99-6.173,4.185-9.493,5.812c-1.695,0.835-4.047,1.229-5.842,0.783
					c-5.111-1.266-10.1-3.042-15.116-4.672c-0.618-0.202-1.129-0.75-1.685-1.139c0.483-0.557,0.874-1.264,1.473-1.639
					c3.223-2,6.392-4.136,9.801-5.769c1.623-0.783,3.862-1.095,5.594-0.675c5.055,1.217,9.992,2.898,14.97,4.436
					C387.524,362.39,388.157,362.817,389.23,363.35z"/>
				<path fill-rule="evenodd" clip-rule="evenodd" fill="none" stroke="#231F20" stroke-miterlimit="10" d="M301.259,364.771
					c2.725-1.568,4.933-2.899,7.193-4.135c9.303-5.092,7.297-5.102,17.665-1.847c2.562,0.805,5.129,1.594,7.674,2.458
					c0.768,0.256,1.464,0.724,2.64,1.316c-1.092,0.765-1.74,1.29-2.456,1.708c-3.329,1.973-6.597,4.101-10.068,5.793
					c-1.584,0.772-3.751,1.283-5.384,0.857c-5.188-1.35-10.253-3.185-15.354-4.871C302.681,365.891,302.285,365.469,301.259,364.771
					z"/>
				<path fill-rule="evenodd" clip-rule="evenodd" fill="none" stroke="#231F20" stroke-miterlimit="10" d="M476.482,359.98
					c-1.888,1.367-3.955,2.548-5.633,4.137c-4.228,4.007-8.77,4.574-14.107,2.381c-3.559-1.464-7.404-2.221-11.107-3.343
					c-0.941-0.286-1.828-0.752-3.336-1.391c1.902-1.357,3.305-2.433,4.783-3.387c9.004-5.848,6.215-6.048,17.53-2.855
					c2.966,0.832,5.934,1.668,8.884,2.552c0.955,0.286,1.857,0.748,2.777,1.127C476.342,359.46,476.414,359.721,476.482,359.98z"/>
				<path fill-rule="evenodd" clip-rule="evenodd" fill="none" stroke="#231F20" stroke-miterlimit="10" d="M231.524,302.05
					c-2.201,1.006-4.012,1.877-5.854,2.669c-10.812,4.646-7.375,4.629-19.042,1.13c-3.859-1.157-7.719-2.32-11.574-3.501
					c-0.806-0.246-1.591-0.571-2.98-1.078c1.618-0.831,2.671-1.454,3.789-1.935c3.044-1.306,6.07-2.673,9.188-3.774
					c1.352-0.476,3.033-0.776,4.365-0.417c6.941,1.868,13.819,3.974,20.715,6.018C230.466,301.261,230.748,301.547,231.524,302.05z"
					/>
				<path fill-rule="evenodd" clip-rule="evenodd" fill="none" stroke="#231F20" stroke-miterlimit="10" d="M365.459,356.242
					c-2.568,1.583-4.67,2.931-6.821,4.193c-8.604,5.031-6.739,5.102-16.416,1.949c-2.921-0.952-5.87-1.827-8.795-2.776
					c-0.696-0.229-1.332-0.624-2.403-1.139c0.905-0.7,1.401-1.17,1.979-1.507c3.279-1.911,6.51-3.933,9.905-5.607
					c1.465-0.721,3.437-1.28,4.927-0.906c5.355,1.342,10.605,3.105,15.885,4.734C364.139,355.316,364.494,355.647,365.459,356.242z"
					/>
				<path fill-rule="evenodd" clip-rule="evenodd" fill="none" stroke="#231F20" stroke-miterlimit="10" d="M313.644,355.482
					c-2.818,1.573-5.13,2.889-7.461,4.171c-9.491,5.224-6.991,5.069-17.41,1.704c-3.128-1.009-6.241-2.082-9.936-3.319
					c1.002-0.84,1.447-1.355,2.007-1.665c3.755-2.042,7.463-4.192,11.339-5.98c1.478-0.68,3.485-1.012,5.021-0.612
					c4.892,1.278,9.679,2.959,14.494,4.516C312.185,354.455,312.598,354.835,313.644,355.482z"/>
				<path fill-rule="evenodd" clip-rule="evenodd" fill="none" stroke="#231F20" stroke-miterlimit="10" d="M451.815,352.574
					c-2.171,1.448-4.088,2.408-5.604,3.8c-4.729,4.35-9.799,4.978-15.65,2.432c-3.16-1.375-6.639-2.012-9.96-3.024
					c-0.788-0.241-1.522-0.653-2.826-1.229c1.967-1.345,3.464-2.426,5.01-3.428c1.657-1.07,3.462-1.938,5.005-3.144
					c1.884-1.469,3.973-1.673,6.055-1.136c5.277,1.363,10.497,2.921,15.725,4.44C450.146,351.453,450.644,351.885,451.815,352.574z"
					/>
				<path fill-rule="evenodd" clip-rule="evenodd" fill="none" stroke="#231F20" stroke-miterlimit="10" d="M423.842,358.922
					c-4.192,2.712-7.971,5.271-11.886,7.598c-0.906,0.538-2.382,0.631-3.434,0.336c-5.623-1.571-11.197-3.32-16.778-5.037
					c-0.41-0.129-0.758-0.474-1.077-0.684c0.023-0.3-0.023-0.549,0.056-0.598c3.912-2.488,7.789-5.05,11.799-7.366
					c0.904-0.518,2.39-0.472,3.465-0.177c5.474,1.489,10.902,3.135,16.336,4.763C422.727,357.882,423.043,358.297,423.842,358.922z"
					/>
				<path fill-rule="evenodd" clip-rule="evenodd" fill="none" stroke="#231F20" stroke-miterlimit="10" d="M169.463,339.571
					c1.12-0.719,1.697-1.192,2.35-1.497c4.582-2.117,9.183-4.187,13.763-6.302c2.32-1.068,4.642-1.26,7.09-0.409
					c3.278,1.142,6.601,2.157,9.892,3.261c0.771,0.261,1.496,0.664,2.976,1.336c-2.426,1.247-4.175,2.197-5.967,3.053
					c-3.347,1.599-6.731,3.106-10.07,4.722c-2.329,1.128-4.619,1.288-7.078,0.381C178.325,342.601,174.182,341.222,169.463,339.571z
					"/>
				<path fill-rule="evenodd" clip-rule="evenodd" fill="none" stroke="#231F20" stroke-miterlimit="10" d="M399.899,351.676
					c-4.492,2.747-8.448,5.314-12.567,7.584c-1.031,0.567-2.694,0.487-3.915,0.147c-5.32-1.47-10.593-3.139-15.872-4.765
					c-0.418-0.128-0.765-0.478-1.481-0.941c0.737-0.615,1.24-1.16,1.852-1.529c3.05-1.829,6.036-3.791,9.224-5.333
					c1.519-0.738,3.573-1.224,5.153-0.846c5.29,1.263,10.477,2.956,15.694,4.518C398.471,350.656,398.877,351.042,399.899,351.676z"
					/>
				<path fill-rule="evenodd" clip-rule="evenodd" fill="none" stroke="#231F20" stroke-miterlimit="10" d="M342.287,349.196
					c-1.421,0.869-2.514,1.568-3.634,2.212c-2.808,1.616-5.534,3.409-8.474,4.737c-1.551,0.701-3.614,1.151-5.196,0.743
					c-5.024-1.285-9.934-3.012-14.872-4.606c-0.469-0.151-0.843-0.582-1.659-1.159c1.501-0.878,2.683-1.598,3.891-2.267
					c2.763-1.527,5.463-3.204,8.343-4.474c1.497-0.663,3.462-1.127,4.974-0.745c5.04,1.265,9.973,2.942,14.936,4.499
					C341.068,348.284,341.462,348.668,342.287,349.196z"/>
				<path fill-rule="evenodd" clip-rule="evenodd" fill="none" stroke="#231F20" stroke-miterlimit="10" d="M257.182,350.504
					c1.227-0.727,2.051-1.272,2.921-1.722c3.367-1.744,6.671-3.635,10.158-5.102c1.629-0.69,3.746-1.08,5.411-0.668
					c4.589,1.123,9.06,2.728,13.57,4.181c0.544,0.181,1.027,0.576,1.828,1.033c-0.75,0.575-1.185,1.01-1.703,1.292
					c-3.676,2.006-7.291,4.148-11.087,5.889c-1.539,0.708-3.63,1.08-5.215,0.661c-4.877-1.282-9.634-3.026-14.428-4.616
					C258.285,351.34,257.998,351.042,257.182,350.504z"/>
				<path fill-rule="evenodd" clip-rule="evenodd" fill="none" stroke="#231F20" stroke-miterlimit="10" d="M393.904,347.329
					c4.363-2.579,8.208-5.048,12.252-7.124c1.165-0.599,2.984-0.346,4.376,0.009c4.821,1.229,9.594,2.665,14.377,4.065
					c0.704,0.207,1.347,0.652,2.48,1.215c-1.593,1.109-2.767,1.97-3.99,2.763c-2.053,1.334-4.045,2.819-6.236,3.869
					c-1.481,0.71-3.411,1.399-4.886,1.046c-5.677-1.358-11.256-3.133-16.868-4.783C395.069,348.292,394.794,347.965,393.904,347.329
					z"/>
				<path fill-rule="evenodd" clip-rule="evenodd" fill="none" stroke="#231F20" stroke-miterlimit="10" d="M151.077,332.652
					c0.737-0.405,1.455-0.871,2.224-1.211c4.477-1.988,8.967-3.941,13.448-5.924c2.344-1.037,4.666-1.19,7.127-0.319
					c3.779,1.346,7.615,2.529,12.078,3.999c-1.145,0.847-1.717,1.434-2.405,1.75c-4.661,2.157-9.273,4.459-14.065,6.28
					c-1.836,0.695-4.225,0.737-6.136,0.234c-4.165-1.097-8.185-2.73-12.26-4.145C151.085,333.094,151.085,332.872,151.077,332.652z"
					/>
				<path fill-rule="evenodd" clip-rule="evenodd" fill="none" stroke="#231F20" stroke-miterlimit="10" d="M342.948,346.641
					c1.251-0.802,2.123-1.41,3.043-1.937c2.745-1.571,5.422-3.295,8.291-4.589c1.56-0.7,3.591-1.195,5.186-0.822
					c5.144,1.217,10.177,2.872,15.247,4.389c0.423,0.126,0.778,0.471,1.479,0.911c-0.714,0.554-1.199,1.011-1.764,1.345
					c-3.049,1.827-6.029,3.809-9.222,5.349c-1.593,0.77-3.733,1.307-5.377,0.912c-5.211-1.264-10.304-3.012-15.434-4.596
					C344.045,347.496,343.755,347.187,342.948,346.641z"/>
				<path fill-rule="evenodd" clip-rule="evenodd" fill="none" stroke="#231F20" stroke-miterlimit="10" d="M286.531,344.507
					c1.046-0.708,1.632-1.191,2.292-1.541c3.207-1.716,6.444-3.367,9.641-5.099c2.133-1.157,4.272-1.387,6.607-0.63
					c4.131,1.334,8.3,2.534,12.443,3.822c0.704,0.219,1.365,0.579,2.543,1.085c-1.064,0.731-1.646,1.207-2.297,1.566
					c-3.322,1.835-6.565,3.852-10.027,5.369c-1.677,0.73-3.904,1.022-5.655,0.598c-4.508-1.087-8.893-2.669-13.323-4.086
					C288.178,345.407,287.647,345.061,286.531,344.507z"/>
				<path fill-rule="evenodd" clip-rule="evenodd" fill="none" stroke="#231F20" stroke-miterlimit="10" d="M236.542,343.773
					c0.851-0.572,1.428-1.058,2.087-1.389c3.739-1.875,7.445-3.847,11.291-5.488c1.431-0.612,3.334-0.89,4.812-0.506
					c4.656,1.21,9.213,2.797,13.799,4.268c0.334,0.107,0.597,0.439,0.845,0.625c-0.056,0.297-0.043,0.542-0.126,0.583
					c-4.757,2.454-9.491,4.955-14.319,7.266c-0.892,0.426-2.224,0.347-3.22,0.047c-4.61-1.398-9.171-2.941-13.744-4.464
					C237.562,344.581,237.229,344.234,236.542,343.773z"/>
				<path fill-rule="evenodd" clip-rule="evenodd" fill="none" stroke="#231F20" stroke-miterlimit="10" d="M451.366,426.457
					c0.919,0.193,1.869,0.305,2.761,0.596c6.076,2.002,12.153,4.009,18.202,6.085c3.123,1.072,3.259,1.952,0.797,4.019
					c-0.909,0.76-1.839,1.494-2.734,2.269c-1.645,1.42-3.526,1.727-5.531,1.054c-6.718-2.262-13.43-4.548-20.131-6.862
					c-2.315-0.804-2.488-1.719-0.468-3.183C446.44,428.853,448.177,426.368,451.366,426.457z"/>
				<path fill-rule="evenodd" clip-rule="evenodd" fill="none" stroke="#231F20" stroke-miterlimit="10" d="M403.599,338.843
					c-1.589,1.028-2.78,1.882-4.043,2.611c-10.634,6.147-6.949,6.103-19.231,2.553c-3.072-0.893-6.131-1.83-9.195-2.747
					c-0.02-0.236-0.041-0.467-0.061-0.704c0.801-0.537,1.585-1.112,2.419-1.604c2.517-1.496,4.95-3.193,7.618-4.352
					c1.783-0.778,4.034-1.375,5.854-0.991c4.941,1.044,9.771,2.641,14.628,4.059C402.145,337.835,402.625,338.264,403.599,338.843z"
					/>
				<path fill-rule="evenodd" clip-rule="evenodd" fill="none" stroke="#231F20" stroke-miterlimit="10" d="M320.733,339.903
					c1.627-0.953,2.86-1.741,4.144-2.425c12.191-6.485,7.976-5.992,20.988-2.294c2.283,0.645,4.543,1.378,6.808,2.083
					c0.22,0.068,0.394,0.249,0.694,0.446c-0.327,0.445-0.475,0.853-0.764,1.013c-3.715,2.119-7.399,4.297-11.212,6.227
					c-1.111,0.562-2.705,0.788-3.892,0.473c-5.195-1.394-10.325-3.038-15.474-4.611C321.746,340.73,321.521,340.469,320.733,339.903
					z"/>
				<path fill-rule="evenodd" clip-rule="evenodd" fill="none" stroke="#231F20" stroke-miterlimit="10" d="M265.542,337.53
					c0.856-0.5,1.498-0.907,2.17-1.26c0.975-0.515,1.971-1.006,2.966-1.481c11.417-5.477,7.635-5.657,19.474-2.051
					c2.583,0.786,5.153,1.627,7.728,2.44c0.009,0.236,0.019,0.469,0.027,0.706c-1.828,1.017-3.62,2.099-5.486,3.036
					c-11.422,5.753-7.5,5.253-18.756,1.922c-2.493-0.739-4.941-1.594-7.406-2.425C266.069,338.353,265.961,338.064,265.542,337.53z"
					/>
				<path fill-rule="evenodd" clip-rule="evenodd" fill="none" stroke="#231F20" stroke-miterlimit="10" d="M248.71,334.608
					c-0.045,0.375-0.027,0.499-0.064,0.516c-5.148,2.477-10.292,4.968-15.469,7.385c-0.503,0.235-1.278,0.13-1.848-0.05
					c-4.742-1.496-9.468-3.038-14.192-4.591c-0.188-0.061-0.302-0.332-0.67-0.756c0.665-0.449,1.232-0.945,1.884-1.262
					c3.552-1.73,7.127-3.407,10.681-5.127c2.157-1.045,4.329-1.303,6.655-0.515c3.661,1.24,7.364,2.358,11.046,3.553
					C247.44,333.993,248.105,334.346,248.71,334.608z"/>
				<path fill-rule="evenodd" clip-rule="evenodd" fill="none" stroke="#231F20" stroke-miterlimit="10" d="M348.584,333.789
					c2.32-1.292,4.797-2.366,6.911-3.928c4.314-3.186,8.731-3.43,13.606-1.533c2.859,1.116,5.914,1.729,8.861,2.616
					c0.784,0.236,1.512,0.656,2.884,1.262c-2.474,1.449-4.569,2.377-6.318,3.752c-4.83,3.791-9.842,4.277-15.479,1.886
					c-3.287-1.396-6.864-2.117-10.312-3.139C348.683,334.398,348.636,334.095,348.584,333.789z"/>
				<path fill-rule="evenodd" clip-rule="evenodd" fill="none" stroke="#231F20" stroke-miterlimit="10" d="M331.789,331.645
					c-2.177,1.175-3.936,2.154-5.713,3.093c-10.31,5.427-7.061,5.103-18.35,1.807c-2.693-0.784-5.35-1.678-8.454-2.656
					c0.787-0.744,1.104-1.193,1.535-1.426c3.477-1.868,6.913-3.833,10.503-5.469c1.349-0.612,3.166-0.88,4.582-0.53
					c4.898,1.217,9.718,2.769,14.562,4.218C330.733,330.761,330.955,331.031,331.789,331.645z"/>
				<path fill-rule="evenodd" clip-rule="evenodd" fill="none" stroke="#231F20" stroke-miterlimit="10" d="M244.908,331.088
					c5.083-2.376,9.675-4.598,14.348-6.633c0.925-0.406,2.236-0.34,3.245-0.059c4.548,1.269,9.056,2.692,13.57,4.077
					c0.343,0.105,0.629,0.384,1.148,0.707c-0.558,0.481-0.894,0.916-1.338,1.139c-3.802,1.933-7.571,3.941-11.463,5.67
					c-1.285,0.573-3.019,0.845-4.347,0.495c-4.629-1.229-9.175-2.785-13.744-4.25C245.995,332.129,245.744,331.774,244.908,331.088z
					"/>
				<path fill-rule="evenodd" clip-rule="evenodd" fill="none" stroke="#231F20" stroke-miterlimit="10" d="M228.627,328.938
					c-2.867,1.399-5.865,2.588-8.569,4.25c-4.939,3.029-9.811,3.302-15.056,0.847c-2.6-1.22-5.458-1.881-8.146-2.776
					c0.085-0.501,0.064-0.748,0.146-0.783c4.924-2.29,9.856-4.579,14.804-6.82c0.477-0.214,1.132-0.283,1.627-0.142
					c5.055,1.435,10.099,2.922,15.139,4.396C228.586,328.255,228.609,328.594,228.627,328.938z"/>
				<path fill-rule="evenodd" clip-rule="evenodd" fill="none" stroke="#231F20" stroke-miterlimit="10" d="M358.774,326.11
					c-4.761,2.457-9.005,4.666-13.279,6.826c-0.46,0.235-1.127,0.352-1.619,0.218c-5.608-1.533-11.195-3.127-17.521-4.912
					c1.233-0.932,1.809-1.496,2.49-1.864c2.992-1.621,5.927-3.396,9.06-4.679c1.63-0.664,3.735-0.891,5.452-0.51
					c4.467,0.986,8.843,2.404,13.244,3.691C357.158,325.045,357.64,325.458,358.774,326.11z"/>
				<path fill-rule="evenodd" clip-rule="evenodd" fill="none" stroke="#231F20" stroke-miterlimit="10" d="M408.602,421.141
					c-0.68-0.179-1.377-0.308-2.04-0.53c-5.88-2.001-11.768-4-17.629-6.063c-0.735-0.262-1.327-0.91-1.988-1.38
					c0.548-0.617,1.054-1.269,1.642-1.843c3.868-3.798,8.139-4.005,13.03-1.95c4.354,1.831,8.974,3.029,13.437,4.606
					c0.808,0.286,1.437,1.065,2.15,1.615c-0.523,0.633-0.94,1.426-1.597,1.861c-2.157,1.462-4.405,2.797-6.616,4.181
					C408.86,421.47,408.732,421.306,408.602,421.141z"/>
				<path fill-rule="evenodd" clip-rule="evenodd" fill="none" stroke="#231F20" stroke-miterlimit="10" d="M310.23,325.165
					c-1.159,0.691-2.042,1.265-2.97,1.757c-2.856,1.529-5.662,3.192-8.627,4.471c-1.515,0.651-3.466,1.112-4.993,0.743
					c-4.76-1.159-9.412-2.751-14.104-4.196c-0.272-0.083-0.496-0.361-0.713-0.533c0.026-0.223-0.004-0.471,0.075-0.51
					c4.345-2.23,8.67-4.507,13.087-6.598c0.835-0.397,2.083-0.28,3.034-0.019c4.653,1.279,9.273,2.676,13.896,4.061
					C309.258,324.441,309.547,324.729,310.23,325.165z"/>
				<path fill-rule="evenodd" clip-rule="evenodd" fill="none" stroke="#231F20" stroke-miterlimit="10" d="M225.588,324.758
					c1.677-0.802,3.355-1.617,5.047-2.409c2.283-1.074,4.605-2.08,6.86-3.225c2.177-1.11,4.334-1.183,6.629-0.436
					c3.518,1.144,7.075,2.18,10.611,3.282c0.708,0.219,1.379,0.531,2.632,1.021c-1.235,0.736-1.918,1.212-2.659,1.575
					c-3.122,1.524-6.288,2.971-9.383,4.536c-2.373,1.196-4.669,1.492-7.25,0.533c-3.462-1.286-7.036-2.251-10.559-3.374
					c-0.631-0.2-1.242-0.485-1.864-0.731C225.633,325.272,225.609,325.013,225.588,324.758z"/>
				<path fill-rule="evenodd" clip-rule="evenodd" fill="none" stroke="#231F20" stroke-miterlimit="10" d="M305.661,321.541
					c2.442-1.266,4.736-2.154,6.688-3.527c4.95-3.48,10.006-3.587,15.472-1.39c2.886,1.165,5.988,1.787,8.984,2.654
					c0.021,0.272,0.038,0.546,0.062,0.816c-1.983,1.07-3.957,2.143-5.941,3.204c-1.67,0.894-3.282,1.966-5.055,2.611
					c-1.426,0.52-3.16,0.991-4.553,0.654c-4.834-1.171-9.58-2.701-14.353-4.116C306.634,322.35,306.36,322.04,305.661,321.541z"/>
				<path fill-rule="evenodd" clip-rule="evenodd" fill="none" stroke="#231F20" stroke-miterlimit="10" d="M258.347,321.108
					c0.886-0.54,1.505-0.99,2.181-1.319c3.263-1.592,6.513-3.216,9.831-4.688c1.118-0.495,2.529-1.034,3.62-0.771
					c5.183,1.245,10.308,2.758,15.367,4.158c-0.043,0.575,0,0.831-0.071,0.868c-4.415,2.234-8.811,4.518-13.293,6.617
					c-0.831,0.387-2.073,0.229-3.021-0.039c-4.406-1.252-8.775-2.623-13.151-3.975C259.396,321.833,259.044,321.522,258.347,321.108
					z"/>
				<path fill-rule="evenodd" clip-rule="evenodd" fill="none" stroke="#231F20" stroke-miterlimit="10" d="M206.185,318.749
					c3.558-1.637,7.181-3.152,10.659-4.943c3.173-1.638,6.22-1.764,9.562-0.518c3.446,1.285,7.038,2.195,10.701,3.908
					c-0.744,0.443-1.463,0.94-2.245,1.312c-3.282,1.566-6.543,3.175-9.889,4.594c-1.268,0.539-2.863,1.103-4.097,0.795
					c-4.929-1.227-9.775-2.789-14.652-4.225C206.21,319.363,206.197,319.056,206.185,318.749z"/>
				<path fill-rule="evenodd" clip-rule="evenodd" fill="none" stroke="#231F20" stroke-miterlimit="10" d="M285.142,315.71
					c1.959-0.987,3.458-1.77,4.976-2.504c10.558-5.089,7.49-5.108,19.175-1.784c2.232,0.636,4.46,1.286,6.688,1.932
					c0.029,0.284,0.055,0.567,0.081,0.851c-1.276,0.662-2.547,1.343-3.83,1.986c-11.941,5.962-7.662,5.414-20.383,1.888
					c-1.898-0.521-3.767-1.16-5.642-1.758C285.993,316.251,285.813,316.099,285.142,315.71z"/>
				<path fill-rule="evenodd" clip-rule="evenodd" fill="none" stroke="#231F20" stroke-miterlimit="10" d="M239.057,314.909
					c1.738-0.844,3.461-1.72,5.219-2.528c10.811-4.946,7.736-4.744,19.009-1.472c2.086,0.604,4.158,1.233,6.241,1.848
					c0.008,0.214,0.019,0.433,0.023,0.649c-0.638,0.392-1.243,0.845-1.912,1.171c-3.27,1.588-6.519,3.234-9.861,4.657
					c-1.25,0.532-2.852,0.976-4.099,0.669c-4.886-1.204-9.692-2.725-14.526-4.125C239.121,315.484,239.089,315.2,239.057,314.909z"
					/>
				<path fill-rule="evenodd" clip-rule="evenodd" fill="none" stroke="#231F20" stroke-miterlimit="10" d="M265.219,310.261
					c1.084-0.744,1.478-1.099,1.939-1.319c2.276-1.079,4.731-1.872,6.82-3.226c4.146-2.679,8.258-2.396,12.637-0.797
					c2.982,1.089,6.102,1.83,9.696,2.888c-1.035,0.756-1.476,1.191-2.006,1.449c-3.396,1.658-6.77,3.374-10.244,4.858
					c-1.165,0.495-2.693,0.764-3.883,0.46C275.392,313.348,270.675,311.859,265.219,310.261z"/>
				<path fill-rule="evenodd" clip-rule="evenodd" fill="none" stroke="#231F20" stroke-miterlimit="10" d="M219.695,309.38
					c1.116-0.568,1.899-1.006,2.71-1.377c3.162-1.443,6.274-2.999,9.51-4.233c1.486-0.564,3.32-0.929,4.807-0.584
					c4.229,0.979,8.364,2.368,12.533,3.612c0.272,0.081,0.501,0.313,1.258,0.813c-2.149,1.022-3.94,1.89-5.739,2.732
					c-2.148,1.007-4.231,2.187-6.468,2.932c-1.573,0.521-3.45,0.895-5.001,0.535c-4.15-0.967-8.199-2.359-12.281-3.608
					C220.677,310.099,220.387,309.818,219.695,309.38z"/>
				<path fill-rule="evenodd" clip-rule="evenodd" fill="none" stroke="#231F20" stroke-miterlimit="10" d="M276.252,302.862
					c-2.868,1.393-5.825,2.631-8.579,4.228c-3.737,2.161-7.381,2.142-11.327,0.635c-3.139-1.2-6.436-1.965-9.665-2.918
					c-0.025-0.215-0.053-0.429-0.079-0.643c2.52-1.2,5.151-2.203,7.535-3.629c4.599-2.75,9.189-2.766,14.064-0.853
					c2.589,1.019,5.343,1.608,8.026,2.389C276.234,302.334,276.245,302.595,276.252,302.862z"/>
				<path fill-rule="evenodd" clip-rule="evenodd" fill="none" stroke="#231F20" stroke-miterlimit="10" d="M228.131,298.791
					c0.656-0.356,1.291-0.757,1.969-1.06c2.959-1.318,5.891-2.697,8.901-3.871c1.355-0.524,2.98-1.097,4.309-0.823
					c4.693,0.97,9.317,2.299,13.897,3.477c-0.056,0.554-0.023,0.797-0.088,0.829c-4.274,1.994-8.553,3.986-12.85,5.932
					c-0.402,0.183-0.967,0.204-1.405,0.09c-4.924-1.253-9.833-2.547-14.748-3.829C228.122,299.288,228.126,299.037,228.131,298.791z
					"/>
				<path fill-rule="evenodd" clip-rule="evenodd" fill="none" stroke="#231F20" stroke-miterlimit="10" d="M552.053,371.771
					c-3.822,4.809-5.619,5.432-10.838,3.967c-5.178-1.457-10.355-2.9-15.517-4.409c-0.989-0.288-1.9-0.841-2.972-1.325
					c4.697-4.992,6.417-5.357,10.962-3.95c5.198,1.612,10.485,2.928,15.716,4.432C550.305,370.746,551.121,371.313,552.053,371.771z
					"/>
				<path fill-rule="evenodd" clip-rule="evenodd" fill="none" stroke="#231F20" stroke-miterlimit="10" d="M239.019,292.393
					c-4.722,1.886-9.43,3.791-14.168,5.632c-0.466,0.18-1.111,0.057-1.627-0.091c-4.372-1.253-8.73-2.546-13.094-3.824
					c-0.009-0.202-0.018-0.403-0.021-0.605c0.586-0.297,1.157-0.626,1.762-0.884c2.32-1,4.794-1.738,6.947-3.006
					c7.293-4.295,13.412,0.817,20.045,1.693C238.917,291.67,238.967,292.033,239.019,292.393z"/>
				<path fill-rule="evenodd" clip-rule="evenodd" fill="none" stroke="#231F20" stroke-miterlimit="10" d="M523.518,363.75
					c-3.498,4.154-7.104,5.453-11.914,3.704c-4.665-1.702-9.567-2.769-14.344-4.2c-0.746-0.22-1.369-0.874-2.049-1.329
					c0.492-0.574,0.951-1.183,1.492-1.708c2.878-2.797,6.085-3.008,9.823-1.744c4.628,1.565,9.418,2.644,14.122,3.987
					C521.572,362.725,522.425,363.251,523.518,363.75z"/>
				<path fill-rule="evenodd" clip-rule="evenodd" fill="none" stroke="#231F20" stroke-miterlimit="10" d="M496.389,356.315
					c-3.32,3.173-6.393,5.388-11.118,3.67c-4.445-1.616-9.112-2.633-13.667-3.952c-1.028-0.298-2.012-0.766-3.045-1.168
					c1.792-3.154,5.73-5.174,8.816-4.385c5.653,1.449,11.262,3.069,16.874,4.664C494.938,355.342,495.542,355.842,496.389,356.315z"
					/>
				<path fill-rule="evenodd" clip-rule="evenodd" fill="none" stroke="#231F20" stroke-miterlimit="10" d="M469.716,348.865
					c-3.513,3.342-6.881,5.158-11.576,3.441c-4.223-1.544-8.659-2.515-12.987-3.775c-0.88-0.259-1.712-0.683-2.595-1.04
					c1.715-2.875,5.965-5.044,8.708-4.331c5.572,1.446,11.112,3.04,16.652,4.618C468.479,347.934,468.957,348.396,469.716,348.865z"
					/>
				<path fill-rule="evenodd" clip-rule="evenodd" fill="none" stroke="#231F20" stroke-miterlimit="10" d="M444.854,341.892
					c-3.644,3.022-6.919,5.155-11.64,3.356c-3.979-1.512-8.2-2.371-12.299-3.566c-0.937-0.272-1.815-0.738-3.179-1.304
					c3.452-2.571,6.254-5.009,10.585-3.657c4.585,1.431,9.269,2.572,13.886,3.896C443.047,340.858,443.806,341.377,444.854,341.892z
					"/>
				<path fill-rule="evenodd" clip-rule="evenodd" fill="none" stroke="#231F20" stroke-miterlimit="10" d="M393.354,333.452
					c3.647-2.32,6.457-4.823,10.757-3.442c4.426,1.417,8.951,2.522,13.426,3.798c0.719,0.204,1.395,0.562,2.628,1.068
					c-3.464,2.309-6.073,5.003-10.339,3.69c-4.686-1.444-9.438-2.678-14.147-4.034C395.089,334.366,394.559,334.02,393.354,333.452z
					"/>
				<path fill-rule="evenodd" clip-rule="evenodd" fill="none" stroke="#231F20" stroke-miterlimit="10" d="M396.541,328.407
					c-3.524,2.413-6.518,4.868-11.003,3.322c-4.033-1.392-8.202-2.371-12.304-3.559c-0.789-0.23-1.543-0.599-2.875-1.129
					c3.489-2.138,6.191-4.609,10.124-3.573c4.726,1.243,9.431,2.571,14.128,3.904C395.177,327.532,395.681,327.934,396.541,328.407z
					"/>
				<path fill-rule="evenodd" clip-rule="evenodd" fill="none" stroke="#231F20" stroke-miterlimit="10" d="M347.947,320.481
					c3.385-1.967,6.126-4.518,10.295-3.243c4.133,1.264,8.328,2.305,12.493,3.477c0.735,0.207,1.437,0.561,2.724,1.072
					c-3.11,1.891-5.506,4.476-8.956,3.724c-5.157-1.123-10.203-2.749-15.29-4.183C348.881,321.234,348.602,320.927,347.947,320.481z
					"/>
				<path fill-rule="evenodd" clip-rule="evenodd" fill="none" stroke="#231F20" stroke-miterlimit="10" d="M350.849,315.78
					c-3.746,2.717-7.263,4.488-11.852,2.789c-4.052-1.497-8.307-2.458-13.144-3.851c3.449-2.277,6.235-4.492,9.962-3.618
					c4.602,1.079,9.13,2.482,13.678,3.783C349.934,315.011,350.295,315.407,350.849,315.78z"/>
				<path fill-rule="evenodd" clip-rule="evenodd" fill="none" stroke="#231F20" stroke-miterlimit="10" d="M305.298,308.16
					c3.685-2.416,7.37-4.171,12.062-2.354c3.69,1.432,7.624,2.237,12.127,3.511c-2.813,2.088-5.339,4.127-7.981,3.718
					c-5.535-0.862-10.924-2.625-16.378-4.019C305.187,308.729,305.244,308.447,305.298,308.16z"/>
				<path fill-rule="evenodd" clip-rule="evenodd" fill="none" stroke="#231F20" stroke-miterlimit="10" d="M285.215,302.47
					c3.538-1.885,6.878-4.082,11.394-2.405c3.802,1.412,7.814,2.25,11.794,3.716c-2.436,1.778-4.907,3.95-7.896,3.429
					c-5.165-0.907-10.202-2.534-15.291-3.858C285.215,303.057,285.215,302.764,285.215,302.47z"/>
				<path fill-rule="evenodd" clip-rule="evenodd" fill="none" stroke="#231F20" stroke-miterlimit="10" d="M288.144,298.253
					c-3.975,2.534-7.676,4.176-12.265,2.427c-3.446-1.308-7.096-2.079-10.678-3.405c2.878-1.991,5.741-4.055,9.392-3.234
					c4.225,0.954,8.366,2.272,12.539,3.458C287.399,297.573,287.615,297.849,288.144,298.253z"/>
				<path fill-rule="evenodd" clip-rule="evenodd" fill="none" stroke="#231F20" stroke-miterlimit="10" d="M268.4,293.053
					c-3.477,1.867-6.82,3.906-11.202,2.329c-3.603-1.294-7.367-2.155-11.043-3.508c3.498-2.181,6.854-4.187,11.203-2.706
					c3.618,1.229,7.36,2.106,11.05,3.14C268.404,292.555,268.404,292.803,268.4,293.053z"/>
				<path fill-rule="evenodd" clip-rule="evenodd" fill="none" stroke="#231F20" stroke-miterlimit="10" d="M249.504,287.431
					c-3.807,2.035-7.189,4.061-11.551,2.516c-3.479-1.232-7.09-2.088-11.379-3.325c3.633-1.858,6.513-3.877,10.122-3.08
					c3.902,0.864,7.729,2.096,11.582,3.192C248.618,286.831,248.913,287.086,249.504,287.431z"/>
			</g>
		</g>
	</g>
</g>
</svg>
