<?xml version="1.0" encoding="utf-8"?>
<!-- Generator: Adobe Illustrator 16.0.0, SVG Export Plug-In . SVG Version: 6.00 Build 0)  -->
<!DOCTYPE svg PUBLIC "-//W3C//DTD SVG 1.1//EN" "http://www.w3.org/Graphics/SVG/1.1/DTD/svg11.dtd">
<svg version="1.1" id="Layer_1" xmlns="http://www.w3.org/2000/svg" xmlns:xlink="http://www.w3.org/1999/xlink" x="0px" y="0px"
	 width="600px" height="600px" viewBox="0 0 600 600" enable-background="new 0 0 600 600" xml:space="preserve">
<g>
	<circle fill="#FFFFFF" stroke="#E0D04E" stroke-miterlimit="10" cx="299.914" cy="295.143" r="258.657"/>
	<path fill="#F1F2F2" d="M88.245,289.512c3.61-21.565,35.666-48.577,78.522-69.792c-11.342-38.383-20.947-71.507-25.863-89.242
		c-16.045-57.895-8.837-67.387-3.94-78.096c4.896-10.71,21.474-21.181,48.106-30.419c26.635-9.24,47.615-8.345,61.701-2.235
		c24.035,10.429,44.602,82.881,55.425,117.728c2.75,8.856,7.983,26.104,14.454,47.649c20.291,1.437,39.111,6.25,54.956,15.436
		c33.637,19.493,143.895,248.405,110.259,306.735c-21.612,37.475-230.768,110.364-281.72,80.241
		C156.287,561.586,78.247,349.205,88.245,289.512z"/>
	<path fill="none" stroke="#897F9A" stroke-miterlimit="10" d="M212.29,577.802c50.948,30.122,260.108-42.767,281.718-80.242
		c33.636-58.329-76.621-287.242-110.258-306.736c-89.656-51.96-274.383,35.362-283.361,88.972
		C90.392,339.491,168.43,551.871,212.29,577.802z"/>
	<path fill="none" stroke="#897F9A" stroke-miterlimit="10" d="M215.922,568.102c48.615,28.601,248.416-40.995,269.095-76.674
		c32.184-55.539-72.829-273.206-104.924-291.715c-85.547-49.333-262.036,33.965-270.671,84.984
		C99.807,341.504,174.072,543.479,215.922,568.102z"/>
	<path fill="#FFFFFF" stroke="#897F9A" stroke-miterlimit="10" d="M258.914,10.015c-14.086-6.113-35.065-7.006-61.7,2.233
		c-26.633,9.24-43.211,19.708-48.108,30.418c-4.896,10.708-12.104,20.204,3.943,78.096c16.046,57.892,82.037,279.71,95.368,313.295
		c13.334,33.584,23.408,55.124,38.529,58.65c15.123,3.524,44.708-7.114,56.616-10.813c11.91-3.7,48.75-19.01,53.889-27.378
		c5.14-8.368,1.606-35.324-10.741-81.306c-12.347-45.983-61.546-210.623-72.369-245.472
		C303.518,92.894,282.949,20.443,258.914,10.015z"/>
	<path fill="#FFFFFF" stroke="#897F9A" stroke-miterlimit="10" d="M255.968,17.252c-13.081-6.15-32.429-7.355-56.827,1.165
		c-24.395,8.519-39.506,18.393-43.844,28.687c-4.339,10.295-10.827,19.377,4.897,75.716c15.726,56.339,80.131,272.281,92.963,305.03
		c12.83,32.75,22.465,53.774,36.459,57.435c13.991,3.659,41.085-6.167,52.001-9.557c10.917-3.391,44.622-17.627,49.222-25.649
		c4.601-8.022,0.908-34.191-11.216-78.932c-12.124-44.744-60.13-205.025-70.67-238.958
		C298.416,98.258,278.289,27.747,255.968,17.252z"/>
	<g>
		<path fill="#FFFFFF" d="M198.901,202.216c1.631,5.252,7.264,8.215,12.516,6.583l92.061-28.595
			c5.252-1.631,8.215-7.264,6.583-12.516l-18.454-59.417c-1.631-5.252-7.264-8.215-12.516-6.583l-92.061,28.594
			c-5.252,1.631-8.215,7.264-6.583,12.516L198.901,202.216z"/>
		<path fill="none" stroke="#897F9A" stroke-miterlimit="10" d="M198.901,202.216c1.631,5.252,7.264,8.215,12.516,6.583
			l92.061-28.595c5.252-1.631,8.215-7.264,6.583-12.516l-18.454-59.417c-1.631-5.252-7.264-8.215-12.516-6.583l-92.061,28.594
			c-5.252,1.631-8.215,7.264-6.583,12.516L198.901,202.216z"/>
	</g>
	<g>
		<path fill="#FFFFFF" d="M196.242,188.53c1.631,5.252,7.263,8.215,12.516,6.584l87.52-27.183c5.252-1.631,8.215-7.264,6.584-12.517
			l-13.11-42.214c-1.631-5.252-7.263-8.215-12.516-6.584l-87.52,27.183c-5.252,1.631-8.215,7.264-6.584,12.517L196.242,188.53z"/>
		<path fill="none" stroke="#6EBF67" stroke-miterlimit="10" d="M196.242,188.53c1.631,5.252,7.263,8.215,12.516,6.584l87.52-27.183
			c5.252-1.631,8.215-7.264,6.584-12.517l-13.11-42.214c-1.631-5.252-7.263-8.215-12.516-6.584l-87.52,27.183
			c-5.252,1.631-8.215,7.264-6.584,12.517L196.242,188.53z"/>
	</g>
	<circle fill="#FFFFFF" stroke="#897F9A" stroke-miterlimit="10" cx="219.299" cy="67.78" r="24.482"/>
	<circle fill="#FFFFFF" stroke="#897F9A" stroke-miterlimit="10" cx="218.143" cy="67.173" r="22.171"/>
	<path fill="#FFFFFF" stroke="#897F9A" stroke-miterlimit="10" d="M320.728,200.482c0.755,2.426-0.614,5.027-3.04,5.78
		l-13.676,4.249c-2.426,0.753-5.029-0.617-5.78-3.042l-1.233-3.968c-0.755-2.427,0.615-5.029,3.041-5.783l13.675-4.245
		c2.425-0.755,5.027,0.613,5.78,3.041L320.728,200.482z"/>
	<path fill="#FFFFFF" stroke="#897F9A" stroke-miterlimit="10" d="M233.116,226.727c0.752,2.424-0.618,5.029-3.042,5.78
		l-16.321,5.071c-2.426,0.752-5.028-0.617-5.779-3.045l-1.233-3.969c-0.755-2.425,0.613-5.027,3.039-5.779l16.322-5.069
		c2.424-0.754,5.027,0.614,5.782,3.04L233.116,226.727z"/>
	<path fill="#FFFFFF" stroke="#897F9A" stroke-miterlimit="10" d="M243.115,258.926c0.754,2.427-0.613,5.028-3.041,5.782
		l-16.32,5.068c-2.426,0.754-5.028-0.614-5.782-3.039l-3.286-10.589c-0.755-2.425,0.614-5.025,3.04-5.78l16.323-5.067
		c2.426-0.754,5.025,0.614,5.78,3.042L243.115,258.926z"/>
	<path fill="#FFFFFF" stroke="#897F9A" stroke-miterlimit="10" d="M255.994,300.392c0.755,2.426-0.615,5.028-3.041,5.782
		l-16.323,5.068c-2.424,0.755-5.024-0.617-5.779-3.043l-6.577-21.171c-0.753-2.428,0.617-5.029,3.041-5.781l16.321-5.068
		c2.427-0.753,5.029,0.615,5.781,3.042L255.994,300.392z"/>
	<path fill="#FFFFFF" stroke="#897F9A" stroke-miterlimit="10" d="M330.458,231.801c0.752,2.425-0.616,5.026-3.042,5.781
		l-13.674,4.247c-2.427,0.752-5.027-0.616-5.782-3.042l-3.288-10.586c-0.753-2.427,0.615-5.029,3.041-5.782l13.675-4.246
		c2.426-0.755,5.027,0.615,5.781,3.041L330.458,231.801z"/>
	<path fill="#FFFFFF" stroke="#897F9A" stroke-miterlimit="10" d="M343.335,273.265c0.751,2.427-0.615,5.028-3.042,5.779
		l-13.674,4.249c-2.426,0.756-5.027-0.615-5.781-3.041l-6.577-21.174c-0.752-2.426,0.615-5.027,3.043-5.78l13.673-4.246
		c2.428-0.753,5.027,0.615,5.783,3.04L343.335,273.265z"/>
	<g>
		<path fill="#FFFFFF" stroke="#897F9A" stroke-miterlimit="10" d="M266.608,287.944c2.396,6.697,9.917,10.451,16.709,8.342
			l12.833-3.984c6.792-2.111,10.862-9.463,9.044-16.341l-9.462-30.46c-2.396-6.697-9.916-10.451-16.71-8.34l-12.831,3.984
			c-6.793,2.109-10.862,9.464-9.046,16.338L266.608,287.944z"/>
	</g>
	<g>
		<path fill="#FFFFFF" stroke="#897F9A" stroke-miterlimit="10" d="M268.531,286.348c2.208,6.205,8.936,9.75,14.953,7.881
			l11.367-3.532c6.015-1.867,9.552-8.599,7.855-14.962l-8.756-28.199c-2.208-6.202-8.937-9.749-14.955-7.88l-11.366,3.53
			c-6.015,1.869-9.551,8.601-7.857,14.966L268.531,286.348z"/>
	</g>
	<path fill="#FFFFFF" stroke="#897F9A" stroke-miterlimit="10" d="M326.795,324.348c0.754,2.427,3.355,3.796,5.781,3.045
		l21.173-6.578c2.425-0.755,3.794-3.356,3.041-5.781l-3.289-10.586c-0.752-2.428-3.355-3.793-5.779-3.041l-21.174,6.574
		c-2.428,0.754-3.794,3.355-3.042,5.783L326.795,324.348z"/>
	<path fill="#FFFFFF" stroke="#897F9A" stroke-miterlimit="10" d="M285.33,337.227c0.755,2.426,3.354,3.793,5.781,3.041
		l21.175-6.574c2.426-0.754,3.794-3.355,3.04-5.782l-3.288-10.584c-0.751-2.426-3.355-3.796-5.779-3.044l-21.173,6.577
		c-2.428,0.755-3.794,3.357-3.042,5.782L285.33,337.227z"/>
	<path fill="#FFFFFF" stroke="#897F9A" stroke-miterlimit="10" d="M242.1,350.653c0.755,2.427,3.355,3.795,5.782,3.042l21.173-6.578
		c2.424-0.752,3.795-3.354,3.04-5.78l-3.288-10.586c-0.753-2.427-3.354-3.795-5.779-3.042l-21.175,6.578
		c-2.426,0.752-3.792,3.352-3.041,5.779L242.1,350.653z"/>
	<path fill="#FFFFFF" stroke="#897F9A" stroke-miterlimit="10" d="M336.249,354.786c0.752,2.426,3.355,3.794,5.779,3.041
		l21.173-6.575c2.427-0.753,3.794-3.354,3.041-5.783l-3.288-10.585c-0.753-2.426-3.354-3.794-5.781-3.041L336,338.418
		c-2.426,0.753-3.794,3.354-3.041,5.783L336.249,354.786z"/>
	<path fill="#FFFFFF" stroke="#897F9A" stroke-miterlimit="10" d="M294.342,367.802c0.752,2.424,3.354,3.792,5.78,3.041
		l21.174-6.577c2.426-0.752,3.794-3.354,3.041-5.779l-3.288-10.589c-0.754-2.426-3.354-3.793-5.781-3.04l-21.173,6.576
		c-2.426,0.752-3.793,3.353-3.041,5.781L294.342,367.802z"/>
	<path fill="#FFFFFF" stroke="#897F9A" stroke-miterlimit="10" d="M251.553,381.09c0.755,2.428,3.358,3.796,5.782,3.042
		l21.174-6.578c2.427-0.753,3.794-3.354,3.041-5.779l-3.286-10.586c-0.755-2.428-3.358-3.796-5.782-3.042l-21.174,6.578
		c-2.428,0.75-3.794,3.353-3.041,5.779L251.553,381.09z"/>
	<path fill="#FFFFFF" stroke="#897F9A" stroke-miterlimit="10" d="M346.25,386.987c0.752,2.427,3.355,3.794,5.779,3.042
		l21.174-6.578c2.427-0.751,3.794-3.352,3.042-5.779l-3.288-10.588c-0.755-2.427-3.355-3.795-5.782-3.042l-21.174,6.578
		c-2.424,0.752-3.795,3.354-3.041,5.781L346.25,386.987z"/>
	<path fill="#FFFFFF" stroke="#897F9A" stroke-miterlimit="10" d="M303.903,400.139c0.752,2.426,3.355,3.795,5.779,3.042
		l21.174-6.574c2.427-0.755,3.794-3.357,3.042-5.782l-3.288-10.587c-0.755-2.427-3.354-3.795-5.782-3.042l-21.174,6.577
		c-2.426,0.753-3.794,3.356-3.041,5.78L303.903,400.139z"/>
	<path fill="#FFFFFF" stroke="#897F9A" stroke-miterlimit="10" d="M261.557,413.29c0.753,2.429,3.353,3.794,5.779,3.043
		l21.175-6.577c2.426-0.754,3.792-3.355,3.041-5.78l-3.288-10.586c-0.753-2.426-3.355-3.796-5.782-3.042l-21.173,6.574
		c-2.425,0.755-3.795,3.357-3.039,5.782L261.557,413.29z"/>
	<path fill="#FFFFFF" stroke="#897F9A" stroke-miterlimit="10" d="M352.446,419.402c0.755,2.426,3.354,3.796,5.781,3.042
		l21.175-6.578c2.425-0.752,3.794-3.354,3.04-5.779l-3.286-10.588c-0.754-2.424-3.356-3.793-5.782-3.041l-21.173,6.577
		c-2.426,0.752-3.794,3.356-3.041,5.78L352.446,419.402z"/>
	<path fill="#FFFFFF" stroke="#897F9A" stroke-miterlimit="10" d="M313.629,431.458c0.754,2.427,3.355,3.795,5.779,3.04
		l21.174-6.573c2.428-0.754,3.794-3.357,3.042-5.782l-3.287-10.589c-0.754-2.423-3.355-3.791-5.783-3.039l-21.173,6.575
		c-2.425,0.756-3.795,3.357-3.04,5.781L313.629,431.458z"/>
	<path fill="#FFFFFF" stroke="#897F9A" stroke-miterlimit="10" d="M271.283,444.611c0.754,2.425,3.354,3.794,5.782,3.039
		l21.174-6.574c2.424-0.753,3.793-3.355,3.039-5.782l-3.288-10.585c-0.753-2.426-3.355-3.794-5.782-3.042l-21.172,6.575
		c-2.426,0.756-3.795,3.357-3.041,5.783L271.283,444.611z"/>
	<path fill="#FFFFFF" stroke="#897F9A" stroke-miterlimit="10" d="M361.44,436.681c0,0,3.062,14.524,4.658,14.998
		c1.6,0.472,15.439-4.793,16.991-9.146c1.551-4.351,1.625-15.013-1.16-14.631C379.146,428.28,361.44,436.681,361.44,436.681z"/>
	<path fill="#FFFFFF" stroke="#897F9A" stroke-miterlimit="10" d="M306.181,453.842c0,0,5.939,13.633,4.658,15
		c-1.281,1.364-18.131,5.63-22.334,3.066c-4.204-2.562-10.843-11.143-7.873-12.549S306.181,453.842,306.181,453.842z"/>
	<g>
		<path fill="#FFFFFF" d="M325.485,458.731c0.528,1.698,3.539,2.287,6.69,1.308l9.272-2.88c3.151-0.979,5.298-3.169,4.771-4.867
			s-3.537-2.286-6.688-1.308l-9.274,2.879C327.104,454.842,324.957,457.033,325.485,458.731z"/>
		<path fill="none" stroke="#897F9A" stroke-miterlimit="10" d="M325.485,458.731c0.528,1.698,3.539,2.287,6.69,1.308l9.272-2.88
			c3.151-0.979,5.298-3.169,4.771-4.867s-3.537-2.286-6.688-1.308l-9.274,2.879C327.104,454.842,324.957,457.033,325.485,458.731z"
			/>
	</g>
	<circle fill="#FFFFFF" stroke="#897F9A" stroke-miterlimit="10" cx="335.782" cy="455.291" r="1.386"/>
</g>
</svg>
