<?xml version="1.0" encoding="utf-8"?>
<!-- Generator: Adobe Illustrator 16.0.0, SVG Export Plug-In . SVG Version: 6.00 Build 0)  -->
<!DOCTYPE svg PUBLIC "-//W3C//DTD SVG 1.1//EN" "http://www.w3.org/Graphics/SVG/1.1/DTD/svg11.dtd">
<svg version="1.1" id="Layer_1" xmlns="http://www.w3.org/2000/svg" xmlns:xlink="http://www.w3.org/1999/xlink" x="0px" y="0px"
	 width="600px" height="600px" viewBox="0 0 600 600" enable-background="new 0 0 600 600" xml:space="preserve">
<g>
	<circle fill="#FFFFFF" stroke="#E0D04E" stroke-miterlimit="10" cx="241.608" cy="259.697" r="213.749"/>
	<path fill="#F1F2F2" d="M119.64,333.385l-95.342-45.268c-10.751-5.09-17.257-13.012-17.257-24.045v-2.83
		c0-11.033,6.506-18.955,17.257-24.048l95.342-45.267c3.394-1.697,6.506-2.828,10.467-2.828c9.055-0.285,17.259,7.64,17.259,17.824
		c0,8.203-4.527,13.861-11.883,17.258l-85.439,38.191l85.439,38.194c7.356,3.396,11.883,9.902,11.883,17.824
		c0,10.47-8.204,17.824-18.672,17.542C125.581,335.933,122.469,334.8,119.64,333.385z"/>
	<path fill="#F1F2F2" d="M173.397,375.82l110.618-231.139c3.112-6.506,8.206-9.903,14.996-9.903c9.053,0,16.692,7.639,16.692,16.127
		c0,3.112-1.133,6.225-1.981,8.203L203.103,390.251c-3.112,6.506-8.206,9.902-14.995,9.902c-9.053,0-16.692-7.639-16.692-16.127
		C171.415,380.915,172.547,377.803,173.397,375.82z"/>
	<path fill="#F1F2F2" d="M371.438,191.927l95.342,45.267c10.751,5.094,17.258,13.015,17.258,24.048v2.83
		c0,11.033-6.507,18.955-17.258,24.045l-95.342,45.268c-3.395,1.696-6.508,2.83-10.469,2.83c-9.053,0.281-17.257-7.64-17.257-17.824
		c0-8.203,4.526-13.863,11.882-17.258l85.44-38.194l-85.44-38.194c-7.355-3.394-11.882-9.9-11.882-17.821
		c0-10.469,8.204-17.824,18.672-17.542C365.496,189.382,368.608,190.515,371.438,191.927z"/>
	<path fill="none" stroke="#6EBF67" stroke-miterlimit="10" d="M115.709,325.615l-95.342-45.267
		c-10.75-5.091-17.257-13.013-17.257-24.046v-2.83c0-11.033,6.507-18.955,17.257-24.048l95.342-45.267
		c3.396-1.697,6.507-2.828,10.468-2.828c9.053-0.284,17.257,7.64,17.257,17.824c0,8.203-4.526,13.861-11.882,17.258l-85.44,38.191
		l85.44,38.194c7.356,3.396,11.882,9.903,11.882,17.824c0,10.47-8.205,17.824-18.671,17.542
		C121.651,328.163,118.539,327.03,115.709,325.615z"/>
	<path fill="none" stroke="#4E3874" stroke-miterlimit="10" d="M169.466,368.052l110.62-231.14
		c3.111-6.506,8.205-9.903,14.995-9.903c9.052,0,16.691,7.64,16.691,16.127c0,3.112-1.132,6.224-1.98,8.203L199.172,382.481
		c-3.112,6.506-8.205,9.903-14.994,9.903c-9.055,0-16.692-7.64-16.692-16.128C167.486,373.146,168.618,370.033,169.466,368.052z"/>
	<path fill="none" stroke="#6EBF67" stroke-miterlimit="10" d="M367.508,184.158l95.342,45.267
		c10.75,5.094,17.258,13.015,17.258,24.048v2.83c0,11.033-6.508,18.955-17.258,24.046l-95.342,45.267
		c-3.395,1.696-6.508,2.83-10.468,2.83c-9.054,0.282-17.26-7.64-17.26-17.824c0-8.203,4.527-13.863,11.884-17.258l85.44-38.193
		l-85.44-38.194c-7.356-3.394-11.884-9.9-11.884-17.822c0-10.469,8.206-17.824,18.673-17.542
		C361.565,181.612,364.678,182.746,367.508,184.158z"/>
</g>
<g>
	<circle fill="#FFFFFF" stroke="#E0D04E" stroke-miterlimit="10" cx="398.667" cy="406.822" r="147.125"/>
	<path fill="#F1F2F2" d="M236.063,459.408c0-3.355,0.671-11.638,0.671-15.442c0-15.892-6.268-21.71-18.129-22.606
		c-8.505-0.671-13.877-5.818-13.877-13.428c0-7.611,5.372-12.758,13.877-13.43c11.862-0.896,18.129-6.715,18.129-22.606
		c0-3.805-0.671-12.085-0.671-15.442c0-21.264,10.073-34.917,43.42-42.526c8.728-2.014,15.668,3.357,15.668,11.64
		c0,6.713-4.701,10.294-8.058,11.414c-17.011,6.043-19.92,12.311-19.92,24.396c0,4.476,0.672,11.863,0.672,16.562
		c0,16.339-8.283,25.067-23.278,29.992c14.995,4.924,23.278,13.651,23.278,29.99c0,4.701-0.672,12.087-0.672,16.563
		c0,12.087,2.909,18.353,19.92,24.396c3.357,1.119,8.058,4.701,8.058,11.416c0,8.28-6.94,13.651-15.668,11.639
		C246.136,494.325,236.063,480.673,236.063,459.408z"/>
	<path fill="#F1F2F2" d="M315.071,354.215v-0.448c0-22.158,15.442-40.063,38.272-40.063c22.604,0,37.824,17.682,37.824,39.616v0.447
		c0,21.934-15.443,40.064-38.273,40.064C330.288,393.831,315.071,376.148,315.071,354.215z M367.668,354.215v-0.448
		c0-10.52-5.82-19.695-14.773-19.695c-9.4,0-14.323,8.952-14.323,19.248v0.447c0,10.52,5.818,19.697,14.772,19.697
		C362.743,373.464,367.668,364.286,367.668,354.215z M342.6,455.827l100.047-136.976c2.015-2.909,5.596-4.701,9.177-4.701
		c5.819,0,10.52,4.701,10.52,10.52c0,2.91-0.895,5.148-2.463,7.162L359.835,468.809c-2.016,2.91-5.597,4.7-9.177,4.7
		c-5.82,0-10.521-4.7-10.521-10.52C340.137,460.081,341.257,457.843,342.6,455.827z M411.312,434.341v-0.447
		c0-22.157,15.444-40.062,38.274-40.062c22.604,0,37.824,17.682,37.824,39.615v0.447c0,21.934-15.443,40.064-38.273,40.064
		C426.532,473.958,411.312,456.276,411.312,434.341z M463.908,434.341v-0.447c0-10.52-5.818-19.696-14.771-19.696
		c-9.4,0-14.323,8.953-14.323,19.249v0.447c0,10.52,5.819,19.697,14.772,19.697C458.984,453.591,463.908,444.413,463.908,434.341z"
		/>
	<path fill="#F1F2F2" d="M566.418,356.453c0,3.357-0.672,11.638-0.672,15.442c0,15.892,6.268,21.711,18.13,22.606
		c8.505,0.672,13.876,5.818,13.876,13.43c0,7.609-5.371,12.757-13.876,13.428c-11.862,0.896-18.13,6.715-18.13,22.606
		c0,3.805,0.672,12.087,0.672,15.442c0,21.265-10.072,34.917-43.422,42.527c-8.729,2.013-15.667-3.358-15.667-11.639
		c0-6.715,4.7-10.297,8.058-11.416c17.011-6.043,19.92-12.309,19.92-24.396c0-4.477-0.671-11.862-0.671-16.563
		c0-16.339,8.28-25.066,23.277-29.99c-14.997-4.925-23.277-13.653-23.277-29.992c0-4.699,0.671-12.087,0.671-16.562
		c0-12.086-2.909-18.354-19.92-24.396c-3.357-1.12-8.058-4.701-8.058-11.414c0-8.282,6.938-13.653,15.667-11.64
		C556.346,321.536,566.418,335.189,566.418,356.453z"/>
	<path fill="none" stroke="#6EBF67" stroke-miterlimit="10" d="M231.871,453.677c0-3.357,0.671-11.639,0.671-15.443
		c0-15.891-6.267-21.71-18.129-22.605c-8.505-0.671-13.877-5.819-13.877-13.429c0-7.611,5.372-12.758,13.877-13.43
		c11.863-0.895,18.129-6.715,18.129-22.606c0-3.805-0.671-12.085-0.671-15.442c0-21.263,10.071-34.916,43.42-42.526
		c8.729-2.014,15.668,3.357,15.668,11.639c0,6.715-4.701,10.296-8.057,11.415c-17.011,6.043-19.921,12.311-19.921,24.396
		c0,4.476,0.671,11.863,0.671,16.562c0,16.339-8.28,25.067-23.276,29.992c14.996,4.924,23.276,13.653,23.276,29.99
		c0,4.701-0.671,12.087-0.671,16.563c0,12.087,2.91,18.354,19.921,24.397c3.356,1.118,8.057,4.699,8.057,11.414
		c0,8.28-6.938,13.652-15.668,11.639C241.942,488.593,231.871,474.94,231.871,453.677z"/>
	<path fill="none" stroke="#4E3874" stroke-miterlimit="10" d="M310.877,348.481v-0.447c0-22.157,15.445-40.063,38.273-40.063
		c22.606,0,37.825,17.683,37.825,39.616v0.447c0,21.934-15.442,40.064-38.272,40.064
		C326.098,388.099,310.877,370.417,310.877,348.481z M363.476,348.481v-0.447c0-10.52-5.819-19.694-14.772-19.694
		c-9.399,0-14.324,8.951-14.324,19.247v0.447c0,10.521,5.819,19.697,14.771,19.697C358.551,367.731,363.476,358.555,363.476,348.481
		z M338.407,450.096l100.047-136.977c2.015-2.909,5.596-4.701,9.177-4.701c5.819,0,10.52,4.701,10.52,10.521
		c0,2.91-0.896,5.147-2.461,7.162L355.643,463.076c-2.015,2.91-5.596,4.701-9.178,4.701c-5.819,0-10.519-4.701-10.519-10.52
		C335.946,454.349,337.064,452.11,338.407,450.096z M407.119,428.61v-0.449c0-22.157,15.444-40.062,38.273-40.062
		c22.606,0,37.825,17.681,37.825,39.615v0.447c0,21.935-15.442,40.064-38.272,40.064C422.34,468.226,407.119,450.544,407.119,428.61
		z M459.718,428.61v-0.449c0-10.52-5.819-19.695-14.772-19.695c-9.401,0-14.325,8.952-14.325,19.248v0.447
		c0,10.52,5.82,19.697,14.772,19.697C454.795,447.858,459.718,438.681,459.718,428.61z"/>
	<path fill="none" stroke="#6EBF67" stroke-miterlimit="10" d="M562.226,350.721c0,3.357-0.671,11.638-0.671,15.442
		c0,15.892,6.267,21.712,18.129,22.606c8.506,0.672,13.876,5.818,13.876,13.43c0,7.609-5.37,12.758-13.876,13.429
		c-11.862,0.896-18.129,6.715-18.129,22.605c0,3.805,0.671,12.086,0.671,15.443c0,21.264-10.072,34.916-43.42,42.526
		c-8.729,2.014-15.668-3.358-15.668-11.639c0-6.715,4.699-10.296,8.059-11.414c17.009-6.044,19.919-12.311,19.919-24.397
		c0-4.477-0.672-11.862-0.672-16.563c0-16.337,8.281-25.066,23.277-29.99c-14.996-4.925-23.277-13.653-23.277-29.992
		c0-4.699,0.672-12.087,0.672-16.562c0-12.086-2.91-18.354-19.919-24.396c-3.359-1.119-8.059-4.7-8.059-11.415
		c0-8.281,6.938-13.652,15.668-11.639C552.153,315.805,562.226,329.458,562.226,350.721z"/>
</g>
</svg>
