<?xml version="1.0" encoding="utf-8"?>
<!-- Generator: Adobe Illustrator 16.0.0, SVG Export Plug-In . SVG Version: 6.00 Build 0)  -->
<!DOCTYPE svg PUBLIC "-//W3C//DTD SVG 1.1//EN" "http://www.w3.org/Graphics/SVG/1.1/DTD/svg11.dtd">
<svg version="1.1" id="Layer_1" xmlns="http://www.w3.org/2000/svg" xmlns:xlink="http://www.w3.org/1999/xlink" x="0px" y="0px"
	 width="300px" height="300px" viewBox="0 0 300 300" enable-background="new 0 0 300 300" xml:space="preserve">
<circle fill="#FFFFFF" stroke="#E0D04E" stroke-miterlimit="10" cx="150" cy="150" r="129.328"/>
<g>
	<rect x="58.5" y="49.5" fill="#FFFFFF" stroke="#6EBF67" stroke-miterlimit="10" width="168" height="216"/>
	<rect x="71.5" y="36.5" fill="#FFFFFF" stroke="#6EBF67" stroke-miterlimit="10" width="168" height="216"/>
</g>
<g>
	<line fill="none" stroke="#999999" stroke-width="4" stroke-miterlimit="10" x1="85.5" y1="52.5" x2="218" y2="52.5"/>
	<line fill="none" stroke="#999999" stroke-width="4" stroke-miterlimit="10" x1="85.5" y1="62.5" x2="171" y2="62.5"/>
	<line fill="none" stroke="#999999" stroke-width="4" stroke-miterlimit="10" x1="85.5" y1="72.5" x2="185" y2="72.5"/>
	<line fill="none" stroke="#999999" stroke-width="4" stroke-miterlimit="10" x1="85.5" y1="82.5" x2="200" y2="82.5"/>
	<line fill="none" stroke="#999999" stroke-width="4" stroke-miterlimit="10" x1="85.5" y1="92.5" x2="135.25" y2="92.5"/>
	<line fill="none" stroke="#999999" stroke-width="4" stroke-miterlimit="10" x1="85.5" y1="102.5" x2="200" y2="102.5"/>
	<line fill="none" stroke="#999999" stroke-width="4" stroke-miterlimit="10" x1="85.5" y1="112.5" x2="166" y2="112.5"/>
	<line fill="none" stroke="#999999" stroke-width="4" stroke-miterlimit="10" x1="85.5" y1="122.5" x2="202.5" y2="122.5"/>
	<line fill="none" stroke="#999999" stroke-width="4" stroke-miterlimit="10" x1="85.5" y1="132.5" x2="221.5" y2="132.5"/>
	<line fill="none" stroke="#999999" stroke-width="4" stroke-miterlimit="10" x1="85.5" y1="142.5" x2="155.5" y2="142.5"/>
	<line fill="none" stroke="#999999" stroke-width="4" stroke-miterlimit="10" x1="85.5" y1="152.5" x2="185" y2="152.5"/>
	<line fill="none" stroke="#999999" stroke-width="4" stroke-miterlimit="10" x1="85.5" y1="162.5" x2="190.5" y2="162.5"/>
	<line fill="none" stroke="#999999" stroke-width="4" stroke-miterlimit="10" x1="85.5" y1="172.5" x2="214" y2="172.5"/>
	<line fill="none" stroke="#999999" stroke-width="4" stroke-miterlimit="10" x1="85.5" y1="182.5" x2="160" y2="182.5"/>
	<line fill="none" stroke="#999999" stroke-width="4" stroke-miterlimit="10" x1="85.5" y1="192.5" x2="180.5" y2="192.5"/>
	<line fill="none" stroke="#999999" stroke-width="4" stroke-miterlimit="10" x1="85.5" y1="202.5" x2="200" y2="202.5"/>
	<line fill="none" stroke="#999999" stroke-width="4" stroke-miterlimit="10" x1="85.5" y1="212.5" x2="218" y2="212.5"/>
</g>
</svg>
