<?xml version="1.0" encoding="utf-8"?>
<!-- Generator: Adobe Illustrator 16.0.0, SVG Export Plug-In . SVG Version: 6.00 Build 0)  -->
<!DOCTYPE svg PUBLIC "-//W3C//DTD SVG 1.1//EN" "http://www.w3.org/Graphics/SVG/1.1/DTD/svg11.dtd">
<svg version="1.1" id="Layer_1" xmlns="http://www.w3.org/2000/svg" xmlns:xlink="http://www.w3.org/1999/xlink" x="0px" y="0px"
	 width="640px" height="480px" viewBox="0 0 640 480" enable-background="new 0 0 640 480" xml:space="preserve">
<g>
	<g>
		<g>
			<path fill="#F1F2F2" d="M198.371,105.666c32.248,97.967,32.847,203.267,67.077,300.743c0.637,1.813,3.535,1.033,2.893-0.797
				c-34.23-97.478-34.829-202.777-67.077-300.743C200.662,103.04,197.765,103.823,198.371,105.666L198.371,105.666z"/>
		</g>
	</g>
	<g>
		<g>
			<path fill="#F1F2F2" d="M266.138,407.306c8.863,6.382,22.383,6.599,32.808,7.017c18.205,0.728,36.535-0.797,54.582-3.087
				c17.908-2.272,35.763-5.529,53.163-10.368c11.69-3.251,25.226-7.07,34.553-15.267c1.456-1.279-0.675-3.393-2.121-2.121
				c-9.169,8.058-22.733,11.576-34.201,14.766c-17.188,4.78-34.873,7.894-52.558,10.138c-17.053,2.163-34.31,3.444-51.505,3.002
				c-10.429-0.269-24.322-0.272-33.207-6.669C266.078,403.583,264.583,406.187,266.138,407.306L266.138,407.306z"/>
		</g>
	</g>
	<g>
		<g>
			<path fill="#F1F2F2" d="M439.745,381.607c-7.407-49.139-13.38-98.449-20.946-147.577c-8.426-54.7-16.851-109.445-20.771-164.691
				c-0.136-1.918-3.137-1.932-3,0c3.894,54.871,12.212,109.256,20.584,163.585c7.669,49.762,13.737,99.707,21.24,149.48
				C437.14,384.312,440.03,383.499,439.745,381.607L439.745,381.607z"/>
		</g>
	</g>
	<g>
		<g>
			<path fill="#F1F2F2" d="M203.354,108.389c57.204-41.542,130.832-41.526,198.471-38.886c1.936,0.075,1.928-2.925,0-3
				c-68.123-2.66-142.377-2.54-199.984,39.296C200.292,106.924,201.786,109.528,203.354,108.389L203.354,108.389z"/>
		</g>
	</g>
	<g>
		<g>
			<path fill="#F1F2F2" d="M331.604,370.954c-4.191,1.898-2.66,5.922-0.217,8.635c4.053,4.498,10.976,7.702,16.934,8.366
				c10.154,1.13,19.842-7.909,16.988-18.236c-2.397-8.675-11.403-15.704-19.735-18.147c-9.919-2.908-15.274,4.196-14.609,13.575
				c0.136,1.918,3.137,1.932,3,0c-0.512-7.217,2.381-12.642,10.251-10.829c6.792,1.564,13.145,6.786,16.66,12.693
				c4.307,7.235,0.941,13.614-6.066,17.231c-4.763,2.458-11.21-0.205-15.495-2.486c-1.66-0.883-10.339-6.335-6.196-8.212
				C334.877,372.747,333.351,370.162,331.604,370.954L331.604,370.954z"/>
		</g>
	</g>
	<g>
		<g>
			<path fill="#F1F2F2" d="M222.381,118.223c13.033,62.985,25.277,126.135,39.03,188.97c2.139,9.772,4.312,19.54,6.669,29.263
				c1.197,4.938,2.174,10.212,4.224,14.892c0.774,1.769,3.358,0.24,2.59-1.514c-2.854-6.519-4.096-14.781-5.741-21.851
				c-3.378-14.514-6.505-29.087-9.609-43.662c-7.704-36.173-15.084-72.415-22.439-108.661c-3.939-19.412-7.816-38.837-11.83-58.233
				C224.882,115.531,221.99,116.335,222.381,118.223L222.381,118.223z"/>
		</g>
	</g>
	<g>
		<g>
			<path fill="#F1F2F2" d="M273.712,354.456c21.505-7.748,44.948-11.318,67.362-15.34c12.478-2.238,24.993-4.28,37.549-6.027
				c8.237-1.146,16.713-2.53,25.056-2.428c1.936,0.023,1.933-2.977,0-3c-7.954-0.098-16.017,1.197-23.874,2.265
				c-12.814,1.74-25.581,3.825-38.313,6.082c-22.811,4.042-46.699,7.673-68.576,15.556
				C271.109,352.214,271.888,355.113,273.712,354.456L273.712,354.456z"/>
		</g>
	</g>
	<g>
		<g>
			<path fill="#F1F2F2" d="M407.872,327.595c0.561-1.446,1.261-0.016,0.307-1.996c-0.257-0.532-0.512-1.122-0.912-1.567
				c-0.345-0.383-0.202-0.158-0.478-0.734c-0.432-0.905-0.699-2.083-0.966-3.098c-1.019-3.867-1.718-7.824-2.418-11.758
				c-2.396-13.459-4.23-27.023-6.033-40.572c-4.725-35.501-8.749-71.102-12.432-106.725c-2.151-20.809-4.654-41.73-5.501-62.646
				c-0.078-1.928-3.078-1.936-3,0c1.059,26.137,4.365,52.297,7.146,78.288c3.733,34.89,7.756,69.766,12.616,104.519
				c1.651,11.808,3.294,23.665,5.725,35.344c0.512,2.458,5.785,19.615,8.838,11.743
				C411.465,326.586,408.563,325.811,407.872,327.595L407.872,327.595z"/>
		</g>
	</g>
	<g>
		<g>
			<path fill="#F1F2F2" d="M224.296,121.586c5.831-0.723,10.277-4.212,15.613-6.351c7.042-2.821,13.651-6.097,20.99-8.218
				c13.007-3.76,26.485-4.943,39.924-6.014c26.385-2.102,52.871-2.866,79.225-5.374c1.908-0.182,1.926-3.184,0-3
				c-25.839,2.459-51.808,3.288-77.685,5.254c-12.531,0.952-24.989,2.083-37.253,4.939c-6.851,1.595-13.495,3.879-19.96,6.634
				c-6.571,2.801-13.728,8.246-20.854,9.129C222.402,118.82,222.379,121.823,224.296,121.586L224.296,121.586z"/>
		</g>
	</g>
	<g>
		<g>
			<path fill="#F1F2F2" d="M293.504,179.789c-5.299,22.886-10.562,46.804-7.583,70.397c0.239,1.897,2.832,1.962,3,0
				c0.257-3.007,1.041-5.917,1.299-8.924c0.165-1.929-2.836-1.912-3,0c-0.258,3.007-1.042,5.916-1.299,8.924c1,0,2,0,3,0
				c-2.95-23.359,2.229-46.938,7.476-69.601C296.832,178.703,293.94,177.904,293.504,179.789L293.504,179.789z"/>
		</g>
	</g>
	<g>
		<g>
			<path fill="#F1F2F2" d="M319.589,150.799c3.24,12.186,0.87,25.27-1.458,37.401c-2.313,12.056-4.836,23.963-6.641,36.107
				c-4.574,30.801-6.942,62.111-2.252,93.045c0.289,1.908,3.18,1.095,2.893-0.797c-4.912-32.397-0.913-64.011,2.861-96.241
				c2.677-22.854,13.64-47.186,7.489-70.312C321.984,148.134,319.091,148.927,319.589,150.799L319.589,150.799z"/>
		</g>
	</g>
	<g>
		<g>
			<path fill="#F1F2F2" d="M347.873,199.211c-5.657,26.112-7.257,52.924-9.64,79.474c-0.173,1.928,2.828,1.911,3,0
				c2.359-26.285,3.933-52.825,9.532-78.677C351.174,198.122,348.282,197.32,347.873,199.211L347.873,199.211z"/>
		</g>
	</g>
</g>
</svg>
