<?xml version="1.0" encoding="utf-8"?>
<!-- Generator: Adobe Illustrator 16.0.0, SVG Export Plug-In . SVG Version: 6.00 Build 0)  -->
<!DOCTYPE svg PUBLIC "-//W3C//DTD SVG 1.1//EN" "http://www.w3.org/Graphics/SVG/1.1/DTD/svg11.dtd">
<svg version="1.1" id="Layer_1" xmlns="http://www.w3.org/2000/svg" xmlns:xlink="http://www.w3.org/1999/xlink" x="0px" y="0px"
	 width="640px" height="480px" viewBox="0 0 640 480" enable-background="new 0 0 640 480" xml:space="preserve">
<circle fill="#F1F2F2" cx="320.543" cy="239.618" r="175"/>
<path fill="#FFFFFF" d="M401.994,73.844c0,0-2.762-17.352-18.45-20.835c-15.688-3.483-50.911-1.521-80.909,2.04
	c-29.999,3.561-64.703,9.898-79.14,16.957c-9.61,4.7-12.209,14.026-12.875,19.741c-0.595,3.653-0.391,6.307-0.39,6.31
	c15.29,146.37,37.577,316.588,37.577,316.588s2.762,17.352,18.45,20.834c15.688,3.484,50.911,1.52,80.91-2.041
	c29.996-3.561,64.702-9.896,79.139-16.955c9.62-4.704,12.215-14.045,12.878-19.759c0.593-3.645,0.389-6.292,0.389-6.292
	C424.28,244.061,401.994,73.844,401.994,73.844z"/>
<g>
	
		<rect x="228.514" y="84.92" transform="matrix(-0.993 0.1179 -0.1179 -0.993 660.3212 410.7902)" fill="#6EBF67" width="179" height="280"/>
	<g>
		<path fill="#3B2A57" d="M397.314,68.357c0,0-2.762-17.352-18.449-20.835c-15.688-3.482-50.911-1.521-80.91,2.04
			c-29.999,3.561-64.703,9.898-79.14,16.957c-14.435,7.058-13.059,24.568-13.06,24.575l0,0
			c15.291,146.371,37.577,316.588,37.577,316.588l0,0c0,0,2.762,17.352,18.449,20.834c15.688,3.484,50.911,1.521,80.91-2.041
			c29.999-3.561,64.703-9.896,79.14-16.955s13.06-24.574,13.06-24.574C419.602,238.574,397.314,68.357,397.314,68.357z
			 M423.213,368.722l-172.689,20.497l-33.91-285.694l172.689-20.497L423.213,368.722z"/>
		<path fill="#4E3874" d="M397.108,69.833c0,0-2.762-17.352-18.45-20.835c-15.688-3.482-50.913-1.521-80.91,2.04
			c-29.999,3.561-64.702,9.898-79.139,16.957c-14.435,7.058-13.061,24.568-13.06,24.575l0,0
			c15.291,146.371,37.577,316.588,37.577,316.588l0,0c0,0,2.762,17.351,18.45,20.834s50.911,1.52,80.91-2.041
			c29.996-3.561,64.702-9.896,79.139-16.956c14.438-7.059,13.061-24.574,13.061-24.574
			C419.395,240.05,397.108,69.833,397.108,69.833z M432.56,381.554c0,0,1.389,17.515-12.808,24.545
			c-14.198,7.031-48.346,13.302-77.865,16.806c-29.519,3.504-64.188,5.401-79.635,1.889c-15.447-3.512-18.197-20.864-18.197-20.864
			s-15.228-122.366-18.884-153.164c-3.656-30.799-17.534-153.654-17.534-153.654s-1.388-17.514,12.808-24.545
			c10.758-5.328,32.971-10.217,55.945-13.798c0.5,0.186,0.972,0.466,1.363,0.892c2.114,2.318,2.739,3.08,2.739,3.08
			s0.322,0.493,1.624,0.338c1.299-0.154,16.825-1.997,16.825-1.997s15.524-1.843,16.826-1.997s1.499-0.709,1.499-0.709
			s0.428-0.887,1.943-3.635c0.278-0.506,0.673-0.888,1.116-1.187c23.174-1.896,45.916-2.342,57.621,0.319
			c15.448,3.513,18.198,20.865,18.198,20.865s15.267,122.691,18.922,153.489S432.56,381.554,432.56,381.554z"/>
		
			<rect x="248.822" y="359.135" transform="matrix(0.993 -0.1179 0.1179 0.993 -41.2393 42.1538)" fill="#271C3A" width="173.899" height="21.202"/>
		<g>
			<g>
				<path fill="#6EBF67" d="M385.821,365.856l-12.258,1.455l-0.667-5.614l12.258-1.455L385.821,365.856z M374.385,366.261
					l10.39-1.233l-0.443-3.733l-10.39,1.232L374.385,366.261z"/>
				<polygon fill="#6EBF67" points="388.464,363.186 387.531,363.297 386.996,358.785 376.312,360.054 376.201,359.112 
					387.817,357.733 				"/>
			</g>
			<path fill="#6EBF67" d="M343.896,370.901l-16.139,1.916l-0.646-5.45l7.675-4.286l8.464,2.371L343.896,370.901z M328.581,371.766
				l14.271-1.693l-0.46-3.878l-7.485-2.097l-6.786,3.791L328.581,371.766z"/>
			<path fill="#6EBF67" d="M295.486,371.043l-10.888,1.293l1.355-2.122l-1.21,0.144l-1.682,2.634l2.319,2.304l1.212-0.145
				l-1.9-1.871l10.882-1.293c0.057-0.002,1.396-0.071,1.576,1.445c0.194,1.636-1.022,2.011-1.099,2.038l-5.677,0.674l0.112,0.94
				l5.736-0.686c0.749-0.188,2.099-1.073,1.861-3.078C297.855,371.4,296.302,370.991,295.486,371.043z"/>
		</g>
		<path fill="#19171A" d="M278.128,59.615c2.116,2.317,2.74,3.08,2.74,3.08s0.322,0.493,1.624,0.338
			c1.301-0.154,16.826-1.997,16.826-1.997s15.523-1.842,16.825-1.997c1.301-0.154,1.499-0.709,1.499-0.709s0.43-0.887,1.942-3.635
			c0.083-0.148,0.177-0.284,0.276-0.412c-7.104,0.597-14.236,1.323-21.09,2.137c-6.855,0.813-13.959,1.777-21.005,2.86
			C277.89,59.38,278.013,59.49,278.128,59.615z"/>
		
			<line fill="none" stroke="#2E2E30" stroke-linecap="round" stroke-linejoin="round" stroke-miterlimit="10" x1="216.496" y1="102.533" x2="389.183" y2="82.036"/>
		
			<line fill="none" stroke="#2E2E30" stroke-linecap="round" stroke-linejoin="round" stroke-miterlimit="10" x1="216.784" y1="104.957" x2="250.694" y2="390.651"/>
		<line fill="none" stroke="#625579" stroke-miterlimit="10" x1="250.693" y1="390.65" x2="423.381" y2="370.153"/>
		<line fill="none" stroke="#625579" stroke-miterlimit="10" x1="423.383" y1="370.153" x2="389.473" y2="84.459"/>
		
			<linearGradient id="SVGID_1_" gradientUnits="userSpaceOnUse" x1="293.1196" y1="49.4419" x2="293.1196" y2="424.6401" gradientTransform="matrix(0.993 -0.1179 0.1179 0.993 -26.2162 39.7025)">
			<stop  offset="0" style="stop-color:#FFFFFF"/>
			<stop  offset="1" style="stop-color:#FFFFFF;stop-opacity:0.3"/>
		</linearGradient>
		<path opacity="0.08" fill="url(#SVGID_1_)" d="M340.115,47.484c-13.516,0.593-28.297,1.884-41.99,3.51
			c-29.999,3.561-64.703,9.898-79.14,16.957c-14.435,7.059-13.059,24.568-13.06,24.575l0,0
			c15.291,146.37,37.577,316.588,37.577,316.588l0,0c0,0,2.762,17.352,18.449,20.834c3.568,0.793,8.158,1.301,13.455,1.574
			L340.115,47.484z"/>
	</g>
</g>
</svg>
