<?xml version="1.0" encoding="utf-8"?>
<!-- Generator: Adobe Illustrator 16.0.0, SVG Export Plug-In . SVG Version: 6.00 Build 0)  -->
<!DOCTYPE svg PUBLIC "-//W3C//DTD SVG 1.1//EN" "http://www.w3.org/Graphics/SVG/1.1/DTD/svg11.dtd">
<svg version="1.1" id="Layer_1" xmlns="http://www.w3.org/2000/svg" xmlns:xlink="http://www.w3.org/1999/xlink" x="0px" y="0px"
	 width="640px" height="480px" viewBox="0 0 640 480" enable-background="new 0 0 640 480" xml:space="preserve">
<g>
	<g>
		<g>
			<path fill="#F1F2F2" d="M240.077,154.48c5.196,0.19,10.233,0.811,15.408,0.019c5.816-0.89,11.624-1.814,17.453-2.618
				c12.624-1.741,25.315-2.997,38.037-3.741c24.547-1.437,49.241-0.4,73.455,3.987c1.891,0.343,2.699-2.548,0.797-2.893
				c-23.259-4.215-46.839-5.331-70.432-4.291c-12.193,0.537-24.353,1.725-36.462,3.23c-5.951,0.74-11.889,1.599-17.816,2.507
				c-7.032,1.077-13.379,1.059-20.44,0.8C238.142,151.41,238.148,154.41,240.077,154.48L240.077,154.48z"/>
		</g>
	</g>
	<g>
		<g>
			<path fill="#F1F2F2" d="M239.017,155.429c1.212,1.51,0.902,4.658,0.944,6.458c0.08,3.41-0.141,6.831-0.354,10.232
				c-0.369,5.933-1.026,11.847-1.032,17.796c-0.021,22.329-0.761,44.65-0.781,66.979c-0.002,1.935,2.998,1.935,3,0
				c0.021-23.164,0.528-46.335,0.79-69.497c0.075-6.678,0.98-13.355,1.281-20.027c0.187-4.112,1.082-10.564-1.728-14.062
				C239.926,151.799,237.817,153.936,239.017,155.429L239.017,155.429z"/>
		</g>
	</g>
	<g>
		<g>
			<path fill="#F1F2F2" d="M238.909,260.085c47.896-8.935,96.641-4.102,145.005-5.183c1.932-0.043,1.936-3.043,0-3
				c-48.649,1.088-97.624-3.697-145.802,5.29C236.212,257.547,237.019,260.438,238.909,260.085L238.909,260.085z"/>
		</g>
	</g>
	<g>
		<g>
			<path fill="#F1F2F2" d="M389.601,153.259c-0.448,33.88-4.475,67.533-8.059,101.186c-0.205,1.923,2.797,1.903,3,0
				c3.584-33.652,7.61-67.306,8.059-101.186C392.626,151.323,389.626,151.326,389.601,153.259L389.601,153.259z"/>
		</g>
	</g>
	<g>
		<g>
			<path fill="#F1F2F2" d="M387.745,152.943c1.372,6.933,7.756,12.438,12.901,16.729c5.658,4.719,12.057,9.084,18.955,11.759
				c1.806,0.7,2.581-2.201,0.797-2.893c-6.419-2.489-12.312-6.69-17.631-10.987c-4.791-3.871-10.874-9.062-12.13-15.404
				C390.263,150.249,387.371,151.055,387.745,152.943L387.745,152.943z"/>
		</g>
	</g>
	<g>
		<g>
			<path fill="#F1F2F2" d="M418.02,179.021c2.196,18.773-5.517,36.792-6.74,55.361c-0.127,1.933,2.873,1.92,3,0
				c1.224-18.576,8.94-36.56,6.74-55.361C420.798,177.124,417.795,177.103,418.02,179.021L418.02,179.021z"/>
		</g>
	</g>
	<g>
		<g>
			<path fill="#F1F2F2" d="M383.993,255.181c9.423-11.083,23.259-16.88,34.839-25.279c1.55-1.124,0.056-3.729-1.514-2.59
				c-11.787,8.549-25.853,14.464-35.446,25.748C380.627,254.524,382.738,256.657,383.993,255.181L383.993,255.181z"/>
		</g>
	</g>
	<g>
		<g>
			<path fill="#F1F2F2" d="M251.526,166.026c11.541,2.521,22.891,0.424,34.444-0.852c9.499-1.048,19.18-1.233,28.727-1.485
				c19.306-0.509,38.945-0.619,58.126,1.909c1.914,0.252,1.89-2.751,0-3c-18.705-2.466-37.811-2.353-56.638-1.944
				c-8.85,0.191-17.697,0.609-26.53,1.187c-12.562,0.82-24.767,4.038-37.332,1.293C250.438,162.722,249.637,165.613,251.526,166.026
				L251.526,166.026z"/>
		</g>
	</g>
	<g>
		<g>
			<path fill="#F1F2F2" d="M250.425,164.58c1.311,12.341,0.52,24.849,0.444,37.23c-0.036,5.842,0.032,11.582-0.413,17.418
				c-0.495,6.499-0.91,13.1,1.052,19.403c0.572,1.841,3.469,1.056,2.893-0.797c-2.045-6.574-1.334-13.493-0.819-20.247
				c0.439-5.758,0.262-11.469,0.297-17.235c0.072-11.904,0.807-23.907-0.453-35.772C253.223,162.677,250.221,162.657,250.425,164.58
				L250.425,164.58z"/>
		</g>
	</g>
	<g>
		<g>
			<path fill="#F1F2F2" d="M250.697,240.916c2.6,3.679,13.306,0.991,16.829,0.625c9.753-1.014,19.446-2.064,29.235-2.717
				c13.507-0.901,27.534-1.918,41.035-0.573c9.203,0.917,19.358,3.448,28.583,1.794c1.902-0.341,1.094-3.231-0.797-2.893
				c-8.5,1.524-18.188-0.858-26.662-1.783c-12.014-1.312-24.343-0.471-36.382,0.121c-9.5,0.467-18.988,1.233-28.436,2.318
				c-4.312,0.494-8.624,0.981-12.95,1.328c-1.755,0.141-3.514,0.23-5.273,0.25c-0.798,0.01-2.9-0.42-2.593,0.016
				C252.181,237.836,249.578,239.332,250.697,240.916L250.697,240.916z"/>
		</g>
	</g>
	<g>
		<g>
			<path fill="#F1F2F2" d="M371.377,163.7c-3.803,25.834-3.941,52.019-7.274,77.903c-0.247,1.915,2.757,1.892,3,0
				c3.299-25.617,3.403-51.54,7.167-77.106C374.548,162.605,371.658,161.792,371.377,163.7L371.377,163.7z"/>
		</g>
	</g>
	<g>
		<g>
			<path fill="#F1F2F2" d="M298.151,254.603c0.482,4.664,0.59,9.363,1.979,13.877c0.567,1.844,3.463,1.057,2.893-0.797
				c-1.312-4.262-1.417-8.679-1.872-13.08C300.954,252.698,297.952,252.679,298.151,254.603L298.151,254.603z"/>
		</g>
	</g>
	<g>
		<g>
			<path fill="#F1F2F2" d="M334.311,255.001c0.883,4.952,0.458,10.007,0.428,15.006c-0.012,1.936,2.988,1.934,3,0
				c0.031-5.288,0.399-10.566-0.535-15.803C336.864,252.302,333.973,253.11,334.311,255.001L334.311,255.001z"/>
		</g>
	</g>
	<g>
		<g>
			<path fill="#F1F2F2" d="M301.66,271.935c12.426,2.001,26.093,3.136,37.742-2.559c1.738-0.85,0.217-3.437-1.514-2.59
				c-10.828,5.293-23.897,4.113-35.432,2.256C300.565,268.737,299.754,271.628,301.66,271.935L301.66,271.935z"/>
		</g>
	</g>
	<g>
		<g>
			<path fill="#F1F2F2" d="M300.217,265.19c-6.481,1.562-14.282,7.652-15.49,14.527c-0.147,0.837,0.215,1.57,1.048,1.845
				c12.393,4.084,24.765,4.801,37.657,3.087c8.948-1.189,18.504-2.679,27.121-5.517c4.791-1.578,9.476-4.984,5.143-9.894
				c-4.455-5.047-12.999-6.67-19.059-8.863c-1.823-0.66-2.602,2.239-0.797,2.893c5.166,1.87,10.429,3.388,15.211,6.173
				c2.902,1.69,4.759,3.916,1.106,5.832c-2.952,1.549-6.502,2.215-9.731,2.917c-18.799,4.086-37.206,6.625-55.854,0.479
				c0.35,0.615,0.699,1.23,1.048,1.845c1.033-5.878,7.851-11.095,13.395-12.432C302.895,267.63,302.097,264.737,300.217,265.19
				L300.217,265.19z"/>
		</g>
	</g>
	<g>
		<g>
			<path fill="#F1F2F2" d="M245.994,294.558c1.467,3.65,11.268,2.464,14.153,2.503c10.22,0.14,20.45-0.219,30.664-0.545
				c29.814-0.952,59.671,0.092,89.495,0.105c1.935,0.001,1.935-2.999,0-3c-28.348-0.014-56.771-1.172-85.105-0.248
				c-9.071,0.296-18.143,0.587-27.218,0.686c-4.29,0.046-8.583,0.041-12.871-0.121c-1.515-0.058-3.026-0.155-4.533-0.316
				c-1.128-0.12-2.124-0.936-1.692,0.14C248.175,291.989,245.272,292.762,245.994,294.558L245.994,294.558z"/>
		</g>
	</g>
	<g>
		<g>
			<path fill="#F1F2F2" d="M379.769,295.603c-0.602,6.183-4.825,12.068-8.128,17.121c-3.313,5.068-6.991,9.885-10.442,14.857
				c-1.106,1.594,1.495,3.091,2.59,1.514c3.975-5.726,8.172-11.283,11.931-17.157c3.139-4.905,6.475-10.418,7.05-16.335
				C382.956,293.677,379.954,293.695,379.769,295.603L379.769,295.603z"/>
		</g>
	</g>
	<g>
		<g>
			<path fill="#F1F2F2" d="M246.078,292.713c-5.01,2.08-8.954,7.923-12.387,11.865c-4.905,5.635-9.514,11.589-14.752,16.923
				c-1.356,1.381,0.764,3.503,2.121,2.121c4.67-4.755,8.831-10.025,13.164-15.082c2.243-2.617,4.517-5.209,6.865-7.731
				c1.589-1.706,3.566-4.281,5.785-5.203C248.635,294.875,247.864,291.971,246.078,292.713L246.078,292.713z"/>
		</g>
	</g>
	<g>
		<g>
			<path fill="#F1F2F2" d="M220.48,326.469c24.169,1.097,48.377,0.467,72.474,2.977c12.446,1.297,24.854,3.105,37.367,3.672
				c12.02,0.544,24.032-1.349,36.024-1.835c1.928-0.078,1.936-3.078,0-3c-11.379,0.461-22.689,1.975-34.092,1.885
				c-12.459-0.099-24.97-2.129-37.331-3.508c-24.74-2.761-49.614-2.063-74.442-3.19C218.546,323.381,218.554,326.381,220.48,326.469
				L220.48,326.469z"/>
		</g>
	</g>
	<g>
		<g>
			<path fill="#F1F2F2" d="M380.304,296.482c0.851,3.682,0.906,7.396,0.908,11.155c0.001,1.935,3.001,1.935,3,0
				c-0.002-4.027-0.105-8.013-1.016-11.952C382.761,293.801,379.868,294.6,380.304,296.482L380.304,296.482z"/>
		</g>
	</g>
	<g>
		<g>
			<path fill="#F1F2F2" d="M380.689,307.059c-7.016,8.953-16.528,15.915-22.38,25.818c-0.986,1.669,1.607,3.178,2.59,1.514
				c5.718-9.677,15.055-16.46,21.911-25.211C383.989,307.676,381.882,305.537,380.689,307.059L380.689,307.059z"/>
		</g>
	</g>
	<g>
		<g>
			<path fill="#F1F2F2" d="M253.903,320.968c10.435,4.688,21.795,4.684,33.028,4.571c7.163-0.071,14.159,0.231,21.248,1.356
				c5.35,0.85,10.801,1.764,16.2,0.963c1.908-0.283,1.095-3.173-0.797-2.893c-5.455,0.809-11.125-0.41-16.516-1.267
				c-5.602-0.889-11.253-1.206-16.919-1.188c-11.672,0.036-23.82,0.768-34.731-4.133
				C253.668,317.592,252.141,320.177,253.903,320.968L253.903,320.968z"/>
		</g>
	</g>
	<g>
		<g>
			<path fill="#F1F2F2" d="M256.437,319.467c0.576-1.122,1.3-2.145,2.173-3.066c-0.605,0.078-1.212,0.156-1.817,0.234
				c20.563,10.163,45.95,8.002,68.152,6.945c-0.252-0.932-0.505-1.863-0.757-2.795c-2.309,1.586-4.141,3.516-6.079,5.529
				c-1.342,1.393,0.777,3.517,2.121,2.121c1.757-1.824,3.362-3.611,5.472-5.061c1.147-0.788,0.839-2.871-0.757-2.795
				c-21.599,1.028-46.636,3.351-66.639-6.535c-0.576-0.285-1.357-0.295-1.817,0.234c-1.018,1.171-1.866,2.321-2.642,3.674
				C252.882,319.634,255.475,321.145,256.437,319.467L256.437,319.467z"/>
		</g>
	</g>
	<g>
		<g>
			<path fill="#F1F2F2" d="M243.972,313.798c-2.341,2.004-2.678,4.722,0.158,6.413c2.615,1.559,5.86,1.813,8.688,2.834
				c0.93,0.336,1.898-0.528,1.898-1.446c0-2.567,0-5.136,0-7.703c0-0.686-0.461-1.245-1.102-1.446
				c-1.992-0.626-4.086-0.972-6.174-1.017c-1.936-0.042-1.932,2.958,0,3c1.834,0.04,3.628,0.36,5.377,0.909
				c-0.367-0.482-0.734-0.964-1.102-1.446c0,2.567,0,5.136,0,7.703c0.633-0.482,1.266-0.964,1.898-1.446
				c-2.047-0.739-4.201-1.14-6.27-1.814c-0.762-0.249-1.621-0.543-2.232-1.08c-0.302-0.265-0.124-0.151-0.142-0.11
				c0.22-0.508,0.716-0.88,1.122-1.229C247.564,314.658,245.433,312.547,243.972,313.798L243.972,313.798z"/>
		</g>
	</g>
	<g>
		<g>
			<path fill="#F1F2F2" d="M229.776,313.139c-0.971,1.618-1.388,3.557-2.654,4.992c-0.689,0.78-0.52,2.274,0.662,2.507
				c2.606,0.514,5.206,0.993,7.703,1.926c0.837,0.312,1.552-0.35,1.845-1.048c0.957-2.281,2.242-4.389,3.699-6.382
				c0.461-0.629,0.142-1.715-0.538-2.052c-2.12-1.054-4.145-1.969-6.533-2.131c-1.932-0.132-1.919,2.869,0,3
				c1.828,0.124,3.405,0.92,5.02,1.721c-0.18-0.684-0.359-1.368-0.538-2.052c-1.623,2.22-2.938,4.563-4.002,7.099
				c0.615-0.35,1.23-0.699,1.845-1.048c-2.496-0.934-5.097-1.412-7.703-1.926c0.221,0.836,0.441,1.671,0.662,2.507
				c1.472-1.667,2.002-3.729,3.123-5.6C233.363,312.989,230.77,311.481,229.776,313.139L229.776,313.139z"/>
		</g>
	</g>
	<g>
		<g>
			<path fill="#F1F2F2" d="M328.698,321.501c-1.195,1.366-1.863,3.019-2.642,4.636c-0.535,1.11,0.139,2.102,1.295,2.257
				c3.427,0.459,6.775,1.353,10.192,1.872c0.621,0.095,1.395-0.036,1.693-0.689c0.963-2.098,1.383-4.037,0.366-6.188
				c-0.961-2.034-3.485-3.3-5.236-4.529c-1.587-1.115-3.084,1.487-1.514,2.59c2.535,1.782,5.403,3.105,3.794,6.613
				c0.564-0.23,1.129-0.46,1.693-0.689c-3.683-0.56-7.294-1.484-10.989-1.979c0.432,0.752,0.863,1.505,1.295,2.257
				c0.649-1.35,1.175-2.888,2.173-4.028C332.088,322.173,329.975,320.042,328.698,321.501L328.698,321.501z"/>
		</g>
	</g>
	<g>
		<g>
			<path fill="#F1F2F2" d="M343.141,321.02c-1.773,1.961-2.311,4.241-2.365,6.837c-0.019,0.898,0.704,1.394,1.5,1.5
				c3.008,0.402,6.554,1.948,9.588,1.085c3.386-0.965,3.439-5.572,3.466-8.361c0.007-0.745-0.691-1.597-1.5-1.5
				c-3.327,0.397-6.491-0.028-9.711-0.909c-1.869-0.512-2.661,2.383-0.797,2.893c3.456,0.945,6.931,1.443,10.508,1.017
				c-0.5-0.5-1-1-1.5-1.5c-0.018,1.844,0.341,5.59-2.272,5.59c-2.569,0-5.234-0.973-7.781-1.313c0.5,0.5,1,1,1.5,1.5
				c0.037-1.758,0.269-3.369,1.486-4.716C346.556,321.71,344.44,319.582,343.141,321.02L343.141,321.02z"/>
		</g>
	</g>
	<g>
		<g>
			<path fill="#F1F2F2" d="M242.625,303.73c-1.322,0.004-2.326,0.575-2.462,1.981c-0.079,0.815,0.742,1.5,1.5,1.5
				c0.877,0,1.422-0.687,1.5-1.5c-0.117,0.676-0.425,1.019-0.922,1.028c0.126-0.015,0.257-0.01,0.384-0.01
				C244.56,306.725,244.56,303.725,242.625,303.73L242.625,303.73z"/>
		</g>
	</g>
	<g>
		<g>
			<path fill="#F1F2F2" d="M239.157,305.133c-1.108,1.175-1.784,2.682-2.889,3.852c-0.794,0.841-0.424,2.158,0.662,2.507
				c1.686,0.541,3.532,0.893,5.3,0.646c1.015-0.142,1.582-0.537,2.003-1.474c0.34-0.756,0.541-1.526,0.631-2.35
				c0.138-1.253-0.01-2.774-0.931-3.73c-1.125-1.17-2.714-0.963-3.991-0.167c-1.638,1.02-0.134,3.616,1.514,2.59
				c0.24-0.149,0.665-0.193,0.311-0.352c-0.054-0.023-0.211-0.318-0.004,0.013c-0.001-0.001,0.113,0.378,0.141,0.514
				c0.17,0.84-0.166,1.868-0.573,2.588c0.299-0.23,0.598-0.46,0.896-0.689c-1.447,0.415-3.108-0.035-4.499-0.481
				c0.221,0.836,0.441,1.671,0.662,2.507c1.109-1.175,1.785-2.682,2.889-3.852C242.604,305.849,240.487,303.723,239.157,305.133
				L239.157,305.133z"/>
		</g>
	</g>
	<g>
		<g>
			<path fill="#F1F2F2" d="M247.342,306.096c-1.267,1.315-2.075,2.834-2.289,4.657c-0.106,0.913-0.235,1.949,0.667,2.513
				c0.691,0.433,1.414,0.781,2.181,1.061c2.084,0.759,4.614,0.288,5.79-1.72c1.098-1.877,0.337-4.242-1.199-5.609
				c-1.016-0.904-2.312-1.424-3.632-1.686c-0.932-0.185-1.909-0.171-2.393,0.809c-0.468,0.948-0.523,1.918-0.526,2.962
				c-0.005,1.935,2.995,1.935,3,0c0.001-0.264-0.116-1.146,0.041-1.347c-0.486,0.129-0.973,0.257-1.459,0.386
				c1.133,0.158,2.296,0.453,3.107,1.238c0.249,0.24,0.45,0.625,0.507,0.8c0.08,0.245,0.072,0.578,0.048,0.688
				c-0.105,0.474-0.3,0.653-0.917,0.805c-0.81,0.2-2.13-0.411-3.034-0.976c0.248,0.432,0.495,0.863,0.743,1.295
				c0.021-1.501,0.438-2.664,1.486-3.754C250.805,306.824,248.686,304.7,247.342,306.096L247.342,306.096z"/>
		</g>
	</g>
	<g>
		<g>
			<path fill="#F1F2F2" d="M255.772,308.325c-1.559,2.265-1.879,5.261,0.851,6.756c2.167,1.187,5.63,1.226,7.575-0.396
				c1.632-1.36,0.983-3.817-0.408-5.051c-1.986-1.76-4.773-1.561-6.998-0.402c-1.717,0.894-0.2,3.482,1.514,2.59
				c1.107-0.576,2.291-0.705,3.273-0.118c0.142,0.084,0.225,0.164,0.421,0.375c-0.182-0.195,0.247,0.518,0.12,0.183
				c0.104,0.276,0.056,0.25,0.08,0.077c-0.04,0.286-0.088,0.202-0.021,0.126c-0.157,0.18-0.686,0.35-1.2,0.395
				c-0.869,0.077-1.743-0.011-2.576-0.263c-1.5-0.454-0.751-1.723-0.04-2.757C259.462,308.24,256.861,306.742,255.772,308.325
				L255.772,308.325z"/>
		</g>
	</g>
	<g>
		<g>
			<path fill="#F1F2F2" d="M263.531,315.672c2.907,2.15,6.791,2.15,9.698,0c0.962-0.711,0.95-1.877,0-2.59
				c-3.254-2.441-6.936-1.74-9.273,1.501c-1.135,1.572,1.47,3.067,2.59,1.514c1.45-2.009,3.345-1.793,5.17-0.425
				c0-0.863,0-1.727,0-2.59c-2.141,1.583-4.53,1.583-6.671,0C263.487,311.93,261.994,314.535,263.531,315.672L263.531,315.672z"/>
		</g>
	</g>
	<g>
		<g>
			<path fill="#F1F2F2" d="M273.337,315.438c1.907,1.832,4.276,2.186,6.838,1.884c1.895-0.223,1.965-2.864,0-3
				c-2.234-0.154-5.185-1.364-5.352,1.981c-0.031,0.617,0.476,1.335,1.102,1.446c3.013,0.538,5.964,0.458,8.981,0
				c1.908-0.289,1.095-3.18-0.797-2.893c-2.452,0.371-4.94,0.438-7.388,0c0.367,0.482,0.734,0.964,1.102,1.446
				c-0.11,0.203-0.22,0.405-0.329,0.608c0.397,0.077,0.796,0.154,1.194,0.231c0.493,0.096,0.986,0.145,1.486,0.179c0-1,0-2,0-3
				c-1.724,0.203-3.398,0.262-4.717-1.005C274.063,311.977,271.939,314.096,273.337,315.438L273.337,315.438z"/>
		</g>
	</g>
	<g>
		<g>
			<path fill="#F1F2F2" d="M272.855,310.624c2.024,2.116,5.486,4.817,8.532,3.017c2.114-1.25,2.555-4.158,1.411-6.205
				c-1.572-2.812-5.2-2.717-7.837-1.726c-0.765,0.287-1.279,1.003-1.048,1.845c0.202,0.734,1.079,1.336,1.845,1.048
				c0.4-0.15,0.806-0.281,1.22-0.387c0.185-0.047,0.372-0.086,0.56-0.12c0.089-0.017,0.178-0.029,0.268-0.043
				c-0.495,0.073-0.08,0.016,0.028,0.007c0.312-0.026,0.625-0.023,0.936,0.003c0.38,0.032-0.378-0.073,0.089,0.019
				c0.15,0.029,0.298,0.07,0.444,0.117c0.06,0.019,0.119,0.041,0.178,0.063c0.244,0.092-0.368-0.163-0.134-0.056
				c0.107,0.05,0.211,0.106,0.312,0.167c0.119,0.07,0.476,0.345,0.022-0.008c0.102,0.078,0.195,0.166,0.285,0.256
				c0.076,0.076,0.146,0.158,0.213,0.241c-0.359-0.444-0.1-0.123-0.023-0.002c0.056,0.088,0.104,0.181,0.149,0.273
				c0.13,0.262-0.146-0.413,0.005,0.022c0.067,0.193,0.111,0.394,0.142,0.596c-0.097-0.642-0.016,0.102-0.027,0.306
				c-0.003,0.05-0.008,0.1-0.013,0.149c-0.024,0.237,0.064-0.437,0.025-0.201c-0.016,0.098-0.038,0.193-0.063,0.29
				c-0.024,0.095-0.056,0.188-0.089,0.28c-0.098,0.271,0.199-0.401-0.007-0.003c-0.045,0.086-0.096,0.169-0.148,0.249
				c-0.214,0.327,0.232-0.272,0.03-0.035c-0.062,0.073-0.131,0.141-0.2,0.207c-0.288,0.269,0.326-0.218-0.002,0.004
				c-0.082,0.056-0.169,0.104-0.257,0.148c-0.283,0.145,0.414-0.147,0.03-0.017c-0.101,0.034-0.203,0.06-0.307,0.081
				c-0.12,0.025-0.365,0.051,0.182-0.02c-0.075,0.01-0.15,0.015-0.227,0.019c-0.16,0.008-0.322-0.001-0.482-0.017
				c-0.25-0.024,0.449,0.073,0.078,0.006c-0.09-0.017-0.179-0.038-0.268-0.061c-0.191-0.048-0.379-0.112-0.563-0.183
				c-0.238-0.09,0.36,0.164-0.012-0.007c-0.131-0.06-0.259-0.126-0.385-0.194c-0.222-0.118-0.435-0.251-0.645-0.389
				c-0.114-0.074-0.226-0.152-0.336-0.231c-0.058-0.042-0.114-0.084-0.171-0.126c-0.299-0.223,0.255,0.202-0.045-0.037
				c-0.561-0.449-1.078-0.95-1.574-1.469c-0.565-0.591-1.553-0.568-2.121,0C272.268,309.09,272.291,310.033,272.855,310.624
				L272.855,310.624z"/>
		</g>
	</g>
	<g>
		<g>
			<path fill="#F1F2F2" d="M261.067,305.025c1.616,3.513,6.177,2.992,8.792,1.019c0.977-0.736,1.015-2.381-0.358-2.741
				c-1.603-0.422-3.11-0.107-4.731-0.054c-1.93,0.063-1.936,3.063,0,3c1.312-0.043,2.642-0.394,3.935-0.054
				c-0.12-0.914-0.239-1.828-0.358-2.741c-1.315,0.992-3.77,2.054-4.688,0.058C262.85,301.756,260.265,303.281,261.067,305.025
				L261.067,305.025z"/>
		</g>
	</g>
	<g>
		<g>
			<path fill="#F1F2F2" d="M247.646,304.119c1.701,1.099,3.55,1.617,5.57,1.649c0.804,0.013,1.519-0.692,1.5-1.5
				c-0.044-1.941-0.657-3.771-2.308-4.906c-1.816-1.25-4.04-0.236-5.548,0.957c-0.643,0.508-0.527,1.594,0,2.121
				c0.628,0.628,1.48,0.507,2.121,0c0.531-0.42,1.261-0.856,1.913-0.488c0.718,0.405,0.806,1.608,0.821,2.316c0.5-0.5,1-1,1.5-1.5
				c-1.516-0.024-2.785-0.419-4.057-1.239C247.528,300.477,246.026,303.074,247.646,304.119L247.646,304.119z"/>
		</g>
	</g>
	<g>
		<g>
			<path fill="#F1F2F2" d="M253.642,300.416c0.187,1.771,0.668,3.477,2.139,4.597c1.004,0.765,2.402,0.836,3.577,0.497
				c1.952-0.561,4.591-2.677,3.93-4.998c-0.725-2.549-4.251-1.964-6.137-1.542c-0.798,0.179-1.257,1.086-1.048,1.845
				c0.225,0.816,1.048,1.227,1.845,1.048c0.235-0.053,0.472-0.102,0.708-0.146c0.117-0.022,0.817-0.122,0.336-0.061
				c0.371-0.047,0.746-0.071,1.12-0.064c0.139,0.003,0.276,0.014,0.414,0.028c-0.572-0.062-0.133-0.015,0.009,0.021
				c0.147,0.036,0.517,0.203-0.029-0.037c0.148,0.065,0.453,0.312-0.019-0.061c0.121,0.096,0.292,0.357-0.06-0.118
				c0.196,0.266-0.066-0.211-0.042-0.147c0.118,0.318-0.015-0.257-0.006-0.166c0.015,0.162-0.06,0.514,0.038-0.111
				c-0.012,0.077-0.033,0.152-0.057,0.227c-0.108,0.344,0.17-0.357,0.04-0.086c-0.082,0.169-0.498,0.735-0.119,0.248
				c-0.127,0.163-0.271,0.314-0.42,0.458c-0.079,0.075-0.161,0.147-0.244,0.217c-0.088,0.075-0.282,0.223,0.13-0.096
				c-0.059,0.046-0.12,0.089-0.181,0.132c-0.186,0.131-0.381,0.246-0.582,0.352c-0.121,0.063-0.539,0.243-0.001,0.016
				c-0.121,0.052-0.245,0.095-0.37,0.135c-0.105,0.033-0.213,0.061-0.321,0.085c-0.054,0.012-0.107,0.021-0.161,0.031
				c-0.245,0.043,0.43-0.052,0.183-0.024c-0.106,0.012-0.215,0.015-0.322,0.016c-0.053,0-0.106-0.003-0.159-0.006
				c-0.335-0.02,0.372,0.061,0.136,0.022c-0.104-0.017-0.208-0.044-0.309-0.074c-0.396-0.119,0.306,0.155,0.011,0.01
				c-0.1-0.049-0.193-0.108-0.284-0.171c-0.203-0.141,0.314,0.255,0.123,0.094c-0.061-0.052-0.117-0.107-0.173-0.164
				c-0.059-0.06-0.111-0.123-0.164-0.188c0.339,0.414,0.076,0.09,0.006-0.022c-0.051-0.081-0.096-0.165-0.141-0.25
				c-0.022-0.044-0.044-0.089-0.065-0.135c-0.127-0.266,0.141,0.353,0.028,0.069c-0.096-0.244-0.167-0.498-0.229-0.753
				c-0.038-0.159-0.068-0.321-0.097-0.482c-0.012-0.068-0.022-0.138-0.033-0.206c0.064,0.426,0.01,0.044,0.001-0.037
				c-0.086-0.812-0.617-1.5-1.5-1.5C254.389,298.916,253.556,299.602,253.642,300.416L253.642,300.416z"/>
		</g>
	</g>
	<g>
		<g>
			<path fill="#F1F2F2" d="M271.659,302.617c0.579,0.884,1.104,1.78,1.974,2.414c1.191,0.865,2.729,0.916,4.135,0.737
				c1.208-0.153,2.101-1.559,1.061-2.561c-1.021-0.983-2.134-1.749-3.583-1.832c-0.44-0.025-0.911,0.083-1.335,0.197
				c-0.198,0.053-0.393,0.115-0.59,0.17c-0.33,0.092-0.153,0.054-0.366,0.062c-1.929,0.069-1.936,3.069,0,3
				c0.721-0.025,1.362-0.251,2.054-0.415c0.191-0.045,0.178-0.051,0.552,0.062c0.436,0.131,0.835,0.577,1.147,0.878
				c0.354-0.854,0.707-1.707,1.061-2.561c-0.85,0.107-1.769,0.225-2.483-0.229c-0.321-0.203-0.693-0.916-1.035-1.437
				C273.193,299.493,270.595,300.994,271.659,302.617L271.659,302.617z"/>
		</g>
	</g>
	<g>
		<g>
			<path fill="#F1F2F2" d="M284.41,304.365c2.304,2.684,5.426,3.392,8.557,1.679c0.9-0.492,0.912-1.646,0.304-2.355
				c-2.7-3.147-7.757-4.255-10.786-0.963c-1.308,1.421,0.809,3.548,2.121,2.121c1.955-2.124,4.902-0.95,6.544,0.963
				c0.101-0.785,0.202-1.57,0.304-2.355c-1.996,1.091-3.514,0.43-4.922-1.21C285.27,300.773,283.157,302.906,284.41,304.365
				L284.41,304.365z"/>
		</g>
	</g>
	<g>
		<g>
			<path fill="#F1F2F2" d="M287.34,312.451c0.381,6.33,11.729,5.834,10.765-0.608c-0.371-2.48-3.709-3.245-5.742-3.177
				c-2.694,0.089-5.27,1.63-5.933,4.35c-0.458,1.879,2.435,2.676,2.893,0.797c0.516-2.112,3.921-2.936,5.595-1.602
				c0.921,0.733-0.679,1.563-1.302,1.73c-1.071,0.285-3.192-0.107-3.275-1.49C290.225,310.529,287.224,310.518,287.34,312.451
				L287.34,312.451z"/>
		</g>
	</g>
	<g>
		<g>
			<path fill="#F1F2F2" d="M298.674,306.343c0.075-0.056,0.161-0.076,0.256-0.063c-0.11,0.013-0.439-0.055-0.017,0.02
				c-0.278-0.049-0.546-0.106-0.83-0.128c-0.808-0.062-1.507,0.529-1.872,1.191c-0.326,0.591-0.253,1.334,0.234,1.817
				c1.613,1.604,4.598,3.92,6.918,2.173c1.75-1.317,2.06-3.619,1.711-5.656c-0.299-1.747-1.403-3.306-3.248-3.517
				c-1.01-0.116-1.968,0.489-2.709,1.095c-1.013,0.827-1.771,2.009-2.425,3.125c-0.981,1.672,1.612,3.181,2.59,1.514
				c0.213-0.362,0.435-0.718,0.671-1.065c0.104-0.153,0.212-0.303,0.322-0.451c0.19-0.258-0.219,0.276-0.025,0.032
				c0.067-0.085,0.137-0.168,0.206-0.25c0.185-0.218,0.384-0.424,0.593-0.618c0.091-0.084,0.186-0.163,0.283-0.24
				c-0.448,0.356-0.064,0.059,0.058-0.017c0.083-0.053,0.171-0.098,0.259-0.141c0.091-0.045-0.43,0.154-0.068,0.036
				c0.078-0.025,0.157-0.043,0.237-0.058c0.211-0.039-0.458,0.053-0.246,0.034c0.049-0.004,0.098-0.004,0.147-0.003
				c0.34,0.004-0.424-0.078-0.152-0.025c0.068,0.013,0.135,0.034,0.199,0.057c0.099,0.035-0.44-0.217-0.139-0.048
				s-0.06-0.062-0.073-0.073c0.14,0.114,0.486,0.556,0.097,0.048c0.106,0.139,0.195,0.29,0.274,0.444
				c0.065,0.127,0.206,0.473-0.027-0.087c0.034,0.081,0.063,0.164,0.093,0.247c0.064,0.188,0.114,0.38,0.155,0.574
				c0.021,0.092,0.036,0.185,0.052,0.277c0.051,0.316-0.053-0.465-0.011-0.067c0.021,0.208,0.029,0.416,0.029,0.625
				c0,0.192-0.012,0.385-0.03,0.575c-0.032,0.32,0.072-0.461,0.009-0.07c-0.018,0.107-0.04,0.214-0.064,0.32
				c-0.027,0.118-0.062,0.234-0.099,0.351c-0.018,0.057-0.038,0.112-0.059,0.168c-0.104,0.28,0.156-0.357,0.067-0.156
				c-0.046,0.104-0.099,0.204-0.156,0.302c-0.027,0.048-0.058,0.095-0.088,0.141c-0.188,0.284,0.2-0.245,0.089-0.107
				c-0.066,0.082-0.141,0.157-0.219,0.229c-0.096,0.089-0.306,0.234,0.152-0.111c-0.052,0.039-0.107,0.074-0.162,0.107
				c-0.045,0.027-0.092,0.051-0.139,0.073c-0.19,0.093,0.442-0.172,0.175-0.076c-0.164,0.059-0.643,0.113-0.003,0.035
				c-0.117,0.015-0.236,0.015-0.355,0.01c-0.386-0.018,0.433,0.092-0.037-0.009c-0.144-0.031-0.283-0.075-0.421-0.125
				c-0.116-0.041-0.412-0.176,0.079,0.039c-0.1-0.044-0.196-0.092-0.292-0.142c-0.169-0.087-0.332-0.186-0.493-0.288
				c-0.088-0.055-0.173-0.114-0.259-0.173c-0.088-0.062-0.484-0.362-0.1-0.064c-0.44-0.342-0.85-0.722-1.245-1.114
				c0.078,0.605,0.156,1.212,0.234,1.817c0.101-0.166,0.092-0.167-0.026-0.001c-0.199,0.188-0.43,0.286-0.691,0.296
				c-0.489,0.016-0.035,0.009,0.129,0.038c0.721,0.127,1.307,0.02,1.976-0.276c0.748-0.33,0.916-1.407,0.538-2.052
				C300.278,306.117,299.422,306.012,298.674,306.343L298.674,306.343z"/>
		</g>
	</g>
	<g>
		<g>
			<path fill="#F1F2F2" d="M307.132,307.721c0.501-0.538,0.582-0.69,0.242-0.458c-0.161,0.102-0.313,0.214-0.458,0.337
				c-0.268,0.248-0.488,0.562-0.587,0.92c-0.243,0.886,0.381,2.314,1.368,2.49c2.638,0.47,4.765-0.018,6.933-1.596
				c0.813-0.592,0.983-1.576,0.304-2.355c-2.501-2.869-6.23-2.376-9.038-0.234c-1.517,1.156-0.025,3.764,1.514,2.59
				c1.757-1.339,3.754-2.127,5.403-0.234c0.102-0.785,0.202-1.57,0.304-2.355c-1.011,0.734-1.995,1.356-3.272,1.419
				c-0.278,0.004-0.556-0.009-0.833-0.038c1.438,0.108-0.878,2.188,0.182,1.452c0.422-0.293,0.683-0.644,0.832-1.14
				C310.582,306.66,307.687,305.872,307.132,307.721L307.132,307.721z"/>
		</g>
	</g>
	<g>
		<g>
			<path fill="#F1F2F2" d="M298.893,313.896c-0.253,2.547,1.523,4.494,3.907,5.086c2.039,0.507,5.735-0.148,6.426-2.515
				c0.605-2.079-1.435-3.403-3.143-3.909c-2.351-0.697-5.075-0.091-6.751,1.722c-1.311,1.418,0.806,3.545,2.121,2.121
				c0.866-0.937,1.934-1.171,3.173-1.086c0.401,0.027,0.855,0.159,1.22,0.327c0.319,0.147,0.515,0.511,0.492,0.133
				c-0.021-0.35,0.168-0.38,0.039-0.285c-0.247,0.181-0.533,0.321-0.818,0.429c-0.621,0.234-1.311,0.29-1.961,0.171
				c-1.209-0.222-1.825-0.983-1.705-2.193C302.084,311.971,299.082,311.989,298.893,313.896L298.893,313.896z"/>
		</g>
	</g>
	<g>
		<g>
			<path fill="#F1F2F2" d="M314.078,313.563c-1.524,0.691-2.43,1.207-3.097,2.822c-0.235,0.568,0.139,1.44,0.689,1.693
				c3.647,1.675,7.769,0.691,9.755-2.945c0.425-0.776,0.135-1.556-0.538-2.052c-2.854-2.107-6.035-1.65-8.557,0.716
				c-1.413,1.326,0.712,3.443,2.121,2.121c1.611-1.513,3.16-1.547,4.922-0.247c-0.18-0.684-0.359-1.368-0.538-2.052
				c-1.152,2.109-3.446,2.881-5.651,1.869c0.23,0.564,0.46,1.129,0.689,1.693c0.257-0.622,1.161-0.776,1.718-1.029
				C317.352,315.354,315.825,312.77,314.078,313.563L314.078,313.563z"/>
		</g>
	</g>
	<g>
		<g>
			<path fill="#F1F2F2" d="M318.685,308.202c-0.252,1.217-0.573,2.849,0.158,3.979c0.75,1.16,2.11,1.229,3.237,0.617
				c0.867-0.471,1.55-1.267,2.114-2.057c0.554-0.773,0.968-1.702,1.005-2.663c0.057-1.418-1.045-2.286-2.342-2.451
				c-1.486-0.188-3.141,0.608-4.445,1.197c-0.746,0.336-0.919,1.402-0.538,2.052c0.444,0.76,1.307,0.875,2.052,0.538
				c0.111-0.05,0.224-0.1,0.335-0.148c0.366-0.161-0.289,0.118,0.065-0.027c0.193-0.08,0.389-0.154,0.586-0.227
				c0.352-0.128,0.711-0.239,1.075-0.327c0.136-0.032,0.273-0.059,0.411-0.081c0.268-0.045-0.411,0.049-0.152,0.021
				c0.057-0.007,0.114-0.01,0.171-0.014c0.102-0.006,0.203-0.004,0.305,0.002c0.298,0.017-0.464-0.105-0.062,0.002
				c0.328,0.087-0.359-0.182-0.127-0.058c0.275,0.146-0.308-0.275-0.127-0.103c0.181,0.172-0.259-0.396-0.11-0.139
				c0.118,0.203-0.148-0.471-0.067-0.132c0.062,0.256-0.038-0.499-0.027-0.174c0.002,0.069-0.004,0.14-0.011,0.209
				c0.07-0.671-0.008-0.062-0.076,0.136c-0.123,0.359,0.078-0.164,0.038-0.074c-0.036,0.084-0.077,0.166-0.118,0.247
				c-0.095,0.186-0.203,0.363-0.318,0.537c-0.054,0.082-0.111,0.162-0.169,0.242c-0.187,0.257,0.273-0.339,0.022-0.03
				c-0.132,0.164-0.274,0.32-0.423,0.471c-0.129,0.13-0.266,0.253-0.408,0.369c-0.078,0.063,0.372-0.27,0.064-0.056
				c-0.076,0.053-0.155,0.101-0.235,0.146c-0.129,0.072-0.442,0.196,0.129-0.041c-0.061,0.025-0.124,0.045-0.188,0.062
				c-0.303,0.08,0.444-0.037,0.191-0.022c-0.334,0.02,0.404,0.087,0.184,0.03c-0.12-0.03-0.311-0.146,0.26,0.114
				c-0.114-0.052-0.305-0.222,0.191,0.163c-0.26-0.201,0.211,0.327,0.082,0.127c-0.199-0.309,0.12,0.355,0.036,0.1
				c-0.032-0.098-0.05-0.198-0.065-0.299c0.096,0.624,0.025,0.132,0.022-0.031c-0.003-0.152,0.006-0.305,0.017-0.457
				c0.005-0.073,0.013-0.146,0.02-0.22c0.041-0.406-0.043,0.28-0.002-0.002c0.036-0.245,0.084-0.489,0.134-0.732
				c0.166-0.8-0.222-1.618-1.048-1.845C319.78,306.948,318.851,307.4,318.685,308.202L318.685,308.202z"/>
		</g>
	</g>
	<g>
		<g>
			<path fill="#F1F2F2" d="M312.854,299.936c0.416,5,7.57,5.794,10.746,2.985c0.509-0.45,0.547-1.254,0.234-1.817
				c-2.835-5.114-9.771-4.814-12.701,0c-1.009,1.657,1.586,3.163,2.59,1.514c1.795-2.947,5.796-3.112,7.521,0
				c0.078-0.605,0.156-1.212,0.234-1.817c-1.112,0.983-5.444,1.302-5.625-0.864C315.694,298.022,312.693,298.007,312.854,299.936
				L312.854,299.936z"/>
		</g>
	</g>
	<g>
		<g>
			<path fill="#F1F2F2" d="M288.742,300.515c3.767,3.524,9.047,4.216,13.193,0.962c0.668-0.523,0.495-1.57,0-2.121
				c-2.758-3.067-6.45-2.631-9.343,0c-1.435,1.304,0.693,3.42,2.121,2.121c1.717-1.561,3.474-1.81,5.101,0c0-0.707,0-1.414,0-2.121
				c-2.817,2.21-6.499,1.332-8.951-0.962C289.452,297.073,287.326,299.19,288.742,300.515L288.742,300.515z"/>
		</g>
	</g>
	<g>
		<g>
			<path fill="#F1F2F2" d="M322.743,304.6c2.784,2.043,6.159,1.674,9.423,1.649c1.378-0.011,1.894-1.595,1.061-2.561
				c-2.404-2.79-6.61-3.993-9.343-0.963c-1.292,1.433,0.823,3.561,2.121,2.121c1.647-1.827,3.766-0.586,5.101,0.963
				c0.354-0.854,0.707-1.707,1.061-2.561c-2.727,0.021-5.579,0.47-7.909-1.239C322.694,300.863,321.2,303.469,322.743,304.6
				L322.743,304.6z"/>
		</g>
	</g>
	<g>
		<g>
			<path fill="#F1F2F2" d="M330.446,307.787c-1.998,0.982-3.759,1.885-4.871,3.907c-0.491,0.893-0.026,1.878,0.896,2.203
				c2.804,0.99,5.775,0.554,8.501-0.48c1.086-0.412,1.442-1.608,0.662-2.507c-2.59-2.985-6.564-3.265-10.003-1.679
				c-1.756,0.81-0.23,3.395,1.514,2.59c2.276-1.05,4.704-0.707,6.368,1.21c0.221-0.836,0.441-1.671,0.662-2.507
				c-2.266,0.859-4.565,1.307-6.907,0.48c0.299,0.734,0.598,1.469,0.896,2.203c0.845-1.535,2.289-2.089,3.795-2.831
				C333.696,309.522,332.175,306.936,330.446,307.787L330.446,307.787z"/>
		</g>
	</g>
	<g>
		<g>
			<path fill="#F1F2F2" d="M323.225,319.042c1.527,1.037,3.303,2.003,5.193,2.049c1.264,0.031,2.619-0.579,3.185-1.761
				c0.544-1.137,0.462-2.401-0.132-3.504c-0.644-1.196-1.852-1.823-3.158-1.973c-1.272-0.146-2.619,0.455-3.643,1.154
				c-0.674,0.46-0.974,1.31-0.538,2.052c0.391,0.668,1.376,1,2.052,0.538c0.305-0.208,0.619-0.396,0.951-0.555
				c0.094-0.045,0.38-0.156-0.06,0.021c0.071-0.028,0.145-0.054,0.218-0.079c0.158-0.056,0.321-0.098,0.485-0.133
				c0.46-0.099-0.296,0.019,0.055-0.008c0.121-0.009,0.243-0.007,0.364-0.001c0.349,0.018-0.427-0.086-0.006,0
				c0.123,0.024,0.242,0.062,0.359,0.106c-0.534-0.198-0.167-0.071-0.034,0.003c0.124,0.069,0.446,0.319-0.016-0.039
				c0.077,0.06,0.148,0.126,0.218,0.195c0.033,0.034,0.065,0.07,0.098,0.106c0.206,0.231-0.218-0.298-0.087-0.116
				c0.115,0.158,0.372,0.762,0.139,0.179c0.078,0.194,0.177,0.876,0.1,0.223c0.024,0.201-0.054,0.827,0.042,0.178
				c-0.013,0.086-0.034,0.17-0.058,0.254c-0.116,0.404,0.145-0.281,0.021-0.04c-0.039,0.077-0.087,0.148-0.137,0.219
				c0.335-0.464,0.143-0.184,0.029-0.076c-0.217,0.205,0.371-0.247,0.05-0.043c-0.04,0.025-0.082,0.048-0.123,0.069
				c-0.278,0.147,0.348-0.134,0.131-0.053c-0.1,0.037-0.203,0.062-0.308,0.085c-0.328,0.069,0.44-0.03-0.008-0.006
				c-0.13,0.008-0.261,0.003-0.391-0.006c-0.07-0.004-0.14-0.012-0.21-0.021c0.533,0.062,0.147,0.016,0.026-0.009
				c-0.345-0.068-0.681-0.18-1.01-0.304c-0.076-0.029-0.395-0.166-0.015-0.002c-0.099-0.043-0.195-0.089-0.292-0.134
				c-0.246-0.116-0.485-0.244-0.724-0.377c-0.432-0.239-0.848-0.507-1.256-0.784c-0.677-0.46-1.66-0.132-2.052,0.538
				C322.252,317.731,322.549,318.584,323.225,319.042L323.225,319.042z"/>
		</g>
	</g>
	<g>
		<g>
			<path fill="#F1F2F2" d="M334.956,316.4c1.022,1.078,2.32,2.166,3.822,2.459c1.319,0.257,2.555-0.083,3.553-0.981
				c1.529-1.375,2.077-3.938,1.543-5.877c-0.375-1.362-1.48-2.438-2.948-2.429c-1.828,0.013-3.391,1.513-4.525,2.781
				c-0.545,0.608-0.602,1.52,0,2.121c0.554,0.554,1.576,0.609,2.121,0c0.278-0.311,0.565-0.611,0.867-0.898
				c0.13-0.124,0.265-0.243,0.401-0.36c0.063-0.054,0.129-0.106,0.193-0.158c-0.377,0.304-0.081,0.063,0.007,0
				c0.218-0.156,0.447-0.295,0.687-0.414c0.312-0.155-0.389,0.139,0.005-0.001c0.108-0.039,0.221-0.067,0.335-0.091
				c0.104-0.021-0.478,0.033-0.091,0.021c0.157-0.005,0.498,0.063-0.119-0.033c0.075,0.012,0.148,0.032,0.22,0.057
				c0.194,0.066-0.408-0.182-0.224-0.094c0.044,0.021,0.086,0.045,0.127,0.071c0.232,0.144-0.351-0.306-0.104-0.078
				c0.055,0.051,0.104,0.107,0.151,0.165c-0.372-0.457-0.16-0.21-0.083-0.08s0.225,0.503-0.01-0.065
				c0.066,0.161,0.113,0.33,0.15,0.501c0.031,0.144,0.079,0.538-0.001-0.08c0.015,0.111,0.022,0.223,0.027,0.334
				c0.011,0.199,0.005,0.398-0.01,0.598c-0.011,0.145-0.071,0.567,0.015-0.044c-0.017,0.12-0.039,0.238-0.063,0.356
				c-0.043,0.203-0.1,0.403-0.165,0.6c-0.033,0.098-0.07,0.194-0.109,0.29c0.227-0.558,0.047-0.119-0.021,0.013
				c-0.091,0.178-0.198,0.348-0.315,0.51c-0.135,0.187,0.26-0.328,0.115-0.149c-0.031,0.038-0.063,0.074-0.096,0.11
				c-0.074,0.083-0.154,0.161-0.237,0.235c-0.271,0.244,0.224-0.16,0.082-0.058c-0.063,0.046-0.13,0.087-0.197,0.127
				c-0.067,0.039-0.138,0.073-0.209,0.106c0.529-0.245,0.193-0.081,0.047-0.038c-0.077,0.023-0.156,0.039-0.235,0.054
				c-0.232,0.042,0.439-0.051,0.202-0.029c-0.051,0.005-0.102,0.007-0.152,0.008c-0.087,0.003-0.175-0.002-0.262-0.008
				c-0.247-0.019,0.43,0.064,0.182,0.026c-0.057-0.009-0.112-0.021-0.168-0.033c-0.098-0.021-0.193-0.049-0.288-0.079
				c-0.061-0.019-0.119-0.04-0.179-0.062c-0.25-0.093,0.365,0.16,0.115,0.049c-0.245-0.109-0.479-0.246-0.704-0.392
				c-0.115-0.075-0.227-0.155-0.337-0.236c0.399,0.294-0.095-0.083-0.186-0.161c-0.284-0.245-0.55-0.511-0.809-0.783
				c-0.562-0.593-1.555-0.566-2.121,0C334.367,314.868,334.394,315.808,334.956,316.4L334.956,316.4z"/>
		</g>
	</g>
	<g>
		<g>
			<path fill="#F1F2F2" d="M336.978,303.87c-1.842,5.235,5.937,6.468,8.766,3.384c0.503-0.548,0.661-1.599,0-2.121
				c-3.676-2.905-8.873-4.408-12.712-0.963c-1.442,1.295,0.686,3.409,2.121,2.121c2.485-2.23,6.16-0.862,8.47,0.963
				c0-0.707,0-1.414,0-2.121c-0.835,0.91-4.469,1.572-3.752-0.466C340.514,302.838,337.615,302.058,336.978,303.87L336.978,303.87z"
				/>
		</g>
	</g>
	<g>
		<g>
			<path fill="#F1F2F2" d="M346.07,307.156c-0.277,2.839,1.025,5.902,4.014,6.601c2.493,0.582,6.287-1.173,7.032-3.748
				c0.66-2.28-1.864-3.635-3.637-4.144c-2.266-0.65-5.035-0.646-7.147,0.478c-1.709,0.908-0.193,3.498,1.514,2.59
				c1.103-0.586,2.479-0.531,3.683-0.411c0.629,0.062,1.259,0.25,1.853,0.461c0.22,0.078,0.424,0.205,0.623,0.326
				c0.12,0.072,0.296,0.366,0.195,0.105c-0.067-0.174,0.067-0.254-0.028-0.081c-0.108,0.195-0.35,0.367-0.527,0.497
				c-0.752,0.553-1.616,1.01-2.562,1.039c-1.88,0.057-2.143-2.364-2.011-3.713C349.259,305.23,346.257,305.249,346.07,307.156
				L346.07,307.156z"/>
		</g>
	</g>
	<g>
		<g>
			<path fill="#F1F2F2" d="M343.926,316.153c2.75,2.112,5.98,3.035,9.422,3.094c0.801,0.014,1.523-0.692,1.5-1.5
				c-0.103-3.602-2.231-5.73-5.833-5.833c-1.936-0.056-1.931,2.945,0,3c1.939,0.056,2.777,0.894,2.833,2.833c0.5-0.5,1-1,1.5-1.5
				c-2.959-0.05-5.555-0.877-7.908-2.684C343.904,312.385,342.414,314.993,343.926,316.153L343.926,316.153z"/>
		</g>
	</g>
	<g>
		<g>
			<path fill="#F1F2F2" d="M359.026,309.466c-0.498,0.424-1.167,0.525-1.64,0.998c-0.548,0.548-0.664,1.251-0.725,1.987
				c-0.04,0.48,0.306,1.088,0.743,1.295c3.665,1.741,7.274,1.469,9.753-1.981c0.506-0.703,0.081-1.618-0.538-2.052
				c-2.362-1.658-5.167-2.09-7.895-1.114c-1.808,0.646-1.029,3.546,0.797,2.893c2.049-0.732,3.814-0.431,5.584,0.812
				c-0.18-0.684-0.359-1.368-0.538-2.052c-1.453,2.021-3.582,1.887-5.649,0.905c0.248,0.432,0.495,0.863,0.743,1.295
				c-0.024,0.293-0.363,0.244,0.255-0.023c0.47-0.203,0.844-0.512,1.23-0.841C362.623,310.331,360.49,308.22,359.026,309.466
				L359.026,309.466z"/>
		</g>
	</g>
	<g>
		<g>
			<path fill="#F1F2F2" d="M355.271,318.146c0.74,1.795,2.031,3.486,4.078,3.794c1.713,0.257,3.311-0.289,4.627-1.387
				c1.22-1.017,1.803-2.619,1.17-4.111c-0.78-1.841-3.356-2.108-5.06-2.12c-1.936-0.013-1.934,2.987,0,3
				c0.917,0.006,1.209-0.004,2.049,0.27c0.271,0.089-0.263-0.14,0.112,0.048c0.106,0.054,0.205,0.119,0.303,0.187
				c-0.371-0.259-0.099-0.065-0.014,0.026c-0.306-0.33-0.106-0.146-0.036-0.017c0.118,0.215-0.127-0.4-0.039-0.052
				c0.062,0.24-0.022-0.445-0.021-0.077c0.001,0.371,0.063-0.317,0.011-0.069c-0.02,0.091-0.051,0.18-0.083,0.266
				c0.185-0.496-0.077,0.086-0.181,0.23c0.281-0.392,0.052-0.077-0.026,0.007c-0.096,0.104-0.2,0.199-0.308,0.292
				c-0.193,0.168,0.294-0.206-0.045,0.033c-0.099,0.068-0.201,0.131-0.305,0.191c-0.105,0.062-0.215,0.116-0.325,0.17
				c-0.236,0.114,0.328-0.12-0.069,0.023c-0.235,0.085-0.479,0.142-0.725,0.183c0.473-0.079,0.04-0.015-0.069-0.01
				c-0.158,0.006-0.316-0.004-0.473-0.019c0.47,0.044,0.036-0.005-0.073-0.031c-0.127-0.03-0.25-0.074-0.372-0.12
				c0.509,0.19-0.604-0.438-0.229-0.14c-0.118-0.095-0.227-0.201-0.332-0.309c-0.048-0.048-0.359-0.443-0.155-0.167
				c-0.105-0.143-0.197-0.295-0.287-0.448c-0.047-0.082-0.092-0.165-0.134-0.249c-0.001-0.001-0.198-0.437-0.098-0.191
				c-0.312-0.756-0.983-1.285-1.845-1.048C355.604,316.497,354.959,317.389,355.271,318.146L355.271,318.146z"/>
		</g>
	</g>
	<g>
		<g>
			<path fill="#F1F2F2" d="M368.497,295.271c2.779-8.565,13.368-10.605,18.425-17.389c3.893-5.22,3.135-13.807-2.107-17.93
				c-4.879-3.838-12.189-2.494-17.693-1.103c-6.534,1.653-12.674,4.555-18.8,7.296c-1.764,0.789-0.236,3.373,1.514,2.59
				c5.037-2.253,10.045-4.506,15.309-6.192c5.331-1.708,13.213-3.881,18.117-0.023c2.833,2.229,3.502,6.839,2.95,10.172
				c-0.624,3.774-4.681,6.432-7.545,8.44c-5.185,3.638-10.995,6.973-13.062,13.342C365.006,296.319,367.903,297.104,368.497,295.271
				L368.497,295.271z"/>
		</g>
	</g>
	<g>
		<g>
			<path fill="#F1F2F2" d="M263.502,192.317c-0.078-0.287-0.159-0.606-0.33-0.854c-0.453-0.658-1.319-0.994-2.052-0.538
				c-1.956,1.216-0.423,6.59-0.21,8.293c0.485,3.874,0.688,8.765,2.688,12.226c0.673,1.166,2.35,0.851,2.741-0.358
				c0.56-1.724,1.271-3.896,3.115-4.664c2.083-0.869,3.872,2.838,4.55,4.077c0.509,0.933,2.107,1.024,2.59,0
				c2.892-6.131,4.033-12.784,5.826-19.276c0.517-1.868-2.378-2.659-2.893-0.797c-1.719,6.22-2.754,12.685-5.523,18.56
				c0.863,0,1.727,0,2.59,0c-1.395-2.552-3.803-6.23-7.27-5.582c-3.384,0.634-4.913,3.911-5.878,6.886
				c0.914-0.12,1.827-0.239,2.741-0.358c-1.42-2.46-1.594-6.01-2.008-8.759c-0.274-1.826-0.487-3.662-0.672-5.5
				c-0.072-0.713-0.128-1.428-0.174-2.143c-0.09-1.402,0.358-0.672-0.7-0.014c-0.684-0.18-1.368-0.358-2.052-0.538
				c-0.072-0.214-0.063-0.168,0.027,0.137C261.12,194.979,264.015,194.186,263.502,192.317L263.502,192.317z"/>
		</g>
	</g>
	<g>
		<g>
			<path fill="#F1F2F2" d="M283.312,195.952c1.211,5.007,3.693,9.468,5.675,14.188c0.553,1.318,2.414,1.529,2.893,0
				c1.278-4.084,4.092-7.403,5.676-11.352c-0.964,0-1.929,0-2.893,0c1.205,4.123,4.338,13.72,10.396,9.693
				c5.266-3.499,6.616-12.897,6.738-18.604c0.041-1.936-2.959-1.932-3,0c-0.094,4.357-1.042,8.677-2.895,12.629
				c-0.621,1.324-2.062,4.242-3.94,3.89c-2.644-0.495-3.825-6.413-4.407-8.404c-0.447-1.532-2.363-1.318-2.893,0
				c-1.588,3.956-4.389,7.239-5.676,11.352c0.964,0,1.929,0,2.893,0c-1.976-4.707-4.468-9.2-5.675-14.188
				C285.75,193.275,282.856,194.072,283.312,195.952L283.312,195.952z"/>
		</g>
	</g>
	<g>
		<g>
			<path fill="#F1F2F2" d="M317.364,194.21c-0.629,4.097-0.345,8.06-0.093,12.179c0.098,1.592,0.067,3.565,2.086,3.854
				c0.653,0.094,1.354-0.044,1.693-0.689c1.15-2.18,3.136-6.888,6.11-4.542c1.6,1.262,2.838,3.015,4.282,4.445
				c2.888,2.859,6.072,3.332,9.704,1.592c9.243-4.429,8.683-20.065,11.27-28.339c0.579-1.852-2.317-2.637-2.893-0.797
				c-1.624,5.193-4.23,32.34-14.473,26.617c-3.068-1.714-4.519-5.967-8.014-7.039c-4.328-1.328-6.899,3.369-8.577,6.549
				c0.564-0.23,1.129-0.46,1.693-0.689c-0.559-0.08-0.008-11.62,0.103-12.343C320.548,193.115,317.657,192.303,317.364,194.21
				L317.364,194.21z"/>
		</g>
	</g>
</g>
<circle fill="none" stroke="#F1F2F2" stroke-width="4" stroke-miterlimit="10" cx="320" cy="240" r="175.769"/>
</svg>
