<?xml version="1.0" encoding="utf-8"?>
<!-- Generator: Adobe Illustrator 16.0.0, SVG Export Plug-In . SVG Version: 6.00 Build 0)  -->
<!DOCTYPE svg PUBLIC "-//W3C//DTD SVG 1.1//EN" "http://www.w3.org/Graphics/SVG/1.1/DTD/svg11.dtd">
<svg version="1.1" id="Layer_1" xmlns="http://www.w3.org/2000/svg" xmlns:xlink="http://www.w3.org/1999/xlink" x="0px" y="0px"
	 width="640px" height="480px" viewBox="0 0 640 480" enable-background="new 0 0 640 480" xml:space="preserve">
<g>
	<g>
		<g>
			<path fill="#F1F2F2" d="M218.554,128.292c26.801,81.525,27.363,169.12,55.812,250.238c0.636,1.813,3.534,1.033,2.893-0.797
				c-28.449-81.118-29.011-168.714-55.812-250.238C220.845,125.666,217.947,126.449,218.554,128.292L218.554,128.292z"/>
		</g>
	</g>
	<g>
		<g>
			<path fill="#F1F2F2" d="M275.056,379.427c7.45,5.328,18.708,5.521,27.46,5.874c14.974,0.604,30.05-0.648,44.896-2.508
				c15.02-1.882,29.989-4.604,44.586-8.642c9.849-2.724,21.195-5.942,29.062-12.824c1.459-1.276-0.672-3.389-2.121-2.121
				c-7.473,6.536-18.413,9.424-27.739,12.053c-14.311,4.033-29.054,6.641-43.788,8.534c-14.227,1.828-28.623,2.901-42.973,2.568
				c-8.757-0.203-20.396-0.181-27.87-5.524C274.992,375.709,273.497,378.312,275.056,379.427L275.056,379.427z"/>
		</g>
	</g>
	<g>
		<g>
			<path fill="#F1F2F2" d="M419.879,357.76c-6.157-40.811-11.11-81.766-17.394-122.568c-7.019-45.568-14.034-91.17-17.309-137.192
				c-0.137-1.918-3.138-1.932-3,0c3.248,45.65,10.158,90.896,17.124,136.095c6.385,41.434,11.433,83.021,17.686,124.463
				C417.274,360.465,420.164,359.651,419.879,357.76L419.879,357.76z"/>
		</g>
	</g>
	<g>
		<g>
			<path fill="#F1F2F2" d="M223.07,130.708c47.62-34.51,108.731-34.515,165.014-32.321c1.936,0.075,1.928-2.925,0-3
				c-56.768-2.212-118.504-2.071-166.527,32.731C220.006,129.241,221.501,131.846,223.07,130.708L223.07,130.708z"/>
		</g>
	</g>
	<g>
		<g>
			<path fill="#F1F2F2" d="M329.527,348.745c-3.649,1.653-2.362,5.214-0.23,7.58c3.418,3.794,9.245,6.476,14.268,7.035
				c8.615,0.959,16.793-6.752,14.378-15.492c-2.019-7.304-9.58-13.218-16.597-15.275c-8.404-2.465-13.04,3.571-12.475,11.537
				c0.136,1.918,3.137,1.932,3,0c-1.172-16.507,17.265-6.146,21.922,1.679c3.516,5.905,0.753,11.046-4.957,13.993
				c-3.87,1.997-9.164-0.219-12.639-2.068c-1.243-0.662-8.221-5.01-5.156-6.398C332.801,350.538,331.274,347.953,329.527,348.745
				L329.527,348.745z"/>
		</g>
	</g>
	<g>
		<g>
			<path fill="#F1F2F2" d="M238.531,138.74c12.577,60.791,23.488,122.076,38.223,182.395c0.945,3.872,1.742,7.969,3.342,11.641
				c0.771,1.771,3.354,0.241,2.59-1.514c-3.186-7.314-4.422-16.59-6.208-24.481c-3.613-15.965-6.989-31.984-10.343-48.005
				c-7.176-34.272-14.098-68.597-21.055-102.913c-1.212-5.975-2.421-11.95-3.656-17.919
				C241.032,136.049,238.141,136.853,238.531,138.74L238.531,138.74z"/>
		</g>
	</g>
	<g>
		<g>
			<path fill="#F1F2F2" d="M281.552,335.479c17.682-6.354,36.916-9.314,55.338-12.636c10.63-1.917,21.294-3.659,31.993-5.148
				c6.821-0.949,13.834-2.081,20.743-2.006c1.936,0.021,1.934-2.979,0-3c-6.52-0.071-13.12,0.973-19.562,1.844
				c-10.548,1.426-21.055,3.135-31.536,4.983c-19.22,3.389-39.338,6.446-57.772,13.07
				C278.948,333.235,279.727,336.135,281.552,335.479L281.552,335.479z"/>
		</g>
	</g>
	<g>
		<g>
			<path fill="#F1F2F2" d="M393.023,312.459c0.511-1.189,1.496,0.567,0.416-1.666c-0.254-0.526-0.528-0.884-0.894-1.322
				c0.214,0.257-0.139-0.352-0.188-0.477c-0.484-1.258-0.783-2.596-1.091-3.904c-1.061-4.525-1.81-9.13-2.559-13.715
				c-2.465-15.096-4.402-30.281-6.299-45.457c-4.249-34.011-8.054-68.102-11.108-102.242c-0.638-7.125-1.301-14.266-1.592-21.415
				c-0.078-1.928-3.079-1.936-3,0c1.133,27.809,4.844,55.67,7.938,83.307c3.494,31.207,6.755,62.64,12.36,93.556
				c0.634,3.492,1.223,7.09,2.381,10.456c0.768,2.229,4.273,8.935,6.225,4.394C396.369,312.216,393.785,310.686,393.023,312.459
				L393.023,312.459z"/>
		</g>
	</g>
	<g>
		<g>
			<path fill="#F1F2F2" d="M240.767,141.67c4.631-0.634,8.901-3.322,13.018-5.391c5.598-2.812,11.366-5.033,17.383-6.764
				c10.955-3.15,22.331-4.088,33.645-4.979c21.7-1.707,43.479-2.354,65.152-4.411c1.908-0.181,1.926-3.183,0-3
				c-21.671,2.057-43.45,2.752-65.152,4.411c-10.477,0.802-20.866,1.789-31.11,4.215c-5.72,1.354-11.252,3.317-16.641,5.645
				c-5.475,2.364-11.15,6.567-17.091,7.381C238.06,139.039,238.876,141.929,240.767,141.67L240.767,141.67z"/>
		</g>
	</g>
	<g>
		<g>
			<path fill="#F1F2F2" d="M297.711,189.834c-4.416,19.083-8.764,38.97-6.319,58.642c0.236,1.904,2.817,1.954,3,0
				c0.233-2.5,0.847-4.925,1.081-7.425c0.181-1.927-2.821-1.909-3,0c-0.234,2.5-0.848,4.925-1.081,7.425c1,0,2,0,3,0
				c-2.415-19.436,1.849-38.987,6.212-57.845C301.039,188.748,298.146,187.949,297.711,189.834L297.711,189.834z"/>
		</g>
	</g>
	<g>
		<g>
			<path fill="#F1F2F2" d="M319.415,165.846c2.619,10.004,0.749,20.658-1.143,30.623c-1.948,10.258-4.109,20.384-5.642,30.715
				c-3.793,25.584-5.698,51.554-1.828,77.246c0.287,1.908,3.178,1.095,2.893-0.797c-1.989-13.208-2.384-26.517-1.82-39.848
				c0.56-13.234,2.744-26.195,4.112-39.338c2.022-19.428,11.466-39.748,6.32-59.398
				C321.818,163.179,318.925,163.973,319.415,165.846L319.415,165.846z"/>
		</g>
	</g>
	<g>
		<g>
			<path fill="#F1F2F2" d="M342.949,205.994c-4.695,21.755-6.047,44.077-8.029,66.194c-0.173,1.928,2.829,1.911,3,0
				c1.959-21.853,3.283-43.903,7.922-65.397C346.249,204.905,343.357,204.104,342.949,205.994L342.949,205.994z"/>
		</g>
	</g>
</g>
<circle fill="none" stroke="#F1F2F2" stroke-width="4" stroke-miterlimit="10" cx="320" cy="240" r="175.769"/>
</svg>
