<?xml version="1.0" encoding="utf-8"?>
<!-- Generator: Adobe Illustrator 16.0.0, SVG Export Plug-In . SVG Version: 6.00 Build 0)  -->
<!DOCTYPE svg PUBLIC "-//W3C//DTD SVG 1.1//EN" "http://www.w3.org/Graphics/SVG/1.1/DTD/svg11.dtd">
<svg version="1.1" id="Layer_1" xmlns="http://www.w3.org/2000/svg" xmlns:xlink="http://www.w3.org/1999/xlink" x="0px" y="0px"
	 width="640px" height="480px" viewBox="0 0 640 480" enable-background="new 0 0 640 480" xml:space="preserve">
<g>
	<g>
		<g>
			<path fill="#F1F2F2" d="M184.3,174.274c19.804,2.667,39.784,0.159,59.385-2.968c22.987-3.667,45.585-7.894,68.832-9.714
				c47.858-3.749,96.096-3.966,143.39-13.039c1.898-0.364,1.093-3.255-0.797-2.893c-47.011,9.019-95.01,9.3-142.593,12.932
				c-21.16,1.614-41.779,5.091-62.673,8.666c-21.231,3.634-43.213,7.022-64.747,4.123C183.206,171.127,182.39,174.018,184.3,174.274
				L184.3,174.274z"/>
		</g>
	</g>
	<g>
		<g>
			<path fill="#F1F2F2" d="M183.198,177.365c0.056,16.152,1.456,32.262,1.512,48.414c0.007,1.935,3.007,1.935,3,0
				c-0.056-16.152-1.456-32.262-1.512-48.414C186.191,175.431,183.191,175.431,183.198,177.365L183.198,177.365z"/>
		</g>
	</g>
	<g>
		<g>
			<path fill="#F1F2F2" d="M181.671,233.33c10.43,0.749,20.468-1.565,30.373-4.627c5.089-1.572,10.108-3.361,15.175-5.002
				c5.892-1.907,12.141-2.767,18.217-3.92c23.924-4.539,47.941-8.562,71.897-12.924c22.828-4.156,45.585-8.676,68.345-13.188
				c23.024-4.564,46.29-8.643,69.83-8.752c0.648-0.003,1.295-0.453,1.446-1.102c2.288-9.762,3.264-21.154,1.514-31.055
				c-0.336-1.903-3.228-1.094-2.893,0.797c1.646,9.314,0.634,20.298-1.514,29.461c0.481-0.367,0.964-0.734,1.446-1.102
				c-21.971,0.103-43.707,3.667-65.228,7.804c-22.704,4.363-45.354,8.987-68.088,13.204c-23.946,4.441-47.969,8.464-71.915,12.905
				c-11.61,2.154-22.692,4.569-33.895,8.312c-11.253,3.761-22.727,7.048-34.712,6.188
				C179.739,230.191,179.753,233.192,181.671,233.33L181.671,233.33z"/>
		</g>
	</g>
	<g>
		<g>
			<path fill="#F1F2F2" d="M190.749,265.102c42.229,2.582,83.468-9.91,125.025-15.128c44.325-5.564,89.291-3.844,133.681-9.079
				c1.897-0.224,1.919-3.227,0-3c-43.816,5.168-88.119,3.829-131.925,8.868c-42.243,4.859-83.901,17.96-126.781,15.339
				C188.816,261.983,188.827,264.984,190.749,265.102L190.749,265.102z"/>
		</g>
	</g>
	<g>
		<g>
			<path fill="#F1F2F2" d="M198.326,266.627c2.98,22.966,3.444,46.27,10.645,68.48c0.594,1.832,3.491,1.049,2.893-0.797
				c-7.117-21.955-7.592-44.982-10.537-67.684C201.081,264.736,198.078,264.713,198.326,266.627L198.326,266.627z"/>
		</g>
	</g>
	<g>
		<g>
			<path fill="#F1F2F2" d="M210.417,324.105c1.935,0,1.935-3,0-3S208.482,324.105,210.417,324.105L210.417,324.105z"/>
		</g>
	</g>
	<g>
		<g>
			<path fill="#F1F2F2" d="M454.369,243.24c0,13.411,0,26.821,0,40.232c0,1.935,3,1.935,3,0c0-13.411,0-26.821,0-40.232
				C457.369,241.306,454.369,241.306,454.369,243.24L454.369,243.24z"/>
		</g>
	</g>
	<g>
		<g>
			<path fill="#F1F2F2" d="M202.853,331.67c84.888-10.737,167.12-37.606,252.655-43.875c1.918-0.141,1.932-3.142,0-3
				c-85.549,6.27-167.763,33.137-252.655,43.875C200.96,328.909,200.937,331.912,202.853,331.67L202.853,331.67z"/>
		</g>
	</g>
	<g>
		<path fill="#FFFFFF" d="M225.614,374.859c32.303-47.32,50.77-109.744,77.899-160.209c23.17-43.947,49.914-87.949,70.8-131.049
			l8.445,0.668c14.222,8.645,28.443,17.287,41.372,25.145l-5.775-7.973c-50.301,94.41-81.509,198.189-127.932,294.957l8.832-5.793
			c-24.345-3.639-43.738-15.422-65.112-23.951l54.769,17.668"/>
		<g>
			<path fill="#F1F2F2" d="M226.909,375.616c31.661-46.706,48.113-101.471,73.372-151.529
				c14.196-28.135,30.187-55.376,45.457-82.933c7.67-13.841,15.209-27.756,22.421-41.842c1.696-3.313,3.362-6.642,5.015-9.977
				c0.121-0.246,2.513-4.126,1.282-4.223c0.588,0.046,1.176,0.093,1.764,0.139c1.8,0.143,3.599,0.285,5.397,0.428
				c2.851,0.225,6.435,3.562,8.907,5.065c10.949,6.655,21.899,13.31,32.85,19.964c1.223,0.743,2.959-0.8,2.052-2.052
				c-1.925-2.658-3.85-5.315-5.775-7.973c-0.62-0.856-2.018-1.078-2.59,0c-50.396,94.852-81.633,198.225-127.932,294.957
				c-0.601,1.255,0.692,2.943,2.052,2.052c2.944-1.931,5.889-3.861,8.832-5.793c0.972-0.637,1.026-2.522-0.358-2.741
				c-23.229-3.678-43.573-15.26-65.112-23.951c-0.266,0.964-0.531,1.929-0.797,2.893c18.256,5.89,36.512,11.778,54.769,17.668
				c1.846,0.596,2.631-2.302,0.797-2.893c-18.256-5.89-36.512-11.778-54.769-17.668c-1.882-0.607-2.542,2.188-0.797,2.893
				c21.55,8.696,41.864,20.271,65.112,23.951c-0.12-0.914-0.239-1.827-0.358-2.741c-2.944,1.931-5.889,3.861-8.832,5.793
				c0.684,0.684,1.368,1.368,2.052,2.052c46.3-96.732,77.536-200.107,127.932-294.957c-0.863,0-1.727,0-2.59,0
				c1.925,2.658,3.85,5.315,5.775,7.973c0.684-0.684,1.368-1.368,2.052-2.052c-10.949-6.655-21.899-13.31-32.849-19.965
				c-3.162-1.921-6.646-5.177-10.422-5.475c-2.435-0.193-4.869-0.386-7.304-0.578c-0.485-0.038-1.083,0.306-1.295,0.743
				c-25.075,51.575-56.485,99.848-81.148,151.607c-22.22,46.632-38.376,96.61-67.551,139.65
				C223.23,375.709,225.831,377.208,226.909,375.616L226.909,375.616z"/>
		</g>
	</g>
</g>
</svg>
