<?xml version="1.0" encoding="utf-8"?>
<!-- Generator: Adobe Illustrator 16.0.0, SVG Export Plug-In . SVG Version: 6.00 Build 0)  -->
<!DOCTYPE svg PUBLIC "-//W3C//DTD SVG 1.1//EN" "http://www.w3.org/Graphics/SVG/1.1/DTD/svg11.dtd">
<svg version="1.1" id="Layer_1" xmlns="http://www.w3.org/2000/svg" xmlns:xlink="http://www.w3.org/1999/xlink" x="0px" y="0px"
	 width="640px" height="480px" viewBox="0 0 640 480" enable-background="new 0 0 640 480" xml:space="preserve">
<g>
	<g>
		<g>
			<path fill="#F1F2F2" d="M174.084,82.764c10.124,0.277,19.686,1.393,29.766-0.241c11.577-1.876,23.182-3.581,34.809-5.118
				c21.887-2.893,43.873-5.041,65.917-6.276c44.57-2.497,89.429-0.658,133.386,7.382c1.891,0.346,2.698-2.545,0.797-2.893
				c-42.992-7.864-86.72-9.786-130.327-7.689c-22.684,1.09-45.303,3.331-67.823,6.223c-10.578,1.358-21.134,2.899-31.671,4.544
				c-6.229,0.972-12.31,2.092-18.637,2c-5.413-0.078-10.803-0.782-16.216-0.931C172.148,79.711,172.153,82.711,174.084,82.764
				L174.084,82.764z"/>
		</g>
	</g>
	<g>
		<g>
			<path fill="#F1F2F2" d="M173.023,84.856c2.233,2.531,1.924,7.693,2.044,10.808c0.23,5.988-0.098,12.006-0.443,17.983
				c-0.645,11.158-2.035,22.318-2.041,33.503c-0.021,41.281-1.407,82.548-1.429,123.829c-0.001,1.935,2.999,1.935,3,0
				c0.022-42.121,1.16-84.236,1.434-126.356c0.075-11.528,1.641-23.074,2.234-34.585c0.309-6.004,0.501-12.05,0.036-18.051
				c-0.24-3.099-0.565-6.818-2.714-9.252C173.862,81.282,171.748,83.412,173.023,84.856L173.023,84.856z"/>
		</g>
	</g>
	<g>
		<g>
			<path fill="#F1F2F2" d="M171.623,275.609c87.521-16.479,176.676-7.462,265.064-9.505c1.932-0.045,1.936-3.045,0-3
				c-88.674,2.05-178.059-6.92-265.861,9.612C168.926,273.074,169.733,275.966,171.623,275.609L171.623,275.609z"/>
		</g>
	</g>
	<g>
		<g>
			<path fill="#F1F2F2" d="M448.309,81.771c-0.76,61.85-8.179,123.304-14.713,184.735c-0.204,1.923,2.798,1.903,3,0
				c6.534-61.432,13.953-122.886,14.713-184.735C451.332,79.835,448.332,79.837,448.309,81.771L448.309,81.771z"/>
		</g>
	</g>
	<g>
		<g>
			<path fill="#F1F2F2" d="M444.876,80.866c2.147,12.149,13.806,22.123,22.731,29.579c10.276,8.584,21.969,16.789,34.564,21.565
				c1.812,0.688,2.588-2.214,0.797-2.893c-11.722-4.446-22.541-12.149-32.228-19.964c-8.911-7.189-20.86-17.14-22.973-29.085
				C447.433,78.166,444.541,78.976,444.876,80.866L444.876,80.866z"/>
		</g>
	</g>
	<g>
		<g>
			<path fill="#F1F2F2" d="M500.193,128.807c4.276,34.248-10.248,67.196-12.307,101.073c-0.117,1.934,2.883,1.922,3,0
				c2.06-33.88,16.586-66.799,12.307-101.073C502.957,126.913,499.954,126.891,500.193,128.807L500.193,128.807z"/>
		</g>
	</g>
	<g>
		<g>
			<path fill="#F1F2F2" d="M435.957,266.975c17.092-20.441,42.732-30.898,63.856-46.347c1.545-1.129,0.051-3.734-1.514-2.59
				c-21.328,15.597-47.204,26.172-64.464,46.815C432.604,266.326,434.715,268.461,435.957,266.975L435.957,266.975z"/>
		</g>
	</g>
	<g>
		<g>
			<path fill="#F1F2F2" d="M195.316,103.887c21.052,4.815,42.031,0.581,63.113-1.656c17.101-1.814,34.493-2.201,51.677-2.648
				c35.3-0.919,71.266-1.214,106.333,3.479c1.913,0.256,1.889-2.747,0-3c-34.104-4.564-69.018-4.312-103.35-3.552
				c-16.986,0.377-34.049,0.968-50.984,2.37c-22.085,1.829-43.923,7.162-65.992,2.114
				C194.23,100.563,193.431,103.455,195.316,103.887L195.316,103.887z"/>
		</g>
	</g>
	<g>
		<g>
			<path fill="#F1F2F2" d="M194.215,102.44c2.473,22.433,0.938,45.224,0.812,67.735c-0.06,10.744,0.063,21.305-0.754,32.035
				c-0.888,11.649-1.842,23.82,1.875,35.098c0.603,1.829,3.5,1.046,2.893-0.797c-3.804-11.541-2.55-24.034-1.643-35.938
				c0.812-10.66,0.578-21.192,0.638-31.867c0.123-22.03,1.6-44.312-0.82-66.266C197.005,100.539,194.003,100.519,194.215,102.44
				L194.215,102.44z"/>
		</g>
	</g>
	<g>
		<g>
			<path fill="#F1F2F2" d="M194.543,241.183c1.537,2.729,7.054,2.093,9.558,2.061c7.665-0.099,15.342-1.013,22.954-1.839
				c17.006-1.846,33.932-3.575,51.01-4.687c14.371-0.936,28.77-1.422,43.167-1.669c10.579-0.181,21.078-0.383,31.608,0.69
				c9.642,0.983,19.249,2.256,28.9,3.144c7.385,0.68,15.258,1.567,22.607,0.14c1.898-0.368,1.093-3.26-0.797-2.893
				c-7.057,1.37-14.725,0.378-21.811-0.247c-8.891-0.783-17.746-1.931-26.616-2.901c-22.854-2.499-46.312-0.934-69.211,0.274
				c-17.477,0.922-34.889,2.424-52.271,4.41c-7.485,0.855-14.977,1.689-22.492,2.236c-2.051,0.149-12.971,1.625-14.018-0.233
				C196.184,237.983,193.592,239.495,194.543,241.183L194.543,241.183z"/>
		</g>
	</g>
	<g>
		<g>
			<path fill="#F1F2F2" d="M414.993,101.163c-7.003,47.044-7.098,94.761-13.237,141.899c-0.249,1.914,2.754,1.891,3,0
				c6.104-46.871,6.167-94.326,13.13-141.103C418.167,100.068,415.277,99.255,414.993,101.163L414.993,101.163z"/>
		</g>
	</g>
	<g>
		<g>
			<path fill="#F1F2F2" d="M281.35,266.794c0.869,8.409,1.064,16.868,3.569,25.007c0.567,1.844,3.463,1.057,2.893-0.797
				c-2.426-7.883-2.62-16.067-3.462-24.21C284.152,264.89,281.15,264.87,281.35,266.794L281.35,266.794z"/>
		</g>
	</g>
	<g>
		<g>
			<path fill="#F1F2F2" d="M347.321,267.192c1.654,9.154,0.875,18.483,0.825,27.727c-0.011,1.935,2.989,1.934,3,0
				c0.051-9.531,0.773-19.086-0.933-28.523C349.87,264.493,346.979,265.302,347.321,267.192L347.321,267.192z"/>
		</g>
	</g>
	<g>
		<g>
			<path fill="#F1F2F2" d="M286.846,297.243c22.088,3.614,47.293,5.876,67.952-4.546c1.728-0.871,0.209-3.459-1.514-2.59
				c-19.844,10.01-44.436,7.713-65.642,4.243C285.751,294.041,284.939,296.932,286.846,297.243L286.846,297.243z"/>
		</g>
	</g>
	<g>
		<g>
			<path fill="#F1F2F2" d="M284.211,287.319c-11.114,2.392-25.771,13.766-27.415,25.657c-0.117,0.847,0.194,1.559,1.048,1.845
				c21.062,7.062,42.479,8.709,64.481,6.107c16.577-1.96,33.923-4.854,50.004-9.545c4.871-1.42,11.195-3.246,14.219-7.668
				c2.514-3.676-0.828-8.111-3.496-10.478c-8.95-7.936-22.058-10.688-33.007-14.708c-1.82-0.669-2.598,2.231-0.797,2.893
				c9.856,3.62,20.105,6.355,29.068,12.023c4.209,2.662,8.771,7.31,3.106,11.016c-5.069,3.316-11.703,4.661-17.52,6.012
				c-15.272,3.548-31.011,6.425-46.594,8.007c-19.974,2.028-39.637-0.171-58.669-6.552c0.35,0.615,0.699,1.229,1.048,1.845
				c1.508-10.902,15.113-21.365,25.319-23.562C286.899,289.805,286.097,286.913,284.211,287.319L284.211,287.319z"/>
		</g>
	</g>
	<g>
		<g>
			<path fill="#F1F2F2" d="M186.081,339.411c0.747,2.539,5.088,2.607,7.141,2.854c6.157,0.741,12.428,0.755,18.62,0.819
				c17.176,0.178,34.362-0.363,51.528-0.901c48.909-1.531,97.842-0.197,146.768,0.038c6.654,0.032,13.31,0.047,19.964,0.049
				c1.935,0.001,1.935-2.999,0-3c-52.496-0.014-105.107-2.098-157.583-0.382c-16.979,0.556-33.962,1.096-50.95,1.207
				c-7.375,0.048-14.76,0.022-22.128-0.346c-2.434-0.121-4.878-0.279-7.292-0.623c-0.784-0.112-1.562-0.263-2.33-0.457
				c-0.719-0.181-1.031-0.689-0.845-0.056C188.429,336.763,185.533,337.551,186.081,339.411L186.081,339.411z"/>
		</g>
	</g>
	<g>
		<g>
			<path fill="#F1F2F2" d="M430.357,341.649c-0.879,11.122-8.492,21.878-14.391,30.942c-6.236,9.583-13.184,18.665-19.682,28.065
				c-1.104,1.596,1.498,3.094,2.59,1.514c7.024-10.159,14.496-19.988,21.182-30.383c5.727-8.903,12.443-19.291,13.301-30.139
				C433.51,339.72,430.509,339.734,430.357,341.649L430.357,341.649z"/>
		</g>
	</g>
	<g>
		<g>
			<path fill="#F1F2F2" d="M185.369,337.566c-3.375,1.284-6.116,4.203-8.636,6.677c-4.961,4.87-9.522,10.16-14.072,15.409
				c-8.714,10.053-16.925,20.69-26.292,30.154c-1.361,1.376,0.759,3.498,2.121,2.121c8.788-8.879,16.547-18.82,24.681-28.287
				c4.241-4.935,8.529-9.833,13.012-14.551c2.748-2.892,6.131-7.164,9.983-8.631C187.956,339.778,187.18,336.877,185.369,337.566
				L185.369,337.566z"/>
		</g>
	</g>
	<g>
		<g>
			<path fill="#F1F2F2" d="M138.307,396.763c45.31,2.101,90.661,0.89,135.822,5.814c21.78,2.375,43.574,5.555,65.49,6.35
				c21.714,0.787,43.33-2.558,64.994-3.376c1.929-0.073,1.936-3.073,0-3c-21.06,0.796-41.995,3.767-63.101,3.425
				c-22.512-0.364-45.039-3.922-67.384-6.398c-45.148-5.004-90.521-3.714-135.822-5.814
				C136.372,393.673,136.381,396.674,138.307,396.763L138.307,396.763z"/>
		</g>
	</g>
	<g>
		<g>
			<path fill="#F1F2F2" d="M431.29,342.927c1.58,6.832,1.7,13.72,1.704,20.695c0.001,1.935,3.001,1.935,3,0
				c-0.004-7.242-0.173-14.408-1.812-21.492C433.747,340.245,430.854,341.044,431.29,342.927L431.29,342.927z"/>
		</g>
	</g>
	<g>
		<g>
			<path fill="#F1F2F2" d="M431.441,363.744c-12.513,16.26-30.025,28.596-40.43,46.581c-0.971,1.678,1.622,3.188,2.59,1.514
				c10.391-17.96,27.924-30.33,40.43-46.581C435.212,363.725,432.604,362.233,431.441,363.744L431.441,363.744z"/>
		</g>
	</g>
	<g>
		<g>
			<path fill="#F1F2F2" d="M199.952,386.889c19.352,8.935,41.065,8.361,61.909,8.153c12.417-0.124,24.615,0.55,36.887,2.545
				c9.411,1.53,19.426,3.374,28.92,1.758c1.904-0.324,1.095-3.215-0.797-2.893c-10.162,1.729-20.955-0.792-31.016-2.342
				c-10.179-1.568-20.419-2.146-30.71-2.096c-21.311,0.106-43.832,1.447-63.68-7.716
				C199.723,383.493,198.197,386.079,199.952,386.889L199.952,386.889z"/>
		</g>
	</g>
	<g>
		<g>
			<path fill="#F1F2F2" d="M202.883,384.593c1.163-2.129,2.52-4.053,4.16-5.849c-0.605,0.078-1.212,0.156-1.817,0.234
				c17.979,9.039,38.433,11.851,58.296,13.142c21.81,1.418,43.704,0.406,65.506-0.632c-0.252-0.932-0.505-1.863-0.757-2.795
				c-4.193,2.721-7.382,6.35-10.849,9.901c-1.352,1.385,0.768,3.508,2.121,2.121c3.279-3.359,6.267-6.854,10.241-9.433
				c1.186-0.77,0.811-2.869-0.757-2.795c-20.265,0.965-40.546,1.803-60.83,0.888c-20.784-0.937-42.64-3.527-61.458-12.987
				c-0.586-0.295-1.345-0.283-1.817,0.234c-1.817,1.99-3.336,4.088-4.629,6.456C199.365,384.777,201.956,386.291,202.883,384.593
				L202.883,384.593z"/>
		</g>
	</g>
	<g>
		<g>
			<path fill="#F1F2F2" d="M182.07,375.744c-3.662,3.136-4.479,7.069,0.038,9.762c4.675,2.787,10.51,3.225,15.565,5.05
				c0.93,0.336,1.898-0.528,1.898-1.446c0-4.688,0-9.375,0-14.062c0-0.686-0.461-1.245-1.102-1.446
				c-3.537-1.112-7.235-1.731-10.943-1.812c-1.936-0.042-1.932,2.958,0,3c3.453,0.074,6.853,0.669,10.146,1.704
				c-0.367-0.482-0.734-0.964-1.102-1.446c0,4.688,0,9.375,0,14.062c0.633-0.482,1.266-0.964,1.898-1.446
				c-3.737-1.35-7.67-2.081-11.447-3.313c-1.61-0.525-3.33-1.155-4.622-2.289c-1.643-1.442,0.708-3.269,1.79-4.195
				C185.663,376.605,183.531,374.493,182.07,375.744L182.07,375.744z"/>
		</g>
	</g>
	<g>
		<g>
			<path fill="#F1F2F2" d="M156.348,374.29c-1.836,3.062-2.637,6.641-5.039,9.364c-0.689,0.78-0.52,2.274,0.662,2.507
				c4.758,0.938,9.505,1.812,14.062,3.516c0.836,0.312,1.552-0.35,1.845-1.048c1.793-4.271,4.15-8.212,6.88-11.946
				c0.461-0.629,0.142-1.715-0.538-2.052c-3.666-1.82-7.173-3.439-11.304-3.721c-1.932-0.132-1.919,2.869,0,3
				c3.574,0.243,6.634,1.743,9.79,3.311c-0.18-0.684-0.359-1.368-0.538-2.052c-2.895,3.959-5.285,8.141-7.183,12.663
				c0.615-0.35,1.229-0.699,1.845-1.048c-4.557-1.704-9.304-2.578-14.062-3.516c0.221,0.836,0.441,1.671,0.662,2.507
				c2.601-2.947,3.523-6.66,5.508-9.972C159.935,374.141,157.341,372.633,156.348,374.29L156.348,374.29z"/>
		</g>
	</g>
	<g>
		<g>
			<path fill="#F1F2F2" d="M336.756,389.807c-2.102,2.402-3.262,5.369-4.629,8.214c-0.534,1.11,0.139,2.102,1.295,2.257
				c6.368,0.853,12.589,2.497,18.938,3.461c0.621,0.095,1.395-0.036,1.693-0.689c1.556-3.389,2.314-6.564,0.669-10.046
				c-1.659-3.511-6.103-5.708-9.117-7.825c-1.587-1.115-3.084,1.487-1.514,2.59c5.261,3.696,10.688,6.539,7.372,13.768
				c0.564-0.23,1.129-0.46,1.693-0.689c-6.614-1.005-13.098-2.68-19.734-3.568c0.432,0.752,0.863,1.505,1.295,2.257
				c1.239-2.577,2.254-5.428,4.16-7.606C340.146,390.479,338.032,388.348,336.756,389.807L336.756,389.807z"/>
		</g>
	</g>
	<g>
		<g>
			<path fill="#F1F2F2" d="M363.123,388.928c-3.012,3.33-3.862,7.209-3.955,11.607c-0.019,0.898,0.704,1.394,1.5,1.5
				c5.312,0.71,11.818,3.549,17.176,2.024c5.504-1.567,5.377-9.657,5.418-14.071c0.007-0.745-0.691-1.597-1.5-1.5
				c-6.174,0.737-12.086-0.07-18.059-1.704c-1.869-0.512-2.661,2.383-0.797,2.893c6.217,1.7,12.419,2.58,18.855,1.812
				c-0.5-0.5-1-1-1.5-1.5c-0.039,4.201,0.365,11.445-5.388,11.444c-4.703,0-9.547-1.775-14.206-2.397c0.5,0.5,1,1,1.5,1.5
				c0.075-3.557,0.621-6.771,3.076-9.486C366.538,389.618,364.423,387.49,363.123,388.928L363.123,388.928z"/>
		</g>
	</g>
	<g>
		<g>
			<path fill="#F1F2F2" d="M178.736,357.727c-0.699,0.001-1.368,0.048-2.016,0.333c-0.824,0.363-1.194,1.195-1.24,2.046
				c-0.045,0.817,0.716,1.5,1.5,1.5c0.852,0,1.456-0.684,1.5-1.5c-0.016,0.288-0.203,0.465-0.43,0.638
				c0.254-0.194-0.298,0.08,0.04-0.005c-0.361,0.091,0.011,0.002,0.099-0.004c0.182-0.011,0.365-0.008,0.547-0.008
				C180.671,360.725,180.671,357.725,178.736,357.727L178.736,357.727z"/>
		</g>
	</g>
	<g>
		<g>
			<path fill="#F1F2F2" d="M173.281,359.924c-2.022,2.144-3.254,4.894-5.273,7.031c-0.794,0.841-0.423,2.158,0.662,2.507
				c2.84,0.912,6.028,1.596,9.018,1.181c1.609-0.224,2.253-0.645,2.916-2.12c0.522-1.164,0.844-2.399,0.983-3.666
				c0.213-1.938,0.108-4.433-1.337-5.934c-1.667-1.732-3.926-1.271-5.786-0.112c-1.638,1.02-0.134,3.616,1.514,2.59
				c1.569-0.978,2.267-0.761,2.635,1.059c0.379,1.872-0.256,4.063-1.171,5.68c0.299-0.23,0.598-0.46,0.896-0.689
				c-2.861,0.82-6.113,0.006-8.871-0.88c0.221,0.836,0.441,1.671,0.662,2.507c2.024-2.143,3.256-4.893,5.273-7.031
				C176.729,360.64,174.611,358.514,173.281,359.924L173.281,359.924z"/>
		</g>
	</g>
	<g>
		<g>
			<path fill="#F1F2F2" d="M188.223,361.682c-2.065,2.145-3.466,4.638-3.815,7.626c-0.13,1.112-0.542,2.804,0.604,3.519
				c1.172,0.732,2.387,1.338,3.687,1.812c3.277,1.194,7.297,0.632,9.171-2.569c1.732-2.961,0.393-6.615-1.995-8.74
				c-1.693-1.508-3.892-2.325-6.085-2.76c-1.182-0.234-2.341-0.367-2.969,0.907c-0.75,1.521-0.788,3.111-0.792,4.783
				c-0.005,1.935,2.995,1.935,3,0c0.003-0.968-0.203-2.518,0.438-3.335c-0.486,0.129-0.973,0.257-1.459,0.386
				c3.132,0.437,8.482,2.307,7.552,6.499c-0.951,4.284-6.802,1.821-9.033,0.428c0.248,0.432,0.495,0.863,0.743,1.295
				c0.044-3.069,0.933-5.502,3.076-7.729C191.686,362.41,189.566,360.286,188.223,361.682L188.223,361.682z"/>
		</g>
	</g>
	<g>
		<g>
			<path fill="#F1F2F2" d="M203.809,365.502c-2.46,3.575-3.279,8.236,1.109,10.64c3.423,1.874,9.223,2.059,12.329-0.531
				c2.473-2.061,1.315-5.642-0.746-7.469c-3.186-2.823-7.738-2.382-11.275-0.541c-1.717,0.893-0.2,3.481,1.514,2.59
				c2.295-1.193,4.924-1.592,7.227-0.217c1.004,0.6,2.35,2.192,1.346,3.336c-1.695,1.929-6.023,1.187-8.1,0.559
				c-3.696-1.119-2.483-4.424-0.813-6.853C207.498,365.417,204.896,363.919,203.809,365.502L203.809,365.502z"/>
		</g>
	</g>
	<g>
		<g>
			<path fill="#F1F2F2" d="M217.53,377.221c4.992,3.693,11.463,3.693,16.455,0c0.962-0.711,0.95-1.877,0-2.59
				c-5.363-4.023-11.326-3.122-15.235,2.296c-1.135,1.572,1.47,3.067,2.59,1.514c3.021-4.186,7.215-4.157,11.132-1.22
				c0-0.863,0-1.727,0-2.59c-4.225,3.125-9.203,3.125-13.428,0C217.486,373.479,215.993,376.084,217.53,377.221L217.53,377.221z"/>
		</g>
	</g>
	<g>
		<g>
			<path fill="#F1F2F2" d="M235.684,376.986c3.249,3.122,7.255,3.589,11.607,3.076c1.895-0.223,1.965-2.864,0-3
				c-3.225-0.223-8.28-2.635-8.531,2.379c-0.031,0.617,0.476,1.335,1.102,1.446c5.263,0.94,10.465,0.8,15.738,0
				c1.908-0.289,1.095-3.18-0.797-2.893c-4.716,0.715-9.437,0.841-14.145,0c0.367,0.482,0.734,0.964,1.102,1.446
				c0.011-0.217,4.863,0.575,5.531,0.621c0-1,0-2,0-3c-3.494,0.411-6.826,0.358-9.486-2.197
				C236.41,373.525,234.286,375.645,235.684,376.986L235.684,376.986z"/>
		</g>
	</g>
	<g>
		<g>
			<path fill="#F1F2F2" d="M234.805,368.197c3.281,3.432,8.73,7.991,13.796,5.471c3.323-1.654,4.081-6.034,2.708-9.191
				c-2.26-5.194-8.759-4.853-13.205-3.181c-0.765,0.287-1.279,1.002-1.048,1.845c0.202,0.734,1.079,1.336,1.845,1.048
				c0.705-0.265,1.418-0.497,2.146-0.687c0.713-0.186,1.301-0.287,1.823-0.337c0.554-0.054,1.111-0.057,1.666-0.021
				c0.128,0.008,0.256,0.021,0.383,0.035c-0.376-0.04,0.029,0.007,0.091,0.018c0.271,0.046,0.537,0.111,0.801,0.187
				c0.214,0.061,0.423,0.137,0.629,0.218c-0.39-0.153,0.21,0.11,0.311,0.165c0.179,0.096,0.35,0.205,0.518,0.318
				c0.069,0.048,0.343,0.261,0.013,0.002c0.102,0.079,0.198,0.165,0.294,0.252c0.142,0.127,0.272,0.265,0.4,0.406
				c0.334,0.37-0.047-0.096,0.169,0.209c0.106,0.149,0.202,0.308,0.294,0.467c0.065,0.115,0.353,0.748,0.164,0.297
				c0.139,0.332,0.239,0.68,0.316,1.031c0.019,0.087,0.034,0.176,0.05,0.264c0.056,0.324-0.043-0.372-0.006-0.046
				c0.023,0.206,0.032,0.413,0.036,0.62c0.002,0.177-0.007,0.354-0.02,0.529c-0.036,0.514,0.042-0.176-0.024,0.209
				c-0.063,0.37-0.17,0.731-0.304,1.082c-0.113,0.297,0.147-0.331,0.017-0.043c-0.035,0.078-0.074,0.153-0.113,0.229
				c-0.077,0.151-0.166,0.297-0.258,0.439c-0.266,0.412,0.119-0.116-0.119,0.17c-0.126,0.152-0.266,0.292-0.41,0.427
				c-0.358,0.334,0.144-0.079-0.161,0.138c-0.141,0.1-0.29,0.188-0.442,0.271c-0.076,0.042-0.156,0.08-0.235,0.117
				c-0.292,0.139,0.334-0.131,0.029-0.015c-0.201,0.076-0.409,0.132-0.618,0.181c-0.099,0.022-0.547,0.088-0.074,0.026
				c-0.166,0.021-0.333,0.03-0.499,0.037c-0.176,0.006-0.351,0-0.525-0.009c-0.072-0.005-0.145-0.011-0.218-0.018
				c-0.381-0.032,0.34,0.056-0.048-0.004c-0.402-0.062-0.798-0.167-1.186-0.289c-0.214-0.067-0.423-0.146-0.631-0.228
				c-0.161-0.065-0.172-0.07-0.031-0.014c-0.135-0.059-0.267-0.122-0.398-0.186c-2.234-1.076-4.104-2.785-5.803-4.562
				C235.587,364.676,233.468,366.8,234.805,368.197L234.805,368.197z"/>
		</g>
	</g>
	<g>
		<g>
			<path fill="#F1F2F2" d="M213.477,358.227c2.674,5.812,10.104,4.625,14.356,1.416c0.977-0.736,1.015-2.38-0.358-2.741
				c-2.801-0.737-5.472-0.147-8.309-0.054c-1.93,0.063-1.936,3.063,0,3c2.527-0.083,5.017-0.71,7.512-0.054
				c-0.12-0.914-0.239-1.827-0.358-2.741c-2.953,2.228-8.264,3.982-10.253-0.34C215.259,354.957,212.674,356.482,213.477,358.227
				L213.477,358.227z"/>
		</g>
	</g>
	<g>
		<g>
			<path fill="#F1F2F2" d="M188.526,356.128c2.928,1.89,6.066,2.786,9.546,2.842c0.804,0.013,1.519-0.692,1.5-1.5
				c-0.069-3.072-0.969-6.079-3.599-7.888c-2.823-1.942-6.296-0.293-8.63,1.554c-1.517,1.199,0.621,3.308,2.121,2.121
				c1.428-1.13,3.254-2.067,4.994-1.084c1.732,0.978,2.074,3.538,2.113,5.297c0.5-0.5,1-1,1.5-1.5
				c-2.979-0.047-5.531-0.818-8.032-2.432C188.409,352.485,186.907,355.083,188.526,356.128L188.526,356.128z"/>
		</g>
	</g>
	<g>
		<g>
			<path fill="#F1F2F2" d="M200.088,350.438c0.264,2.506,0.884,5.344,2.925,7.038c1.599,1.326,3.611,1.624,5.602,1.159
				c1.764-0.412,3.421-1.448,4.706-2.704c1.092-1.067,2.159-2.618,2.067-4.22c-0.265-4.595-7.01-3.346-9.804-2.72
				c-1.888,0.423-1.087,3.314,0.797,2.893c1.453-0.325,2.662-0.548,4.145-0.541c0.25,0.001,0.5,0.017,0.749,0.039
				c0.392,0.034-0.327-0.055,0.043,0.003c0.101,0.017,0.201,0.037,0.301,0.059c0.181,0.039,0.356,0.093,0.53,0.155
				c0.295,0.104-0.329-0.152-0.059-0.022c0.091,0.043,0.176,0.095,0.261,0.148c0.235,0.15-0.291-0.242-0.084-0.068
				c0.05,0.042,0.096,0.09,0.141,0.137c0.181,0.188-0.228-0.319-0.08-0.109c0.034,0.049,0.063,0.103,0.092,0.155
				c0.121,0.225-0.144-0.379-0.059-0.14c0.02,0.057,0.033,0.114,0.047,0.172c-0.031-0.131-0.003-0.295-0.018,0.088
				c-0.013,0.351,0.091-0.401-0.014,0.055c-0.031,0.138-0.078,0.271-0.127,0.403c-0.101,0.269,0.156-0.351,0.033-0.085
				c-0.032,0.07-0.068,0.139-0.104,0.207c-0.089,0.168-0.19,0.328-0.296,0.485c-0.048,0.071-0.098,0.14-0.148,0.208
				c-0.187,0.256,0.223-0.278,0.02-0.028c-0.114,0.14-0.235,0.274-0.359,0.406c-0.281,0.3-0.589,0.575-0.909,0.833
				c-0.269,0.217,0.271-0.203-0.008,0.004c-0.079,0.059-0.16,0.115-0.241,0.171c-0.163,0.114-0.332,0.22-0.502,0.322
				c-0.171,0.104-0.347,0.199-0.523,0.291c-0.116,0.061-0.784,0.351-0.366,0.18c-0.363,0.148-0.739,0.264-1.122,0.353
				c-0.119,0.028-0.761,0.121-0.264,0.061c-0.219,0.026-0.439,0.036-0.66,0.036c-0.188,0.001-0.374-0.014-0.56-0.035
				c0.5,0.056-0.114-0.038-0.239-0.071c-0.118-0.03-0.69-0.261-0.259-0.071c-0.206-0.09-0.4-0.204-0.589-0.327
				c-0.353-0.229,0.152,0.148-0.173-0.134c-0.161-0.14-0.307-0.296-0.447-0.456c-0.249-0.283,0.186,0.261-0.045-0.051
				c-0.069-0.095-0.134-0.194-0.198-0.293c-0.137-0.211-0.255-0.434-0.367-0.659c-0.015-0.029-0.192-0.43-0.07-0.137
				c-0.056-0.132-0.104-0.268-0.152-0.401c-0.105-0.29-0.189-0.587-0.269-0.885c-0.171-0.642-0.278-1.3-0.342-1.902
				c-0.086-0.812-0.617-1.5-1.5-1.5C200.835,348.938,200.002,349.623,200.088,350.438L200.088,350.438z"/>
		</g>
	</g>
	<g>
		<g>
			<path fill="#F1F2F2" d="M232.812,353.831c0.931,1.418,1.762,2.944,3.161,3.962c2.011,1.462,4.554,1.478,6.923,1.177
				c1.208-0.153,2.101-1.559,1.061-2.561c-1.611-1.552-3.368-2.85-5.666-2.981c-1.457-0.084-2.758,0.732-4.184,0.783
				c-1.929,0.069-1.936,3.069,0,3c1.194-0.043,2.272-0.441,3.422-0.713c1.717-0.405,3.171,0.939,4.307,2.032
				c0.354-0.854,0.707-1.707,1.061-2.561c-1.75,0.222-3.604,0.398-5.158-0.586c-1.056-0.668-1.674-2.058-2.336-3.066
				C234.346,350.707,231.747,352.209,232.812,353.831L232.812,353.831z"/>
		</g>
	</g>
	<g>
		<g>
			<path fill="#F1F2F2" d="M255.898,356.771c3.844,4.476,8.87,5.744,14.122,2.871c0.9-0.492,0.912-1.646,0.304-2.355
				c-4.5-5.245-12.85-7.288-17.941-1.758c-1.308,1.42,0.809,3.547,2.121,2.121c4.028-4.375,10.263-2.247,13.699,1.758
				c0.102-0.785,0.202-1.57,0.304-2.355c-4.127,2.257-7.549,1.019-10.487-2.402C256.757,353.181,254.646,355.312,255.898,356.771
				L255.898,356.771z"/>
		</g>
	</g>
	<g>
		<g>
			<path fill="#F1F2F2" d="M261.611,372.41c0.589,9.791,18.702,9.132,17.219-0.782c-0.593-3.961-6.11-4.997-9.288-4.892
				c-4.384,0.146-8.559,2.612-9.637,7.033c-0.458,1.879,2.435,2.676,2.893,0.797c1.181-4.84,8.536-6.459,12.283-3.472
				c2.582,2.059-0.923,4.695-2.923,5.229c-2.814,0.751-7.342-0.512-7.547-3.914C264.496,370.488,261.495,370.477,261.611,372.41
				L261.611,372.41z"/>
		</g>
	</g>
	<g>
		<g>
			<path fill="#F1F2F2" d="M281.69,362.327c-0.064,0.029-0.31,0.07-0.135,0.051c-0.078,0.009-0.646-0.051-0.346,0.001
				c-0.384-0.066-0.755-0.147-1.145-0.192c-1.076-0.125-1.957,0.682-2.429,1.557c-0.321,0.595-0.256,1.33,0.234,1.817
				c2.396,2.386,5.742,5.249,9.401,4.549c2.47-0.472,3.878-2.972,4.291-5.253c0.441-2.438,0.196-5.122-1.001-7.322
				c-0.591-1.088-1.468-1.919-2.607-2.395c-1.185-0.495-2.497-0.215-3.614,0.311c-2.611,1.228-4.428,4.15-5.825,6.535
				c-0.98,1.673,1.612,3.182,2.59,1.514c0.593-1.011,1.227-1.997,1.935-2.931c-0.208,0.274,0.209-0.255,0.277-0.339
				c0.14-0.167,0.283-0.33,0.429-0.491c0.281-0.312,0.58-0.607,0.893-0.888c0.129-0.114,0.262-0.224,0.396-0.33
				c-0.396,0.314,0.045-0.024,0.145-0.092c0.252-0.17,0.518-0.318,0.795-0.443c-0.52,0.235,0.193-0.052,0.384-0.093
				c0.42-0.093-0.353,0.027-0.021-0.002c0.121-0.011,0.242-0.011,0.362-0.005c0.408,0.018-0.369-0.069-0.053-0.011
				c0.097,0.018,0.19,0.043,0.284,0.072c0.371,0.115-0.102-0.054-0.042-0.026c0.104,0.048,0.202,0.105,0.299,0.166
				c0.119,0.074,0.433,0.331-0.021-0.031c0.08,0.063,0.155,0.133,0.229,0.203c0.075,0.072,0.146,0.149,0.216,0.228
				c0.309,0.349-0.142-0.205,0.032,0.035c0.133,0.184,0.249,0.379,0.357,0.577c0.057,0.104,0.108,0.21,0.158,0.316
				c0.189,0.399-0.124-0.329,0.039,0.088c0.195,0.497,0.333,1.016,0.436,1.539c0.025,0.13,0.047,0.262,0.067,0.393
				c0.057,0.363-0.045-0.403,0.007,0.067c0.032,0.292,0.05,0.585,0.059,0.878c0.009,0.271,0.004,0.543-0.008,0.814
				c-0.007,0.135-0.017,0.27-0.027,0.404c-0.013,0.143-0.089,0.727-0.008,0.133c-0.073,0.535-0.197,1.064-0.371,1.576
				c-0.04,0.117-0.085,0.233-0.131,0.349c0.212-0.529,0.036-0.091-0.023,0.032c-0.111,0.229-0.24,0.451-0.384,0.663
				c-0.031,0.048-0.065,0.094-0.1,0.141c-0.146,0.201,0.251-0.316,0.095-0.124c-0.07,0.087-0.146,0.17-0.224,0.252
				c-0.077,0.08-0.158,0.155-0.241,0.228c-0.316,0.278,0.302-0.203-0.046,0.032c-0.091,0.062-0.187,0.116-0.283,0.169
				c-0.352,0.19,0.053-0.009,0.006,0.01c-0.231,0.092-0.475,0.15-0.72,0.188c0.61-0.096-0.202-0.011-0.408-0.022
				c-0.066-0.003-0.132-0.01-0.198-0.017c-0.277-0.027,0.406,0.061,0.127,0.017c-0.168-0.026-0.333-0.064-0.497-0.106
				c-0.15-0.038-0.299-0.085-0.446-0.135c-0.112-0.038-0.651-0.258-0.187-0.06c-0.373-0.159-0.731-0.35-1.082-0.553
				c-0.275-0.16-0.541-0.333-0.804-0.513c-0.158-0.107-0.312-0.219-0.466-0.332c-0.064-0.047-0.128-0.095-0.19-0.143
				c0.287,0.217-0.044-0.036-0.084-0.069c-0.729-0.581-1.413-1.218-2.073-1.875c0.078,0.605,0.156,1.212,0.234,1.817
				c0,0,0.335-0.453,0.159-0.266c-0.113,0.12-0.269,0.183-0.433,0.189c0.368-0.017-0.32-0.068,0.069,0.01
				c0.13,0.025,0.26,0.056,0.39,0.081c1,0.2,1.867,0.065,2.792-0.354c0.745-0.338,0.919-1.401,0.538-2.052
				C283.298,362.106,282.435,361.989,281.69,362.327L281.69,362.327z"/>
		</g>
	</g>
	<g>
		<g>
			<path fill="#F1F2F2" d="M297.7,364.102c0.182-0.605-0.434,0.067-0.713,0.326c-0.337,0.312-0.627,0.678-0.752,1.132
				c-0.282,1.023,0.495,2.821,1.632,3.023c4.503,0.801,8.021-0.107,11.704-2.788c0.813-0.592,0.983-1.576,0.304-2.355
				c-4.222-4.843-10.296-3.823-15.001-0.234c-1.517,1.156-0.025,3.764,1.514,2.59c3.638-2.773,7.979-4.119,11.366-0.234
				c0.102-0.785,0.202-1.57,0.304-2.355c-2.034,1.48-4.034,2.634-6.601,2.76c-0.508,0.007-1.015-0.017-1.521-0.07
				c-0.446-0.033-1.379,1.098-0.293,0.344c0.494-0.344,0.777-0.767,0.949-1.34C301.15,363.041,298.255,362.253,297.7,364.102
				L297.7,364.102z"/>
		</g>
	</g>
	<g>
		<g>
			<path fill="#F1F2F2" d="M282.703,375.047c-0.409,4.122,2.361,7.132,6.225,8.092c3.027,0.752,9.151-0.109,10.206-3.728
				c0.895-3.071-2.434-4.892-4.872-5.614c-3.888-1.152-8.349-0.173-11.119,2.826c-1.311,1.418,0.806,3.545,2.121,2.121
				c1.787-1.934,4.102-2.521,6.668-2.346c0.976,0.066,4.282,0.697,4.363,2.078c0.036,0.604-1.961,1.316-2.332,1.457
				c-1.347,0.508-2.835,0.569-4.238,0.312c-2.702-0.495-4.291-2.485-4.021-5.198C285.895,373.122,282.893,373.141,282.703,375.047
				L282.703,375.047z"/>
		</g>
	</g>
	<g>
		<g>
			<path fill="#F1F2F2" d="M309.813,375.51c-2.44,1.107-4.007,1.806-5.084,4.412c-0.235,0.568,0.139,1.441,0.689,1.693
				c6.065,2.783,12.831,1.077,16.114-4.933c0.425-0.776,0.135-1.556-0.538-2.052c-4.766-3.519-9.888-2.859-14.12,1.113
				c-1.413,1.326,0.712,3.443,2.121,2.121c3.314-3.111,6.822-3.349,10.485-0.645c-0.18-0.684-0.359-1.368-0.538-2.052
				c-2.45,4.484-7.392,5.976-12.011,3.856c0.23,0.564,0.46,1.129,0.689,1.693c0.695-1.681,2.22-1.944,3.705-2.619
				C313.087,377.301,311.561,374.716,309.813,375.51L309.813,375.51z"/>
		</g>
	</g>
	<g>
		<g>
			<path fill="#F1F2F2" d="M318.792,364.98c-0.278,1.334-0.531,2.735-0.442,4.104c0.063,0.976,0.294,2.04,1.036,2.739
				c1.525,1.438,3.53,0.446,4.906-0.639c1.316-1.037,2.435-2.484,3.172-3.984c0.775-1.577,1.295-3.637-0.059-5.068
				c-0.884-0.934-2.319-1.075-3.524-0.923c-2.161,0.273-4.184,1.102-6.155,1.995c-0.745,0.337-0.919,1.402-0.538,2.052
				c0.444,0.76,1.308,0.876,2.052,0.538c0.223-0.101,0.446-0.199,0.67-0.297c0.059-0.025,0.427-0.182,0.069-0.031
				c0.104-0.044,0.207-0.086,0.312-0.129c0.414-0.169,0.833-0.328,1.256-0.477c0.657-0.232,1.327-0.434,2.009-0.58
				c0.135-0.028,0.271-0.054,0.407-0.077c0.063-0.011,0.128-0.021,0.192-0.03c0.266-0.04-0.413,0.052-0.152,0.021
				c0.239-0.028,0.479-0.042,0.72-0.041c0.097,0,0.194,0.006,0.291,0.013c0.388,0.028-0.39-0.065-0.091-0.016
				c0.166,0.028,0.328,0.073,0.485,0.136c-0.56-0.221-0.273-0.12-0.143-0.047c0.126,0.07,0.37,0.268-0.117-0.109
				c0.048,0.038,0.093,0.08,0.136,0.124c0.244,0.245-0.22-0.316-0.084-0.119c0.033,0.05,0.062,0.102,0.089,0.154
				c0.115,0.227-0.171-0.454-0.072-0.164c0.021,0.058,0.035,0.118,0.049,0.178c0.079,0.357-0.04-0.405-0.017-0.146
				c0.012,0.137,0.009,0.273-0.001,0.41c-0.026,0.361,0.042-0.27,0.023-0.146c-0.013,0.088-0.031,0.176-0.05,0.263
				c-0.035,0.157-0.08,0.312-0.13,0.467c-0.026,0.08-0.056,0.16-0.085,0.239c-0.015,0.041-0.031,0.081-0.047,0.121
				c-0.109,0.278,0.154-0.358,0.066-0.154c-0.314,0.731-0.742,1.414-1.218,2.051c-0.19,0.256,0.27-0.341,0.022-0.029
				c-0.062,0.078-0.124,0.154-0.188,0.23c-0.136,0.162-0.277,0.321-0.421,0.477c-0.266,0.286-0.548,0.557-0.846,0.81
				c-0.067,0.058-0.136,0.114-0.205,0.169c-0.171,0.137,0.34-0.26,0.166-0.128c-0.034,0.025-0.068,0.051-0.103,0.076
				c-0.143,0.104-0.29,0.201-0.441,0.292c-0.128,0.077-0.261,0.147-0.396,0.211c-0.251,0.118,0.439-0.174,0.133-0.057
				c-0.072,0.027-0.146,0.051-0.22,0.072c-0.061,0.018-0.121,0.03-0.183,0.043c-0.257,0.05,0.498-0.051,0.193-0.027
				c-0.057,0.005-0.113,0.004-0.169,0.002c-0.3-0.011,0.474,0.088,0.185,0.025c-0.402-0.086,0.36,0.212,0.041,0.024
				c-0.265-0.155,0.245,0.203,0.151,0.123c-0.051-0.044-0.097-0.093-0.139-0.144c0.398,0.476,0.131,0.174,0.047,0.009
				c-0.145-0.283,0.134,0.337,0.066,0.161c-0.028-0.073-0.052-0.147-0.073-0.224c-0.047-0.168-0.137-0.781-0.05-0.132
				c-0.026-0.194-0.037-0.392-0.043-0.588c-0.015-0.471,0.019-0.943,0.068-1.412c0.013-0.118,0.079-0.606,0.007-0.077
				c0.022-0.171,0.05-0.341,0.078-0.511c0.057-0.344,0.123-0.686,0.194-1.027c0.167-0.799-0.223-1.618-1.048-1.845
				C319.887,363.727,318.959,364.18,318.792,364.98L318.792,364.98z"/>
		</g>
	</g>
	<g>
		<g>
			<path fill="#F1F2F2" d="M308.191,349.56c0.666,7.996,12.554,8.952,17.504,4.575c0.509-0.45,0.547-1.254,0.234-1.817
				c-4.719-8.514-16.17-8.018-21.049,0c-1.009,1.657,1.586,3.163,2.59,1.514c3.748-6.159,12.262-6.509,15.869,0
				c0.078-0.605,0.156-1.212,0.234-1.817c-2.873,2.54-11.95,2.746-12.383-2.454C311.032,347.646,308.031,347.631,308.191,349.56
				L308.191,349.56z"/>
		</g>
	</g>
	<g>
		<g>
			<path fill="#F1F2F2" d="M263.809,349.74c6.34,5.934,15.312,7.268,22.336,1.758c0.668-0.523,0.495-1.57,0-2.121
				c-4.574-5.091-10.491-4.382-15.307,0c-1.434,1.305,0.694,3.42,2.121,2.121c3.588-3.264,7.634-3.816,11.064,0
				c0-0.707,0-1.414,0-2.121c-5.703,4.473-13.074,2.939-18.094-1.758C264.52,346.299,262.394,348.416,263.809,349.74L263.809,349.74
				z"/>
		</g>
	</g>
	<g>
		<g>
			<path fill="#F1F2F2" d="M325.634,357.006c4.901,3.596,10.831,2.885,16.577,2.842c1.378-0.011,1.894-1.594,1.061-2.561
				c-3.959-4.596-10.758-6.801-15.305-1.758c-1.292,1.433,0.823,3.561,2.121,2.121c3.483-3.863,8.184-1.583,11.062,1.758
				c0.354-0.854,0.707-1.707,1.061-2.561c-5.199,0.039-10.616,0.831-15.063-2.432C325.585,353.27,324.091,355.875,325.634,357.006
				L325.634,357.006z"/>
		</g>
	</g>
	<g>
		<g>
			<path fill="#F1F2F2" d="M339.696,364.964c-3.459,1.701-6.524,3.191-8.448,6.689c-0.491,0.893-0.026,1.878,0.896,2.203
				c4.931,1.741,10.072,0.94,14.861-0.879c1.086-0.412,1.442-1.608,0.662-2.507c-4.346-5.008-10.961-5.545-16.761-2.87
				c-1.756,0.81-0.23,3.395,1.514,2.59c4.636-2.138,9.702-1.544,13.126,2.401c0.221-0.836,0.441-1.671,0.662-2.507
				c-4.326,1.643-8.797,2.457-13.268,0.879c0.299,0.734,0.598,1.469,0.896,2.203c1.662-3.021,4.417-4.159,7.372-5.613
				C342.946,366.7,341.425,364.113,339.696,364.964L339.696,364.964z"/>
		</g>
	</g>
	<g>
		<g>
			<path fill="#F1F2F2" d="M326.513,383.373c2.911,1.983,6.491,4,10.146,3.459c2.301-0.34,3.839-2.292,3.972-4.543
				c0.125-2.115-1.101-4.215-2.891-5.291c-2.466-1.482-5.493-0.724-7.817,0.651c-0.263,0.155-0.519,0.323-0.771,0.497
				c-0.673,0.462-0.975,1.308-0.538,2.052c0.391,0.667,1.377,1.002,2.052,0.538c0.332-0.228,0.672-0.443,1.022-0.643
				c0.161-0.092,0.325-0.178,0.491-0.262c0.117-0.06,0.752-0.34,0.277-0.141c0.296-0.124,0.601-0.229,0.909-0.317
				c0.144-0.041,0.288-0.076,0.434-0.108c0.142-0.031,0.746-0.118,0.158-0.041c0.262-0.034,0.525-0.047,0.788-0.044
				c0.124,0.002,0.248,0.01,0.372,0.021c0.12,0.01,0.38,0.048-0.159-0.025c0.078,0.011,0.156,0.024,0.233,0.039
				c0.224,0.042,0.443,0.104,0.658,0.18c0.398,0.141-0.305-0.143-0.003-0.005c0.113,0.052,0.224,0.11,0.333,0.173
				c0.092,0.052,0.181,0.109,0.269,0.168c0.043,0.029,0.085,0.06,0.128,0.09c0.191,0.14-0.324-0.256-0.14-0.107
				c0.173,0.14,0.333,0.295,0.482,0.458c0.068,0.075,0.132,0.153,0.195,0.232c-0.362-0.456-0.106-0.135-0.028-0.019
				c0.12,0.179,0.225,0.367,0.318,0.562c0.174,0.359-0.131-0.338-0.015-0.042c0.036,0.091,0.067,0.184,0.097,0.277
				c0.064,0.199,0.111,0.404,0.146,0.61c0.054,0.317-0.049-0.464-0.013-0.067c0.009,0.094,0.013,0.188,0.015,0.283
				c0.005,0.194-0.085,0.916,0.012,0.251c-0.024,0.167-0.063,0.331-0.11,0.492c-0.021,0.072-0.047,0.144-0.073,0.215
				c-0.106,0.289,0.191-0.41,0.025-0.067c-0.072,0.15-0.16,0.292-0.256,0.428c-0.103,0.146,0.298-0.362,0.064-0.088
				c-0.061,0.07-0.125,0.137-0.191,0.201c-0.057,0.055-0.116,0.105-0.177,0.155c-0.175,0.146,0.336-0.253,0.151-0.118
				c-0.039,0.029-0.08,0.056-0.12,0.082c-0.147,0.097-0.751,0.37-0.181,0.13c-0.185,0.078-0.378,0.136-0.573,0.184
				c-0.095,0.023-0.19,0.041-0.286,0.058c-0.344,0.061,0.428-0.039-0.029-0.001c-0.245,0.021-0.492,0.02-0.737,0.009
				c-0.121-0.005-0.242-0.016-0.362-0.027c-0.109-0.011-0.4-0.051,0.097,0.017c-0.077-0.01-0.155-0.023-0.233-0.036
				c-0.648-0.107-1.282-0.296-1.9-0.518c-0.16-0.059-0.319-0.121-0.479-0.184c-0.069-0.028-0.406-0.173-0.037-0.015
				c-0.103-0.044-0.203-0.09-0.305-0.136c-0.397-0.18-0.787-0.376-1.172-0.58c-0.944-0.502-1.852-1.074-2.735-1.676
				c-0.677-0.461-1.66-0.131-2.052,0.538C325.539,382.063,325.838,382.914,326.513,383.373L326.513,383.373z"/>
		</g>
	</g>
	<g>
		<g>
			<path fill="#F1F2F2" d="M348.182,378.744c2.331,2.461,5.968,5.32,9.597,3.989c2.65-0.971,4.203-3.644,4.706-6.309
				c0.432-2.292,0.361-5.508-1.658-7.098c-2.907-2.287-6.387,0.189-8.579,2.286c-0.498,0.477-0.97,0.98-1.429,1.494
				c-1.284,1.438,0.83,3.566,2.121,2.121c0.769-0.86,1.578-1.684,2.465-2.422c0.089-0.074,0.18-0.146,0.27-0.218
				c-0.299,0.237-0.008,0.009,0.047-0.032c0.165-0.122,0.335-0.238,0.507-0.352c0.326-0.216,0.668-0.407,1.022-0.573
				c0.35-0.165-0.305,0.106,0.148-0.057c0.135-0.049,0.272-0.089,0.411-0.125c0.128-0.033,0.259-0.058,0.39-0.078
				c-0.584,0.091-0.068,0.02,0.086,0.02c0.149,0,0.594,0.064-0.006-0.022c0.106,0.016,0.211,0.041,0.313,0.07
				c0.378,0.106-0.06-0.041-0.019-0.022c0.108,0.05,0.211,0.111,0.31,0.177c0.267,0.176-0.323-0.281-0.021-0.013
				c0.077,0.068,0.149,0.145,0.218,0.223c0.273,0.306-0.193-0.278-0.006-0.009c0.074,0.105,0.139,0.218,0.201,0.331
				c0.055,0.1,0.103,0.204,0.149,0.309c-0.234-0.528-0.048-0.104-0.003,0.028c0.088,0.256,0.151,0.52,0.203,0.785
				c0.025,0.135,0.09,0.635,0.016,0.053c0.018,0.133,0.028,0.267,0.039,0.4c0.021,0.299,0.023,0.6,0.015,0.899
				c-0.009,0.285-0.034,0.569-0.068,0.853c0.069-0.569,0.001-0.03-0.021,0.103c-0.029,0.167-0.064,0.333-0.102,0.499
				c-0.06,0.261-0.132,0.519-0.213,0.774c-0.036,0.115-0.077,0.229-0.118,0.344c-0.043,0.12-0.25,0.618-0.035,0.113
				c-0.203,0.479-0.456,0.937-0.752,1.364c-0.237,0.343,0.083-0.094-0.014,0.028c-0.085,0.106-0.175,0.209-0.267,0.311
				c-0.165,0.182-0.346,0.35-0.535,0.508c-0.125,0.104,0.325-0.232-0.014,0.005c-0.108,0.075-0.221,0.145-0.335,0.21
				c-0.114,0.066-0.233,0.124-0.353,0.179c-0.246,0.113,0.366-0.147,0.113-0.05c-0.062,0.024-0.126,0.045-0.189,0.065
				c-0.182,0.061-0.979,0.188-0.399,0.118c-0.264,0.032-0.529,0.032-0.793,0.018c-0.439-0.025,0.108,0.027-0.058,0.002
				c-0.16-0.024-0.317-0.059-0.474-0.097c-0.312-0.076-0.615-0.184-0.912-0.304c0.444,0.18-0.067-0.04-0.162-0.087
				c-0.184-0.09-0.361-0.189-0.537-0.291c-0.356-0.206-0.696-0.438-1.028-0.681c-0.064-0.048-0.129-0.097-0.192-0.146
				c0.284,0.216-0.049-0.044-0.087-0.075c-0.205-0.166-0.403-0.34-0.6-0.516c-0.435-0.389-0.847-0.803-1.247-1.226
				C348.97,375.216,346.853,377.341,348.182,378.744L348.182,378.744z"/>
		</g>
	</g>
	<g>
		<g>
			<path fill="#F1F2F2" d="M352.19,357.071c-2.923,8.309,9.584,9.715,13.933,4.974c0.503-0.548,0.662-1.599,0-2.121
				c-6.154-4.863-15.004-7.547-21.457-1.758c-1.443,1.294,0.686,3.409,2.121,2.121c5.11-4.584,12.431-2.022,17.215,1.758
				c0-0.707,0-1.414,0-2.121c-2.283,2.488-10.768,3.202-8.919-2.056C355.727,356.039,352.828,355.259,352.19,357.071L352.19,357.071
				z"/>
		</g>
	</g>
	<g>
		<g>
			<path fill="#F1F2F2" d="M368.836,362.742c-0.454,4.646,1.474,9.701,6.419,10.856c3.896,0.911,10.145-1.938,11.314-5.979
				c0.986-3.408-3.247-5.314-5.775-6.04c-3.81-1.094-8.531-1.149-12.094,0.747c-1.709,0.909-0.193,3.498,1.514,2.59
				c2.22-1.181,4.909-1.163,7.348-0.921c1.606,0.158,5.369,0.727,6.07,2.538c0.854,2.209-5.649,4.188-6.887,4.225
				c-4.174,0.127-5.222-4.818-4.909-8.017C372.024,360.816,369.022,360.835,368.836,362.742L368.836,362.742z"/>
		</g>
	</g>
	<g>
		<g>
			<path fill="#F1F2F2" d="M364.306,378.1c4.861,3.731,10.492,5.375,16.577,5.479c0.801,0.014,1.523-0.692,1.5-1.5
				c-0.168-5.894-3.517-9.242-9.41-9.41c-1.936-0.056-1.931,2.945,0,3c4.222,0.121,6.289,2.188,6.41,6.41c0.5-0.5,1-1,1.5-1.5
				c-5.602-0.095-10.604-1.646-15.063-5.068C364.284,374.331,362.793,376.939,364.306,378.1L364.306,378.1z"/>
		</g>
	</g>
	<g>
		<g>
			<path fill="#F1F2F2" d="M392.127,367.835c-1.996,1.698-3.705,1.559-3.955,4.575c-0.04,0.48,0.306,1.088,0.743,1.295
				c6.042,2.868,12.01,2.537,16.112-3.175c0.506-0.704,0.081-1.618-0.538-2.052c-4.07-2.857-8.755-3.591-13.458-1.909
				c-1.809,0.646-1.029,3.546,0.797,2.893c4.02-1.437,7.672-0.833,11.147,1.606c-0.18-0.684-0.359-1.368-0.538-2.052
				c-3.085,4.294-7.575,4.203-12.009,2.099c0.248,0.432,0.495,0.863,0.743,1.295c0.09-1.084,2.23-1.734,3.076-2.454
				C395.724,368.701,393.591,366.589,392.127,367.835L392.127,367.835z"/>
		</g>
	</g>
	<g>
		<g>
			<path fill="#F1F2F2" d="M385.589,382.477c1.199,2.906,3.289,5.566,6.582,6.061c2.645,0.397,5.214-0.522,7.241-2.212
				c1.739-1.451,2.877-3.803,1.943-6.006c-1.245-2.935-5.482-3.238-8.168-3.257c-1.936-0.014-1.934,2.986,0,3
				c1.386,0.01,2.745,0.104,4.069,0.537c0.36,0.117,0.721,0.319,1.054,0.552c0.095,0.066,0.195,0.175,0.354,0.462
				c0.06,0.107,0.058,0.165,0.059,0.391c0.002,0.423,0.03-0.046-0.023,0.203c-0.035,0.165-0.093,0.326-0.151,0.484
				c0.116-0.312-0.11,0.187-0.143,0.244c-0.093,0.164-0.202,0.318-0.312,0.471c0.146-0.203-0.204,0.225-0.241,0.265
				c-0.176,0.189-0.367,0.363-0.562,0.532c-1.163,1.013-2.886,1.562-4.548,1.408c-1.902-0.176-3.49-2.065-4.261-3.932
				C387.755,379.917,384.851,380.688,385.589,382.477L385.589,382.477z"/>
		</g>
	</g>
	<g>
		<g>
			<path fill="#F1F2F2" d="M407.347,340.716c4.612-15.284,23.45-20.102,33.203-31.342c7.438-8.572,6.456-24.912-2.981-31.859
				c-9.3-6.847-22.619-4.141-32.871-1.319c-11.219,3.089-21.774,8.02-32.366,12.745c-1.765,0.787-0.236,3.371,1.514,2.59
				c9.496-4.236,18.928-8.528,28.875-11.626c9.935-3.094,23.359-6.509,32.754-0.227c5.279,3.529,6.669,10.396,6.903,16.289
				c0.295,7.396-4.456,12.523-9.883,16.868c-10.022,8.023-24.024,13.777-28.04,27.084
				C403.894,341.775,406.789,342.563,407.347,340.716L407.347,340.716z"/>
		</g>
	</g>
	<g>
		<g>
			<path fill="#F1F2F2" d="M215.657,153.41c-0.168-0.634-0.37-1.513-1.044-1.805c-0.825-0.357-1.51-0.175-2.053,0.538
				c-0.82,1.077-0.229,3.61-0.14,4.792c0.27,3.539,0.7,7.07,1.181,10.586c0.849,6.219,1.165,14.334,4.494,19.854
				c0.684,1.135,2.356,0.878,2.741-0.358c1.128-3.619,2.808-8.087,6.744-9.437c4.426-1.517,7.946,5.12,9.513,8.068
				c0.503,0.947,2.105,1.01,2.59,0c5.301-11.045,7.245-23.18,10.513-34.896c0.521-1.866-2.374-2.658-2.893-0.797
				c-3.192,11.444-5.033,23.39-10.21,34.18c0.863,0,1.727,0,2.59,0c-2.237-4.213-6.307-10.683-12.071-9.603
				c-5.571,1.044-8.15,6.816-9.668,11.688c0.914-0.12,1.827-0.239,2.741-0.358c-2.854-4.734-3.146-11.851-3.921-17.187
				c-0.499-3.434-0.899-6.883-1.224-10.338c-0.1-1.058-0.179-2.116-0.242-3.177c-0.041-0.684,0.251-2.027-0.147-1.504
				c-0.684,0.18-1.368,0.359-2.052,0.538c-0.663-0.286-0.587-0.938-0.335,0.012C213.261,156.075,216.154,155.282,215.657,153.41
				L215.657,153.41z"/>
		</g>
	</g>
	<g>
		<g>
			<path fill="#F1F2F2" d="M254.212,159.388c2.052,9.154,6.816,17.296,10.361,25.903c0.536,1.304,2.447,1.546,2.893,0
				c2.172-7.531,7.631-13.451,10.361-20.724c-0.964,0-1.929,0-2.893,0c1.984,7.005,7.594,24.436,17.807,16.449
				c3.878-3.032,5.953-8.448,7.567-12.913c2.238-6.192,3.398-12.898,3.477-19.477c0.023-1.936-2.977-1.934-3,0
				c-0.107,9.01-2.279,18.564-6.927,26.349c-1.595,2.672-4.558,6.427-8.02,4.591c-4.883-2.589-6.676-11.08-8.012-15.796
				c-0.43-1.517-2.391-1.338-2.893,0c-2.73,7.271-8.183,13.167-10.361,20.724c0.964,0,1.929,0,2.893,0
				c-3.541-8.6-8.312-16.764-10.361-25.903C256.682,156.703,253.789,157.504,254.212,159.388L254.212,159.388z"/>
		</g>
	</g>
	<g>
		<g>
			<path fill="#F1F2F2" d="M316.382,156.864c-1.15,6.659-0.711,13.211-0.241,19.912c0.213,3.021-0.659,7.481,3.414,7.889
				c0.49,0.049,1.075-0.315,1.295-0.743c1.802-3.498,5.284-11.531,10.435-10.165c3.182,0.845,5.801,4.751,7.894,7.056
				c4.781,5.268,10.46,9.439,17.672,5.957c8.378-4.045,11.983-13.259,14.391-21.681c2.808-9.825,3.621-20.146,6.749-29.88
				c0.594-1.847-2.304-2.631-2.893-0.797c-3.362,10.461-4.231,21.562-7.399,32.095c-2.633,8.753-11.441,24.825-22.392,16.129
				c-4.685-3.721-8.933-12.553-15.866-12.04c-3.721,0.274-6.328,3.834-8.245,6.629c-0.504,0.77-0.982,1.556-1.435,2.357
				c-0.802,1.701-0.954,1.817-0.456,0.351c-0.035-2.16-0.243-4.324-0.4-6.478c-0.389-5.306-0.538-10.528,0.371-15.794
				C319.602,155.77,316.711,154.96,316.382,156.864L316.382,156.864z"/>
		</g>
	</g>
</g>
</svg>
