<?xml version="1.0" encoding="utf-8"?>
<!-- Generator: Adobe Illustrator 16.0.0, SVG Export Plug-In . SVG Version: 6.00 Build 0)  -->
<!DOCTYPE svg PUBLIC "-//W3C//DTD SVG 1.1//EN" "http://www.w3.org/Graphics/SVG/1.1/DTD/svg11.dtd">
<svg version="1.1" id="Layer_1" xmlns="http://www.w3.org/2000/svg" xmlns:xlink="http://www.w3.org/1999/xlink" x="0px" y="0px"
	 width="640px" height="480px" viewBox="0 0 640 480" enable-background="new 0 0 640 480" xml:space="preserve">
<circle fill="#F1F2F2" cx="319.576" cy="240" r="175"/>
<g>
	<path fill="#FFFFFF" d="M432.904,198.139c0.377-15.162-45.68-28.602-102.867-30.018c-57.189-1.416-103.853,9.725-104.229,24.885
		c-0.03,1.204,0.235,2.396,0.773,3.574l-0.534-0.016c5.41,12.543,10.065,30.854,14.294,51.103c-4.146,2.634-8.017,5.996-11.34,10.15
		c-14.674,18.343-21.711,47.649-5.379,79.706c7.765,15.242,22.734,20.489,37.604,26.09c3.534,20.537,6.53,36.507,8.364,38.858
		c2.102,2.695,20.356,14.769,63.178,14.308c42.271-0.455,59.342-13.77,60.637-17.668c1.293-3.899,6.32-57.671,10.975-88.756
		c4.658-31.086,14.688-79.367,27.941-107.766l-0.895-0.026C432.357,201.135,432.867,199.657,432.904,198.139z M244.87,298.748
		c0.542-4.377,1.515-8.59,2.835-12.574c1.417,7.848,2.804,15.639,4.175,23.183c2.016,11.091,4.024,22.888,5.944,34.231
		C246.777,332.626,242.219,320.184,244.87,298.748z"/>
	<g>
		<path fill="#6EBF67" d="M425.18,195.309c-13.254,28.398-23.283,76.68-27.939,107.766c-4.656,31.085-9.682,84.856-10.977,88.756
			c-1.295,3.898-18.365,17.213-60.637,17.668c-42.821,0.461-61.076-11.612-63.177-14.308c-3.324-4.262-10.463-53.251-17.71-93.115
			c-7.345-40.396-15.106-87.923-25.832-112.792L425.18,195.309z"/>
		<path fill="#538F4D" d="M251.975,256.695c7.501,4.986,15.218,21.366,19.414,20.262c5.619-1.479,9.058-27.294,8.753-31.391
			l-9.702-6.884L251.975,256.695z"/>
		<path fill="#6EBF67" d="M294.111,382.058c-1.385-15.062-13.021-22.718-30.926-35.486c-19.926-14.21-28.951-26.843-25.456-55.104
			c3.495-28.263,24.918-49.688,42.411-46.713l-3.957-6.984c-11.903-8.778-38.957-6.44-54.322,12.767
			c-14.673,18.343-21.71,47.649-5.379,79.706c16.332,32.058,64.528,19.898,76.641,59.812L294.111,382.058z"/>
		
			<ellipse transform="matrix(0.9997 0.0248 -0.0248 0.9997 4.7643 -7.9257)" fill="#538F4D" cx="322.216" cy="188.291" rx="103.58" ry="27.46"/>
	</g>
	<g>
		<path fill="#3B2A57" d="M288.792,25.818c0,0-0.216,0.563-0.669,1.58c-0.453,1.006-1.116,2.483-1.961,4.362
			c-0.4,0.936-0.9,1.918-1.38,3.029c-0.466,1.12-1.029,2.281-1.578,3.542c-0.499,1.28-1.114,2.583-1.657,3.987
			c-0.483,1.418-1.171,2.83-1.599,4.365c-0.233,0.763-0.508,1.516-0.77,2.288c-0.203,0.775-0.411,1.564-0.621,2.368
			c-0.231,0.795-0.394,1.595-0.546,2.406c-0.142,0.81-0.378,1.617-0.42,2.442c-0.535,3.272-0.454,6.585,0.045,9.896
			c0.545,3.316,1.494,6.657,3.072,10.068c0.3,0.857,0.841,1.695,1.255,2.547c0.218,0.426,0.447,0.847,0.654,1.279l0.155,0.324
			l0.02,0.041c-0.032-0.06,0.1,0.191-0.068-0.124l0.053,0.093l0.105,0.186l0.42,0.744l1.686,2.981
			c0.563,1.018,1.116,1.827,1.662,2.758c0.548,0.932,1.02,1.781,1.629,2.783l1.751,2.92c0.584,0.951,1.173,1.989,1.738,3.004
			c0.571,1.021,1.14,2.039,1.707,3.053c1.118,2.143,2.249,4.139,3.2,6.412c0.49,1.104,0.978,2.201,1.462,3.291
			c0.458,1.121,0.821,2.308,1.225,3.441c0.843,2.231,1.403,4.649,1.904,6.965l0.191,0.866l0.094,0.43
			c0.085,0.352,0.027,0.125,0.048,0.216l0.006,0.048l0.013,0.095l0.025,0.191c0.067,0.508,0.135,1.014,0.202,1.516
			c0.034,0.271,0.067,0.459,0.1,0.794l0.095,0.952c0.047,0.631,0.095,1.258,0.142,1.881c0.179,4.623-0.392,8.772-1.176,12.407
			c-0.805,3.637-1.825,6.773-2.804,9.488c-0.967,2.717-1.971,4.998-2.737,6.889c-0.745,1.894-1.462,3.359-1.867,4.38
			c-0.432,1.015-0.694,1.559-0.694,1.559l-0.993-0.119c0,0,0.067-0.571,0.193-1.641c0.125-1.07,0.335-2.636,0.631-4.62
			c0.297-1.979,0.659-4.382,1.073-7.139c0.39-2.753,0.797-5.857,1.042-9.245c0.229-3.385,0.251-7.07-0.288-10.89
			c-0.182-0.943-0.285-1.879-0.532-2.863c-0.117-0.491-0.235-0.984-0.354-1.481c-0.092-0.467-0.292-0.956-0.434-1.436
			c-0.634-1.929-1.188-3.929-2.099-5.849c-0.424-0.97-0.817-1.961-1.273-2.935c-0.492-0.959-0.988-1.926-1.486-2.898l-0.75-1.463
			l-0.825-1.439c-0.553-0.961-1.108-1.927-1.666-2.897c-2.355-3.843-4.748-7.747-7.14-11.651c-1.208-1.977-2.289-3.99-3.375-5.992
			c-0.567-0.975-1.051-2.084-1.534-3.11c-0.463-1.056-1.031-2.06-1.381-3.159c-0.393-1.079-0.784-2.153-1.173-3.222
			c-0.291-1.103-0.579-2.2-0.867-3.29c-0.335-1.079-0.407-2.212-0.607-3.307c-0.082-0.551-0.178-1.098-0.246-1.646
			c-0.028-0.553-0.056-1.104-0.083-1.653c-0.246-4.379,0.252-8.668,1.42-12.505c0.213-0.984,0.61-1.892,0.917-2.814
			c0.32-0.919,0.633-1.824,1.042-2.67c0.383-0.857,0.76-1.7,1.129-2.527c0.424-0.798,0.839-1.582,1.247-2.35
			c0.204-0.383,0.406-0.763,0.605-1.138c0.22-0.363,0.438-0.721,0.653-1.076c0.434-0.708,0.856-1.398,1.269-2.072
			c0.863-1.321,1.737-2.534,2.528-3.694c1.668-2.256,3.15-4.199,4.433-5.75c1.249-1.583,2.29-2.754,2.977-3.58
			c0.693-0.818,1.063-1.255,1.063-1.255L288.792,25.818z"/>
	</g>
	<g>
		<path fill="#3B2A57" d="M326.175,8.078c0,0,0.584,0.144,1.646,0.466c0.53,0.164,1.184,0.365,1.952,0.603
			c0.771,0.206,1.643,0.695,2.645,1.159c0.499,0.244,1.038,0.5,1.592,0.793c0.529,0.309,1.043,0.664,1.606,1.024
			c0.562,0.362,1.144,0.75,1.742,1.17c0.593,0.423,1.134,0.94,1.739,1.444c2.457,1.996,4.729,4.806,6.892,8.127
			c2.04,3.376,3.723,7.338,4.921,11.649c1.175,4.316,1.783,8.936,1.961,13.663c0.141,2.373,0.033,4.747-0.071,7.151
			c-0.083,1.194-0.166,2.396-0.25,3.603c-0.149,1.191-0.301,2.388-0.452,3.59c-0.154,1.124-0.31,2.252-0.466,3.384
			c-0.187,1.213-0.404,2.482-0.645,3.628c-0.456,2.356-0.967,4.666-1.496,6.963c-1.149,4.559-2.352,8.993-3.63,13.249
			c-1.226,4.181-2.433,8.294-3.601,12.276c-1.108,3.925-2.091,7.667-2.847,11.227c-0.768,3.557-1.324,6.929-1.646,10.08
			c-0.337,3.15-0.429,6.08-0.389,8.724c0.021,0.663,0.043,1.305,0.063,1.925c0.039,0.624,0.076,1.226,0.112,1.805
			c0.042,1.177,0.2,2.237,0.305,3.222c0.3,1.931,0.464,3.542,0.706,4.593c0.199,1.072,0.283,1.67,0.283,1.67l-0.885,0.467
			c0,0-0.262-0.513-0.753-1.475c-0.509-0.953-1.167-2.396-1.933-4.264c-0.74-1.877-1.558-4.197-2.23-6.934
			c-0.666-2.735-1.216-5.88-1.438-9.339c-0.501-6.921,0.241-15.024,1.935-23.455c1.654-8.448,4.13-17.259,6.229-26.111
			c1.078-4.437,2.061-8.819,2.78-13.264c0.791-4.387,1.258-8.752,1.406-12.979c0.131-4.224-0.031-8.323-0.665-12.134
			c-0.644-3.806-1.652-7.323-2.972-10.409c-0.336-0.768-0.735-1.486-1.086-2.207c-0.181-0.358-0.358-0.712-0.534-1.062
			c-0.194-0.339-0.411-0.66-0.609-0.985c-0.405-0.648-0.799-1.279-1.183-1.893c-0.405-0.598-0.869-1.129-1.28-1.672
			c-0.431-0.527-0.806-1.076-1.243-1.538c-0.445-0.455-0.875-0.894-1.288-1.316c-0.417-0.417-0.802-0.839-1.197-1.205
			c-0.416-0.341-0.813-0.666-1.189-0.974c-0.771-0.602-1.389-1.208-2.052-1.619c-0.649-0.424-1.201-0.785-1.649-1.078
			c-0.896-0.585-1.373-0.897-1.373-0.897L326.175,8.078z"/>
	</g>
	<g>
		<path fill="#3B2A57" d="M359.407,183.975c-0.001,0-0.17-0.446-0.427-1.28c-0.249-0.827-0.614-2.039-1.079-3.582
			c-0.47-1.499-0.978-3.268-1.599-5.347c-0.297-1.031-0.611-2.128-0.943-3.285c-0.317-1.16-0.651-2.379-1-3.652
			c-0.344-1.27-0.656-2.612-1.014-4.01c-0.347-1.384-0.637-2.859-0.97-4.368c-0.335-1.501-0.559-3.11-0.853-4.725
			c-0.136-0.821-0.244-1.662-0.34-2.508c-0.103-0.847-0.212-1.699-0.279-2.587c-0.073-0.881-0.171-1.772-0.213-2.67
			c-0.05-0.9-0.049-1.832-0.074-2.757c-0.017-0.93-0.05-1.861-0.005-2.822c0.052-0.955,0.105-1.915,0.158-2.878
			c0.33-3.881,0.972-7.875,2.165-11.776c0.534-1.961,1.363-3.834,2.073-5.73l0.138-0.354l0.14-0.324l0.067-0.148l0.273-0.593
			l0.576-1.169c0.36-0.75,0.816-1.62,1.251-2.457c0.44-0.842,0.867-1.69,1.288-2.422c0.435-0.751,0.866-1.498,1.296-2.241
			c0.842-1.45,1.662-2.873,2.483-4.196c1.573-2.684,3.128-5.167,4.301-7.475c1.202-2.311,2.248-4.482,2.869-6.533
			c0.752-2.068,1.031-4.027,1.255-5.909c0.069-0.932,0.002-1.809,0.065-2.686c0.017-0.865-0.137-1.642-0.193-2.386
			c-0.115-1.493-0.441-2.664-0.586-3.503c-0.165-0.836-0.236-1.315-0.236-1.315l0.82-0.572c0,0,0.239,0.375,0.688,1.078
			c0.225,0.352,0.501,0.786,0.826,1.296c0.157,0.259,0.35,0.523,0.512,0.831c0.149,0.314,0.308,0.648,0.476,1.002
			c0.313,0.715,0.754,1.472,1.062,2.366c0.277,0.903,0.634,1.869,0.909,2.929c0.099,0.54,0.2,1.097,0.305,1.67
			c0.096,0.575,0.242,1.163,0.244,1.781c0.062,1.229,0.164,2.528,0.01,3.87c-0.127,2.701-0.798,5.556-1.71,8.468
			c-0.901,2.928-2.2,5.863-3.564,8.864c-1.406,2.96-2.859,6.02-4.336,9.129c-0.719,1.522-1.431,3.161-2.066,4.723
			c-0.559,1.618-1.246,3.198-1.657,4.87c-1.069,3.269-1.644,6.679-2.124,10.035c-0.378,3.377-0.578,6.727-0.568,9.983
			c-0.014,3.255,0.11,6.41,0.264,9.406c0.163,3.002,0.318,5.84,0.461,8.46c0.149,2.624,0.219,5.04,0.222,7.182
			c0.03,2.139-0.026,4.015-0.074,5.559c-0.034,1.544-0.163,2.732-0.203,3.554c-0.055,0.818-0.084,1.255-0.084,1.255L359.407,183.975
			z"/>
	</g>
</g>
</svg>
