<?xml version="1.0" encoding="utf-8"?>
<!-- Generator: Adobe Illustrator 16.0.0, SVG Export Plug-In . SVG Version: 6.00 Build 0)  -->
<!DOCTYPE svg PUBLIC "-//W3C//DTD SVG 1.1//EN" "http://www.w3.org/Graphics/SVG/1.1/DTD/svg11.dtd">
<svg version="1.1" id="Layer_1" xmlns="http://www.w3.org/2000/svg" xmlns:xlink="http://www.w3.org/1999/xlink" x="0px" y="0px"
	 width="640px" height="480px" viewBox="0 0 640 480" enable-background="new 0 0 640 480" xml:space="preserve">
<g>
	<g>
		<g>
			<path fill="#555555" d="M366.632,180.354c17.392-1.215,34.737-2.956,51.875-6.228c1.899-0.362,1.093-3.254-0.797-2.893
				c-16.876,3.221-33.953,4.924-51.078,6.12C364.713,177.488,364.7,180.489,366.632,180.354L366.632,180.354z"/>
		</g>
	</g>
	<g>
		<g>
			<path fill="#555555" d="M221.854,192.82c18.886,2.466,37.704-1.265,56.265-4.486c17.604-3.055,35.285-6.296,53.127-7.566
				c1.918-0.137,1.932-3.138,0-3c-16.578,1.181-33.022,4.07-49.385,6.888c-19.788,3.408-39.858,7.795-60.007,5.165
				C219.939,189.57,219.963,192.573,221.854,192.82L221.854,192.82z"/>
		</g>
	</g>
	<g>
		<g>
			<path fill="#555555" d="M220.354,194.608c0.055,11.706,1.041,23.38,1.095,35.086c0.009,1.935,3.009,1.935,3,0
				c-0.054-11.706-1.04-23.38-1.095-35.086C223.345,192.674,220.345,192.674,220.354,194.608L220.354,194.608z"/>
		</g>
	</g>
	<g>
		<g>
			<path fill="#555555" d="M360.148,208.291c17.185-3.594,34.483-6.532,51.923-8.573c2.073-0.242,8.304,1.047,8.429-2.718
				c0.232-7.013,2.492-13.446,0.151-20.331c-0.619-1.821-3.519-1.04-2.894,0.797c2.039,5.998,0.343,11.726-0.201,17.804
				c-0.188,2.089-4.057,1.287-5.485,1.448c-3.354,0.38-6.701,0.802-10.044,1.258c-14.315,1.951-28.534,4.466-42.676,7.423
				C357.459,205.794,358.262,208.686,360.148,208.291L360.148,208.291z"/>
		</g>
	</g>
	<g>
		<g>
			<path fill="#555555" d="M219.659,235.579c14.021,0.94,26.825-5.214,40.133-8.565c16.154-4.069,33.026-6.113,49.421-9.034
				c1.902-0.339,1.094-3.229-0.797-2.893c-15.389,2.741-30.794,5.391-46.147,8.321c-14.362,2.741-27.641,10.175-42.609,9.171
				C217.727,232.449,217.739,235.45,219.659,235.579L219.659,235.579z"/>
		</g>
	</g>
	<g>
		<g>
			<path fill="#555555" d="M342.982,245.579c23.596-1.287,47.248-1.767,70.738-4.519c1.897-0.223,1.919-3.225,0-3
				c-23.49,2.751-47.144,3.23-70.738,4.518C341.059,242.684,341.049,245.686,342.982,245.579L342.982,245.579z"/>
		</g>
	</g>
	<g>
		<g>
			<path fill="#555555" d="M226.238,258.604c24.398,1.436,48.297-3.976,72.176-8.149c1.903-0.333,1.095-3.224-0.797-2.894
				c-23.625,4.131-47.242,9.463-71.379,8.043C224.305,255.491,224.315,258.491,226.238,258.604L226.238,258.604z"/>
		</g>
	</g>
	<g>
		<g>
			<path fill="#555555" d="M231.316,259.297c2.146,16.691,2.542,33.588,7.729,49.737c0.589,1.835,3.486,1.05,2.893-0.797
				c-5.104-15.894-5.508-32.515-7.621-48.94C234.073,257.404,231.07,257.382,231.316,259.297L231.316,259.297z"/>
		</g>
	</g>
	<g>
		<g>
			<path fill="#555555" d="M240.491,301.364c1.935,0,1.935-3,0-3C238.556,298.364,238.557,301.364,240.491,301.364L240.491,301.364z
				"/>
		</g>
	</g>
	<g>
		<g>
			<path fill="#555555" d="M416.87,242.35c0,9.719,0,19.438,0,29.155c0,1.935,3,1.935,3,0c0-9.719,0-19.438,0-29.155
				C419.87,240.414,416.87,240.414,416.87,242.35L416.87,242.35z"/>
		</g>
	</g>
	<g>
		<g>
			<path fill="#555555" d="M333.344,288.314c28.018-5.854,56.184-11.147,84.766-13.266c1.917-0.142,1.931-3.145,0-3
				c-28.848,2.137-57.282,7.465-85.562,13.372C330.652,285.816,331.457,288.709,333.344,288.314L333.344,288.314z"/>
		</g>
	</g>
	<g>
		<g>
			<path fill="#555555" d="M325.311,290.009c1.562-0.331,3.123-0.661,4.686-0.991c1.893-0.397,1.09-3.291-0.797-2.893
				c-1.562,0.329-3.124,0.66-4.686,0.991C322.62,287.518,323.423,290.409,325.311,290.009L325.311,290.009z"/>
		</g>
	</g>
	<g>
		<g>
			<path fill="#555555" d="M235.01,306.846c14.35-1.824,28.604-4.236,42.808-6.968c1.899-0.364,1.093-3.256-0.797-2.894
				c-13.939,2.68-27.928,5.07-42.011,6.861C233.117,304.086,233.094,307.089,235.01,306.846L235.01,306.846z"/>
		</g>
	</g>
	<g>
		<g>
			<path fill="#555555" d="M325.584,287.334c-8.917,21.988-18.168,43.84-28.406,65.251c-0.601,1.255,0.692,2.943,2.052,2.052
				c2.134-1.398,4.267-2.799,6.4-4.197c0.976-0.641,1.023-2.518-0.358-2.741c-16.759-2.729-31.625-11.048-47.187-17.357
				c-0.266,0.964-0.531,1.929-0.797,2.894c13.229,4.268,26.46,8.536,39.69,12.804c1.846,0.596,2.631-2.302,0.797-2.894
				c-13.23-4.268-26.46-8.535-39.69-12.804c-1.883-0.606-2.54,2.188-0.797,2.894c15.564,6.312,30.418,14.627,47.187,17.356
				c-0.12-0.914-0.239-1.828-0.358-2.741c-2.134,1.399-4.267,2.8-6.4,4.198c0.684,0.685,1.368,1.368,2.052,2.052
				c10.351-21.644,19.695-43.738,28.709-65.968C329.204,286.338,326.301,285.564,325.584,287.334L325.584,287.334z"/>
		</g>
	</g>
	<g>
		<g>
			<path fill="#555555" d="M357.741,207.607c-5.001,11.92-9.853,23.901-14.649,35.904c-0.719,1.798,2.184,2.57,2.893,0.798
				c4.8-12.002,9.648-23.984,14.649-35.905C361.382,206.621,358.479,205.851,357.741,207.607L357.741,207.607z"/>
		</g>
	</g>
	<g>
		<g>
			<path fill="#555555" d="M332.54,180.024c9.077-14.682,16.763-30.109,24.42-45.562c0.829-1.675,1.661-3.349,2.494-5.021
				c0.84-1.687,5.183,0.139,6.301,0.492c3.577,1.133,6.876,3.128,10.039,5.103c6.278,3.921,12.044,8.539,18.819,11.623
				c1.21,0.552,3.03-0.7,2.052-2.052c-1.396-1.926-2.79-3.852-4.187-5.777c-0.619-0.856-2.018-1.079-2.59,0
				c-7.212,13.588-13.908,27.431-20.262,41.44c-0.793,1.747,1.792,3.273,2.59,1.514c6.354-14.009,13.051-27.852,20.262-41.44
				c-0.862,0-1.727,0-2.59,0c1.396,1.926,2.791,3.852,4.187,5.777c0.684-0.684,1.368-1.368,2.052-2.052
				c-12.736-5.798-22.596-17.117-37.127-18.569c-0.484-0.049-1.081,0.313-1.295,0.743c-8.816,17.661-17.362,35.457-27.755,52.268
				C328.93,180.161,331.525,181.666,332.54,180.024L332.54,180.024z"/>
		</g>
	</g>
	<g>
		<g>
			<path fill="#555555" d="M294.182,254.016c5.228-11.945,10.861-23.694,16.972-35.213c0.906-1.707-1.684-3.224-2.59-1.514
				c-6.111,11.518-11.745,23.268-16.972,35.212C290.824,254.255,293.408,255.783,294.182,254.016L294.182,254.016z"/>
		</g>
	</g>
	<g>
		<g>
			<path fill="#555555" d="M252.8,338.489c8.92-13.199,16.254-27.307,22.907-41.761c0.804-1.744-1.782-3.27-2.59-1.514
				c-6.654,14.453-13.988,28.562-22.907,41.76C249.123,338.583,251.724,340.083,252.8,338.489L252.8,338.489z"/>
		</g>
	</g>
</g>
<circle fill="none" stroke="#F1F2F2" stroke-width="4" stroke-miterlimit="10" cx="320" cy="240" r="175.769"/>
</svg>
