<?xml version="1.0" encoding="utf-8"?>
<!-- Generator: Adobe Illustrator 16.0.0, SVG Export Plug-In . SVG Version: 6.00 Build 0)  -->
<!DOCTYPE svg PUBLIC "-//W3C//DTD SVG 1.1//EN" "http://www.w3.org/Graphics/SVG/1.1/DTD/svg11.dtd">
<svg version="1.1" id="Layer_1" xmlns="http://www.w3.org/2000/svg" xmlns:xlink="http://www.w3.org/1999/xlink" x="0px" y="0px"
	 width="674px" height="412.551px" viewBox="0 0 674 412.551" enable-background="new 0 0 674 412.551" xml:space="preserve">
<g>
	<path fill="#4E3874" d="M321.016,251.128c-14.936,16.093-97.008,12.265-108.652,1.221c-18.121-17.188-3.09-110.232,6.812-120.718
		c26.392-27.945,101.303-16.404,110.156,1.711C339.191,153.512,333.873,237.274,321.016,251.128z"/>
	<path fill="#3B2A57" d="M318.699,248.062c-14.266,15.305-92.664,11.659-103.786,1.155c-17.31-16.349-2.958-104.842,6.501-114.813
		c25.208-26.576,96.765-15.597,105.224,1.633C336.057,155.223,330.98,234.887,318.699,248.062z"/>
	<path fill="#271C3A" d="M297.906,117.583c0,0,0.906,69.858-6.637,100.447c-2.429,9.845-3.189-101.993-3.189-101.993
		L297.906,117.583z"/>
	<path fill="#4E3874" d="M244.469,54.151c4.363-3.661,11.729-6.194,22.176-5.722s17.447,2.444,20.319,5.735
		s6.438,5.905,6.847,28.187s0.371,108.127-0.823,121.478s-2.501,22.073-7.506,24.924c-5.005,2.852-16.649,2.192-21.274,2.136
		c-4.626-0.058-19.343-1.612-22.055-4.044c-2.711-2.433-4.301-12.391-4.768-30.046c-0.465-17.655-0.359-81.396-0.191-94.932
		C237.361,88.334,237.023,60.398,244.469,54.151z"/>
	<path fill="#3B2A57" d="M246.28,56.414c4.003-3.567,10.756-6.04,20.331-5.587c9.574,0.453,15.99,2.368,18.619,5.57
		c2.631,3.203,5.896,5.746,6.256,27.44c0.358,21.695,0.264,105.285-0.841,118.286c-1.104,12.999-2.309,21.494-6.897,24.273
		c-4.589,2.778-15.262,2.146-19.5,2.094c-4.241-0.053-17.729-1.555-20.213-3.922c-2.484-2.366-3.934-12.062-4.348-29.252
		c-0.414-17.19-0.273-79.257-0.109-92.436S239.452,62.503,246.28,56.414z"/>
	<g>
		<path fill="#2C2041" d="M286.186,109.868c-0.068,5.5-4.624,9.943-10.123,9.875l-23.175-0.288
			c-5.499-0.068-9.943-4.624-9.875-10.123l0.131-10.498c0.068-5.5,4.624-9.943,10.123-9.875l23.176,0.288
			c5.499,0.068,9.943,4.624,9.874,10.123L286.186,109.868z"/>
	</g>
	<g>
		<path fill="#6EBF67" d="M286.25,104.729c-0.068,5.5-4.624,9.943-10.123,9.875l-21.977-0.273
			c-5.499-0.068-9.943-4.624-9.875-10.123l0.048-3.816c0.068-5.5,4.624-9.943,10.123-9.875l21.977,0.273
			c5.499,0.068,9.943,4.624,9.875,10.123L286.25,104.729z"/>
	</g>
	<circle fill="#1E152C" cx="264.656" cy="70.509" r="9.081"/>
	<circle fill="#2C2041" cx="265.003" cy="70.17" r="8.225"/>
	<path fill="#2C2041" d="M242.604,128.409c-0.012,0.942,0.749,1.723,1.692,1.734l5.311,0.066c0.942,0.012,1.723-0.75,1.734-1.692
		l0.02-1.542c0.012-0.942-0.75-1.723-1.692-1.734l-5.312-0.065c-0.941-0.013-1.723,0.749-1.734,1.691L242.604,128.409z"/>
	<path fill="#2C2041" d="M276.53,128.488c-0.011,0.941,0.751,1.723,1.692,1.733l6.34,0.079c0.941,0.012,1.723-0.75,1.733-1.692
		l0.02-1.542c0.012-0.941-0.75-1.723-1.692-1.734l-6.339-0.078c-0.941-0.012-1.723,0.75-1.734,1.691L276.53,128.488z"/>
	<path fill="#2C2041" d="M276.376,140.994c-0.013,0.941,0.749,1.723,1.692,1.735l6.339,0.078c0.941,0.012,1.722-0.749,1.733-1.692
		l0.051-4.111c0.012-0.943-0.749-1.723-1.691-1.734l-6.339-0.078c-0.942-0.013-1.723,0.749-1.734,1.691L276.376,140.994z"/>
	<path fill="#2C2041" d="M276.176,157.099c-0.012,0.942,0.749,1.724,1.691,1.734l6.34,0.079c0.941,0.012,1.722-0.75,1.734-1.691
		l0.103-8.225c0.011-0.941-0.751-1.723-1.692-1.734l-6.34-0.078c-0.941-0.012-1.723,0.75-1.733,1.691L276.176,157.099z"/>
	<path fill="#2C2041" d="M242.453,140.574c-0.012,0.941,0.75,1.722,1.691,1.733l5.312,0.065c0.942,0.013,1.724-0.75,1.734-1.691
		l0.052-4.112c0.012-0.941-0.75-1.722-1.691-1.734l-5.312-0.065c-0.941-0.012-1.723,0.75-1.733,1.692L242.453,140.574z"/>
	<path fill="#2C2041" d="M242.254,156.678c-0.013,0.942,0.749,1.723,1.691,1.734l5.311,0.066c0.943,0.012,1.723-0.75,1.734-1.691
		l0.104-8.225c0.01-0.942-0.75-1.723-1.692-1.734l-5.312-0.066c-0.943-0.012-1.723,0.75-1.734,1.692L242.254,156.678z"/>
	<g>
		<path fill="#4E3874" d="M271.117,153.785c-0.145,2.636-2.423,4.763-5.062,4.73l-4.983-0.062c-2.639-0.033-4.863-2.217-4.941-4.855
			l0.146-11.83c0.146-2.636,2.423-4.764,5.062-4.731l4.984,0.063c2.638,0.031,4.861,2.216,4.941,4.854L271.117,153.785z"/>
	</g>
	<g>
		<path fill="#2C2041" d="M270.266,153.421c-0.131,2.438-2.149,4.41-4.486,4.381l-4.414-0.055c-2.336-0.029-4.305-2.05-4.374-4.49
			l0.136-10.953c0.13-2.438,2.148-4.41,4.485-4.382l4.413,0.056c2.337,0.029,4.307,2.05,4.375,4.491L270.266,153.421z"/>
	</g>
	<path fill="#2C2041" d="M253.529,173.096c-0.012,0.942-0.792,1.704-1.734,1.692l-8.224-0.103c-0.942-0.012-1.703-0.793-1.692-1.734
		l0.053-4.111c0.011-0.943,0.791-1.704,1.733-1.692l8.224,0.103c0.941,0.012,1.703,0.792,1.691,1.733L253.529,173.096z"/>
	<path fill="#2C2041" d="M269.635,173.297c-0.012,0.941-0.793,1.703-1.734,1.691l-8.225-0.103c-0.941-0.011-1.703-0.792-1.69-1.734
		l0.05-4.111c0.012-0.942,0.792-1.704,1.734-1.692l8.225,0.103c0.941,0.012,1.703,0.792,1.691,1.734L269.635,173.297z"/>
	<path fill="#2C2041" d="M286.424,173.504c-0.012,0.943-0.792,1.704-1.734,1.693l-8.224-0.104c-0.942-0.011-1.704-0.792-1.692-1.733
		l0.051-4.112c0.013-0.942,0.793-1.704,1.736-1.692l8.223,0.103c0.941,0.012,1.703,0.792,1.691,1.734L286.424,173.504z"/>
	<path fill="#2C2041" d="M253.384,184.918c-0.013,0.942-0.792,1.703-1.735,1.691l-8.224-0.103c-0.942-0.011-1.704-0.792-1.691-1.734
		l0.051-4.111c0.012-0.942,0.792-1.704,1.734-1.692l8.224,0.104c0.942,0.011,1.704,0.791,1.691,1.733L253.384,184.918z"/>
	<path fill="#2C2041" d="M269.658,185.12c-0.011,0.941-0.792,1.703-1.733,1.691l-8.225-0.103c-0.941-0.011-1.703-0.791-1.691-1.733
		l0.051-4.112c0.013-0.942,0.792-1.704,1.734-1.692l8.224,0.103c0.942,0.011,1.704,0.792,1.692,1.734L269.658,185.12z"/>
	<path fill="#2C2041" d="M286.277,185.326c-0.012,0.942-0.793,1.704-1.734,1.691l-8.223-0.102c-0.943-0.012-1.705-0.793-1.693-1.734
		l0.052-4.112c0.012-0.942,0.792-1.703,1.734-1.692l8.224,0.103c0.942,0.012,1.704,0.792,1.691,1.735L286.277,185.326z"/>
	<path fill="#2C2041" d="M253.229,197.425c-0.012,0.941-0.793,1.703-1.735,1.691l-8.224-0.103c-0.942-0.012-1.703-0.792-1.692-1.734
		l0.052-4.111c0.012-0.942,0.792-1.704,1.734-1.691l8.224,0.102c0.941,0.012,1.703,0.792,1.692,1.734L253.229,197.425z"/>
	<path fill="#2C2041" d="M269.675,197.628c-0.011,0.942-0.792,1.704-1.733,1.692l-8.225-0.102c-0.942-0.012-1.703-0.793-1.691-1.734
		l0.051-4.112c0.012-0.942,0.792-1.704,1.734-1.692l8.224,0.103c0.942,0.012,1.703,0.792,1.692,1.734L269.675,197.628z"/>
	<path fill="#2C2041" d="M286.122,197.833c-0.012,0.941-0.792,1.703-1.734,1.691l-8.224-0.102c-0.942-0.012-1.704-0.793-1.691-1.735
		l0.05-4.11c0.013-0.943,0.793-1.705,1.735-1.692l8.224,0.102c0.941,0.012,1.703,0.793,1.692,1.734L286.122,197.833z"/>
	<path fill="#2C2041" d="M254.447,209.605c-0.012,0.942-0.792,1.703-1.734,1.691l-8.224-0.103c-0.943-0.012-1.704-0.791-1.692-1.733
		l0.051-4.112c0.012-0.942,0.793-1.704,1.735-1.692l8.224,0.103c0.941,0.012,1.703,0.793,1.692,1.734L254.447,209.605z"/>
	<path fill="#2C2041" d="M269.523,209.792c-0.012,0.942-0.793,1.704-1.734,1.692l-8.223-0.103c-0.943-0.011-1.705-0.792-1.693-1.734
		l0.052-4.112c0.011-0.941,0.792-1.703,1.734-1.691l8.224,0.102c0.942,0.013,1.704,0.793,1.691,1.735L269.523,209.792z"/>
	<path fill="#2C2041" d="M285.972,209.996c-0.013,0.943-0.794,1.705-1.735,1.692l-8.224-0.102c-0.942-0.013-1.704-0.793-1.692-1.734
		l0.052-4.112c0.011-0.942,0.792-1.703,1.734-1.692l8.224,0.103c0.943,0.012,1.703,0.793,1.691,1.734L285.972,209.996z"/>
	<path fill="#2C2041" d="M253.074,216.699c0,0,0.445,5.488-0.072,5.825s-5.997-0.074-7.008-1.458
		c-1.012-1.383-2.163-5.167-1.133-5.326C245.891,215.582,253.074,216.699,253.074,216.699z"/>
	<path fill="#2C2041" d="M274.537,216.967c0,0-0.672,5.474-0.073,5.824c0.6,0.35,7.042,0.087,8.267-1.269
		c1.224-1.355,2.68-5.106,1.475-5.293C282.999,216.043,274.537,216.967,274.537,216.967z"/>
	<g>
		<path fill="#2C2041" d="M268.188,220.742c-0.008,0.66-1.826,1.177-4.041,1.149c-2.214-0.027-4.019-0.589-4.011-1.249
			s1.826-1.177,4.041-1.149S268.196,220.083,268.188,220.742z"/>
	</g>
	<circle fill="#3B2A57" cx="264.163" cy="220.607" r="0.515"/>
</g>
<g>
	<polygon fill="#376034" points="434.469,384.449 434.778,385.5 447,390.756 447,389.705 	"/>
	<path fill="#538F4D" d="M613.927,267.434l-9.969,5.66c-0.006,0-0.012-0.004-0.017-0.004l-241.391-68.068
		c-7.419-2.092-19.257-1.256-26.308,1.859l-146.648,64.785l-10.451-3.883l3.054,11.195c0.356,1.809,2.097,3.57,5.226,4.943
		l273.18,119.775c7.059,3.096,17.476,1.357,23.148-3.859l123.363-113.459c1.687-1.549,2.738-3.164,3.199-4.727l0.109,0.145
		L613.927,267.434z"/>
	<g>
		<path fill="#3B2A57" d="M622.911,261.035c-1.473,7.564-8.752,12.059-16.176,9.986l-242.072-67.578
			c-7.424-2.072-12.383-9.975-11.02-17.562l30.778-171.271c1.363-7.584,8.766-13.299,16.45-12.695l254.438,19.945
			c7.685,0.602,12.765,7.283,11.292,14.85L622.911,261.035z"/>
		<path fill="none" stroke="#6EBF67" stroke-width="4" stroke-miterlimit="10" d="M622.911,261.035
			c-1.473,7.564-8.752,12.059-16.176,9.986l-242.072-67.578c-7.424-2.072-12.383-9.975-11.02-17.562l30.778-171.271
			c1.363-7.584,8.766-13.299,16.45-12.695l254.438,19.945c7.685,0.602,12.765,7.283,11.292,14.85L622.911,261.035z"/>
	</g>
	<polygon fill="#4E3874" points="606.218,245.01 364.829,185.102 396.36,17.635 647.21,40.695 	"/>
	<path fill="#6EBF67" d="M485.259,386.643c-5.731,5.152-16.229,6.912-23.326,3.908l-277.24-117.307
		c-7.098-3.004-7.107-7.941-0.021-10.973l151.156-64.652c7.088-3.031,18.977-3.879,26.422-1.883l244.798,65.617
		c7.444,1.994,8.847,7.844,3.114,12.996L485.259,386.643z"/>
	<path fill="#8BCC85" d="M358.489,336.305c-1.619,1.045-4.397,1.285-6.172,0.535l-89.717-37.914
		c-1.775-0.75-1.816-2.066-0.092-2.926l60.12-29.982c1.725-0.859,4.617-1.025,6.429-0.369l85.73,31.072
		c1.812,0.656,1.967,2.047,0.348,3.09L358.489,336.305z"/>
	<path fill="#6EBF67" d="M277,311.609v2.42c0,1.928,1.129,4.127,2.9,4.891l38.119,16.494c1.77,0.764,3.174-0.188,3.242-2.113
		l0.428-2.633L277,311.609z"/>
	<g id="PCqO7b_1_">
		<g>
			<path fill-rule="evenodd" clip-rule="evenodd" fill="#3B2A57" d="M276.71,238.709c2.468-1.154,4.9-2.396,7.412-3.449
				c8.053-3.371,5.885-3.232,14.233-0.568c1.188,0.379,2.361,0.809,4.021,1.375c-0.914,0.584-1.348,0.939-1.84,1.158
				c-3.401,1.514-6.814,3.002-10.227,4.49c-1.652,0.721-3.248,0.859-5.035,0.164c-2.795-1.092-5.703-1.895-8.564-2.82
				C276.71,238.943,276.71,238.826,276.71,238.709z"/>
			<path fill-rule="evenodd" clip-rule="evenodd" fill="#3B2A57" d="M336.987,259.412c0.893-0.58,1.379-0.967,1.923-1.238
				c3.285-1.639,6.601-3.219,9.868-4.889c1.659-0.848,3.297-0.988,5.057-0.41c25.138,8.26,50.281,16.504,75.415,24.777
				c0.565,0.186,1.039,0.65,1.555,0.986c-0.396,0.445-0.716,1.016-1.202,1.32c-3.164,1.982-6.37,3.893-9.547,5.855
				c-1.49,0.92-2.993,1.066-4.668,0.492c-25.49-8.736-50.988-17.449-76.484-26.168C338.417,259.973,337.941,259.775,336.987,259.412
				z"/>
			<path fill-rule="evenodd" clip-rule="evenodd" fill="#3B2A57" d="M537.212,311.475c-1.154-0.264-2.021-0.393-2.845-0.66
				c-12.81-4.176-25.614-8.367-38.418-12.559c-0.444-0.145-0.908-0.262-1.311-0.484c-0.868-0.48-1.04-1.135-0.181-1.764
				c2.688-1.961,5.319-4.018,8.149-5.75c0.957-0.586,2.563-0.713,3.665-0.375c13.211,4.062,26.388,8.238,39.561,12.42
				c1.9,0.605,1.984,1.312,0.453,2.58c-2.158,1.785-4.292,3.602-6.514,5.305C538.984,310.793,537.97,311.104,537.212,311.475z"/>
			<path fill-rule="evenodd" clip-rule="evenodd" fill="#3B2A57" d="M559.128,294.312c-3.081,2.521-5.688,4.852-8.527,6.854
				c-0.828,0.582-2.424,0.564-3.491,0.24c-9.845-2.986-19.652-6.094-29.458-9.205c-0.551-0.176-0.988-0.713-1.479-1.082
				c0.349-0.426,0.631-0.938,1.057-1.266c2.078-1.596,4.217-3.115,6.29-4.719c1.414-1.094,2.923-1.334,4.601-0.822
				c9.633,2.934,19.269,5.857,28.895,8.814C557.63,293.314,558.167,293.764,559.128,294.312z"/>
			<path fill-rule="evenodd" clip-rule="evenodd" fill="#3B2A57" d="M543.038,275.57c2.98-2.211,5.449-4.266,8.158-5.926
				c0.93-0.57,2.546-0.461,3.709-0.145c7.599,2.055,15.163,4.234,22.723,6.426c0.672,0.193,1.239,0.75,1.855,1.139
				c-0.423,0.525-0.779,1.123-1.279,1.559c-1.582,1.375-3.236,2.664-4.826,4.031c-1.251,1.074-2.603,1.414-4.207,0.943
				c-8.054-2.365-16.117-4.699-24.171-7.064C544.478,276.381,544.005,276.053,543.038,275.57z"/>
			<path fill-rule="evenodd" clip-rule="evenodd" fill="#3B2A57" d="M333.877,235.602c-0.839,0.477-1.296,0.777-1.787,1.004
				c-2.688,1.254-5.325,2.643-8.101,3.662c-1.328,0.486-3.052,0.689-4.367,0.283c-8.395-2.598-16.725-5.398-25.074-8.143
				c-0.413-0.137-0.797-0.359-1.564-0.709c0.852-0.451,1.367-0.77,1.917-1.006c2.724-1.174,5.409-2.463,8.208-3.424
				c1.295-0.443,2.936-0.623,4.215-0.24c8.304,2.492,16.553,5.17,24.816,7.797C332.603,234.973,333.032,235.221,333.877,235.602z"/>
			<path fill-rule="evenodd" clip-rule="evenodd" fill="#3B2A57" d="M434.321,279.568c1.008,0.219,1.819,0.326,2.586,0.574
				c4.984,1.613,9.965,3.234,14.927,4.914c0.657,0.221,1.198,0.785,1.792,1.189c-0.459,0.477-0.85,1.055-1.387,1.412
				c-3.004,2.004-6.06,3.93-9.066,5.93c-1.467,0.975-2.947,1.189-4.626,0.607c-5.427-1.887-10.876-3.705-16.304-5.588
				c-0.493-0.172-0.896-0.605-1.341-0.916c0.382-0.404,0.698-0.914,1.155-1.203c3.2-2.016,6.41-4.02,9.664-5.949
				C432.542,280.053,433.532,279.854,434.321,279.568z"/>
			<path fill-rule="evenodd" clip-rule="evenodd" fill="#3B2A57" d="M496.995,300.291c0.938,0.105,1.486,0.078,1.975,0.236
				c4.602,1.484,9.209,2.957,13.777,4.537c1.537,0.531,1.583,1.334,0.279,2.35c-2.987,2.33-5.986,4.645-8.996,6.943
				c-1.279,0.979-2.666,1.285-4.262,0.73c-4.61-1.6-9.247-3.127-13.856-4.734c-0.542-0.189-0.97-0.705-1.45-1.066
				c0.339-0.438,0.6-0.973,1.026-1.293c3.036-2.264,6.081-4.518,9.181-6.689C495.441,300.762,496.43,300.529,496.995,300.291z"/>
			<path fill-rule="evenodd" clip-rule="evenodd" fill="#3B2A57" d="M458.018,287.318c0.965,0.213,1.72,0.316,2.435,0.547
				c3.72,1.199,7.438,2.406,11.133,3.674c0.615,0.209,1.124,0.727,1.682,1.104c-0.445,0.551-0.795,1.234-1.35,1.629
				c-2.947,2.096-5.936,4.137-8.932,6.164c-1.318,0.895-2.728,1.178-4.307,0.625c-4.174-1.453-8.375-2.832-12.55-4.287
				c-0.487-0.172-0.868-0.643-1.3-0.973c0.354-0.432,0.633-0.979,1.076-1.277c3.097-2.084,6.201-4.156,9.363-6.139
				C456.126,287.848,457.187,287.633,458.018,287.318z"/>
			<path fill-rule="evenodd" clip-rule="evenodd" fill="#3B2A57" d="M348.55,251.912c-1.019,0.521-2.031,1.055-3.056,1.562
				c-2.871,1.426-5.704,2.938-8.644,4.205c-1.106,0.477-2.592,0.797-3.684,0.463c-4.658-1.42-9.233-3.107-13.838-4.705
				c-0.195-0.066-0.375-0.18-0.902-0.439c0.774-0.494,1.255-0.873,1.794-1.131c3.255-1.557,6.536-3.057,9.782-4.631
				c1.83-0.889,3.643-1.018,5.573-0.357c3.748,1.281,7.521,2.488,11.278,3.744c0.578,0.193,1.125,0.482,1.688,0.727
				C348.545,251.537,348.547,251.725,348.55,251.912z"/>
			<path fill-rule="evenodd" clip-rule="evenodd" fill="#3B2A57" d="M489.822,296.02c-1.028-0.234-1.721-0.342-2.379-0.553
				c-3.936-1.27-7.87-2.539-11.785-3.871c-0.604-0.203-1.104-0.717-1.651-1.088c0.453-0.486,0.839-1.07,1.371-1.447
				c2.188-1.543,4.471-2.957,6.62-4.557c1.56-1.158,3.195-1.35,4.947-0.814c4.063,1.246,8.116,2.531,12.153,3.859
				c0.55,0.182,0.987,0.703,1.477,1.066c-0.396,0.465-0.725,1.021-1.201,1.375c-2.293,1.697-4.591,3.395-6.963,4.977
				C491.585,295.518,490.538,295.738,489.822,296.02z"/>
			<path fill-rule="evenodd" clip-rule="evenodd" fill="#3B2A57" d="M307.209,225.648c0.662-0.379,1.066-0.666,1.512-0.855
				c2.673-1.145,5.311-2.396,8.057-3.332c1.235-0.42,2.791-0.539,4.034-0.193c5.878,1.637,11.699,3.48,17.537,5.258
				c0.48,0.146,0.936,0.375,1.369,0.555c-0.047,0.244-0.033,0.428-0.093,0.453c-3.548,1.598-7.084,3.219-10.67,4.725
				c-0.567,0.236-1.399,0.07-2.043-0.127c-6.155-1.893-12.297-3.824-18.438-5.762C308.119,226.258,307.812,225.998,307.209,225.648z
				"/>
			<path fill-rule="evenodd" clip-rule="evenodd" fill="#3B2A57" d="M560.233,292.52c-1.008-0.178-1.657-0.227-2.266-0.41
				c-4.352-1.305-8.701-2.615-13.031-3.988c-0.606-0.193-1.102-0.736-1.646-1.119c0.399-0.463,0.739-0.998,1.208-1.375
				c1.905-1.531,3.758-3.164,5.819-4.453c1.025-0.641,2.579-1.094,3.694-0.82c4.745,1.172,9.426,2.619,14.109,4.031
				c1.662,0.5,1.737,1.094,0.4,2.209c-1.965,1.643-3.91,3.311-5.95,4.855C561.825,292.014,560.834,292.254,560.233,292.52z"/>
			<path fill-rule="evenodd" clip-rule="evenodd" fill="#3B2A57" d="M512.26,290.32c-0.856-0.193-1.43-0.285-1.976-0.455
				c-4.107-1.281-8.216-2.561-12.307-3.887c-0.566-0.184-1.051-0.625-1.573-0.945c0.407-0.512,0.729-1.145,1.237-1.518
				c2.163-1.58,4.302-3.227,6.618-4.553c1.053-0.602,2.613-0.947,3.75-0.656c4.45,1.145,8.83,2.57,13.221,3.939
				c0.441,0.139,1.047,0.559,1.099,0.916c0.05,0.35-0.438,0.885-0.816,1.172c-2.232,1.688-4.468,3.375-6.775,4.953
				C513.962,289.818,512.97,290.035,512.26,290.32z"/>
			<path fill-rule="evenodd" clip-rule="evenodd" fill="#3B2A57" d="M454.394,284.221c0.984-0.713,1.652-1.234,2.356-1.697
				c2.097-1.379,4.227-2.709,6.31-4.107c1.51-1.014,3.095-1.295,4.825-0.75c3.892,1.232,7.789,2.449,11.667,3.717
				c0.512,0.17,0.934,0.607,1.398,0.92c-0.373,0.467-0.664,1.049-1.133,1.377c-2.339,1.646-4.64,3.379-7.128,4.766
				c-1.168,0.65-2.864,1.09-4.091,0.764c-4.277-1.139-8.457-2.643-12.664-4.037C455.517,285.033,455.163,284.703,454.394,284.221z"
				/>
			<path fill-rule="evenodd" clip-rule="evenodd" fill="#3B2A57" d="M522.521,280.832c3.264-2.287,6.076-4.416,9.07-6.252
				c0.777-0.475,2.175-0.252,3.187,0.021c4.21,1.145,8.388,2.41,12.561,3.691c0.55,0.168,0.998,0.666,1.493,1.014
				c-0.35,0.438-0.633,0.955-1.058,1.295c-1.817,1.451-3.737,2.777-5.501,4.285c-1.383,1.186-2.905,1.51-4.545,1.037
				c-4.473-1.285-8.919-2.662-13.367-4.033C523.89,281.744,523.481,281.395,522.521,280.832z"/>
			<path fill-rule="evenodd" clip-rule="evenodd" fill="#3B2A57" d="M492.718,284.047c-0.979-0.148-1.513-0.162-2.006-0.316
				c-4.055-1.252-8.108-2.514-12.145-3.824c-0.507-0.162-0.917-0.623-1.372-0.947c0.354-0.418,0.637-0.939,1.073-1.238
				c2.258-1.549,4.461-3.221,6.878-4.477c1.224-0.639,2.967-0.938,4.284-0.615c4.065,0.996,8.044,2.352,12.043,3.611
				c0.506,0.158,0.926,0.596,1.385,0.902c-0.355,0.426-0.64,0.951-1.076,1.264c-2.18,1.562-4.369,3.119-6.618,4.576
				C494.327,283.525,493.312,283.797,492.718,284.047z"/>
			<path fill-rule="evenodd" clip-rule="evenodd" fill="#3B2A57" d="M462.741,276.533c-3.73,2.344-6.959,4.504-10.338,6.396
				c-0.824,0.463-2.213,0.289-3.22-0.008c-3.849-1.135-7.653-2.422-11.455-3.703c-0.495-0.168-0.887-0.645-1.325-0.977
				c0.371-0.412,0.673-0.932,1.124-1.217c2.511-1.578,4.982-3.254,7.628-4.576c1.198-0.598,2.879-0.891,4.146-0.566
				c3.938,1.01,7.785,2.373,11.657,3.631C461.42,275.664,461.821,276,462.741,276.533z"/>
			<path fill-rule="evenodd" clip-rule="evenodd" fill="#3B2A57" d="M519.422,280.145c-0.923-0.162-1.51-0.205-2.062-0.371
				c-4.07-1.211-8.139-2.434-12.193-3.699c-0.514-0.158-0.941-0.592-1.41-0.9c0.374-0.465,0.672-1.033,1.137-1.373
				c1.923-1.406,3.9-2.734,5.847-4.107c1.409-0.992,2.89-1.357,4.603-0.84c4.12,1.248,8.268,2.41,12.387,3.664
				c0.49,0.148,0.876,0.646,1.31,0.982c-0.335,0.373-0.619,0.816-1.015,1.109c-2.1,1.561-4.197,3.127-6.361,4.596
				C520.931,279.699,520.005,279.906,519.422,280.145z"/>
			<path fill-rule="evenodd" clip-rule="evenodd" fill="#3B2A57" d="M458.462,272.666c3.109-1.91,6.174-3.898,9.358-5.672
				c0.762-0.424,1.993-0.369,2.891-0.117c4.028,1.131,8.018,2.398,12.011,3.65c0.458,0.143,0.856,0.477,1.581,0.895
				c-1.181,0.854-2.083,1.545-3.027,2.176c-1.74,1.166-3.526,2.266-5.253,3.453c-1.412,0.969-2.906,1.115-4.486,0.625
				c-3.823-1.188-7.645-2.387-11.456-3.613c-0.561-0.18-1.065-0.531-1.597-0.801C458.476,273.062,458.469,272.863,458.462,272.666z"
				/>
			<path fill-rule="evenodd" clip-rule="evenodd" fill="#3B2A57" d="M444.526,270.812c-1.412,0.879-2.477,1.553-3.551,2.211
				c-1.89,1.156-3.715,2.451-5.707,3.398c-1.136,0.541-2.67,0.959-3.812,0.648c-4.099-1.115-8.107-2.559-12.145-3.898
				c-0.254-0.084-0.451-0.332-0.896-0.676c0.518-0.436,0.888-0.844,1.339-1.115c2.601-1.561,5.158-3.211,7.864-4.564
				c1.114-0.557,2.672-0.867,3.836-0.562c3.939,1.033,7.797,2.385,11.678,3.641C443.485,270.01,443.779,270.311,444.526,270.812z"/>
			<path fill-rule="evenodd" clip-rule="evenodd" fill="#3B2A57" d="M524.059,269.975c1.704-1.25,3.267-2.16,4.544-3.373
				c3.125-2.967,6.502-3.252,10.406-1.723c2.641,1.037,5.477,1.572,8.208,2.387c0.796,0.238,1.532,0.666,2.792,1.227
				c-3.103,2.256-5.752,4.287-8.531,6.119c-0.613,0.404-1.748,0.307-2.547,0.09c-4.487-1.227-8.947-2.555-13.41-3.873
				C525.152,270.721,524.835,270.436,524.059,269.975z"/>
			<path fill-rule="evenodd" clip-rule="evenodd" fill="#3B2A57" d="M484.335,269.289c3.449-2.178,6.367-4.17,9.449-5.865
				c0.819-0.453,2.195-0.189,3.224,0.086c3.825,1.025,7.616,2.176,11.407,3.322c0.52,0.158,0.967,0.557,1.447,0.844
				c-0.386,0.455-0.7,1.012-1.17,1.346c-2.131,1.523-4.213,3.156-6.506,4.391c-1.109,0.596-2.746,0.801-3.969,0.492
				c-4.062-1.027-8.047-2.357-12.05-3.602C485.704,270.16,485.3,269.832,484.335,269.289z"/>
			<path fill-rule="evenodd" clip-rule="evenodd" fill="#3B2A57" d="M465.912,265.709c-0.69,0.559-1.091,0.951-1.552,1.244
				c-2.312,1.467-4.553,3.084-6.996,4.283c-1.25,0.615-2.981,0.904-4.306,0.576c-3.767-0.932-7.442-2.242-11.14-3.443
				c-0.456-0.148-0.83-0.553-1.241-0.838c0.358-0.41,0.646-0.932,1.087-1.207c2.373-1.475,4.709-3.049,7.219-4.252
				c1.197-0.576,2.848-0.807,4.126-0.498c3.724,0.898,7.364,2.137,11.03,3.27C464.654,265.002,465.121,265.316,465.912,265.709z"/>
			<path fill-rule="evenodd" clip-rule="evenodd" fill="#3B2A57" d="M401.085,266.758c2.006-1.156,3.634-2.137,5.3-3.049
				c6.854-3.752,5.377-3.758,13.017-1.359c1.889,0.594,3.78,1.176,5.656,1.811c0.564,0.189,1.078,0.533,1.943,0.971
				c-0.803,0.562-1.282,0.949-1.807,1.258c-2.458,1.455-4.862,3.023-7.422,4.27c-1.168,0.57-2.766,0.945-3.967,0.633
				c-3.824-0.996-7.557-2.348-11.315-3.59C402.132,267.582,401.839,267.271,401.085,266.758z"/>
			<path fill-rule="evenodd" clip-rule="evenodd" fill="#3B2A57" d="M530.21,263.227c-1.393,1.008-2.914,1.877-4.15,3.049
				c-3.117,2.953-6.464,3.371-10.396,1.756c-2.624-1.08-5.458-1.639-8.187-2.465c-0.692-0.211-1.345-0.555-2.458-1.025
				c1.404-1,2.437-1.793,3.523-2.496c6.638-4.309,4.58-4.457,12.921-2.104c2.186,0.613,4.372,1.229,6.546,1.881
				c0.703,0.211,1.367,0.551,2.048,0.83C530.107,262.844,530.157,263.035,530.21,263.227z"/>
			<path fill-rule="evenodd" clip-rule="evenodd" fill="#3B2A57" d="M349.694,220.537c-1.62,0.74-2.955,1.383-4.315,1.967
				c-7.968,3.424-5.434,3.412-14.03,0.834c-2.845-0.854-5.689-1.711-8.53-2.58c-0.595-0.182-1.172-0.422-2.196-0.795
				c1.192-0.613,1.969-1.072,2.792-1.426c2.242-0.963,4.473-1.971,6.771-2.781c0.997-0.35,2.235-0.572,3.217-0.309
				c5.115,1.377,10.184,2.93,15.266,4.436C348.915,219.955,349.122,220.166,349.694,220.537z"/>
			<path fill-rule="evenodd" clip-rule="evenodd" fill="#3B2A57" d="M448.395,260.473c-1.894,1.166-3.442,2.16-5.028,3.09
				c-6.34,3.707-4.965,3.76-12.097,1.436c-2.153-0.701-4.327-1.346-6.48-2.047c-0.512-0.168-0.981-0.459-1.772-0.838
				c0.669-0.516,1.034-0.863,1.459-1.111c2.416-1.408,4.797-2.898,7.301-4.133c1.078-0.529,2.533-0.941,3.63-0.666
				c3.946,0.988,7.813,2.287,11.705,3.488C447.42,259.789,447.682,260.033,448.395,260.473z"/>
			<path fill-rule="evenodd" clip-rule="evenodd" fill="#3B2A57" d="M410.21,259.912c-2.077,1.16-3.781,2.129-5.498,3.074
				c-6.995,3.85-5.152,3.736-12.829,1.256c-2.306-0.744-4.598-1.533-7.323-2.445c0.738-0.619,1.066-1,1.479-1.227
				c2.767-1.506,5.5-3.09,8.355-4.408c1.089-0.502,2.569-0.746,3.701-0.451c3.604,0.941,7.132,2.182,10.681,3.328
				C409.134,259.156,409.438,259.436,410.21,259.912z"/>
			<path fill-rule="evenodd" clip-rule="evenodd" fill="#3B2A57" d="M512.033,257.77c-1.6,1.066-3.016,1.773-4.134,2.801
				c-3.484,3.205-7.219,3.668-11.532,1.791c-2.327-1.014-4.891-1.482-7.338-2.229c-0.581-0.178-1.122-0.482-2.083-0.906
				c1.447-0.992,2.553-1.787,3.693-2.525c1.219-0.789,2.55-1.428,3.688-2.316c1.389-1.084,2.927-1.232,4.463-0.838
				c3.886,1.004,7.733,2.152,11.587,3.271C510.801,256.941,511.166,257.262,512.033,257.77z"/>
			<path fill-rule="evenodd" clip-rule="evenodd" fill="#3B2A57" d="M491.419,262.447c-3.091,1.998-5.875,3.885-8.762,5.6
				c-0.668,0.396-1.754,0.465-2.528,0.248c-4.144-1.158-8.252-2.447-12.365-3.713c-0.304-0.094-0.558-0.35-0.793-0.502
				c0.017-0.223-0.019-0.406,0.04-0.441c2.884-1.834,5.738-3.723,8.695-5.428c0.666-0.383,1.76-0.35,2.553-0.131
				c4.033,1.096,8.034,2.311,12.037,3.51C490.595,261.68,490.829,261.986,491.419,262.447z"/>
			<path fill-rule="evenodd" clip-rule="evenodd" fill="#3B2A57" d="M303.96,248.188c0.826-0.531,1.251-0.879,1.732-1.104
				c3.375-1.561,6.766-3.086,10.143-4.645c1.709-0.787,3.42-0.928,5.223-0.301c2.416,0.842,4.865,1.59,7.291,2.402
				c0.568,0.193,1.101,0.49,2.193,0.986c-1.787,0.918-3.076,1.617-4.4,2.25c-2.464,1.178-4.959,2.289-7.418,3.479
				c-1.717,0.832-3.406,0.949-5.217,0.281C310.491,250.42,307.438,249.402,303.96,248.188z"/>
			<path fill-rule="evenodd" clip-rule="evenodd" fill="#3B2A57" d="M473.773,257.107c-3.311,2.023-6.225,3.916-9.262,5.588
				c-0.762,0.418-1.985,0.359-2.884,0.109c-3.923-1.084-7.807-2.312-11.697-3.512c-0.307-0.094-0.562-0.352-1.09-0.693
				c0.541-0.453,0.913-0.855,1.364-1.127c2.245-1.348,4.446-2.793,6.794-3.93c1.121-0.545,2.635-0.902,3.799-0.623
				c3.898,0.93,7.722,2.178,11.566,3.328C472.72,256.355,473.021,256.641,473.773,257.107z"/>
			<path fill-rule="evenodd" clip-rule="evenodd" fill="#3B2A57" d="M431.317,255.279c-1.047,0.641-1.852,1.156-2.676,1.631
				c-2.068,1.191-4.081,2.512-6.245,3.49c-1.144,0.518-2.663,0.848-3.831,0.547c-3.7-0.945-7.318-2.219-10.957-3.395
				c-0.346-0.111-0.624-0.428-1.223-0.854c1.107-0.646,1.976-1.178,2.865-1.67c2.036-1.125,4.026-2.361,6.147-3.297
				c1.104-0.488,2.55-0.832,3.667-0.551c3.712,0.934,7.348,2.17,11.006,3.316C430.419,254.607,430.71,254.891,431.317,255.279z"/>
			<path fill-rule="evenodd" clip-rule="evenodd" fill="#3B2A57" d="M368.603,256.244c0.903-0.535,1.51-0.938,2.152-1.27
				c2.479-1.285,4.916-2.678,7.484-3.76c1.203-0.508,2.762-0.795,3.988-0.492c3.382,0.828,6.678,2.012,9.999,3.082
				c0.405,0.133,0.759,0.424,1.347,0.762c-0.551,0.422-0.871,0.742-1.254,0.951c-2.707,1.479-5.372,3.057-8.17,4.34
				c-1.135,0.521-2.674,0.797-3.844,0.488c-3.592-0.947-7.098-2.23-10.631-3.402C369.417,256.859,369.202,256.641,368.603,256.244z"
				/>
			<path fill-rule="evenodd" clip-rule="evenodd" fill="#3B2A57" d="M469.356,253.904c3.214-1.9,6.047-3.721,9.029-5.25
				c0.858-0.441,2.197-0.256,3.222,0.006c3.555,0.906,7.072,1.965,10.595,2.996c0.521,0.152,0.994,0.48,1.831,0.896
				c-1.177,0.816-2.042,1.451-2.94,2.035c-1.515,0.982-2.982,2.076-4.599,2.852c-1.091,0.523-2.512,1.031-3.599,0.771
				c-4.184-1.002-8.296-2.311-12.43-3.525C470.215,254.613,470.011,254.373,469.356,253.904z"/>
			<path fill-rule="evenodd" clip-rule="evenodd" fill="#3B2A57" d="M290.412,243.088c0.545-0.299,1.07-0.641,1.636-0.893
				c3.299-1.465,6.609-2.904,9.911-4.365c1.727-0.764,3.44-0.877,5.255-0.234c2.784,0.99,5.608,1.863,8.898,2.945
				c-0.844,0.625-1.264,1.057-1.772,1.291c-3.435,1.59-6.833,3.285-10.364,4.627c-1.352,0.512-3.113,0.543-4.523,0.172
				c-3.067-0.807-6.027-2.012-9.031-3.053C290.417,243.414,290.416,243.25,290.412,243.088z"/>
			<path fill-rule="evenodd" clip-rule="evenodd" fill="#3B2A57" d="M431.806,253.396c0.922-0.59,1.564-1.039,2.242-1.426
				c2.021-1.158,3.994-2.43,6.109-3.383c1.149-0.516,2.647-0.881,3.821-0.605c3.788,0.896,7.501,2.117,11.237,3.234
				c0.311,0.092,0.571,0.346,1.088,0.67c-0.526,0.408-0.885,0.746-1.299,0.992c-2.248,1.346-4.443,2.807-6.795,3.941
				c-1.176,0.566-2.753,0.963-3.963,0.672c-3.84-0.932-7.594-2.219-11.375-3.387C432.614,254.027,432.401,253.799,431.806,253.396z"
				/>
			<path fill-rule="evenodd" clip-rule="evenodd" fill="#3B2A57" d="M390.23,251.824c0.771-0.521,1.204-0.877,1.688-1.135
				c2.363-1.266,4.75-2.48,7.104-3.758c1.573-0.852,3.149-1.021,4.871-0.465c3.041,0.984,6.114,1.869,9.167,2.818
				c0.52,0.16,1.007,0.426,1.875,0.799c-0.783,0.539-1.215,0.889-1.693,1.154c-2.447,1.352-4.837,2.838-7.389,3.955
				c-1.235,0.539-2.875,0.754-4.169,0.441c-3.321-0.801-6.554-1.967-9.816-3.01C391.442,252.488,391.054,252.232,390.23,251.824z"/>
			<path fill-rule="evenodd" clip-rule="evenodd" fill="#3B2A57" d="M353.393,251.283c0.624-0.42,1.051-0.779,1.536-1.023
				c2.758-1.381,5.488-2.834,8.32-4.043c1.057-0.453,2.458-0.656,3.547-0.373c3.43,0.891,6.79,2.061,10.171,3.145
				c0.245,0.078,0.439,0.322,0.622,0.461c-0.045,0.219-0.031,0.398-0.093,0.43c-3.507,1.809-6.997,3.65-10.553,5.354
				c-0.655,0.314-1.642,0.256-2.373,0.035c-3.397-1.029-6.76-2.168-10.13-3.289C354.143,251.879,353.896,251.623,353.393,251.283z"
				/>
			<path fill-rule="evenodd" clip-rule="evenodd" fill="#3B2A57" d="M511.7,312.215c0.679,0.143,1.379,0.225,2.035,0.439
				c4.479,1.475,8.955,2.953,13.415,4.484c2.3,0.789,2.4,1.438,0.585,2.961c-0.67,0.561-1.354,1.102-2.016,1.672
				c-1.213,1.047-2.597,1.273-4.075,0.775c-4.951-1.666-9.896-3.35-14.834-5.057c-1.707-0.592-1.834-1.266-0.345-2.346
				C508.071,313.98,509.35,312.148,511.7,312.215z"/>
			<path fill-rule="evenodd" clip-rule="evenodd" fill="#3B2A57" d="M476.501,247.65c-1.172,0.758-2.051,1.387-2.981,1.924
				c-7.835,4.529-5.121,4.498-14.171,1.881c-2.265-0.656-4.519-1.348-6.776-2.023c-0.015-0.174-0.031-0.344-0.046-0.518
				c0.593-0.396,1.17-0.82,1.781-1.182c1.856-1.104,3.65-2.355,5.615-3.209c1.314-0.572,2.976-1.012,4.316-0.729
				c3.642,0.77,7.199,1.945,10.78,2.99C475.428,246.906,475.78,247.223,476.501,247.65z"/>
			<path fill-rule="evenodd" clip-rule="evenodd" fill="#3B2A57" d="M415.437,248.432c1.197-0.703,2.104-1.283,3.053-1.787
				c8.982-4.779,5.875-4.416,15.467-1.691c1.682,0.477,3.348,1.016,5.017,1.535c0.159,0.051,0.29,0.184,0.511,0.328
				c-0.241,0.33-0.352,0.629-0.563,0.748c-2.738,1.561-5.453,3.166-8.262,4.588c-0.817,0.414-1.993,0.582-2.866,0.348
				c-3.83-1.025-7.609-2.236-11.403-3.396C416.183,249.041,416.016,248.848,415.437,248.432z"/>
			<path fill-rule="evenodd" clip-rule="evenodd" fill="#3B2A57" d="M374.764,246.684c0.63-0.369,1.103-0.67,1.597-0.93
				c0.721-0.379,1.452-0.74,2.187-1.092c8.415-4.035,5.626-4.168,14.351-1.512c1.904,0.58,3.798,1.199,5.695,1.799
				c0.006,0.174,0.013,0.346,0.02,0.52c-1.346,0.75-2.668,1.547-4.043,2.238c-8.417,4.238-5.525,3.871-13.822,1.416
				c-1.835-0.543-3.643-1.176-5.457-1.787C375.152,247.289,375.073,247.076,374.764,246.684z"/>
			<path fill-rule="evenodd" clip-rule="evenodd" fill="#3B2A57" d="M362.358,244.529c-0.031,0.275-0.02,0.367-0.045,0.381
				c-3.795,1.824-7.585,3.66-11.4,5.441c-0.372,0.174-0.941,0.096-1.363-0.037c-3.495-1.102-6.977-2.238-10.457-3.383
				c-0.138-0.045-0.225-0.244-0.494-0.557c0.49-0.332,0.908-0.695,1.389-0.93c2.615-1.275,5.251-2.512,7.87-3.779
				c1.591-0.77,3.19-0.959,4.903-0.379c2.699,0.914,5.43,1.738,8.141,2.619C361.423,244.076,361.915,244.336,362.358,244.529z"/>
			<path fill-rule="evenodd" clip-rule="evenodd" fill="#3B2A57" d="M435.959,243.926c1.708-0.953,3.534-1.744,5.095-2.895
				c3.178-2.348,6.433-2.527,10.025-1.129c2.107,0.822,4.355,1.273,6.53,1.928c0.577,0.174,1.112,0.482,2.123,0.93
				c-1.822,1.066-3.366,1.752-4.653,2.764c-3.561,2.795-7.252,3.152-11.406,1.391c-2.425-1.029-5.062-1.561-7.604-2.314
				C436.032,244.375,435.996,244.15,435.959,243.926z"/>
			<path fill-rule="evenodd" clip-rule="evenodd" fill="#3B2A57" d="M423.581,242.346c-1.604,0.867-2.898,1.588-4.209,2.279
				c-7.597,4-5.203,3.76-13.522,1.332c-1.983-0.578-3.942-1.236-6.23-1.957c0.581-0.549,0.813-0.881,1.132-1.051
				c2.562-1.377,5.096-2.826,7.738-4.031c0.994-0.451,2.336-0.648,3.377-0.391c3.611,0.896,7.164,2.041,10.732,3.107
				C422.803,241.695,422.966,241.893,423.581,242.346z"/>
			<path fill-rule="evenodd" clip-rule="evenodd" fill="#3B2A57" d="M359.56,241.936c3.744-1.75,7.128-3.389,10.572-4.889
				c0.682-0.299,1.646-0.25,2.391-0.043c3.353,0.936,6.674,1.984,10,3.004c0.252,0.078,0.465,0.283,0.848,0.521
				c-0.412,0.355-0.661,0.674-0.987,0.84c-2.801,1.424-5.579,2.902-8.446,4.178c-0.949,0.422-2.226,0.623-3.203,0.365
				c-3.412-0.906-6.762-2.053-10.127-3.131C360.36,242.703,360.174,242.441,359.56,241.936z"/>
			<path fill-rule="evenodd" clip-rule="evenodd" fill="#3B2A57" d="M347.559,240.352c-2.111,1.031-4.32,1.906-6.313,3.131
				c-3.64,2.232-7.229,2.434-11.096,0.625c-1.916-0.898-4.021-1.387-6.002-2.047c0.064-0.369,0.049-0.551,0.106-0.576
				c3.63-1.688,7.263-3.375,10.911-5.025c0.349-0.158,0.834-0.209,1.199-0.105c3.725,1.057,7.438,2.152,11.154,3.24
				C347.531,239.848,347.545,240.098,347.559,240.352z"/>
			<path fill-rule="evenodd" clip-rule="evenodd" fill="#3B2A57" d="M443.468,238.268c-3.507,1.811-6.636,3.438-9.784,5.029
				c-0.343,0.174-0.833,0.26-1.194,0.162c-4.132-1.131-8.252-2.305-12.913-3.619c0.908-0.688,1.333-1.104,1.837-1.375
				c2.203-1.193,4.366-2.502,6.674-3.447c1.204-0.49,2.756-0.656,4.018-0.377c3.294,0.727,6.518,1.771,9.76,2.721
				C442.275,237.482,442.632,237.787,443.468,238.268z"/>
			<path fill-rule="evenodd" clip-rule="evenodd" fill="#3B2A57" d="M480.188,308.297c-0.503-0.131-1.016-0.227-1.505-0.391
				c-4.335-1.475-8.673-2.947-12.992-4.469c-0.541-0.191-0.978-0.67-1.464-1.018c0.402-0.453,0.776-0.934,1.208-1.357
				c2.853-2.799,5.998-2.951,9.604-1.436c3.208,1.348,6.612,2.23,9.902,3.393c0.595,0.211,1.06,0.785,1.584,1.191
				c-0.386,0.465-0.694,1.049-1.176,1.371c-1.591,1.078-3.247,2.061-4.877,3.08C480.378,308.539,480.282,308.418,480.188,308.297z"
				/>
			<path fill-rule="evenodd" clip-rule="evenodd" fill="#3B2A57" d="M407.694,237.57c-0.854,0.51-1.505,0.932-2.188,1.295
				c-2.105,1.127-4.172,2.354-6.359,3.295c-1.115,0.48-2.552,0.818-3.679,0.547c-3.507-0.854-6.937-2.027-10.392-3.092
				c-0.204-0.062-0.365-0.268-0.527-0.393c0.021-0.164-0.002-0.348,0.054-0.377c3.204-1.643,6.394-3.32,9.646-4.861
				c0.616-0.293,1.534-0.207,2.235-0.014c3.43,0.941,6.833,1.973,10.241,2.992C406.979,237.037,407.192,237.25,407.694,237.57z"/>
			<path fill-rule="evenodd" clip-rule="evenodd" fill="#3B2A57" d="M345.318,237.271c1.239-0.592,2.476-1.191,3.72-1.775
				c1.685-0.793,3.396-1.533,5.055-2.377c1.605-0.816,3.195-0.871,4.888-0.32c2.594,0.842,5.214,1.605,7.818,2.418
				c0.521,0.162,1.019,0.393,1.941,0.752c-0.911,0.543-1.415,0.895-1.961,1.16c-2.301,1.125-4.632,2.189-6.916,3.344
				c-1.747,0.883-3.438,1.1-5.342,0.393c-2.55-0.947-5.185-1.658-7.78-2.484c-0.467-0.148-0.916-0.359-1.373-0.541
				C345.353,237.65,345.335,237.459,345.318,237.271z"/>
			<path fill-rule="evenodd" clip-rule="evenodd" fill="#3B2A57" d="M404.327,234.9c1.799-0.934,3.49-1.588,4.93-2.6
				c3.648-2.564,7.374-2.643,11.402-1.023c2.125,0.857,4.409,1.316,6.621,1.955c0.015,0.201,0.028,0.402,0.043,0.602
				c-1.459,0.789-2.914,1.58-4.376,2.361c-1.233,0.66-2.422,1.449-3.725,1.924c-1.052,0.383-2.33,0.73-3.358,0.482
				c-3.562-0.863-7.06-1.99-10.576-3.033C405.044,235.496,404.845,235.268,404.327,234.9z"/>
			<path fill-rule="evenodd" clip-rule="evenodd" fill="#3B2A57" d="M369.461,234.582c0.653-0.398,1.109-0.73,1.606-0.973
				c2.404-1.174,4.799-2.369,7.244-3.455c0.824-0.365,1.864-0.762,2.668-0.568c3.822,0.918,7.597,2.033,11.326,3.064
				c-0.031,0.424,0,0.611-0.053,0.639c-3.255,1.648-6.494,3.33-9.799,4.877c-0.61,0.285-1.526,0.168-2.225-0.029
				c-3.246-0.922-6.467-1.932-9.69-2.928C370.235,235.115,369.974,234.885,369.461,234.582z"/>
			<path fill-rule="evenodd" clip-rule="evenodd" fill="#3B2A57" d="M331.021,232.842c2.622-1.205,5.291-2.322,7.854-3.643
				c2.341-1.207,4.585-1.299,7.049-0.381c2.539,0.947,5.183,1.617,7.886,2.879c-0.551,0.326-1.08,0.693-1.654,0.969
				c-2.418,1.154-4.822,2.34-7.287,3.385c-0.936,0.396-2.111,0.812-3.02,0.586c-3.633-0.904-7.205-2.055-10.8-3.113
				C331.04,233.295,331.031,233.068,331.021,232.842z"/>
			<path fill-rule="evenodd" clip-rule="evenodd" fill="#3B2A57" d="M389.207,230.604c1.444-0.729,2.546-1.305,3.667-1.846
				c7.779-3.75,5.52-3.764,14.131-1.314c1.645,0.469,3.285,0.947,4.928,1.424c0.02,0.209,0.04,0.418,0.061,0.627
				c-0.941,0.488-1.877,0.99-2.825,1.463c-8.799,4.395-5.646,3.99-15.021,1.393c-1.397-0.385-2.772-0.855-4.155-1.297
				C389.835,231.002,389.7,230.889,389.207,230.604z"/>
			<path fill-rule="evenodd" clip-rule="evenodd" fill="#3B2A57" d="M355.245,230.014c1.281-0.623,2.551-1.27,3.846-1.863
				c7.967-3.646,5.699-3.496,14.008-1.086c1.536,0.445,3.066,0.908,4.6,1.361c0.006,0.158,0.012,0.318,0.019,0.479
				c-0.47,0.289-0.917,0.623-1.41,0.863c-2.41,1.17-4.802,2.383-7.266,3.432c-0.923,0.393-2.104,0.721-3.023,0.494
				c-3.599-0.889-7.14-2.008-10.702-3.041C355.292,230.438,355.269,230.227,355.245,230.014z"/>
			<path fill-rule="evenodd" clip-rule="evenodd" fill="#3B2A57" d="M374.523,226.588c0.799-0.549,1.091-0.811,1.43-0.973
				c1.678-0.795,3.486-1.379,5.029-2.377c3.053-1.975,6.084-1.766,9.309-0.588c2.2,0.803,4.495,1.35,7.146,2.129
				c-0.763,0.557-1.088,0.877-1.478,1.066c-2.504,1.223-4.99,2.486-7.551,3.58c-0.857,0.365-1.983,0.562-2.859,0.34
				C382.022,228.863,378.544,227.766,374.523,226.588z"/>
			<path fill-rule="evenodd" clip-rule="evenodd" fill="#3B2A57" d="M340.977,225.939c0.823-0.42,1.4-0.742,1.998-1.016
				c2.328-1.064,4.624-2.211,7.01-3.121c1.091-0.414,2.444-0.684,3.541-0.43c3.116,0.723,6.164,1.746,9.234,2.662
				c0.202,0.061,0.37,0.232,0.929,0.6c-1.585,0.754-2.904,1.393-4.23,2.014c-1.58,0.742-3.119,1.611-4.766,2.16
				c-1.158,0.385-2.541,0.66-3.686,0.395c-3.059-0.713-6.044-1.738-9.053-2.658C341.7,226.469,341.487,226.262,340.977,225.939z"/>
			<path fill-rule="evenodd" clip-rule="evenodd" fill="#3B2A57" d="M382.655,221.135c-2.113,1.027-4.295,1.939-6.324,3.115
				c-2.752,1.594-5.438,1.578-8.346,0.469c-2.311-0.885-4.743-1.447-7.122-2.15c-0.019-0.158-0.039-0.316-0.058-0.475
				c1.856-0.883,3.796-1.623,5.552-2.674c3.389-2.027,6.772-2.039,10.363-0.629c1.909,0.75,3.94,1.186,5.917,1.762
				C382.644,220.746,382.649,220.939,382.655,221.135z"/>
			<path fill-rule="evenodd" clip-rule="evenodd" fill="#3B2A57" d="M347.193,218.135c0.483-0.262,0.952-0.557,1.452-0.781
				c2.179-0.971,4.34-1.986,6.561-2.852c0.998-0.387,2.193-0.809,3.174-0.607c3.459,0.715,6.863,1.695,10.24,2.562
				c-0.039,0.408-0.016,0.588-0.064,0.611c-3.15,1.469-6.301,2.936-9.469,4.371c-0.297,0.135-0.714,0.15-1.035,0.066
				c-3.628-0.924-7.248-1.877-10.869-2.822C347.187,218.5,347.189,218.316,347.193,218.135z"/>
			<path fill-rule="evenodd" clip-rule="evenodd" fill="#3B2A57" d="M585.897,271.916c-2.816,3.543-4.14,4.002-7.984,2.922
				c-3.816-1.072-7.633-2.137-11.437-3.248c-0.729-0.213-1.402-0.619-2.19-0.977c3.463-3.678,4.729-3.947,8.079-2.91
				c3.829,1.188,7.727,2.156,11.581,3.266C584.611,271.16,585.212,271.578,585.897,271.916z"/>
			<path fill-rule="evenodd" clip-rule="evenodd" fill="#3B2A57" d="M355.218,213.42c-3.479,1.391-6.95,2.795-10.44,4.15
				c-0.343,0.133-0.82,0.043-1.2-0.066c-3.221-0.924-6.434-1.875-9.648-2.818c-0.006-0.148-0.012-0.297-0.017-0.445
				c0.433-0.219,0.854-0.461,1.3-0.652c1.709-0.736,3.531-1.279,5.119-2.215c5.375-3.166,9.882,0.602,14.772,1.248
				C355.142,212.887,355.179,213.154,355.218,213.42z"/>
			<path fill-rule="evenodd" clip-rule="evenodd" fill="#3B2A57" d="M564.871,266.006c-2.577,3.061-5.233,4.018-8.778,2.729
				c-3.441-1.254-7.052-2.041-10.57-3.094c-0.552-0.164-1.012-0.645-1.513-0.98c0.366-0.422,0.703-0.871,1.102-1.26
				c2.119-2.061,4.483-2.217,7.238-1.283c3.41,1.152,6.94,1.947,10.405,2.938C563.437,265.25,564.063,265.637,564.871,266.006z"/>
			<path fill-rule="evenodd" clip-rule="evenodd" fill="#3B2A57" d="M544.878,260.525c-2.446,2.338-4.712,3.973-8.192,2.705
				c-3.277-1.191-6.715-1.939-10.071-2.912c-0.76-0.221-1.482-0.564-2.246-0.861c1.321-2.324,4.225-3.814,6.499-3.232
				c4.166,1.068,8.298,2.262,12.434,3.438C543.81,259.809,544.255,260.178,544.878,260.525z"/>
			<path fill-rule="evenodd" clip-rule="evenodd" fill="#3B2A57" d="M525.224,255.035c-2.59,2.463-5.074,3.803-8.531,2.537
				c-3.113-1.139-6.381-1.854-9.572-2.783c-0.648-0.189-1.26-0.502-1.911-0.766c1.265-2.117,4.396-3.717,6.416-3.191
				c4.108,1.066,8.189,2.24,12.272,3.402C524.312,254.35,524.663,254.689,525.224,255.035z"/>
			<path fill-rule="evenodd" clip-rule="evenodd" fill="#3B2A57" d="M506.901,249.896c-2.686,2.229-5.099,3.799-8.578,2.475
				c-2.93-1.115-6.042-1.748-9.062-2.629c-0.691-0.201-1.34-0.543-2.344-0.961c2.543-1.896,4.609-3.691,7.801-2.695
				c3.381,1.055,6.829,1.895,10.234,2.871C505.571,249.135,506.128,249.518,506.901,249.896z"/>
			<path fill-rule="evenodd" clip-rule="evenodd" fill="#3B2A57" d="M468.951,243.678c2.687-1.709,4.758-3.555,7.928-2.537
				c3.261,1.045,6.596,1.859,9.892,2.799c0.529,0.15,1.028,0.414,1.938,0.787c-2.554,1.703-4.477,3.688-7.619,2.721
				c-3.453-1.064-6.953-1.975-10.426-2.973C470.231,244.352,469.838,244.096,468.951,243.678z"/>
			<path fill-rule="evenodd" clip-rule="evenodd" fill="#3B2A57" d="M471.3,239.959c-2.597,1.779-4.806,3.588-8.109,2.449
				c-2.971-1.025-6.044-1.748-9.065-2.623c-0.584-0.17-1.138-0.441-2.118-0.832c2.571-1.576,4.561-3.396,7.46-2.633
				c3.481,0.916,6.946,1.895,10.41,2.877C470.296,239.314,470.664,239.611,471.3,239.959z"/>
			<path fill-rule="evenodd" clip-rule="evenodd" fill="#3B2A57" d="M435.489,234.119c2.494-1.451,4.514-3.33,7.586-2.391
				c3.045,0.932,6.139,1.701,9.207,2.562c0.543,0.152,1.058,0.412,2.007,0.791c-2.294,1.393-4.058,3.299-6.602,2.744
				c-3.799-0.828-7.518-2.025-11.266-3.084C436.175,234.674,435.971,234.447,435.489,234.119z"/>
			<path fill-rule="evenodd" clip-rule="evenodd" fill="#3B2A57" d="M437.627,230.654c-2.76,2.004-5.351,3.307-8.732,2.057
				c-2.987-1.104-6.122-1.812-9.688-2.838c2.544-1.678,4.596-3.311,7.344-2.666c3.391,0.795,6.727,1.828,10.078,2.787
				C436.953,230.088,437.221,230.379,437.627,230.654z"/>
			<path fill-rule="evenodd" clip-rule="evenodd" fill="#3B2A57" d="M404.06,225.039c2.715-1.779,5.432-3.074,8.889-1.734
				c2.72,1.055,5.617,1.648,8.938,2.586c-2.072,1.541-3.936,3.043-5.882,2.74c-4.079-0.635-8.052-1.934-12.069-2.961
				C403.977,225.459,404.019,225.25,404.06,225.039z"/>
			<path fill-rule="evenodd" clip-rule="evenodd" fill="#3B2A57" d="M389.259,220.846c2.608-1.389,5.071-3.008,8.399-1.771
				c2.8,1.039,5.755,1.658,8.688,2.738c-1.794,1.311-3.617,2.912-5.82,2.527c-3.804-0.668-7.516-1.867-11.266-2.844
				C389.261,221.279,389.259,221.062,389.259,220.846z"/>
			<path fill-rule="evenodd" clip-rule="evenodd" fill="#3B2A57" d="M391.419,217.738c-2.929,1.867-5.656,3.078-9.039,1.789
				c-2.539-0.965-5.229-1.531-7.866-2.51c2.119-1.467,4.229-2.988,6.919-2.383c3.113,0.703,6.166,1.674,9.24,2.549
				C390.871,217.238,391.029,217.441,391.419,217.738z"/>
			<path fill-rule="evenodd" clip-rule="evenodd" fill="#3B2A57" d="M376.87,213.906c-2.562,1.375-5.026,2.879-8.254,1.717
				c-2.658-0.955-5.433-1.59-8.139-2.586c2.577-1.607,5.051-3.084,8.255-1.994c2.667,0.906,5.425,1.553,8.142,2.314
				C376.872,213.539,376.872,213.723,376.87,213.906z"/>
			<path fill-rule="evenodd" clip-rule="evenodd" fill="#3B2A57" d="M362.944,209.764c-2.804,1.5-5.298,2.992-8.513,1.854
				c-2.562-0.908-5.226-1.539-8.387-2.449c2.678-1.371,4.804-2.857,7.46-2.271c2.877,0.637,5.696,1.545,8.536,2.354
				C362.292,209.32,362.509,209.51,362.944,209.764z"/>
		</g>
	</g>
</g>
<g>
	<path fill="#271C3A" d="M524.973,389.059c4.88,5.795,32.022,14.639,41.781,10.064c9.76-4.574,25.01-31.718,32.938-42.392
		c7.427-9.998,10.871-16.027,7.015-17.079c-3.354-0.915-23.483,5.185-32.633,5.489c-9.148,0.305-51.801,25.276-54.896,27.753
		C517.653,374.114,519.903,383.038,524.973,389.059z"/>
	<path fill="#3B2A57" d="M608.842,342.092c0.609-2.745-9.455-2.439-17.994,15.25c-8.539,17.688-12.199,36.597-24.397,39.036
		c-12.2,2.439-37.817-2.745-43.612-11.283c-5.795-8.541-5.489-16.47,0.915-29.583c6.404-13.115,12.199-23.179,13.724-26.533
		c1.525-3.355,70.413,5.684,71.06,7.624C609.146,338.433,608.842,342.092,608.842,342.092z"/>
	<path fill="#4E3874" d="M583.224,322.879c-9.455-2.745-26.533-5.185-29.889-4.88c-3.354,0.306-14.028,3.355-17.383,15.858
		c-3.354,12.505-6.405,27.448-4.575,30.498s24.094,12.81,30.803,9.759c6.709-3.049,34.463-31.412,38.732-34.157
		c4.27-2.744,6.404-3.965,7.624-3.66C609.756,336.603,592.678,325.623,583.224,322.879z"/>
	<path fill="#3B2A57" d="M574.379,320.744c-6.1,0.914-11.284,5.185-5.794,7.318c5.489,2.136,7.624,1.221,9.454,0
		c1.829-1.22,8.539-3.659,8.539-3.659"/>
	<path fill="#6EBF67" d="M575.294,322.879c0.915-0.915,3.602-3.437,6.71-2.745c2.744,0.61,4.574,2.745,4.574,3.66
		s-3.66,2.744-7.015,1.524C577.253,324.479,575.294,322.879,575.294,322.879z"/>
</g>
<g>
	<path fill="#4E3874" d="M264.663,336.537c2.199-0.954,4.027-2.304,6.087-3.646c1.782-1.161,3.813-2.914,4.484-5.083
		c0.642-1.96,0.869-4.022,0.771-6.065c-0.359-7.579-1.997-17.674-3.761-25.034l-14.951,7.775L264.663,336.537z"/>
	<path fill="#6EBF67" d="M224.101,272.188c0,21.141-18.208,38.277-40.669,38.277s-40.669-17.137-40.669-38.277
		c0-21.14,18.208-38.276,40.669-38.276c13.133,0,24.812,6.456,32.248,15.549c3.936-0.298,16.182-2.933,17.392-0.597
		C235.69,253.922,224.101,266.183,224.101,272.188z"/>
	<path fill="#4E3874" d="M233.178,248.951c0,0,4.679,5.893,5.575,20.246c0.897,14.354-18.839,5.383-18.839,5.383l-11.064-20.633
		L233.178,248.951z"/>
	
		<ellipse transform="matrix(0.9823 -0.1875 0.1875 0.9823 -43.2031 45.8914)" fill="#6EBF67" cx="220.947" cy="251.286" rx="12.451" ry="1.525"/>
	
		<ellipse transform="matrix(0.9823 -0.1875 0.1875 0.9823 -42.7951 46.9239)" fill="#3B2A57" cx="226.658" cy="249.691" rx="4.162" ry="0.844"/>
	<ellipse fill="#4E3874" cx="182.982" cy="273.833" rx="37.828" ry="35.436"/>
	
		<ellipse transform="matrix(-0.9087 0.4174 -0.4174 -0.9087 621.8593 467.4681)" fill="#6EBF67" cx="259.813" cy="301.732" rx="13.34" ry="3.489"/>
	<ellipse fill="#3B2A57" cx="183.73" cy="275.477" rx="29.306" ry="26.316"/>
	
		<ellipse transform="matrix(0.7757 -0.6311 0.6311 0.7757 -161.6799 214.1595)" fill="#6EBF67" cx="220.476" cy="334.559" rx="48.761" ry="39.721"/>
	
		<ellipse transform="matrix(0.7757 -0.6311 0.6311 0.7757 -162.0721 214.806)" fill="#4E3874" cx="221.185" cy="335.43" rx="46.568" ry="38.164"/>
	
		<ellipse transform="matrix(0.7574 -0.653 0.653 0.7574 -165.6353 230.6687)" fill="#3B2A57" cx="227.576" cy="338.217" rx="35.966" ry="29.301"/>
	<path fill="#6EBF67" d="M174.16,330.5c0.3,1.495,2.394,3.804,2.394,5.98l1.495-5.98"/>
	<path fill="#6EBF67" d="M202.569,296.11c1.495,0.3,2.99,1.496,4.784,1.196l-15.25,10.766c0,0-1.794-2.691,0.598-4.785
		C195.094,301.194,202.569,296.11,202.569,296.11z"/>
	
		<ellipse transform="matrix(-0.9087 0.4175 -0.4175 -0.9087 630.648 459.4898)" fill="#3B2A57" stroke="#231F20" stroke-miterlimit="10" cx="265.069" cy="298.719" rx="5.926" ry="2.256"/>
	<path fill="#271C3A" d="M41.09,349.04c-2.99-1.794-11.363-8.672,18.242-37.38c29.604-28.707,68.479-41.565,80.44-47.845
		c11.961-6.28,10.167-19.736,34.986-27.512c24.82-7.775,40.669,7.177,47.847,14.354l8.074-2.392c0,0-21.83-26.913-49.342-21.232
		c-27.512,5.682-79.543,36.782-79.543,36.782s-44.258,27.212-60.406,45.752c-16.147,18.54-16.746,34.39-10.167,37.679
		S41.09,349.04,41.09,349.04z"/>
	
		<ellipse transform="matrix(0.7758 -0.631 0.631 0.7758 -163.5512 220.9395)" fill="#4E3874" cx="229.088" cy="340.588" rx="15.983" ry="11.587"/>
	<g>
		<path fill="#538F4D" d="M199.28,299.699c-10.466,8.673-16.926,17.634-22.128,30.995c-0.375,1.022-1.302,1.602-2.135,1.313l0,0
			c-0.832-0.29-1.274-1.357-0.926-2.405c4.863-13.681,13.824-24.819,23.693-33.192c1.495-1.196,3.588-2.094,4.485-0.599
			C202.904,296.869,200.418,299.001,199.28,299.699z"/>
	</g>
	<path fill="#3B2A57" d="M259.685,301.193c-15.249-14.651-29.903-20.633-51.732-12.559s-26.614,20.334-38.575,29.903
		s-60.106,31.698-82.535,38.576c-22.426,6.878-41.266,7.476-49.041,1.794c-7.774-5.682-22.129-14.652-13.755-28.707
		c6.378-10.707,33.491-51.734,120.81-92.103c35.207-16.278,61.004-20.335,86.123,9.868l-0.299,0.597
		c-19.139-18.54-31.399-22.727-51.734-20.035c-20.334,2.692-53.527,23.624-81.936,40.071
		c-28.408,16.446-72.964,56.219-66.685,73.264c6.28,17.045,74.759-3.887,119.017-32.895c44.257-29.006,62.498-38.575,85.822-35.884
		c23.325,2.691,31.996,17.644,35.29,23.16"/>
</g>
</svg>
